<?xml version="1.0" encoding="utf-8"?>
<!-- Generator: Adobe Illustrator 27.5.0, SVG Export Plug-In . SVG Version: 6.00 Build 0)  -->
<svg version="1.1" id="Layer_1" xmlns="http://www.w3.org/2000/svg" xmlns:xlink="http://www.w3.org/1999/xlink" x="0px" y="0px"
	 viewBox="0 0 1024 1024" style="enable-background:new 0 0 1024 1024;" xml:space="preserve">
<path style="fill:#FEFEFE;" d="M0,0h1024v1024H0V0z"/>
<path style="fill:#CCD6FB;" d="M855.642,764.544c1.618-0.184,3.51-0.226,5.108,0.115c2.18,0.466,4.429,2.283,5.539,4.18
	c1.332,2.276,1.736,4.855,0.961,7.396c-0.902,2.956-3.42,5.074-6.073,6.443c-1.672,0.218-3.326,0.436-5.001,0.118
	c-2.197-0.416-4.285-1.896-5.531-3.752c-1.665-2.483-1.889-5.076-1.184-7.935C850.314,767.648,852.77,766.23,855.642,764.544z"/>
<path style="fill:#CCD6FB;" d="M731.393,576.072c1.223,0.131,2.57,0.23,3.722,0.683c2.079,0.817,4.375,3.055,5.294,5.075
	c1.111,2.443,1.243,4.591,0.162,7.089c-1.493,3.448-3.927,4.946-7.284,6.354c-2.146-0.083-4.118-0.224-6.037-1.287
	c-2.447-1.356-4.017-3.694-4.679-6.38c-0.464-1.883-0.299-4.799,0.755-6.456C725.375,577.925,727.824,576.776,731.393,576.072z"/>
<path style="fill:#CCD6FB;" d="M206.04,609.076c1.485-0.109,3.64-0.428,5.069,0.027c2.936,0.934,5.199,2.793,6.553,5.6
	c1.045,2.167,1.11,4.792,0.35,7.047c-1.182,3.504-3.395,5.034-6.611,6.615c-1.439,0.094-3.206,0.366-4.611,0.006
	c-2.435-0.624-4.847-2.614-6.083-4.757c-1.452-2.515-1.903-5.734-1.035-8.525C200.625,612.028,203.347,610.425,206.04,609.076z"/>
<path style="fill:#CCD6FB;" d="M178.943,215.571c2.042-0.152,4.679-0.392,6.599,0.341c2.694,1.03,4.73,3.274,5.88,5.874
	c1.053,2.379,0.879,5.473-0.149,7.84c-1.307,3.011-3.762,4.832-6.732,6.014c-1.243,0.179-2.488,0.163-3.727-0.047
	c-3.043-0.517-5.695-2.513-7.344-5.095c-1.416-2.218-1.602-5.793-0.848-8.248C173.688,218.781,175.917,217.229,178.943,215.571z"/>
<path style="fill:#CCD6FB;" d="M683.681,131.12c2.062-0.149,4.511,0.048,6.35,1.051c2.896,1.58,5.161,4.695,6.084,7.834
	c0.829,2.817,0.245,6.308-1.199,8.837c-1.843,3.23-4.249,4.236-7.639,5.197c-2.088,0.119-4.278,0.217-6.183-0.769
	c-3.27-1.693-5.573-4.351-6.538-7.915c-0.7-2.582-0.137-6.746,1.199-9.049C677.478,133.337,680.479,131.894,683.681,131.12z"/>
<path style="fill:#CCD6FB;" d="M158.851,692.835l0.149,0.57l-0.651,0.26c-6.479,2.651-10.722,7.238-13.342,13.692
	c-2.829,6.964-2.907,14.826,0.236,21.704c2.94,6.433,7.978,11.75,14.749,14.097c1.661,0.576,3.5,1.129,5.258,1.258
	c2.467,0.182,5.097-0.489,7.247,0.76l-5.75,1.905c-7.291,1.653-14.088-0.047-20.247-4.181c-6.161-4.135-11.015-10.811-12.231-18.209
	c-1.185-7.204,0.777-15.018,5.05-20.914C144.117,697.157,151.016,694.201,158.851,692.835z"/>
<path style="fill:#F4AE25;" d="M304.113,207.61c-7.199,0.606-13.803,0.121-20.211-3.544c-7.38-4.222-13.702-11.69-15.799-20.033
	c-1.993-7.926-0.713-16.338,3.52-23.301c4.631-7.619,11.257-12.418,19.867-14.583c-3.965,5.48-7.517,10.319-9.639,16.851
	l-0.229,0.679c-2.56,7.925-1.023,18.087,2.718,25.37l1.753,2.911l0.419,0.676c2.978,4.647,7.519,8.119,12.094,11.056
	C300.57,204.952,302.598,205.788,304.113,207.61z"/>
<path style="fill:#F4AE25;" d="M868.643,684.52c-5.734,1.629-12.547,1.787-18.411,0.749c-9.826-1.741-19.282-8.173-24.982-16.308
	c-6.282-8.966-8.939-20.152-7.014-30.959c1.893-10.635,8.062-20.17,16.956-26.295c9.509-6.548,20.694-8.175,31.903-6.109
	l-0.676,0.405c-2.317,1.341-5.115,1.744-7.51,3.015c-10.018,5.315-17.306,13.639-20.504,24.607l-0.961,4.625l-0.139,0.831
	c-1.648,10.578,1.25,21.293,7.568,29.839c4.017,5.433,9.857,10.392,16.257,12.726C863.476,682.502,866.582,683.095,868.643,684.52z"
	/>
<path style="fill:#CCD6FB;" d="M831.604,286.813c-5.839,1.344-12.936,1.873-18.872,0.868c-5.335-0.904-10.04-2.03-14.968-4.343
	c-11.559-5.426-21.528-15.999-25.709-28.087c-4.615-13.342-4.308-28.584,2.041-41.335c6.189-12.431,17.075-21.302,30.154-25.595
	c8.924-2.93,18.059-3.246,27.268-1.59c-2.315,1.933-9.122,1.842-12.499,2.775c-18.068,4.994-33.29,21.1-35.017,40.175
	c-1.222,13.505,1.724,27.691,10.724,38.214c9.156,10.706,20.909,16.56,34.82,18.124
	C830.497,286.126,830.847,286.261,831.604,286.813z"/>
<path style="fill:#F6AF86;" d="M638.8,378.959c5.932,0.112,10.744,0.537,15.182,4.95c3.716,3.694,5.438,9.429,5.371,14.591
	c-0.15,11.514-4.992,20.969-13.198,28.925c-4.103,3.977-10.24,7.796-16.155,7.442c-2.749-0.165-5.209-1.079-7.497-2.577
	c-0.68-5.885-0.298-12.264-0.314-18.206l0.25-26.545C628.313,385.191,633.522,382.452,638.8,378.959z"/>
<path style="fill:#F6AF86;" d="M398.2,376.116c1.541,3.114,0.088,9.886,0.023,13.386l-0.202,27.487
	c-0.018,4.407-0.478,9.408,0.152,13.751c-3.902,3.156-6.784,4.653-11.878,4.174c-8.433-0.793-16.253-6.634-21.422-13.051
	c-5.197-6.453-8.237-15.766-7.18-24.035c0.718-5.621,3.309-11.654,8.047-15.031c4.287-3.054,9.183-4.054,14.346-3.197
	c0.951,0.157,1.839,0.286,2.805,0.312l0.985,0.02c3.821,3.459,9.417,5.625,14.355,6.964L398.2,376.116z"/>
<path style="fill:#E6E8F9;" d="M158.851,692.835c4.894-1.617,12.687,0.274,17.114,2.563c6.794,3.513,11.686,9.213,13.847,16.563
	c2.079,7.074,0.794,14.857-2.831,21.218c-2.911,5.107-8.483,9.886-14.054,11.914l-0.43,0.083c-2.15-1.249-4.78-0.578-7.247-0.76
	c-1.758-0.129-3.597-0.682-5.258-1.258c-6.771-2.347-11.809-7.664-14.749-14.097c-3.143-6.878-3.065-14.74-0.236-21.704
	c2.62-6.454,6.863-11.041,13.342-13.692l0.651-0.26L158.851,692.835z"/>
<path style="fill:#FBCF33;" d="M291.49,146.149c8.106-1.991,17.703-0.564,24.839,3.778c6.582,4.005,12.057,10.882,13.815,18.479
	l0.455,2.594l0.139,0.803c1.323,8.123-0.283,16.58-5.15,23.275c-5.39,7.415-12.607,10.93-21.475,12.532
	c-1.515-1.822-3.543-2.658-5.507-3.918c-4.575-2.937-9.116-6.409-12.094-11.056l-0.419-0.676l-1.753-2.911
	c-3.741-7.283-5.278-17.445-2.718-25.37l0.229-0.679C283.973,156.468,287.525,151.629,291.49,146.149z"/>
<path style="fill:#8A2C79;" d="M753.568,514.483c-6.78,0.014-16.866,1.293-23.077-1.174c-3.796-1.509-6.994-4.941-8.534-8.679
	c-0.786-1.909-1.202-4.007-1.279-6.065l0.078-69.506l-0.245-41.947c-0.023-6.575-0.353-13.313-0.006-19.862
	c0.103-1.962,0.7-3.949,1.466-5.75c1.812-4.262,5.391-8.271,9.799-9.893l0.73-0.252c4.124-1.454,9.383-0.903,13.734-0.912
	c-3.893,3.423-7.456,6.555-9.318,11.557l-0.234,0.604c-1.271,3.537-0.947,8.327-0.973,12.089l0.01,20.539l0.087,50.408
	l-0.129,29.263c-0.047,5.952-0.394,12.08,0.043,18.009c0.2,2.706,0.964,5.111,2.183,7.532c2.052,4.074,5.122,7.69,9.097,10.001
	C749.175,511.71,751.61,512.916,753.568,514.483z"/>
<path style="fill:#FBCF33;" d="M867.095,605.598c10.268,2.169,19.526,7.73,25.379,16.611c5.857,8.888,8.127,20.788,5.895,31.237
	c-2.287,10.708-8.784,20.024-18.004,25.887c-3.367,2.14-7.768,4.495-11.722,5.187c-2.061-1.425-5.167-2.018-7.513-2.874
	c-6.4-2.334-12.24-7.293-16.257-12.726c-6.318-8.546-9.216-19.261-7.568-29.839l0.139-0.831l0.961-4.625
	c3.198-10.968,10.486-19.292,20.504-24.607c2.395-1.271,5.193-1.674,7.51-3.015L867.095,605.598z"/>
<path style="fill:#E6E8F9;" d="M831.518,186.731c11.313,1.69,22.872,10.434,29.487,19.441c8.304,11.307,11.493,25.564,9.305,39.374
	c-2.02,12.753-9.059,24.733-19.544,32.386c-4.986,3.64-12.877,8.447-19.162,8.881c-0.757-0.552-1.107-0.687-2.058-0.794
	c-13.911-1.564-25.664-7.418-34.82-18.124c-9-10.523-11.946-24.709-10.724-38.214c1.727-19.075,16.949-35.181,35.017-40.175
	C822.396,188.573,829.203,188.664,831.518,186.731z"/>
<path style="fill:#B0448B;" d="M746.234,350.443l115.932,0.024l32.901,0.015c4.779,0.004,10.346-0.557,15.05,0.126
	c4.168,0.606,8.456,2.67,11.412,5.68c2.788,2.838,5.271,7.112,5.853,11.081c0.67,4.571,0.269,9.739,0.305,14.38l0.123,28.79
	l-0.077,55.663l-0.015,27.151c-0.192,6.231-2.867,11.534-7.413,15.685c-2.817,2.572-7.07,4.916-10.878,5.397
	c-6.569,0.83-13.692,0.313-20.335,0.308l-38.75-0.03l-62.072,0.051l-34.702-0.281c-1.958-1.567-4.393-2.773-6.568-4.038
	c-3.975-2.311-7.045-5.927-9.097-10.001c-1.219-2.421-1.983-4.826-2.183-7.532c-0.437-5.929-0.09-12.057-0.043-18.009l0.129-29.263
	l-0.087-50.408l-0.01-20.539c0.026-3.762-0.298-8.552,0.973-12.089l0.234-0.604C738.778,356.998,742.341,353.866,746.234,350.443z"
	/>
<path style="fill:#F4AE25;" d="M752.502,384.577c4.813-0.59,9.978-0.14,14.83-0.104c4.235,0.031,8.711-0.314,12.918,0.091
	c1.677,0.162,3.071,1.311,4,2.66c1.59,2.308,1.697,6.071,1.213,8.723c-0.516,2.826-2.101,3.939-4.394,5.441l-26.052,0.085
	c-2.204-0.207-4.032-1.354-5.393-3.057c-1.646-2.059-1.763-4.939-1.377-7.441C748.746,387.742,749.96,386.529,752.502,384.577z"/>
<path style="fill:#E05892;" d="M753.465,422.638l18.952,0.005c3.751,0.027,8.18-0.335,11.833,0.407
	c2.011,0.409,3.685,1.764,4.711,3.522c1.002,1.716,0.975,4.42,0.42,6.279c-0.71,2.378-2.627,3.963-4.689,5.164l-23.04,0.082
	c-2.908-0.01-7.223,0.478-9.902-0.616c-1.571-0.641-2.989-2.408-3.56-3.967c-0.89-2.431-0.848-4.864,0.266-7.222
	C749.528,424.022,751.202,423.405,753.465,422.638z"/>
<path style="fill:#63AAE4;" d="M803.829,384.553l27.671-0.017c2.629,0.125,4.917,1.175,6.596,3.214
	c1.505,1.829,1.998,4.602,1.654,6.91c-0.441,2.954-2.625,4.679-4.93,6.276c-4.305,0.989-9.458,0.502-13.887,0.506
	c-4.816,0.004-10.185,0.453-14.933-0.291c-2.322-0.364-4.204-1.122-5.535-3.151c-1.603-2.444-1.97-5.512-1.252-8.344
	C799.865,387.082,801.639,385.803,803.829,384.553z"/>
<path style="fill:#F4AE25;" d="M864.777,455.689l20.235-0.083c4.14-0.005,9.843-0.647,13.738,0.994
	c1.803,0.759,3.69,2.41,4.402,4.262c0.825,2.143,0.61,4.806-0.402,6.847c-1.354,2.733-3.342,4.361-6.199,5.297
	c-5.953,0.316-31.353,1.581-35.301-0.616c-1.618-0.9-2.885-2.943-3.305-4.697c-0.608-2.534-0.388-5.967,1.028-8.231
	C860.438,457.122,862.177,456.321,864.777,455.689z"/>
<path style="fill:#DA7FC4;" d="M817.076,423.223l54.433-0.112l18.37,0.022c2.91,0.007,6.881-0.447,9.621,0.498
	c1.732,0.596,3.179,2.249,3.957,3.869c0.86,1.793,0.975,4.907,0.155,6.719c-0.975,2.152-3.115,3.329-5.24,4.055l-81.502,0.138
	c-1.573-0.898-3.087-1.672-4.116-3.214l-0.282-0.448c-1.083-1.688-1.212-3.392-0.933-5.355c0.279-1.96,1.758-4.186,3.39-5.289
	C815.595,423.656,816.314,423.447,817.076,423.223z"/>
<path style="fill:#E05892;" d="M751.74,456.56l81.423,0.126c1.254,0.827,2.675,1.676,3.581,2.9c1.216,1.646,1.324,3.831,1.054,5.789
	c-0.438,3.191-1.929,4.52-4.39,6.344c-3.704,0.726-8.044,0.344-11.829,0.346l-20.374-0.004l-29.875-0.025
	c-5.468,0.004-11.13,0.297-16.58-0.038c-2.105-0.13-4.016-0.864-5.371-2.534c-1.652-2.038-2.266-4.348-1.847-6.964
	C747.961,459.827,749.761,458.186,751.74,456.56z"/>
<path style="fill:#2A1A66;" d="M383.876,379.932c-10.614-16.973-15.832-36.186-18.767-55.837
	c-3.372-22.578-4.148-54.419,10.062-73.58c6.752-9.105,14.677-13.206,25.781-14.851c0.156-15.488,5.102-26.875,12.409-40.266
	c5.697,5.824,11.542,12.296,16.573,18.698c2.193,2.792,3.795,6.312,6.163,8.863l4.449-7.739
	c12.621-19.94,34.95-31.377,57.379-36.327c36.154-7.977,78.898,1.146,109.91,20.92c-4.348,6.604-8.161,13.002-11.378,20.239
	l19.273-6.955c7.652,3.886,15.408,10.045,21.745,15.807c13.282,12.077,24.065,26.445,32.275,42.404
	c1.03,2.002,3.106,5.129,3.217,7.372c-4.077,7.969-10.82,13.409-17.532,19.07l-0.294,4.36c-0.552,22.562-5.258,45.254-12.61,66.56
	c-1.153,3.34-2.113,7.166-3.731,10.289c-5.278,3.493-10.487,6.232-16.361,8.58c-0.371-15.351,0.279-29.995-2.176-45.279
	c-8.848,3.646-17.308,6.382-26.805,7.848c-33.579,5.186-68.2-5.461-98.906-18.249l-17.237-7.375
	c-8.272-3.762-16.285-7.667-25.503-8.352c-6.031-0.448-13.183,1.159-18.731,3.5c-13.457,5.677-24.996,17.922-30.418,31.442
	l-3.425,11.338c-0.506,1.465-0.611,2.669-0.68,4.205c-0.035,0.78-0.166,1.43-0.395,2.175l0.037,7.324l0.031,10.78
	C393.293,385.557,387.697,383.391,383.876,379.932z"/>
<path style="fill:#F9BE93;" d="M398.163,368.792c-0.531-18.344,0.971-38.232,11.265-54.006c8.148-12.485,20.13-20.329,34.572-23.432
	c17.662-3.794,34.282,5.979,49.878,12.771c9.635,4.197,19.335,8.191,29.416,11.192c28.405,8.456,61.175,8.644,89.84,1.246
	c3.088,8.434,5.544,16.845,7.129,25.697c-8.848,3.646-17.308,6.382-26.805,7.848c-33.579,5.186-68.2-5.461-98.906-18.249
	l-17.237-7.375c-8.272-3.762-16.285-7.667-25.503-8.352c-6.031-0.448-13.183,1.159-18.731,3.5
	c-13.457,5.677-24.996,17.922-30.418,31.442l-3.425,11.338c-0.506,1.465-0.611,2.669-0.68,4.205
	C398.523,367.397,398.392,368.047,398.163,368.792z"/>
<path style="fill:#A98BEA;" d="M281.44,316.243l6.944,0.315c3.142,0.542,6.265,2.844,8.078,5.401
	c1.466,2.069,2.346,4.504,2.457,7.041l-0.003,40.693l-0.324,87.815l-0.144,43.827c-0.026,6.877,0.791,14.809-0.502,21.492
	c-0.67,3.463-2.62,5.978-5.506,7.915l-0.729,0.471c-1.451,0.95-2.662,1.261-4.372,1.361c-6.859,0.402-13.902,0.09-20.778,0.086
	l-37.572-0.043l-113.667,0.003c-5.274-0.043-8.961-0.103-13.262-3.585c-2.72-2.201-4.827-6.002-5.036-9.535
	c-0.7-11.866-0.044-24.11-0.042-36.018l0.022-73.915l0.009-54.328c0.005-8.763-0.721-18.305,0.218-26.977
	c0.331-3.058,1.473-5.729,3.63-7.977c1.569-1.635,3.931-3.29,6.229-3.635c4.614-0.693,10.052-0.161,14.743-0.166l32.245-0.092
	L281.44,316.243z"/>
<path style="fill:#9CD9D5;" d="M129.96,515.765c-0.811,0.14-0.532,0.122-1.31,0.147c-3.471,0.114-7.768,0.763-10.469-1.897
	c-1.189-1.17-1.711-1.806-1.811-3.515c-0.365-6.229-0.002-12.672,0.015-18.922l0.054-37.094l0.065-119.573l161.224-0.186
	l-0.167,126.867l0.027,31.696c0.007,5.432,0.32,11.059-0.014,16.462c-0.079,1.267-0.524,2.437-0.973,3.613l-1.51,0.733l-1.12,0.608
	c-3.155,1.831-10.248,0.981-13.97,0.987L129.96,515.765z"/>
<path style="fill:#2A1A66;" d="M169.293,390.58c-1.557-3.09-2.297-6.563-3.05-9.924c-1.504-6.715-3.09-15.419-1.057-22.137
	c1.186-3.915,3.585-7.718,7.286-9.645c9.344-4.867,23.632-3.417,33.259-0.122c8.159,2.793,19.268,9.005,23.023,17.205
	c2.028,4.428,0.581,11.31-1.2,15.643l-5.085,9.823c-1.041,0.541-0.552,0.524-1.432,0.327l-0.672-18.214
	c-11.029,4.166-23.138,7.768-34.944,4.764l-0.921-0.244c-4.542-1.164-8.231-3.084-12.257-5.423
	C169.689,377.3,169.898,385.281,169.293,390.58z"/>
<path style="fill:#FAD9B0;" d="M169.293,390.58c0.605-5.299,0.396-13.28,2.95-17.947c4.026,2.339,7.715,4.259,12.257,5.423
	l0.921,0.244c11.806,3.004,23.915-0.598,34.944-4.764l0.672,18.214c0.88,0.197,0.391,0.214,1.432-0.327
	c1.609,1.27,2.366,2.167,2.589,4.261c0.1,0.929,0.144,2.07-0.129,2.972c-0.731,2.422-3.192,4.123-4.22,6.404
	c-2.229,4.947-1.934,9.276-5.854,13.801c-1.696,1.957-3.571,3.988-5.873,5.21c-9.632,3.884-16.653,4.559-26.552,1.191
	c-3.987-2.414-7.282-6.128-9.572-10.148C168.579,407.604,167.059,398.935,169.293,390.58z"/>
<path style="fill:#EA4A61;" d="M182.43,425.262c9.899,3.368,16.92,2.693,26.552-1.191c0.178,1.755,0.432,3.524,0.422,5.288
	l2.421,9.102c16.012,2.872,33.015,8.279,42.998,22.13c2.121,2.944,4.098,7.015,4.78,10.574c0.892,4.657,0.431,10.043,0.445,14.781
	l-0.047,29.745l-130.041,0.074l-0.325-26.85c-0.067-5.99-0.736-12.6,0.959-18.385c1.551-5.296,4.682-9.871,8.518-13.78
	c7.351-7.491,16.874-11.06,26.71-13.991c4.988-1.486,9.939-2.966,15.189-2.993c0.838-2.219,1.03-4.753,1.282-7.102L182.43,425.262z"
	/>
<path style="fill:#FAD9B0;" d="M182.43,425.262c9.899,3.368,16.92,2.693,26.552-1.191c0.178,1.755,0.432,3.524,0.422,5.288
	l2.421,9.102c-0.793,2.431-2.897,4.13-5.109,5.294c-5.742,3.023-12.521,3.822-18.716,1.703l-5.188-2.319
	c-1.198-1.171-1.432-1.738-1.801-3.373c0.838-2.219,1.03-4.753,1.282-7.102L182.43,425.262z"/>
<path style="fill:#F6AF86;" d="M182.43,425.262c9.899,3.368,16.92,2.693,26.552-1.191c0.178,1.755,0.432,3.524,0.422,5.288
	c-2.473,1.35-4.685,2.416-7.404,3.22l-0.759,0.24c-5.279,1.589-13.711,1.485-18.948-0.155L182.43,425.262z"/>
<path style="fill:#ED2740;" d="M129.96,515.765l-0.325-26.85c-0.067-5.99-0.736-12.6,0.959-18.385
	c1.551-5.296,4.682-9.871,8.518-13.78c7.351-7.491,16.874-11.06,26.71-13.991c4.988-1.486,9.939-2.966,15.189-2.993
	c0.369,1.635,0.603,2.202,1.801,3.373c-10.793,4.696-25.118,14.265-29.686,25.561c-2.167,5.36-1.233,12.855-1.224,18.644l0.08,28.09
	l-14.309-0.02C135.161,515.415,132.402,515.166,129.96,515.765z"/>
<path style="fill:#FAD9B0;" d="M398.163,368.792c0.229-0.745,0.36-1.395,0.395-2.175c0.069-1.536,0.174-2.74,0.68-4.205
	l3.425-11.338c5.422-13.52,16.961-25.765,30.418-31.442c5.548-2.341,12.7-3.948,18.731-3.5c9.218,0.685,17.231,4.59,25.503,8.352
	l17.237,7.375c30.706,12.788,65.327,23.435,98.906,18.249c9.497-1.466,17.957-4.202,26.805-7.848
	c2.455,15.284,1.805,29.928,2.176,45.279l-0.25,26.545c0.016,5.942-0.366,12.321,0.314,18.206
	c-0.089,7.456-0.329,14.977-1.61,22.337c-4.23,24.291-16.28,44.507-33.771,61.564c-4.145,4.042-8.384,7.562-13.178,10.805
	c-2.448,1.656-5.812,3.231-7.939,5.211l-0.073,15.448l0.08,5.095c-2.766,1.416-5.237,3.506-8.022,5
	c-9.739,5.226-20.948,8.468-31.99,9.06c-24.073,1.292-50.963-8.725-68.82-24.801l-0.257-6.547l-0.007-1.857
	c-1.583-1.974-5.269-3.58-7.416-5.035c-4.29-2.908-8.645-6.101-12.532-9.538c-17.482-15.462-31.302-37.042-35.927-60.109
	c-1.872-9.336-2.2-18.723-2.868-28.183c-0.63-4.343-0.17-9.344-0.152-13.751l0.202-27.487c0.065-3.5,1.518-10.272-0.023-13.386
	L398.163,368.792z"/>
<path style="fill:#F6AF86;" d="M456.916,533.605l0.698,0.224c2.622,0.869,5.114,2.482,7.636,3.629
	c3.938,1.791,8.196,3.178,12.317,4.496c26.729,8.55,55.086,6.38,80.281-5.687l7.691-4.172c-0.034,5.1-0.436,10.521,0.393,15.56
	l0.08,5.095c-2.766,1.416-5.237,3.506-8.022,5c-9.739,5.226-20.948,8.468-31.99,9.06c-24.073,1.292-50.963-8.725-68.82-24.801
	l-0.257-6.547L456.916,533.605z"/>
<path style="fill:#3D4AAC;" d="M456.923,535.462l0.257,6.547c17.857,16.076,44.747,26.093,68.82,24.801
	c11.042-0.592,22.251-3.834,31.99-9.06c2.785-1.494,5.256-3.584,8.022-5l-0.013,52c1.115,0.996,2.623,1.137,4.041,1.449
	l36.798,13.538c8.92,4.083,18.363,7.312,27.542,10.78l45.887,17.076c12.625,4.58,25.97,8.842,38.005,14.812
	c24.919,12.362,43.549,33.924,53.292,59.843c6.834,18.18,10.808,38.022,13.868,57.146c4.845,30.28,7.343,61.132,7.61,91.795
	c0.112,12.886,0.234,26.175-1.096,38.995l-333.151,0.142l-94.885-0.111l-25.378-0.022c-4.102,0.017-8.748,0.525-12.769-0.113
	l-0.379-0.013c-6.434,0.74-13.448,0.253-19.941,0.25l-40.123-0.102l-21.469-0.083c-2.77-0.011-6.774,0.477-9.403-0.273
	c-1.86-12.479-1.465-25.62-1.477-38.218c-0.029-31.972,1.706-63.997,6.264-95.656c3.259-22.636,7.386-45.855,18.216-66.266
	c11.216-21.137,29.133-37.748,50.213-48.838c18.197-9.573,38.571-15.804,57.865-22.848c16.982-6.2,33.955-13.434,51.205-18.779
	l38.351-13.152c0.323-0.047,0.998-0.453,1.303-0.602l0.254-49.242C456.624,549.424,456.166,542.247,456.923,535.462z"/>
<path style="fill:#2A1A66;" d="M325.384,910.067l-8.286-0.26l6.152-142.791l0.534,0.234l8.742,108.5l1.957,23.804
	c0.22,3.229,0.819,7.074,0.37,10.24c-2.928,0.025-6.225-0.214-9.09,0.286L325.384,910.067z"/>
<path style="fill:#2A1A66;" d="M702.244,760.326c0.788,2.385,0.491,5.723,0.574,8.269l0.603,16.733l1.645,124.519l-15.191,0.032
	l-2.125-0.084c-0.532-1.627-0.167-3.482-0.035-5.161l1.033-11.715l7.502-73.081l4.03-40.749c0.494-4.041,0.691-8.294,1.434-12.279
	C702.119,764.633,702.183,762.533,702.244,760.326z"/>
<path style="fill:#F4AE25;" d="M455.085,606.102l0.41,0.405c0.893,1.034,1.319,2.308,1.969,3.493
	c1.286,2.349,2.887,4.647,4.554,6.75c10.913,13.77,26.026,23.504,43.682,25.593c17.075,2.021,34.022-3.174,47.33-13.964
	c7.478-6.062,12.387-13.899,17.01-22.18l36.798,13.538c-3.167,5.889-7.691,11.422-12.021,16.504
	c-7.044,8.267-14.852,16.318-23.683,22.695c-21.312,15.389-45.968,22.898-72.181,18.604c-34.959-5.728-62.323-30.418-82.219-58.286
	L455.085,606.102z"/>
<path style="fill:#F9BE93;" d="M456.923,535.462l0.257,6.547c17.857,16.076,44.747,26.093,68.82,24.801
	c11.042-0.592,22.251-3.834,31.99-9.06c2.785-1.494,5.256-3.584,8.022-5l-0.013,52c1.115,0.996,2.623,1.137,4.041,1.449
	c-4.623,8.281-9.532,16.118-17.01,22.18c-13.308,10.79-30.255,15.985-47.33,13.964c-17.656-2.089-32.769-11.823-43.682-25.593
	c-1.667-2.103-3.268-4.401-4.554-6.75c-0.65-1.185-1.076-2.459-1.969-3.493l-0.41-0.405c0.323-0.047,0.998-0.453,1.303-0.602
	l0.254-49.242C456.624,549.424,456.166,542.247,456.923,535.462z"/>
</svg>
