<?xml version="1.0" encoding="UTF-8" standalone="no"?>
<!-- Created with Inkscape (http://www.inkscape.org/) -->

<svg
   version="1.1"
   id="svg1095"
   xml:space="preserve"
   width="682.66669"
   height="682.66669"
   viewBox="0 0 682.66669 682.66669"
   xmlns="http://www.w3.org/2000/svg"
   xmlns:svg="http://www.w3.org/2000/svg"><defs
     id="defs1099"><clipPath
       clipPathUnits="userSpaceOnUse"
       id="clipPath1109"><path
         d="M 0,512 H 512 V 0 H 0 Z"
         id="path1107" /></clipPath></defs><g
     id="g1101"
     transform="matrix(1.3333333,0,0,-1.3333333,0,682.66667)"><g
       id="g1103"><g
         id="g1105"
         clip-path="url(#clipPath1109)"><g
           id="g1111"
           transform="translate(266.1016,330.752)"><path
             d="m 0,0 c 0,-5.579 -4.523,-10.102 -10.102,-10.102 -5.579,0 -10.101,4.523 -10.101,10.102 0,5.579 4.522,10.102 10.101,10.102 C -4.523,10.102 0,5.579 0,0"
             style="fill:#000000;fill-opacity:1;fill-rule:nonzero;stroke:none"
             id="path1113" /></g><path
           d="m 431.768,182.258 h -30.305 v 60.61 h 30.305 z"
           style="fill:none;stroke:#000000;stroke-width:15;stroke-linecap:round;stroke-linejoin:round;stroke-miterlimit:10;stroke-dasharray:none;stroke-opacity:1"
           id="path1115" /><path
           d="M 110.537,245.898 H 80.232 v 60.61 h 30.305 z"
           style="fill:none;stroke:#000000;stroke-width:15;stroke-linecap:round;stroke-linejoin:round;stroke-miterlimit:10;stroke-dasharray:none;stroke-opacity:1"
           id="path1117" /><g
           id="g1119"
           transform="translate(256,474.1951)"><path
             d="m 0,0 h 87.884 v -56.569 l -6.061,-20.203 h 53.539 c 0,64.65 -25.254,107.077 -25.254,107.077 H 0 -110.108 c 0,0 -25.254,-42.427 -25.254,-107.077 h 53.539 l -6.061,20.203 V 0 Z"
             style="fill:none;stroke:#000000;stroke-width:15;stroke-linecap:round;stroke-linejoin:round;stroke-miterlimit:10;stroke-dasharray:none;stroke-opacity:1"
             id="path1121" /></g><g
           id="g1123"
           transform="translate(286.3049,330.752)"><path
             d="m 0,0 c 0,-16.737 -13.568,-30.305 -30.305,-30.305 -16.737,0 -30.305,13.568 -30.305,30.305 0,16.737 13.568,30.305 30.305,30.305 C -13.568,30.305 0,16.737 0,0 Z"
             style="fill:none;stroke:#000000;stroke-width:15;stroke-linecap:round;stroke-linejoin:round;stroke-miterlimit:10;stroke-dasharray:none;stroke-opacity:1"
             id="path1125" /></g><g
           id="g1127"
           transform="translate(134.7805,326.7114)"><path
             d="M 0,0 H 40.407"
             style="fill:none;stroke:#000000;stroke-width:15;stroke-linecap:round;stroke-linejoin:round;stroke-miterlimit:10;stroke-dasharray:none;stroke-opacity:1"
             id="path1129" /></g><g
           id="g1131"
           transform="translate(401.46,258.5)"><path
             d="m 0,0 v -93.41 c 0,-11.16 -9.04,-20.21 -20.2,-20.21 h -14.14"
             style="fill:none;stroke:#000000;stroke-width:15;stroke-linecap:round;stroke-linejoin:round;stroke-miterlimit:10;stroke-dasharray:none;stroke-opacity:1"
             id="path1133" /></g><g
           id="g1135"
           transform="translate(311.56,206.5)"><path
             d="m 0,0 v 190.92 h 79.8 l 7.4,-51.8 c 1.8,-12.59 2.7,-25.29 2.7,-38 V 87"
             style="fill:none;stroke:#000000;stroke-width:15;stroke-linecap:round;stroke-linejoin:round;stroke-miterlimit:10;stroke-dasharray:none;stroke-opacity:1"
             id="path1137" /></g><g
           id="g1139"
           transform="translate(144.88,144.88)"><path
             d="m 0,0 h -14.14 c -11.16,0 -20.2,9.05 -20.2,20.21 v 23.41"
             style="fill:none;stroke:#000000;stroke-width:15;stroke-linecap:round;stroke-linejoin:round;stroke-miterlimit:10;stroke-dasharray:none;stroke-opacity:1"
             id="path1141" /></g><g
           id="g1143"
           transform="translate(110.54,223.5)"><path
             d="m 0,0 v 84.12 c 0,12.71 0.9,25.41 2.7,38 l 7.4,51.8 H 89.9 V -17"
             style="fill:none;stroke:#000000;stroke-width:15;stroke-linecap:round;stroke-linejoin:round;stroke-miterlimit:10;stroke-dasharray:none;stroke-opacity:1"
             id="path1145" /></g><g
           id="g1147"
           transform="translate(377.2195,326.7114)"><path
             d="M 0,0 H -40.406"
             style="fill:none;stroke:#000000;stroke-width:15;stroke-linecap:round;stroke-linejoin:round;stroke-miterlimit:10;stroke-dasharray:none;stroke-opacity:1"
             id="path1149" /></g><path
           d="M 334.793,47.907 H 177.208 v 37.376 h 157.585 z"
           style="fill:none;stroke:#000000;stroke-width:15;stroke-linecap:round;stroke-linejoin:round;stroke-miterlimit:10;stroke-dasharray:none;stroke-opacity:1"
           id="path1151" /><path
           d="M 311.559,7.5 H 200.441 v 40.407 h 111.118 z"
           style="fill:none;stroke:#000000;stroke-width:15;stroke-linecap:round;stroke-linejoin:round;stroke-miterlimit:10;stroke-dasharray:none;stroke-opacity:1"
           id="path1153" /><path
           d="M 175.187,176.197 H 256 v -60.61 h -80.813 z"
           style="fill:none;stroke:#000000;stroke-width:15;stroke-linecap:round;stroke-linejoin:round;stroke-miterlimit:10;stroke-dasharray:none;stroke-opacity:1"
           id="path1155" /><g
           id="g1157"
           transform="translate(255.4375,206.502)"><path
             d="M 0,0 H 111.68 V -121.219 H -110.555 V 0 h 75.576"
             style="fill:none;stroke:#000000;stroke-width:15;stroke-linecap:round;stroke-linejoin:round;stroke-miterlimit:10;stroke-dasharray:none;stroke-opacity:1"
             id="path1159" /></g><g
           id="g1161"
           transform="translate(284.2845,176.1972)"><path
             d="M 0,0 H 4.041"
             style="fill:none;stroke:#000000;stroke-width:15;stroke-linecap:round;stroke-linejoin:round;stroke-miterlimit:10;stroke-dasharray:none;stroke-opacity:1"
             id="path1163" /></g><g
           id="g1165"
           transform="translate(310.5488,176.1972)"><path
             d="M 0,0 H 4.041"
             style="fill:none;stroke:#000000;stroke-width:15;stroke-linecap:round;stroke-linejoin:round;stroke-miterlimit:10;stroke-dasharray:none;stroke-opacity:1"
             id="path1167" /></g><g
           id="g1169"
           transform="translate(336.813,176.1972)"><path
             d="M 0,0 H 4.041"
             style="fill:none;stroke:#000000;stroke-width:15;stroke-linecap:round;stroke-linejoin:round;stroke-miterlimit:10;stroke-dasharray:none;stroke-opacity:1"
             id="path1171" /></g><g
           id="g1173"
           transform="translate(284.2845,145.8923)"><path
             d="M 0,0 H 4.041"
             style="fill:none;stroke:#000000;stroke-width:15;stroke-linecap:round;stroke-linejoin:round;stroke-miterlimit:10;stroke-dasharray:none;stroke-opacity:1"
             id="path1175" /></g><g
           id="g1177"
           transform="translate(310.5488,145.8923)"><path
             d="M 0,0 H 4.041"
             style="fill:none;stroke:#000000;stroke-width:15;stroke-linecap:round;stroke-linejoin:round;stroke-miterlimit:10;stroke-dasharray:none;stroke-opacity:1"
             id="path1179" /></g><g
           id="g1181"
           transform="translate(336.813,145.8923)"><path
             d="M 0,0 H 4.041"
             style="fill:none;stroke:#000000;stroke-width:15;stroke-linecap:round;stroke-linejoin:round;stroke-miterlimit:10;stroke-dasharray:none;stroke-opacity:1"
             id="path1183" /></g><g
           id="g1185"
           transform="translate(284.2845,115.5874)"><path
             d="M 0,0 H 4.041"
             style="fill:none;stroke:#000000;stroke-width:15;stroke-linecap:round;stroke-linejoin:round;stroke-miterlimit:10;stroke-dasharray:none;stroke-opacity:1"
             id="path1187" /></g><g
           id="g1189"
           transform="translate(310.5488,115.5874)"><path
             d="M 0,0 H 4.041"
             style="fill:none;stroke:#000000;stroke-width:15;stroke-linecap:round;stroke-linejoin:round;stroke-miterlimit:10;stroke-dasharray:none;stroke-opacity:1"
             id="path1191" /></g><g
           id="g1193"
           transform="translate(336.813,115.5874)"><path
             d="M 0,0 H 4.041"
             style="fill:none;stroke:#000000;stroke-width:15;stroke-linecap:round;stroke-linejoin:round;stroke-miterlimit:10;stroke-dasharray:none;stroke-opacity:1"
             id="path1195" /></g><g
           id="g1197"
           transform="translate(227.7155,394.3923)"><path
             d="M 0,0 H 56.569"
             style="fill:none;stroke:#000000;stroke-width:15;stroke-linecap:round;stroke-linejoin:round;stroke-miterlimit:10;stroke-dasharray:none;stroke-opacity:1"
             id="path1199" /></g><g
           id="g1201"
           transform="translate(311.5589,397.42)"><path
             d="m 0,0 v 13.135 h -8.081 v 19.193 h -47.478 -47.478 V 13.135 h -8.081 V 0"
             style="fill:none;stroke:#000000;stroke-width:15;stroke-linecap:round;stroke-linejoin:round;stroke-miterlimit:10;stroke-dasharray:none;stroke-opacity:1"
             id="path1203" /></g><g
           id="g1205"
           transform="translate(200.4411,241.8577)"><path
             d="m 0,0 h 55.559 55.559"
             style="fill:none;stroke:#000000;stroke-width:15;stroke-linecap:round;stroke-linejoin:round;stroke-miterlimit:10;stroke-dasharray:none;stroke-opacity:1"
             id="path1207" /></g></g></g></g></svg>
