<?xml version="1.0" encoding="UTF-8" standalone="no"?>
<!-- Created with Inkscape (http://www.inkscape.org/) -->

<svg
   version="1.1"
   id="svg2697"
   xml:space="preserve"
   width="682.66669"
   height="682.66669"
   viewBox="0 0 682.66669 682.66669"
   xmlns="http://www.w3.org/2000/svg"
   xmlns:svg="http://www.w3.org/2000/svg"><defs
     id="defs2701"><clipPath
       clipPathUnits="userSpaceOnUse"
       id="clipPath2719"><path
         d="M 0,512 H 512 V 0 H 0 Z"
         id="path2717" /></clipPath></defs><g
     id="g2703"
     transform="matrix(1.3333333,0,0,-1.3333333,0,682.66667)"><g
       id="g2705"
       transform="translate(292.1709,117.4688)"><path
         d="M 0,0 24.31,24.31"
         style="fill:none;stroke:#000000;stroke-width:15;stroke-linecap:round;stroke-linejoin:round;stroke-miterlimit:10;stroke-dasharray:none;stroke-opacity:1"
         id="path2707" /></g><g
       id="g2709"
       transform="translate(295.1479,163.1113)"><path
         d="M 0,0 -24.31,-24.31"
         style="fill:none;stroke:#000000;stroke-width:15;stroke-linecap:round;stroke-linejoin:round;stroke-miterlimit:10;stroke-dasharray:none;stroke-opacity:1"
         id="path2711" /></g><g
       id="g2713"><g
         id="g2715"
         clip-path="url(#clipPath2719)"><g
           id="g2721"
           transform="translate(302.375,77.8901)"><path
             d="m 0,0 h 118.47 c 24.564,0 44.478,19.914 44.478,44.478 v 24.71"
             style="fill:none;stroke:#000000;stroke-width:15;stroke-linecap:round;stroke-linejoin:round;stroke-miterlimit:10;stroke-dasharray:none;stroke-opacity:1"
             id="path2723" /></g><g
           id="g2725"
           transform="translate(465.3228,321.6069)"><path
             d="m 0,0 v 32.125 c 0,24.564 -19.914,44.478 -44.478,44.478 h -368.867 c -24.564,0 -44.478,-19.914 -44.478,-44.478 v -231.364 c 0,-24.564 19.914,-44.478 44.478,-44.478 h 108.522"
             style="fill:none;stroke:#000000;stroke-width:15;stroke-linecap:round;stroke-linejoin:round;stroke-miterlimit:10;stroke-dasharray:none;stroke-opacity:1"
             id="path2727" /></g><g
           id="g2729"
           transform="translate(7.5,322.7979)"><path
             d="m 0,0 c 0,-44.512 36.084,-80.597 80.597,-80.597 h 0.926"
             style="fill:none;stroke:#000000;stroke-width:15;stroke-linecap:round;stroke-linejoin:round;stroke-miterlimit:10;stroke-dasharray:none;stroke-opacity:1"
             id="path2731" /></g><g
           id="g2733"
           transform="translate(130.5928,242.2012)"><path
             d="M 0,0 H 140.599"
             style="fill:none;stroke:#000000;stroke-width:15;stroke-linecap:round;stroke-linejoin:round;stroke-miterlimit:10;stroke-dasharray:none;stroke-opacity:1"
             id="path2735" /></g><g
           id="g2737"
           transform="translate(230.6675,43.9922)"><path
             d="m 0,0 61.162,61.162 c 3.505,3.505 3.505,9.187 0,12.692 L 40.548,94.468 c -3.505,3.505 -9.187,3.505 -12.692,0 L -33.306,33.306 C -42.503,24.109 -42.503,9.197 -33.306,0 -24.108,-9.197 -9.197,-9.197 0,0 Z"
             style="fill:none;stroke:#000000;stroke-width:15;stroke-linecap:round;stroke-linejoin:round;stroke-miterlimit:10;stroke-dasharray:none;stroke-opacity:1"
             id="path2739" /></g><g
           id="g2741"
           transform="translate(245.0361,124.9727)"><path
             d="M 0,0 33.306,-33.306"
             style="fill:none;stroke:#000000;stroke-width:15;stroke-linecap:round;stroke-linejoin:round;stroke-miterlimit:10;stroke-dasharray:none;stroke-opacity:1"
             id="path2743" /></g><g
           id="g2745"
           transform="translate(470.2935,151.7607)"><path
             d="m 0,0 c -45.608,-45.608 -119.555,-45.608 -165.163,0 -45.609,45.608 -45.609,119.555 0,165.163 45.608,45.609 119.555,45.609 165.163,0 C 45.609,119.555 45.609,45.608 0,0 Z"
             style="fill:none;stroke:#000000;stroke-width:15;stroke-linecap:round;stroke-linejoin:round;stroke-miterlimit:10;stroke-dasharray:none;stroke-opacity:1"
             id="path2747" /></g><g
           id="g2749"
           transform="translate(468.4004,216.7148)"><path
             d="m 0,0 c -3.249,-14.94 -10.68,-29.152 -22.294,-40.767 -32.25,-32.25 -84.539,-32.25 -116.789,0 -32.25,32.25 -32.25,84.538 0,116.788 32.25,32.25 84.539,32.25 116.789,0 11.603,-11.603 19.031,-25.799 22.285,-40.723"
             style="fill:none;stroke:#000000;stroke-width:15;stroke-linecap:round;stroke-linejoin:round;stroke-miterlimit:10;stroke-dasharray:none;stroke-opacity:1"
             id="path2751" /></g><g
           id="g2753"
           transform="translate(109.8076,186.854)"><path
             d="m 0,0 v 0 c -11.479,0 -20.785,9.306 -20.785,20.785 v 48.304 c 0,11.479 9.306,20.785 20.785,20.785 11.479,0 20.785,-9.306 20.785,-20.785 V 20.785 C 20.785,9.306 11.479,0 0,0 Z"
             style="fill:none;stroke:#000000;stroke-width:15;stroke-linecap:round;stroke-linejoin:round;stroke-miterlimit:10;stroke-dasharray:none;stroke-opacity:1"
             id="path2755" /></g><g
           id="g2757"
           transform="translate(130.5928,223.1934)"><path
             d="M 0,0 H -41.57"
             style="fill:none;stroke:#000000;stroke-width:15;stroke-linecap:round;stroke-linejoin:round;stroke-miterlimit:10;stroke-dasharray:none;stroke-opacity:1"
             id="path2759" /></g><g
           id="g2761"
           transform="translate(322.1704,398.2095)"><path
             d="m 0,0 v 33.622 c 0,23.751 -19.323,43.074 -43.075,43.074 h -85.368 c -23.752,0 -43.075,-19.323 -43.075,-43.074 V 0"
             style="fill:none;stroke:#000000;stroke-width:15;stroke-linecap:round;stroke-linejoin:round;stroke-miterlimit:10;stroke-dasharray:none;stroke-opacity:1"
             id="path2763" /></g><g
           id="g2765"
           transform="translate(181.6523,398.2095)"><path
             d="m 0,0 v 33.622 c 0,6.658 5.417,12.074 12.075,12.074 h 85.368 c 6.658,0 12.075,-5.416 12.075,-12.074 V 0"
             style="fill:none;stroke:#000000;stroke-width:15;stroke-linecap:round;stroke-linejoin:round;stroke-miterlimit:10;stroke-dasharray:none;stroke-opacity:1"
             id="path2767" /></g></g></g></g></svg>
