<svg id="Tender" viewBox="0 0 64 64" xmlns="http://www.w3.org/2000/svg"><path d="m60 28.03h-7c-1.1 0-2 .9-2 2v1h-4.78l-9.31-4.25c-1.12-.52-2.32-.78-3.55-.78-2.42 0-4.74 1.03-6.36 2.83l-1.99 2.2h-12.01v-1c0-1.1-.9-2-2-2h-7c-1.1 0-2 .9-2 2v20c0 1.1.9 2 2 2h7c1.1 0 2-.9 2-2v-.46l7.43 3.3 8.27 8.09c.66.67 1.54 1.03 2.48 1.03s1.82-.37 2.48-1.03c.42-.43.7-.94.86-1.48.52.29 1.09.46 1.7.46.94 0 1.82-.37 2.48-1.03.48-.49.79-1.09.93-1.71h.01c.35.13.73.19 1.12.19.94 0 1.82-.37 2.48-1.03.48-.49.8-1.09.94-1.73.34.12.71.18 1.08.18.94 0 1.82-.37 2.48-1.04.72-.72 1.06-1.69 1.01-2.63l2.26-1.35v.23c0 1.1.9 2 2 2h7c1.1 0 2-.9 2-2v-20c0-1.1-.9-2-2-2zm-13.69 24.34c-.28.29-.66.45-1.06.45s-.77-.16-1.05-.44l-6.67-6.74c-.39-.4-1.02-.4-1.41-.01-.4.38-.4 1.02-.01 1.41l5.7 5.77c.59.59.59 1.56 0 2.15-.57.57-1.55.57-2.12 0l-.99-1s0 0 0 0l-5.7-5.76c-.39-.39-1.02-.39-1.41-.01-.39.39-.4 1.03-.01 1.42l5.7 5.76c.59.6.59 1.56 0 2.15-.57.57-1.55.57-2.12 0l-6.7-6.76c-.39-.39-1.02-.39-1.41 0s-.4 1.02 0 1.41l5.19 5.24s0 0 0 .01c.59.59.59 1.56 0 2.15-.57.57-1.54.58-2.13 0l-8.41-8.23c-.08-.08-.18-.15-.29-.2l-8.41-3.74v-14.35h10.21l-3.95 4.37c-.36.39-.34 1 .03 1.38 1.26 1.26 2.93 1.96 4.71 1.96s3.45-.7 4.71-1.96l2.56-2.58 2.18.73 12.86 13.3c.59.59.59 1.55 0 2.14zm13.69-2.34h-7v-20h7z"/><path d="m16 29.03c.55 0 1-.45 1-1v-24.03h30v24.03c0 .55.45 1 1 1s1-.45 1-1v-25.03c0-.55-.45-1-1-1h-32c-.55 0-1 .45-1 1v25.03c0 .55.45 1 1 1z"/><path d="m27.71 6.29c-.39-.39-1.02-.39-1.41 0l-3.29 3.29-1.29-1.29c-.39-.39-1.02-.39-1.41 0s-.39 1.02 0 1.41l2 2c.2.2.45.29.71.29s.51-.1.71-.29l4-4c.39-.39.39-1.02 0-1.41z"/><path d="m43 8h-12c-.55 0-1 .45-1 1s.45 1 1 1h12c.55 0 1-.45 1-1s-.45-1-1-1z"/><path d="m27.71 13.29c-.39-.39-1.02-.39-1.41 0l-3.29 3.29-1.29-1.29c-.39-.39-1.02-.39-1.41 0s-.39 1.02 0 1.41l2 2c.2.2.45.29.71.29s.51-.1.71-.29l4-4c.39-.39.39-1.02 0-1.41z"/><path d="m43 15h-12c-.55 0-1 .45-1 1s.45 1 1 1h12c.55 0 1-.45 1-1s-.45-1-1-1z"/><path d="m26.29 20.29-3.29 3.29-1.29-1.29c-.39-.39-1.02-.39-1.41 0s-.39 1.02 0 1.41l2 2c.2.2.45.29.71.29s.51-.1.71-.29l4-4c.39-.39.39-1.02 0-1.41s-1.02-.39-1.41 0z"/><path d="m43 22h-12c-.55 0-1 .45-1 1s.45 1 1 1h12c.55 0 1-.45 1-1s-.45-1-1-1z"/></svg>