<svg id="Layer_1" height="512" viewBox="0 0 91 91" width="512" xmlns="http://www.w3.org/2000/svg" data-name="Layer 1"><path d="m26.59 63.09h-9.22a1.5 1.5 0 0 1 0-3h9.22a1.5 1.5 0 1 1 0 3z"/><path d="m64 63.09h-20.14a1.5 1.5 0 0 1 0-3h20.14a1.5 1.5 0 0 1 0 3z"/><path d="m88.47 63.09h-7.22a1.5 1.5 0 0 1 0-3h5.75v-11.62a4.63 4.63 0 0 0 -2-3.82l-4.6-3.11a1.64 1.64 0 0 1 -.41-.42l-10.92-16.87a5 5 0 0 0 -4.24-2.31h-41.83a1.5 1.5 0 0 1 0-3h41.83a8 8 0 0 1 6.76 3.68l10.75 16.61 4.3 2.94a7.63 7.63 0 0 1 3.36 6.3v13.12a1.5 1.5 0 0 1 -1.53 1.5z"/><path d="m35.22 72.06a10.14 10.14 0 1 1 10.14-10.14 10.14 10.14 0 0 1 -10.14 10.14zm0-17.28a7.14 7.14 0 1 0 7.14 7.14 7.15 7.15 0 0 0 -7.14-7.14z"/><path d="m72.61 72.06a10.14 10.14 0 1 1 10.14-10.14 10.15 10.15 0 0 1 -10.14 10.14zm0-17.28a7.14 7.14 0 1 0 7.14 7.14 7.16 7.16 0 0 0 -7.14-7.14z"/><path d="m81.25 41.8h-24.33a1.5 1.5 0 0 1 -1.5-1.5v-19.86a1.5 1.5 0 0 1 1.5-1.5h7.66a8.48 8.48 0 0 1 7.15 3.89l10.78 16.66a1.49 1.49 0 0 1 -1.26 2.31zm-22.83-3h20.07l-9.28-14.34a5.49 5.49 0 0 0 -4.63-2.52h-6.16z"/><path d="m28.45 32.89h-15.68a1.5 1.5 0 1 1 0-3h15.68a1.5 1.5 0 1 1 0 3z"/><path d="m21.39 43.77h-18.63a1.5 1.5 0 1 1 0-3h18.63a1.5 1.5 0 0 1 0 3z"/><path d="m19.67 52.87h-11.19a1.5 1.5 0 1 1 0-3h11.19a1.5 1.5 0 0 1 0 3z"/></svg>