<svg width="350" height="269" viewBox="0 0 350 269" fill="none" xmlns="http://www.w3.org/2000/svg">
<g clip-path="url(#clip0_2530_17993)">
<path opacity="0.1" d="M59.7408 39.4502C57.8679 41.7229 57.1468 44.9185 56.3402 47.9226C49.8467 72.1334 33.8451 91.6072 15.6221 105.517C7.90504 111.409 -1.49013 119.311 0.198198 129.875C1.1073 135.548 5.09572 139.725 8.05884 144.345C14.2756 154.021 16.292 167.172 13.3289 178.754C9.95906 191.933 0.539964 204.23 3.45524 217.555C5.25293 225.758 11.3569 231.595 17.225 236.612C26.3798 244.434 35.8263 251.761 45.5643 258.595C52.0921 263.174 59.0368 267.631 66.6445 268.212C73.3431 268.724 79.9051 266.178 86.2653 263.666C91.8225 261.469 97.5197 259.182 102.007 254.78C104.936 251.906 107.27 248.198 110.524 245.847C118.166 240.324 127.981 243.823 136.744 246.188C157.421 251.739 179.551 249.712 199.226 240.467C229.408 226.284 252.412 196.499 281.934 180.518C294.627 173.645 308.434 169.38 320.188 160.528C326.809 155.488 332.5 149.33 337.003 142.332C345.889 128.624 350.694 111.146 349.306 94.0372C347.919 76.9283 340.143 60.4415 327.932 50.7832C314.859 40.4447 298.349 38.5137 283.475 32.3073C268.123 25.8889 254.459 14.8635 239.254 7.99055C226.942 2.43804 213.544 -0.287124 200.041 0.0150824C186.539 0.317289 173.276 3.63919 161.225 9.73698C144.666 18.1103 127.889 37.6457 109.447 39.1289C96.3099 40.1542 70.0007 27.003 59.7408 39.4502Z" fill="#01B763"/>
<path d="M296.698 118.621C296.698 118.621 291.722 101.72 297.631 89.2832C300.144 84.0819 300.902 78.2055 299.791 72.5367C299.242 69.8495 298.448 67.2183 297.419 64.676" stroke="#535461" stroke-width="2" stroke-miterlimit="10"/>
<path d="M301.114 56.8186C301.114 58.8897 297.354 64.8946 297.354 64.8946C297.354 64.8946 293.595 58.8897 293.595 56.8186C293.557 56.303 293.625 55.785 293.796 55.297C293.967 54.8091 294.237 54.3617 294.589 53.9828C294.941 53.604 295.367 53.3017 295.841 53.0951C296.315 52.8884 296.827 52.7817 297.344 52.7817C297.861 52.7817 298.372 52.8884 298.846 53.0951C299.32 53.3017 299.747 53.604 300.099 53.9828C300.45 54.3617 300.72 54.8091 300.892 55.297C301.063 55.785 301.131 56.303 301.093 56.8186H301.114Z" fill="#01B763"/>
<path d="M307.296 68.2886C306.172 70.0281 299.747 73.0323 299.747 73.0323C299.747 73.0323 299.863 65.9543 300.987 64.2147C301.559 63.4543 302.398 62.9391 303.335 62.7729C304.272 62.6067 305.237 62.8019 306.035 63.3191C306.834 63.8363 307.407 64.6371 307.638 65.5599C307.87 66.4828 307.742 67.4591 307.283 68.292L307.296 68.2886Z" fill="#01B763"/>
<path d="M307.026 87.8956C305.177 88.8287 298.14 88.1827 298.14 88.1827C298.14 88.1827 301.814 82.13 303.663 81.197C304.54 80.833 305.522 80.8142 306.412 81.1442C307.302 81.4742 308.034 82.1287 308.462 82.9762C308.889 83.8237 308.98 84.8015 308.716 85.7134C308.453 86.6252 307.854 87.4036 307.04 87.8922L307.026 87.8956Z" fill="#01B763"/>
<path d="M303.482 102.697C301.818 103.928 294.757 104.485 294.757 104.485C294.757 104.485 297.354 97.8991 299.022 96.6653C299.825 96.1776 300.781 96.008 301.702 96.1898C302.624 96.3716 303.444 96.8917 304.001 97.6478C304.558 98.4038 304.812 99.341 304.713 100.275C304.614 101.209 304.169 102.072 303.465 102.694L303.482 102.697Z" fill="#01B763"/>
<path d="M291.886 73.4321C293.373 74.8744 300.294 76.3713 300.294 76.3713C300.294 76.3713 298.585 69.4984 297.112 68.0527C296.768 67.6674 296.349 67.357 295.88 67.141C295.411 66.9249 294.902 66.8077 294.386 66.7967C293.87 66.7858 293.357 66.8813 292.879 67.0772C292.402 67.2732 291.969 67.5655 291.61 67.9358C291.25 68.3062 290.97 68.7467 290.788 69.2298C290.606 69.713 290.526 70.2285 290.552 70.7441C290.578 71.2598 290.709 71.7646 290.939 72.227C291.169 72.6895 291.491 73.0997 291.886 73.4321Z" fill="#01B763"/>
<path d="M287.959 90.7802C289.808 91.7132 296.845 91.0672 296.845 91.0672C296.845 91.0672 293.171 85.0145 291.322 84.0815C290.445 83.7176 289.463 83.6987 288.573 84.0287C287.683 84.3587 286.951 85.0132 286.524 85.8607C286.096 86.7082 286.005 87.6861 286.269 88.5979C286.533 89.5098 287.132 90.2881 287.945 90.7767L287.959 90.7802Z" fill="#01B763"/>
<path d="M286.455 108.166C288.12 109.396 295.181 109.953 295.181 109.953C295.181 109.953 292.583 103.367 290.915 102.134C290.525 101.788 290.066 101.527 289.569 101.368C289.072 101.21 288.547 101.156 288.028 101.211C287.509 101.266 287.007 101.429 286.554 101.688C286.102 101.948 285.708 102.299 285.398 102.719C285.089 103.139 284.87 103.619 284.756 104.129C284.642 104.638 284.635 105.165 284.736 105.677C284.837 106.189 285.044 106.675 285.343 107.103C285.642 107.53 286.026 107.891 286.472 108.162L286.455 108.166Z" fill="#01B763"/>
<path opacity="0.1" d="M301.114 56.8186C301.114 58.8897 297.354 64.8946 297.354 64.8946C297.354 64.8946 293.595 58.8897 293.595 56.8186C293.557 56.303 293.625 55.785 293.796 55.297C293.967 54.8091 294.237 54.3617 294.589 53.9828C294.941 53.604 295.367 53.3017 295.841 53.0951C296.315 52.8884 296.827 52.7817 297.344 52.7817C297.861 52.7817 298.372 52.8884 298.846 53.0951C299.32 53.3017 299.747 53.604 300.099 53.9828C300.45 54.3617 300.72 54.8091 300.892 55.297C301.063 55.785 301.131 56.303 301.093 56.8186H301.114Z" fill="#01B763"/>
<path opacity="0.1" d="M307.296 68.2886C306.172 70.0281 299.747 73.0323 299.747 73.0323C299.747 73.0323 299.863 65.9543 300.987 64.2147C301.559 63.4543 302.398 62.9391 303.335 62.7729C304.272 62.6067 305.237 62.8019 306.035 63.3191C306.834 63.8363 307.407 64.6371 307.638 65.5599C307.87 66.4828 307.742 67.4591 307.283 68.292L307.296 68.2886Z" fill="#01B763"/>
<path opacity="0.1" d="M307.026 87.8956C305.177 88.8287 298.14 88.1827 298.14 88.1827C298.14 88.1827 301.814 82.13 303.663 81.197C304.54 80.833 305.522 80.8142 306.412 81.1442C307.302 81.4742 308.034 82.1287 308.462 82.9762C308.889 83.8237 308.98 84.8015 308.716 85.7134C308.453 86.6252 307.854 87.4036 307.04 87.8922L307.026 87.8956Z" fill="#01B763"/>
<path opacity="0.1" d="M303.482 102.697C301.818 103.928 294.757 104.485 294.757 104.485C294.757 104.485 297.354 97.8991 299.022 96.6653C299.825 96.1776 300.781 96.008 301.702 96.1898C302.624 96.3716 303.444 96.8917 304.001 97.6478C304.558 98.4038 304.812 99.341 304.713 100.275C304.614 101.209 304.169 102.072 303.465 102.694L303.482 102.697Z" fill="#01B763"/>
<path opacity="0.1" d="M291.886 73.4321C293.373 74.8744 300.294 76.3713 300.294 76.3713C300.294 76.3713 298.585 69.4984 297.112 68.0527C296.768 67.6674 296.349 67.357 295.88 67.141C295.411 66.9249 294.902 66.8077 294.386 66.7967C293.87 66.7858 293.357 66.8813 292.879 67.0772C292.402 67.2732 291.969 67.5655 291.61 67.9358C291.25 68.3062 290.97 68.7467 290.788 69.2298C290.606 69.713 290.526 70.2285 290.552 70.7441C290.578 71.2598 290.709 71.7646 290.939 72.227C291.169 72.6895 291.491 73.0997 291.886 73.4321Z" fill="#01B763"/>
<path opacity="0.1" d="M287.959 90.7802C289.808 91.7132 296.845 91.0672 296.845 91.0672C296.845 91.0672 293.171 85.0145 291.322 84.0815C290.445 83.7176 289.463 83.6987 288.573 84.0287C287.683 84.3587 286.951 85.0132 286.524 85.8607C286.096 86.7082 286.005 87.6861 286.269 88.5979C286.533 89.5098 287.132 90.2881 287.945 90.7767L287.959 90.7802Z" fill="#01B763"/>
<path opacity="0.1" d="M286.455 108.166C288.12 109.396 295.181 109.953 295.181 109.953C295.181 109.953 292.583 103.367 290.915 102.134C290.525 101.788 290.066 101.527 289.569 101.368C289.072 101.21 288.547 101.156 288.028 101.211C287.509 101.266 287.007 101.429 286.554 101.688C286.102 101.948 285.708 102.299 285.398 102.719C285.089 103.139 284.87 103.619 284.756 104.129C284.642 104.638 284.635 105.165 284.736 105.677C284.837 106.189 285.044 106.675 285.343 107.103C285.642 107.53 286.026 107.891 286.472 108.162L286.455 108.166Z" fill="#01B763"/>
<path d="M317.546 145.62C317.546 145.62 312.57 128.72 318.479 116.283C320.992 111.081 321.75 105.205 320.639 99.5362C320.09 96.849 319.296 94.2178 318.267 91.6755" stroke="#535461" stroke-width="2" stroke-miterlimit="10"/>
<path d="M321.962 83.8184C321.962 85.8895 318.202 91.8944 318.202 91.8944C318.202 91.8944 314.443 85.8895 314.443 83.8184C314.405 83.3027 314.473 82.7847 314.644 82.2968C314.816 81.8089 315.086 81.3615 315.437 80.9826C315.789 80.6037 316.216 80.3015 316.689 80.0948C317.163 79.8882 317.675 79.7815 318.192 79.7815C318.709 79.7815 319.221 79.8882 319.695 80.0948C320.169 80.3015 320.595 80.6037 320.947 80.9826C321.299 81.3615 321.569 81.8089 321.74 82.2968C321.911 82.7847 321.979 83.3027 321.941 83.8184H321.962Z" fill="#01B763"/>
<path d="M328.144 95.2881C327.019 97.0277 320.608 100.028 320.608 100.028C320.608 100.028 320.724 92.9504 321.849 91.2108C322.098 90.7592 322.438 90.3638 322.846 90.0491C323.255 89.7344 323.724 89.5073 324.225 89.3817C324.725 89.2562 325.246 89.2351 325.755 89.3195C326.264 89.404 326.75 89.5924 327.183 89.8728C327.616 90.1532 327.987 90.5198 328.272 90.9497C328.557 91.3796 328.751 91.8636 328.841 92.3715C328.931 92.8795 328.916 93.4006 328.796 93.9023C328.676 94.4041 328.454 94.8758 328.144 95.2881Z" fill="#01B763"/>
<path d="M327.874 114.895C326.025 115.828 318.988 115.182 318.988 115.182C318.988 115.182 322.662 109.13 324.511 108.196C324.954 107.93 325.448 107.759 325.96 107.692C326.473 107.625 326.994 107.665 327.491 107.808C327.987 107.952 328.449 108.196 328.847 108.526C329.245 108.856 329.57 109.265 329.803 109.727C330.036 110.188 330.171 110.693 330.2 111.209C330.229 111.725 330.151 112.242 329.971 112.727C329.792 113.211 329.514 113.654 329.155 114.026C328.797 114.399 328.365 114.693 327.888 114.892L327.874 114.895Z" fill="#01B763"/>
<path d="M324.33 129.697C322.665 130.927 315.604 131.484 315.604 131.484C315.604 131.484 318.202 124.899 319.87 123.665C320.672 123.177 321.628 123.007 322.55 123.189C323.471 123.371 324.291 123.891 324.848 124.647C325.406 125.403 325.66 126.341 325.56 127.274C325.461 128.208 325.016 129.071 324.313 129.694L324.33 129.697Z" fill="#01B763"/>
<path d="M312.734 100.432C314.221 101.874 321.141 103.371 321.141 103.371C321.141 103.371 319.432 96.4978 317.959 95.0521C317.232 94.4401 316.3 94.1264 315.35 94.1742C314.401 94.2219 313.505 94.6275 312.843 95.3094C312.18 95.9912 311.801 96.8987 311.781 97.8491C311.76 98.7994 312.101 99.7222 312.734 100.432Z" fill="#01B763"/>
<path d="M308.807 117.78C310.656 118.713 317.693 118.067 317.693 118.067C317.693 118.067 314.019 112.014 312.17 111.081C311.293 110.717 310.311 110.698 309.421 111.028C308.531 111.358 307.799 112.013 307.372 112.86C306.944 113.708 306.853 114.686 307.117 115.597C307.381 116.509 307.979 117.288 308.793 117.776L308.807 117.78Z" fill="#01B763"/>
<path d="M307.303 135.165C308.967 136.396 316.028 136.953 316.028 136.953C316.028 136.953 313.431 130.367 311.763 129.133C311.372 128.787 310.914 128.527 310.416 128.368C309.919 128.209 309.395 128.156 308.876 128.211C308.357 128.266 307.855 128.428 307.402 128.688C306.949 128.948 306.556 129.299 306.246 129.719C305.936 130.139 305.718 130.619 305.604 131.128C305.49 131.638 305.483 132.165 305.584 132.677C305.685 133.189 305.892 133.674 306.191 134.102C306.489 134.53 306.874 134.891 307.32 135.162L307.303 135.165Z" fill="#01B763"/>
<path opacity="0.1" d="M321.962 83.8184C321.962 85.8895 318.202 91.8944 318.202 91.8944C318.202 91.8944 314.443 85.8895 314.443 83.8184C314.405 83.3027 314.473 82.7847 314.644 82.2968C314.816 81.8089 315.086 81.3615 315.437 80.9826C315.789 80.6037 316.216 80.3015 316.689 80.0948C317.163 79.8882 317.675 79.7815 318.192 79.7815C318.709 79.7815 319.221 79.8882 319.695 80.0948C320.169 80.3015 320.595 80.6037 320.947 80.9826C321.299 81.3615 321.569 81.8089 321.74 82.2968C321.911 82.7847 321.979 83.3027 321.941 83.8184H321.962Z" fill="#01B763"/>
<path opacity="0.1" d="M328.144 95.2881C327.019 97.0277 320.608 100.028 320.608 100.028C320.608 100.028 320.724 92.9504 321.849 91.2108C322.098 90.7592 322.438 90.3638 322.846 90.0491C323.255 89.7344 323.724 89.5073 324.225 89.3817C324.725 89.2562 325.246 89.2351 325.755 89.3195C326.264 89.404 326.75 89.5924 327.183 89.8728C327.616 90.1532 327.987 90.5198 328.272 90.9497C328.557 91.3796 328.751 91.8636 328.841 92.3715C328.931 92.8795 328.916 93.4006 328.796 93.9023C328.676 94.4041 328.454 94.8758 328.144 95.2881Z" fill="#01B763"/>
<path opacity="0.1" d="M327.874 114.895C326.025 115.828 318.988 115.182 318.988 115.182C318.988 115.182 322.662 109.13 324.511 108.196C324.954 107.93 325.448 107.759 325.96 107.692C326.473 107.625 326.994 107.665 327.491 107.808C327.987 107.952 328.449 108.196 328.847 108.526C329.245 108.856 329.57 109.265 329.803 109.727C330.036 110.188 330.171 110.693 330.2 111.209C330.229 111.725 330.151 112.242 329.971 112.727C329.792 113.211 329.514 113.654 329.155 114.026C328.797 114.399 328.365 114.693 327.888 114.892L327.874 114.895Z" fill="#01B763"/>
<path opacity="0.1" d="M324.33 129.697C322.665 130.927 315.604 131.484 315.604 131.484C315.604 131.484 318.202 124.899 319.87 123.665C320.672 123.177 321.628 123.007 322.55 123.189C323.471 123.371 324.291 123.891 324.848 124.647C325.406 125.403 325.66 126.341 325.56 127.274C325.461 128.208 325.016 129.071 324.313 129.694L324.33 129.697Z" fill="#01B763"/>
<path opacity="0.1" d="M312.734 100.432C314.221 101.874 321.141 103.371 321.141 103.371C321.141 103.371 319.432 96.4978 317.959 95.0521C317.232 94.4401 316.3 94.1264 315.35 94.1742C314.401 94.2219 313.505 94.6275 312.843 95.3094C312.18 95.9912 311.801 96.8987 311.781 97.8491C311.76 98.7994 312.101 99.7222 312.734 100.432Z" fill="#01B763"/>
<path opacity="0.1" d="M308.807 117.78C310.656 118.713 317.693 118.067 317.693 118.067C317.693 118.067 314.019 112.014 312.17 111.081C311.293 110.717 310.311 110.698 309.421 111.028C308.531 111.358 307.799 112.013 307.372 112.86C306.944 113.708 306.853 114.686 307.117 115.597C307.381 116.509 307.979 117.288 308.793 117.776L308.807 117.78Z" fill="#01B763"/>
<path opacity="0.1" d="M307.303 135.165C308.967 136.396 316.028 136.953 316.028 136.953C316.028 136.953 313.431 130.367 311.763 129.133C311.372 128.787 310.914 128.527 310.416 128.368C309.919 128.209 309.395 128.156 308.876 128.211C308.357 128.266 307.855 128.428 307.402 128.688C306.949 128.948 306.556 129.299 306.246 129.719C305.936 130.139 305.718 130.619 305.604 131.128C305.49 131.638 305.483 132.165 305.584 132.677C305.685 133.189 305.892 133.674 306.191 134.102C306.489 134.53 306.874 134.891 307.32 135.162L307.303 135.165Z" fill="#01B763"/>
<path opacity="0.1" d="M184.535 202.124C277.364 193.072 351.437 173.619 349.979 158.677C348.522 143.734 272.087 138.96 179.258 148.013C86.4278 157.066 12.3556 176.518 13.8129 191.461C15.2701 206.403 91.7048 211.177 184.535 202.124Z" fill="#01B763"/>
<path d="M335.352 161.058C341.671 148.105 340.366 127.021 339.692 119.865C339.545 118.299 339.429 117.4 339.429 117.4C339.429 117.4 333.858 116.522 335.912 109.779C336.917 106.478 333.349 104.653 329.453 103.651C326.667 102.985 323.825 102.583 320.964 102.452L267.002 99.1193C259.603 87.3762 245.043 89.2628 245.043 89.2628C245.043 89.2628 232.056 87.9128 222.849 87.7727C221.452 86.5416 219.92 85.4719 218.283 84.584C217.308 83.9978 216.269 83.5243 215.187 83.1725C213.871 82.7928 212.485 82.7265 211.139 82.9787C209.793 83.2309 208.524 83.7947 207.435 84.625C206.905 85.0068 206.472 85.5093 206.174 86.0912C206.06 86.3557 205.974 86.6319 205.918 86.9148C205.779 87.3974 205.665 87.8868 205.576 88.381C205.496 88.6189 205.381 88.8435 205.234 89.0475C204.865 89.5704 204.23 89.9634 204.148 90.5957C204.146 90.6321 204.146 90.6686 204.148 90.705C204.08 90.8258 204.035 90.9578 204.014 91.0946C203.99 91.376 204.05 91.6583 204.189 91.9046C204.209 91.9456 204.233 91.9832 204.257 92.0208C203.803 92.6787 203.432 93.3904 203.153 94.1398C203.027 94.2086 202.905 94.2851 202.787 94.3688L202.685 94.444V94.6524L202.627 94.6969L202.5 98.0633L202.572 98.118C202.675 99.6883 203.149 101.212 203.955 102.564C204.76 103.916 205.875 105.058 207.206 105.897C207.251 106.112 207.292 106.331 207.333 106.56C207.521 107.664 207.605 108.782 207.586 109.902H207.528C205.921 109.219 203.174 110.223 200.812 111.396H170.217C176.184 103.72 183.484 97.7659 183.484 97.7659V91.0194C178.269 90.7597 132.452 112.769 122.407 117.629L121.963 117.845L70.3391 119.444C60.9883 119.386 52.8132 120.76 45.7318 122.999C33.8984 126.716 23.2646 133.509 14.9181 142.684C8.82102 149.376 6.1484 154.906 6.1484 154.906L6.2065 155.371L6.1484 155.49L6.23042 155.562L7.62141 166.54L8.57836 174.093C1.92758 178.392 10.5435 180.115 10.5435 180.115C18.7459 187.148 31.9415 186.858 31.9415 186.858C35.1644 191.256 44.5459 190.668 44.5459 190.668H93.7911C94.5581 186.147 95.5851 181.674 96.867 177.271C98.9689 192.408 110.914 204.004 125.329 204.004C126.399 204.004 127.467 203.938 128.528 203.809C129.59 203.938 130.658 204.004 131.727 204.004C146.31 204.004 158.361 192.135 160.258 176.745H162.667C162.218 180.183 161.436 183.57 160.333 186.858C204.595 173.959 286.965 167.804 286.965 167.804C287.306 164.557 287.682 161.42 288.089 158.409C291.483 166.834 299.176 172.715 308.13 172.715C308.944 172.714 309.756 172.664 310.564 172.565C311.371 172.664 312.184 172.714 312.997 172.715C323.629 172.715 332.478 164.421 334.474 153.423C334.738 155.364 334.889 157.319 334.925 159.277C334.545 161.143 334.214 162.336 334.169 162.503C334.436 162.016 334.689 161.517 334.928 161.006C334.928 161.205 334.928 161.41 334.928 161.615C334.846 161.957 334.788 162.148 334.771 162.213L334.921 161.933C334.921 162.083 334.921 162.23 334.921 162.38C334.887 162.394 335.068 161.902 335.352 161.058Z" fill="url(#paint0_linear_2530_17993)"/>
<path d="M330.188 114.516H228.717V155.449H330.188V114.516Z" fill="#6F7D95"/>
<path d="M202.917 95.3461L217.33 127.633L245.87 125.903L247.022 112.643L247.887 97.0754L207.531 94.1909L202.917 95.3461Z" fill="#4B5C7A"/>
<path d="M202.917 95.3462C202.917 95.3462 208.386 90.1582 215.026 89.003C221.667 87.8478 243.854 90.1548 243.854 90.1548L247.026 95.623L246.431 98.2273L202.917 95.3462Z" fill="#F54336"/>
<path d="M257.255 111.922H154.919V141.902H257.255V111.922Z" fill="#4B5C7A"/>
<path d="M232.077 132.319C234.78 123.279 229.391 117.339 229.391 117.339L220.457 111.105C220.449 111.126 220.44 111.147 220.429 111.167C219.268 109.805 218.436 108.193 218 106.457C217.972 106.348 217.948 106.235 217.921 106.115C218.738 105.508 219.453 104.776 220.04 103.945C221.496 103.053 222.145 101.618 222.391 100.186C223.328 98.7957 224.074 97.2864 224.609 95.6982C224.698 95.4413 224.773 95.1801 224.835 94.9156C225.007 94.4231 225.084 93.9022 225.06 93.381C224.988 92.8006 224.794 92.2419 224.493 91.7406C222.989 89.0064 220.283 87.1028 217.538 85.5512C216.579 84.975 215.557 84.5095 214.493 84.1636C213.199 83.7906 211.836 83.7256 210.513 83.9736C209.189 84.2217 207.942 84.776 206.872 85.5922C206.349 85.9677 205.924 86.4621 205.631 87.0344C205.518 87.2946 205.433 87.5661 205.378 87.8444C205.245 88.3193 205.137 88.8007 205.053 89.2867C204.979 89.5188 204.871 89.7388 204.732 89.9394C204.366 90.4521 203.744 90.8383 203.662 91.4637C203.66 91.5002 203.66 91.5367 203.662 91.5731C203.596 91.6918 203.552 91.8215 203.533 91.9559C203.507 92.2325 203.567 92.5103 203.703 92.7522C203.724 92.7932 203.748 92.8308 203.772 92.8684C203.324 93.5156 202.959 94.2159 202.685 94.9532C202.56 95.0209 202.439 95.0962 202.323 95.1787L202.224 95.2505V95.4556L202.165 95.5L202.039 98.8117L202.107 98.8664C202.208 100.411 202.674 101.91 203.466 103.24C204.258 104.57 205.353 105.694 206.663 106.519C206.708 106.73 206.749 106.946 206.786 107.171C206.993 108.364 207.075 109.574 207.032 110.784C207.019 110.679 207.019 110.574 207.032 110.469C204.561 109.352 199.172 112.441 197.001 113.808C196.672 113.964 196.366 114.163 196.089 114.4L196.051 114.427C194.558 115.637 191.608 119 189.267 127.643C186.02 139.704 186.359 142.438 183.994 145.234C181.629 148.03 179.281 167.726 179.281 167.726L184.042 169.007L184.65 167.052C190.31 172.213 206.157 174.698 206.157 174.698L206.643 173.19C209.073 174.065 213.136 172.736 213.136 172.736C219.076 170.637 221.301 165.313 225.611 158.289C229.92 151.266 232.077 132.319 232.077 132.319ZM208.119 168.659L219.09 134.629C220.084 139.913 215.696 148.235 215.306 153.676C215.064 157.175 210.99 164.13 208.119 168.659Z" fill="url(#paint1_linear_2530_17993)"/>
<path d="M221.844 96.5115C221.844 96.5115 223.755 103.788 218.085 105.056C212.415 106.324 216.151 101.785 216.151 101.785L221.619 96.4568L221.844 96.5115Z" fill="#472727"/>
<path d="M198.139 113.853C198.139 113.853 193.922 115.562 190.822 127.072C187.722 138.583 188.03 141.18 185.798 143.856C183.566 146.533 181.28 165.309 181.28 165.309L185.744 166.512L189.629 153.963L200.316 120.811L198.139 113.853Z" fill="#DDE0E4"/>
<path opacity="0.05" d="M198.139 113.853C198.139 113.853 193.922 115.562 190.822 127.072C187.722 138.583 188.03 141.18 185.798 143.856C183.566 146.533 181.28 165.309 181.28 165.309L185.744 166.512L189.629 153.963L200.316 120.811L198.139 113.853Z" fill="black"/>
<path d="M221.557 112.554C221.557 112.554 203.902 121.529 206.485 115.674C207.764 112.783 207.716 109.786 207.343 107.472C207.131 106.109 206.758 104.776 206.232 103.501C206.232 103.501 218.235 94.0063 217.531 101.758C217.363 103.426 217.478 105.111 217.873 106.741C218.912 110.852 221.557 112.554 221.557 112.554Z" fill="#DB8B8B"/>
<path opacity="0.1" d="M217.873 106.754C216.738 107.666 215.403 108.296 213.977 108.593C212.551 108.89 211.076 108.846 209.671 108.463C208.849 108.242 208.061 107.91 207.329 107.475C207.117 106.112 206.744 104.779 206.219 103.504C206.219 103.504 218.222 94.0097 217.518 101.761C217.352 103.434 217.472 105.122 217.873 106.754Z" fill="black"/>
<path d="M221.138 101.484C222.465 96.5554 219.545 91.4845 214.617 90.1575C209.688 88.8305 204.617 91.7499 203.29 96.6783C201.963 101.607 204.883 106.678 209.811 108.005C214.74 109.332 219.811 106.412 221.138 101.484Z" fill="#DB8B8B"/>
<path opacity="0.1" d="M207.572 94.5737C207.318 94.7286 207.036 94.8306 206.742 94.8737C206.448 94.9168 206.149 94.9 205.861 94.8243C205.574 94.7487 205.305 94.6157 205.07 94.4335C204.836 94.2512 204.64 94.0234 204.496 93.7637C204.369 93.5321 204.315 93.2679 204.339 93.005C204.417 92.4103 205.005 92.0412 205.364 91.5491C205.921 90.7528 205.815 89.6625 206.219 88.7774C206.496 88.2367 206.897 87.7686 207.387 87.4103C208.386 86.6295 209.556 86.0961 210.8 85.8537C212.044 85.6114 213.329 85.6669 214.547 86.0159C215.545 86.3412 216.501 86.7804 217.398 87.3248C219.968 88.791 222.5 90.5853 223.891 93.193C224.173 93.6715 224.352 94.2034 224.418 94.7549C224.433 95.3506 224.328 95.9434 224.11 96.4979C223.596 98.0295 222.88 99.4857 221.981 100.828C221.68 100.455 221.302 100.15 220.874 99.936C220.657 99.8337 220.414 99.802 220.178 99.8456C219.943 99.8891 219.727 100.006 219.561 100.179C219.264 100.558 219.083 101.283 218.632 101.112C218.338 101.002 218.341 100.596 218.355 100.281C218.416 98.9142 217.671 97.6257 216.67 96.7029C215.668 95.7802 214.428 95.1718 213.204 94.5737C212.326 94.1431 211.154 93.1554 210.19 92.9811C208.994 92.7589 208.43 94.044 207.572 94.5737Z" fill="black"/>
<path d="M207.698 94.1055C207.445 94.2603 207.163 94.3624 206.869 94.4054C206.575 94.4485 206.275 94.4317 205.988 94.3561C205.701 94.2804 205.432 94.1475 205.197 93.9652C204.962 93.7829 204.767 93.5551 204.623 93.2955C204.496 93.0639 204.441 92.7997 204.465 92.5367C204.544 91.9421 205.132 91.573 205.491 91.0808C206.048 90.2845 205.942 89.1943 206.345 88.3091C206.623 87.7685 207.023 87.3003 207.514 86.942C208.513 86.1612 209.682 85.6278 210.927 85.3855C212.171 85.1431 213.455 85.1987 214.674 85.5476C215.671 85.873 216.628 86.3122 217.524 86.8566C220.094 88.3228 222.627 90.117 224.018 92.7247C224.3 93.2032 224.479 93.7351 224.544 94.2866C224.56 94.8824 224.455 95.4751 224.237 96.0296C223.723 97.5612 223.006 99.0175 222.107 100.36C221.807 99.9863 221.429 99.6821 221 99.4678C220.783 99.3654 220.54 99.3338 220.305 99.3773C220.069 99.4209 219.853 99.5374 219.688 99.7104C219.39 100.09 219.209 100.814 218.758 100.643C218.464 100.534 218.468 100.127 218.481 99.813C218.543 98.4459 217.798 97.1574 216.796 96.2347C215.795 95.3119 214.554 94.7035 213.331 94.1055C212.452 93.6748 211.28 92.6871 210.316 92.5128C209.12 92.2873 208.556 93.5757 207.698 94.1055Z" fill="#472727"/>
<path d="M212.538 113.778C212.538 113.778 219.848 112.346 220.166 111.173L228.526 117.076C228.526 117.076 233.557 122.711 230.983 131.338C230.983 131.338 228.888 149.414 224.814 156.122C220.74 162.831 218.399 171.522 212.818 173.553C212.818 173.553 207.453 170.094 205.682 170.135C205.682 170.135 214.77 156.967 215.159 151.782C215.549 146.597 219.702 138.648 218.792 133.617L206.489 171.861C206.489 171.861 186.666 168.785 184.657 162.206C184.657 162.206 186.366 159.639 186.048 157.038C185.73 154.438 193.526 134.871 193.526 134.871L197.258 114.468C197.258 114.468 204.64 109.311 207.579 110.65C207.565 110.63 207.032 113.176 212.538 113.778Z" fill="#DDE0E4"/>
<g opacity="0.1">
<path d="M215.2 97.9129C213.396 95.4522 209.954 97.472 209.39 97.824L208.505 97.7352C207.733 96.8944 205.364 94.6593 203.139 96.3032L203.044 96.375L202.91 99.5295L203.006 99.6047C203.649 100.101 204.378 100.474 205.156 100.705C205.649 100.85 206.169 100.876 206.673 100.78C207.047 100.694 207.397 100.527 207.698 100.291C208 100.055 208.246 99.7551 208.42 99.4133L208.881 99.444L209.223 99.3791C209.291 99.7425 209.436 100.087 209.649 100.39C209.861 100.693 210.135 100.947 210.453 101.136C211.981 102 214.213 101.136 214.305 101.119L214.421 101.074L215.241 98.0223L215.2 97.9129ZM214.042 100.688C213.587 100.842 211.872 101.348 210.72 100.688C210.433 100.508 210.191 100.265 210.014 99.977C209.836 99.689 209.727 99.364 209.694 99.0271L209.653 98.7776L208.905 98.9314L208.153 98.904L208.081 99.0476C207.944 99.358 207.738 99.6329 207.477 99.8509C207.217 100.069 206.911 100.224 206.581 100.305C205.293 100.582 203.802 99.5841 203.413 99.3005L203.526 96.6347C205.46 95.3326 207.593 97.4447 208.208 98.135L208.273 98.2068L209.52 98.3299L209.595 98.2786C209.63 98.2581 212.729 96.1767 214.496 97.8514C214.584 97.9326 214.665 98.0206 214.739 98.1145L214.042 100.688Z" fill="black"/>
<path d="M220.799 99.4986L214.988 99.0168L214.51 98.9245L214.725 98.1179C214.651 98.024 214.57 97.936 214.483 97.8547L215.187 97.9231L219.941 98.3879L220.799 99.4986Z" fill="black"/>
</g>
<path d="M215.262 97.6942C213.457 95.2334 210.016 97.2533 209.452 97.6053L208.567 97.5164C207.794 96.6757 205.426 94.4405 203.201 96.0844L203.105 96.1562L202.972 99.3107L203.068 99.3859C203.71 99.882 204.439 100.255 205.217 100.486C205.71 100.631 206.23 100.657 206.735 100.562C207.108 100.475 207.458 100.308 207.76 100.072C208.062 99.8359 208.308 99.5363 208.481 99.1945L208.943 99.2253L209.284 99.1603C209.353 99.5238 209.498 99.8685 209.71 100.171C209.922 100.474 210.197 100.729 210.515 100.917C212.042 101.782 214.274 100.917 214.366 100.9L214.483 100.855L215.303 97.8035L215.262 97.6942ZM214.103 100.469C213.649 100.623 211.933 101.129 210.781 100.469C210.495 100.29 210.253 100.046 210.075 99.7583C209.897 99.4703 209.788 99.1452 209.756 98.8083L209.715 98.5588L208.967 98.7126L208.225 98.6648L208.153 98.8083C208.018 99.1205 207.813 99.3976 207.555 99.6181C207.296 99.8385 206.989 99.9965 206.66 100.08C205.371 100.357 203.881 99.3586 203.491 99.0749L203.604 96.4091C205.539 95.107 207.671 97.2191 208.286 97.9095L208.351 97.9812L209.599 98.1043L209.674 98.053C209.708 98.0325 212.808 95.9511 214.575 97.6258C214.663 97.707 214.744 97.795 214.818 97.889L214.103 100.469Z" fill="#472727"/>
<path d="M220.853 99.2799L215.064 98.798L214.585 98.7057L214.801 97.8991C214.727 97.8052 214.645 97.7172 214.558 97.636L215.262 97.7043L220.016 98.1691L220.853 99.2799Z" fill="#472727"/>
<path d="M181.15 135.271H79.6794V176.205H181.15V135.271Z" fill="#6F7D95"/>
<path d="M126.119 203.013C141.757 203.013 154.434 189.139 154.434 172.025C154.434 154.911 141.757 141.037 126.119 141.037C110.481 141.037 97.8035 154.911 97.8035 172.025C97.8035 189.139 110.481 203.013 126.119 203.013Z" fill="#4B5C7A"/>
<path opacity="0.05" d="M126.119 203.013C141.757 203.013 154.434 189.139 154.434 172.025C154.434 154.911 141.757 141.037 126.119 141.037C110.481 141.037 97.8035 154.911 97.8035 172.025C97.8035 189.139 110.481 203.013 126.119 203.013Z" fill="black"/>
<path d="M132.411 203.013C148.049 203.013 160.726 189.139 160.726 172.025C160.726 154.911 148.049 141.037 132.411 141.037C116.773 141.037 104.095 154.911 104.095 172.025C104.095 189.139 116.773 203.013 132.411 203.013Z" fill="#4B5C7A"/>
<path opacity="0.05" d="M131.782 184.766C138.732 184.766 144.366 179.132 144.366 172.182C144.366 165.232 138.732 159.598 131.782 159.598C124.832 159.598 119.198 165.232 119.198 172.182C119.198 179.132 124.832 184.766 131.782 184.766Z" fill="black"/>
<path d="M131.782 175.959C133.868 175.959 135.558 174.268 135.558 172.182C135.558 170.096 133.868 168.406 131.782 168.406C129.696 168.406 128.005 170.096 128.005 172.182C128.005 174.268 129.696 175.959 131.782 175.959Z" stroke="#6F7D95" stroke-width="2" stroke-miterlimit="10"/>
<path d="M131.782 166.519C132.303 166.519 132.725 166.097 132.725 165.576C132.725 165.055 132.303 164.633 131.782 164.633C131.261 164.633 130.839 165.055 130.839 165.576C130.839 166.097 131.261 166.519 131.782 166.519Z" fill="#6F7D95"/>
<path d="M137.55 168.12C137.949 167.785 138.001 167.19 137.666 166.791C137.331 166.392 136.736 166.34 136.337 166.675C135.938 167.01 135.886 167.605 136.221 168.004C136.556 168.403 137.151 168.455 137.55 168.12Z" fill="#6F7D95"/>
<path d="M139.802 172.688C139.893 172.175 139.55 171.685 139.037 171.595C138.524 171.505 138.035 171.847 137.944 172.36C137.854 172.873 138.196 173.362 138.709 173.453C139.223 173.543 139.712 173.201 139.802 172.688Z" fill="#6F7D95"/>
<path d="M136.648 178.113C137.099 177.853 137.254 177.276 136.993 176.825C136.733 176.373 136.156 176.219 135.705 176.479C135.254 176.74 135.099 177.317 135.36 177.768C135.62 178.219 136.197 178.374 136.648 178.113Z" fill="#6F7D95"/>
<path d="M131.682 178.624C131.86 178.134 131.607 177.593 131.118 177.415C130.628 177.236 130.087 177.489 129.909 177.978C129.731 178.468 129.983 179.009 130.473 179.187C130.962 179.366 131.503 179.113 131.682 178.624Z" fill="#6F7D95"/>
<path d="M126.887 175.711C127.376 175.532 127.629 174.991 127.451 174.502C127.272 174.012 126.731 173.76 126.242 173.938C125.752 174.116 125.5 174.657 125.678 175.147C125.856 175.636 126.397 175.889 126.887 175.711Z" fill="#6F7D95"/>
<path d="M127.327 169.818C127.587 169.366 127.433 168.789 126.982 168.529C126.53 168.269 125.954 168.423 125.693 168.874C125.433 169.325 125.587 169.902 126.038 170.163C126.49 170.423 127.066 170.269 127.327 169.818Z" fill="#6F7D95"/>
<path d="M335.868 148.077C334.901 154.755 332.211 162.066 332.211 162.066C332.229 161.61 332.241 161.16 332.245 160.716C332.245 160.142 332.245 159.574 332.245 159.007C331.903 140.6 321.872 129.243 315.403 123.805C313.721 122.372 311.913 121.096 310 119.991H327.583C327.583 119.991 334.501 134.116 335.943 141.034C336.36 142.975 336.244 145.48 335.868 148.077Z" fill="#F54336"/>
<path opacity="0.05" d="M335.868 148.077C334.901 154.755 332.211 162.066 332.211 162.066C332.229 161.61 332.241 161.16 332.245 160.716C332.245 160.142 332.245 159.574 332.245 159.007C331.903 140.6 321.872 129.243 315.403 123.805C313.721 122.372 311.913 121.096 310 119.991H327.583C327.583 119.991 334.501 134.116 335.943 141.034C336.36 142.975 336.244 145.48 335.868 148.077Z" fill="black"/>
<path d="M305.888 172.244C317.782 172.244 327.423 161.692 327.423 148.675C327.423 135.659 317.782 125.107 305.888 125.107C293.995 125.107 284.354 135.659 284.354 148.675C284.354 161.692 293.995 172.244 305.888 172.244Z" fill="#4B5C7A"/>
<path opacity="0.05" d="M305.888 172.244C317.782 172.244 327.423 161.692 327.423 148.675C327.423 135.659 317.782 125.107 305.888 125.107C293.995 125.107 284.354 135.659 284.354 148.675C284.354 161.692 293.995 172.244 305.888 172.244Z" fill="black"/>
<path d="M310.673 172.244C322.566 172.244 332.208 161.692 332.208 148.675C332.208 135.659 322.566 125.107 310.673 125.107C298.78 125.107 289.138 135.659 289.138 148.675C289.138 161.692 298.78 172.244 310.673 172.244Z" fill="#4B5C7A"/>
<path opacity="0.05" d="M310.194 158.365C315.48 158.365 319.764 154.08 319.764 148.795C319.764 143.51 315.48 139.226 310.194 139.226C304.909 139.226 300.625 143.51 300.625 148.795C300.625 154.08 304.909 158.365 310.194 158.365Z" fill="black"/>
<path d="M310.194 151.666C311.78 151.666 313.065 150.381 313.065 148.795C313.065 147.21 311.78 145.924 310.194 145.924C308.609 145.924 307.323 147.21 307.323 148.795C307.323 150.381 308.609 151.666 310.194 151.666Z" stroke="#6F7D95" stroke-width="2" stroke-miterlimit="10"/>
<path d="M310.195 144.489C310.591 144.489 310.912 144.168 310.912 143.771C310.912 143.375 310.591 143.053 310.195 143.053C309.798 143.053 309.477 143.375 309.477 143.771C309.477 144.168 309.798 144.489 310.195 144.489Z" fill="#6F7D95"/>
<path d="M314.584 145.706C314.887 145.451 314.927 144.998 314.672 144.695C314.417 144.391 313.965 144.351 313.661 144.606C313.357 144.861 313.318 145.314 313.573 145.617C313.827 145.921 314.28 145.96 314.584 145.706Z" fill="#6F7D95"/>
<path d="M316.294 149.183C316.363 148.792 316.102 148.42 315.712 148.351C315.322 148.282 314.949 148.543 314.88 148.933C314.812 149.324 315.072 149.696 315.463 149.765C315.853 149.834 316.225 149.573 316.294 149.183Z" fill="#6F7D95"/>
<path d="M313.898 153.308C314.242 153.11 314.359 152.671 314.161 152.328C313.963 151.984 313.524 151.867 313.181 152.065C312.837 152.263 312.72 152.702 312.918 153.045C313.116 153.389 313.555 153.506 313.898 153.308Z" fill="#6F7D95"/>
<path d="M310.12 153.695C310.256 153.323 310.064 152.911 309.691 152.775C309.319 152.64 308.907 152.832 308.771 153.204C308.636 153.577 308.828 153.989 309.2 154.124C309.573 154.26 309.985 154.068 310.12 153.695Z" fill="#6F7D95"/>
<path d="M306.472 151.477C306.844 151.341 307.037 150.929 306.901 150.557C306.765 150.184 306.354 149.992 305.981 150.128C305.609 150.263 305.417 150.675 305.552 151.048C305.688 151.42 306.1 151.612 306.472 151.477Z" fill="#6F7D95"/>
<path d="M306.811 146.996C307.009 146.653 306.892 146.214 306.548 146.016C306.205 145.817 305.766 145.935 305.568 146.278C305.37 146.622 305.487 147.061 305.831 147.259C306.174 147.457 306.613 147.339 306.811 146.996Z" fill="#6F7D95"/>
<path d="M11.5073 175.196L8.90308 154.728H39.7475L55.6021 168.853L47.8201 187.015C47.8201 187.015 16.4219 181.827 11.5073 175.196Z" fill="#F54336"/>
<path opacity="0.05" d="M55.6124 168.853L47.8303 187.015C47.8303 187.015 16.4219 181.827 11.5073 175.196L11.3946 174.304L9.00219 155.377L8.97827 155.189L8.92017 154.731H39.7646L55.6124 168.853Z" fill="black"/>
<path d="M183.317 91.8873V98.5176C183.317 98.5176 167.377 111.505 163.583 123.757C162.921 125.747 162.671 127.85 162.848 129.94C164.291 143.487 121.344 118.983 121.344 118.983L123.255 118.053C133.128 113.292 178.187 91.6276 183.317 91.8873Z" fill="#7597CE"/>
<path d="M219.64 123.887C219.64 123.887 234.568 116.553 236.964 111.126C237.285 110.398 237.589 109.663 237.945 108.948C239.425 105.972 242.535 98.9894 240.97 95.6366C238.953 91.3133 245.87 96.2142 245.87 96.2142L241.834 116.676L232.032 122.144L219.349 123.887" fill="#F54336"/>
<path opacity="0.05" d="M219.64 123.887C219.64 123.887 234.568 116.553 236.964 111.126C237.285 110.398 237.589 109.663 237.945 108.948C239.425 105.972 242.535 98.9894 240.97 95.6366C238.953 91.3133 245.87 96.2142 245.87 96.2142L241.834 116.676L232.032 122.144L219.349 123.887" fill="black"/>
<path opacity="0.05" d="M55.6124 168.853L47.8303 187.015C47.8303 187.015 16.4219 181.827 11.5073 175.196L11.3946 174.304C11.521 174.219 11.6543 174.13 11.7944 174.045C11.7944 174.045 21.3058 181.54 42.9294 183.272C42.9294 183.272 55.9165 172.893 34.8569 161.365C34.8569 161.365 16.5382 161.939 8.99194 155.381L8.90991 155.312L8.96801 155.193C9.01814 155.095 9.09902 154.942 9.21067 154.735H39.7544L55.6124 168.853Z" fill="black"/>
<path opacity="0.05" d="M162.848 129.936C164.291 143.488 121.344 118.983 121.344 118.983L123.255 118.053C124.519 119.4 129.567 123.942 139.66 123.45C146.153 123.132 156.013 123.422 163.6 123.754C162.932 125.742 162.676 127.846 162.848 129.936Z" fill="black"/>
<path opacity="0.05" d="M181.153 135.271V176.205H162.302C163.546 166.683 162.828 152.804 150.736 144.848C146.226 141.9 140.99 140.255 135.604 140.094C130.219 139.934 124.894 141.264 120.216 143.938C112.291 148.463 103.429 157.664 97.7965 176.205H79.6829V135.271H181.153Z" fill="black"/>
<path opacity="0.05" d="M335.868 148.077C335.157 152.596 334.015 156.984 332.249 160.723C332.021 161.226 331.772 161.717 331.503 162.196C331.548 162.028 331.873 160.859 332.249 159.021C334.08 150.066 337.214 125.288 316.216 123.873C315.943 123.856 315.673 123.839 315.403 123.829C313.722 122.388 311.914 121.103 310 119.991H327.583C327.583 119.991 334.501 134.116 335.943 141.034C336.36 142.975 336.244 145.48 335.868 148.077Z" fill="black"/>
<path d="M332.074 161.916C332.348 160.928 342.088 125.302 316.787 123.597C291.131 121.867 287.959 141.181 285.078 167.415C285.078 167.415 204.079 173.467 160.545 186.154C160.545 186.154 170.996 157.514 151.317 144.561C146.807 141.613 141.571 139.968 136.185 139.808C130.8 139.647 125.475 140.977 120.797 143.652C111.091 149.195 99.9735 161.765 95.1102 189.899H46.675C46.675 189.899 37.4473 190.477 34.2791 186.14C34.2791 186.14 21.292 186.427 13.2365 179.51C13.2365 179.51 4.58983 177.78 11.5072 173.457C11.5072 173.457 21.3091 180.952 42.9292 182.685C42.9292 182.685 55.9164 172.305 34.8567 160.777C34.8567 160.777 16.4013 161.355 8.91318 154.725C8.91318 154.725 11.5414 149.287 17.5394 142.708C25.7432 133.684 36.1964 127 47.8302 123.34C55.6692 120.917 63.84 119.738 72.0444 119.847L122.923 118.262C122.923 118.262 127.838 124.605 139.642 124.027C151.447 123.45 174.523 124.892 174.523 124.892H174.752L222.23 122.742C223.594 122.55 224.942 122.264 226.267 121.888C233.15 120.018 246.205 114.348 243.851 98.5144L318.513 103.128C321.327 103.258 324.122 103.652 326.862 104.307C330.697 105.292 334.203 107.089 333.216 110.336C331.199 116.966 336.674 117.831 336.674 117.831C336.674 117.831 336.791 118.716 336.934 120.254C337.618 127.506 338.961 149.311 332.074 161.916Z" fill="#F54336"/>
<path opacity="0.05" d="M103.754 130.227C103.754 130.227 72.6186 130.514 52.1467 148.682H63.6779C63.6779 148.682 95.9647 140.323 103.747 133.692L103.754 130.227Z" fill="black"/>
<path d="M103.463 129.936C103.463 129.936 72.328 130.223 51.8562 148.392H63.3874C63.3874 148.392 95.6741 140.032 103.456 133.402L103.463 129.936Z" fill="#FFEC9F"/>
<path opacity="0.05" d="M48.1175 123.631V131.379L21.8903 143.488L17.8301 142.999C26.0329 133.975 36.4849 127.291 48.1175 123.631Z" fill="black"/>
<path d="M47.8269 123.344V131.092L21.5963 143.197L17.5361 142.708C25.7404 133.685 36.1935 127.003 47.8269 123.344Z" fill="#FFEC9F"/>
<path opacity="0.05" d="M85.0145 158.477C85.0145 158.477 70.8893 167.124 69.447 186.16H77.5196C77.5196 186.16 80.6912 165.405 89.9154 158.477H85.0145Z" fill="black"/>
<path opacity="0.05" d="M251.927 159.055L178.703 167.702C178.703 167.702 173.86 136.874 174.756 124.882L222.234 122.732C223.596 122.543 224.943 122.261 226.267 121.888V124.748L262.012 116.102C262.012 116.102 268.068 125.035 251.927 159.055Z" fill="black"/>
<path d="M243.854 90.1546C243.854 90.1546 259.421 88.1382 266.339 101.399L244.076 100.541L243.854 90.1546Z" fill="#F54336"/>
<path opacity="0.05" d="M265.259 106.047C264.647 107.964 265.109 110.073 268.653 111.532C271.602 112.749 275.061 111.341 276.069 108.316C276.657 106.553 276.254 104.557 273.075 102.933C269.897 101.31 266.329 102.697 265.259 106.047Z" fill="black"/>
<path d="M9.46021 159.048C9.46021 159.048 27.9361 168.618 41.1967 164.995" stroke="#F54336" stroke-miterlimit="10"/>
<path d="M10.1128 164.216C10.1128 164.216 22.0507 173.423 46.1795 171.283" stroke="#F54336" stroke-miterlimit="10"/>
<path d="M10.6631 168.552C10.6631 168.552 22.5053 178.829 46.8391 175.572" stroke="#F54336" stroke-miterlimit="10"/>
<path opacity="0.05" d="M265.447 99.8506C265.447 99.8506 255.816 108.166 247.026 111.925C247.026 111.925 260.375 114.3 265.447 99.8506Z" fill="black"/>
<path opacity="0.1" d="M163.416 124.325C163.416 124.325 209.117 128.641 226.41 124.605C226.41 124.605 227.333 125.217 221.827 122.749L163.416 124.325Z" fill="black"/>
<path opacity="0.05" d="M336.938 120.254C334.091 118.384 329.576 114.505 330.191 110.189C330.499 108.026 328.968 106.002 326.866 104.304C330.7 105.288 334.207 107.086 333.219 110.332C331.203 116.963 336.678 117.827 336.678 117.827C336.678 117.827 336.791 118.716 336.938 120.254Z" fill="black"/>
<path d="M107.24 150.343C107.267 149.202 107.24 148.016 107.154 146.926C107.154 146.717 107.12 146.515 107.099 146.317C107.742 146.803 108.125 147.172 108.125 147.172L107.561 117.493L104.451 101.946C104.451 90.9202 98.5143 87.8136 98.5143 87.8136C98.5143 87.8136 95.4042 86.3986 94.5566 84.4232C93.709 82.4478 86.197 78.2714 86.1936 78.2714C86.1341 77.5519 86.1112 76.8299 86.1252 76.108C86.1252 75.9201 86.1252 75.7253 86.1423 75.5305C88.0256 74.2817 89.3917 72.392 89.9869 70.2121C90.5821 68.0323 90.3661 65.7105 89.3788 63.678C89.7958 63.678 90.1341 63.5037 90.2914 62.8851C90.7903 60.9268 90.3084 57.9773 89.1738 56.412C88.9312 56.0846 88.6576 55.7813 88.357 55.5063C88.0048 55.153 87.634 54.8187 87.2462 54.505C86.2756 53.6984 85.1956 52.8508 83.9926 52.9192C83.3101 53.0085 82.6543 53.2414 82.0684 53.6027C79.0632 55.1839 76.0659 56.7788 73.0766 58.3874C71.9726 58.9855 70.8346 59.6144 70.0622 60.6875C69.2898 61.7607 68.9788 63.1346 68.7635 64.4845C68.5824 65.3992 68.5398 66.3358 68.637 67.2631C68.7274 68.1069 69.1136 68.8915 69.7272 69.4778C69.851 69.6273 69.9921 69.7615 70.1476 69.8776C70.756 70.3219 71.5386 70.4313 72.1743 70.7902C72.6548 72.1855 73.4595 73.447 74.5222 74.471C74.5222 74.6453 74.4983 74.8127 74.4846 75.0041C74.4471 75.4929 74.3889 76.0294 74.3138 76.5728C74.3138 76.5728 72.2256 76.5182 69.1155 80.7561C66.0054 84.994 59.2213 85.5613 59.2213 85.5613C59.2213 85.5613 56.6786 84.4301 53.8522 97.1506C51.0258 109.871 50.1782 118.34 51.5897 119.762C52.1891 120.279 52.8646 120.701 53.5924 121.013C55.9884 122.222 58.5665 123.03 61.2241 123.405C61.2579 123.507 61.3153 123.6 61.3915 123.675L61.5932 126.139C61.7641 131.341 61.9623 141.775 60.9097 144.089C59.4947 147.199 61.1933 149.178 61.1933 149.178L61.5351 149.154C61.5982 149.261 61.6691 149.364 61.747 149.461L63.1141 149.369C63.0149 155.179 62.7484 163.238 62.0443 165.008C60.9131 167.835 62.0443 183.382 62.0443 183.382L60.0655 211.366C60.0655 211.366 58.9821 225.973 59.9971 227.665C59.4435 230.703 58.4489 236.492 58.654 237.935C58.9377 239.913 65.4381 242.74 65.4381 242.74C65.4381 242.74 73.0697 244.449 76.7437 243.871C78.6644 243.574 79.4266 242.275 79.4334 241.137C81.9249 241.537 85.1683 241.92 87.2018 241.605C90.8758 241.041 90.3119 236.8 88.333 237.084C86.3542 237.367 84.0917 233.389 82.4102 231.41C81.5558 230.412 80.8449 228.628 80.3596 227.101C80.7171 227.047 81.0452 226.872 81.2892 226.605C82.1368 225.19 83.5517 212.189 83.5517 212.189L87.2257 189.578C87.2257 189.578 89.2045 178.553 90.8997 176.01C92.1813 174.089 93.7842 159.755 94.4917 152.852H94.5532H94.5737L94.6489 152.609L95.7118 149.178C96.2791 150.179 97.7077 150.675 99.3721 150.887C99.1944 151.611 99.0474 152.202 98.962 152.541C98.5382 154.25 104.717 157.062 106.207 155.651C106.833 155.06 107.158 152.917 107.233 150.572H107.284L107.24 150.343ZM70.1032 227.425C70.0075 227.976 69.9118 228.55 69.8161 229.134C69.6008 228.451 69.4299 227.835 69.3137 227.381C69.594 227.391 69.8571 227.405 70.1032 227.425Z" fill="url(#paint2_linear_2530_17993)"/>
<path d="M79.5805 221.533C79.5805 221.533 80.6708 226.434 82.3147 228.338C83.9586 230.242 86.1254 234.052 88.029 233.782C89.9326 233.512 90.4795 237.593 86.9388 238.136C83.3981 238.68 76.0501 237.046 76.0501 237.046C76.0501 237.046 69.7889 234.312 69.5189 232.419C69.2489 230.525 71.1526 220.713 71.1526 220.713L79.5805 221.533Z" fill="#53526B"/>
<path opacity="0.05" d="M79.5805 221.533C79.5805 221.533 80.6708 226.434 82.3147 228.338C83.9586 230.242 86.1254 234.052 88.029 233.782C89.9326 233.512 90.4795 237.593 86.9388 238.136C83.3981 238.68 76.0501 237.046 76.0501 237.046C76.0501 237.046 69.7889 234.312 69.5189 232.419C69.2489 230.525 71.1526 220.713 71.1526 220.713L79.5805 221.533Z" fill="black"/>
<path d="M69.5085 223.71C69.5085 223.71 70.5987 228.611 72.2426 230.515C73.8865 232.419 76.0533 236.229 77.957 235.959C79.8606 235.689 80.4074 239.77 76.8667 240.313C73.326 240.857 65.978 239.227 65.978 239.227C65.978 239.227 59.7169 236.492 59.4469 234.599C59.1769 232.706 61.0805 222.894 61.0805 222.894L69.5085 223.71Z" fill="#53526B"/>
<path d="M94.2799 149.13C94.2799 149.13 92.1028 172.538 90.4692 174.988C88.8355 177.438 86.9319 188.054 86.9319 188.054L83.3946 209.828C83.3946 209.828 82.0275 222.35 81.2175 223.71C80.4076 225.07 70.3049 224.486 70.3049 224.486L76.5729 152.397L94.2799 149.13Z" fill="#5F5D7E"/>
<path opacity="0.05" d="M94.2799 149.13C94.2799 149.13 92.1028 172.538 90.4692 174.988C88.8355 177.438 86.9319 188.054 86.9319 188.054L83.3946 209.828C83.3946 209.828 82.0275 222.35 81.2175 223.71C80.4076 225.07 70.3049 224.486 70.3049 224.486L76.5729 152.397L94.2799 149.13Z" fill="black"/>
<path d="M98.6338 137.971L97.9229 140.23L94.0781 152.435L94.0029 152.667H93.9824C93.4663 152.783 82.5708 155.289 80.2194 156.057C80.0926 156.097 79.9682 156.144 79.8469 156.198C78.7566 156.741 77.3964 176.338 77.3964 176.338C77.3964 176.338 76.5796 194.848 76.0294 196.208C75.4791 197.568 73.2952 225.6 71.9452 224.787C70.5953 223.973 60.7866 224.787 60.7866 224.787C59.6963 223.697 60.7866 209.001 60.7866 209.001L62.6902 182.052C62.6902 182.052 61.6 167.083 62.6902 164.359C63.7804 161.635 63.7804 143.402 63.7804 143.402L86.0739 139.95L88.227 139.608L98.6338 137.971Z" fill="#5F5D7E"/>
<path opacity="0.02" d="M97.923 140.23L94.0781 152.435L93.9858 152.674C93.4698 152.79 82.5742 155.295 80.2229 156.064H79.9871L86.0739 139.95L86.2482 139.485L88.2271 139.612L97.923 140.23Z" fill="black"/>
<path opacity="0.1" d="M72.5024 83.5347C72.5024 83.5347 82.5743 94.4234 88.8355 85.4383L94.8232 89.5224L93.733 95.7836L97.2703 143.146C97.2703 143.146 88.0152 142.872 81.4841 145.049C79.665 145.695 77.6996 145.807 75.819 145.373C73.9384 144.938 72.2209 143.976 70.8688 142.599L71.959 100.955L69.5085 88.1622L72.5024 83.5347Z" fill="black"/>
<path d="M72.5024 82.7178C72.5024 82.7178 82.5743 93.6065 88.8355 84.6214L94.8232 88.7055L93.733 94.9667L97.2737 142.342C97.2737 142.342 88.0186 142.069 81.4875 144.246C79.6685 144.891 77.703 145.003 75.8224 144.569C73.9418 144.135 72.2243 143.173 70.8722 141.796L71.9624 100.151L69.512 87.359L72.5024 82.7178Z" fill="#53526B"/>
<path d="M92.605 131.208V132.92H93.1552V131.779H95.1546V132.92H95.7048V131.211L92.605 131.208Z" fill="#E82127"/>
<path d="M93.0971 130.654H95.2092C95.3476 130.621 95.4743 130.55 95.5755 130.45C95.6767 130.35 95.7486 130.225 95.7834 130.087H92.5264C92.5615 130.224 92.6335 130.35 92.7347 130.45C92.8358 130.55 92.9623 130.621 93.1005 130.654" fill="#E82127"/>
<path d="M90.9441 132.92C91.0638 132.873 91.1703 132.798 91.2543 132.701C91.3383 132.604 91.3973 132.488 91.426 132.363H88.9619V130.087H88.4082V132.92H90.9407" fill="#E82127"/>
<path d="M84.3071 130.644H86.2586C86.3975 130.609 86.5254 130.539 86.6305 130.442C86.7356 130.345 86.8145 130.223 86.8601 130.087H83.75V131.748H86.2859V132.335H84.2968C84.145 132.376 84.0035 132.448 83.8815 132.547C83.7596 132.646 83.66 132.769 83.5894 132.91H86.8259V131.201H84.2934V130.64" fill="#E82127"/>
<path d="M79.4914 130.651H81.6035C81.7419 130.617 81.8686 130.547 81.9698 130.447C82.071 130.347 82.1429 130.221 82.1777 130.083H78.9207C78.9558 130.221 79.0278 130.347 79.129 130.447C79.2301 130.547 79.3566 130.617 79.4948 130.651" fill="#E82127"/>
<path d="M79.4914 131.768H81.6035C81.7421 131.735 81.8689 131.665 81.9702 131.565C82.0715 131.465 82.1433 131.339 82.1777 131.201H78.9207C78.9558 131.339 79.0278 131.464 79.129 131.564C79.2301 131.664 79.3566 131.735 79.4948 131.768" fill="#E82127"/>
<path d="M79.4914 132.92H81.6035C81.7419 132.887 81.8686 132.816 81.9698 132.716C82.071 132.616 82.1429 132.491 82.1777 132.353H78.9207C78.9558 132.49 79.0278 132.616 79.129 132.716C79.2301 132.816 79.3566 132.886 79.4948 132.92" fill="#E82127"/>
<path d="M73.9993 130.09C74.0353 130.227 74.1073 130.351 74.2077 130.45C74.308 130.549 74.4332 130.62 74.57 130.654H75.4586L75.503 130.671V132.913H76.0567V130.671L76.108 130.654H76.9966C77.1329 130.619 77.2576 130.548 77.3578 130.449C77.458 130.35 77.5303 130.226 77.5673 130.09H73.9993Z" fill="#E82127"/>
<path d="M84.8915 124.485L87.6633 108.89C90.3051 108.89 91.139 109.181 91.2621 110.363C91.2621 110.363 93.0358 109.704 93.9279 108.36C91.7203 107.369 89.3483 106.796 86.9319 106.669L84.8813 109.16L82.8307 106.669C80.4142 106.796 78.0422 107.369 75.8347 108.36C76.7267 109.704 78.5005 110.363 78.5005 110.363C78.6201 109.181 79.454 108.89 82.0788 108.887L84.8745 124.485" fill="#E82127"/>
<path d="M84.8915 105.948C88.1068 105.908 91.2944 106.547 94.2456 107.824C94.4632 107.457 94.6495 107.073 94.8027 106.676C88.4461 104.101 81.3368 104.101 74.9802 106.676C75.1435 107.071 75.3331 107.454 75.5476 107.824C78.4988 106.547 81.6864 105.908 84.9017 105.948" fill="#E82127"/>
<path d="M93.4629 139.058C93.4629 139.058 93.4629 146.136 95.0965 149.13C96.7302 152.124 106.255 150.497 106.255 150.497L104.352 140.425L93.4629 139.058Z" fill="#D39999"/>
<path d="M105.22 155.391C103.784 156.758 97.8342 154.024 98.2443 152.397C98.5314 151.246 99.5362 147.124 100.107 144.786L100.503 143.142C100.503 143.142 103.989 142.052 105.22 143.142C105.668 143.539 105.982 145.101 106.129 146.987C106.382 150.265 106.132 154.527 105.22 155.391Z" fill="#FDC2CC"/>
<path d="M92.0993 87.6155L82.5742 94.9634C82.5742 94.9634 68.4217 94.1466 71.959 87.3421C73.4992 84.3494 74.4286 81.0801 74.6931 77.7247C74.8081 76.4868 74.8081 75.2408 74.6931 74.0029C74.6931 74.0029 87.7588 62.041 86.1252 75.6365C85.9965 76.6801 85.9212 77.7295 85.8996 78.7808C85.7185 88.9859 92.0993 87.6155 92.0993 87.6155Z" fill="#FDC2CC"/>
<path opacity="0.1" d="M86.1115 75.6399C85.9828 76.6835 85.9075 77.733 85.886 78.7842C84.4198 79.7553 82.6992 80.2714 80.9406 80.2675C78.5038 80.2675 76.7095 77.8956 75.0896 76.3201C75.2707 74.061 74.6829 74.0063 74.6829 74.0063C74.6829 74.0063 87.7452 62.0274 86.1115 75.6399Z" fill="black"/>
<path d="M80.9406 79.7206C85.901 79.7206 89.9222 75.6994 89.9222 70.739C89.9222 65.7785 85.901 61.7573 80.9406 61.7573C75.9802 61.7573 71.959 65.7785 71.959 70.739C71.959 75.6994 75.9802 79.7206 80.9406 79.7206Z" fill="#FDC2CC"/>
<path opacity="0.1" d="M74.5462 79.3137C74.5462 79.3137 73.0493 79.4504 70.0554 83.5311C67.0615 87.6118 60.5099 88.1586 60.5099 88.1586C60.5099 88.1586 58.0594 87.0684 55.3389 99.3173C52.6185 111.566 51.8016 119.731 53.1619 121.091C54.5221 122.452 59.9664 124.359 62.6869 124.359C62.6869 124.359 63.5037 141.505 62.1435 144.499C60.7833 147.493 62.4169 149.4 62.4169 149.4L74.3787 148.583C74.3787 148.583 78.4629 143.412 79.2797 134.43C80.0965 125.449 82.817 99.8608 81.4568 96.8669C80.0965 93.873 74.1088 86.2516 74.3787 85.4348C74.6487 84.6179 74.5462 79.3137 74.5462 79.3137Z" fill="black"/>
<path d="M74.5223 79.2317C74.5223 79.2317 72.5093 79.177 69.5154 83.2612C66.5215 87.3453 59.9904 87.8887 59.9904 87.8887C59.9904 87.8887 57.5399 86.7984 54.8194 99.0474C52.099 111.296 51.2821 119.461 52.6492 120.811C54.0163 122.161 59.4538 124.078 62.1743 124.078C62.1743 124.078 62.9911 141.225 61.6308 144.219C60.2706 147.213 61.9043 149.12 61.9043 149.12L73.8661 148.303C73.8661 148.303 77.9502 143.132 78.767 134.15C79.5839 125.169 82.3043 99.5805 80.9441 96.5866C79.5839 93.5928 73.5961 85.9714 73.8661 85.1546C74.1361 84.3377 74.5223 79.2317 74.5223 79.2317Z" fill="#D39999"/>
<path d="M67.3452 114.29C67.3452 114.29 80.9646 98.6715 79.0507 109.389C77.6837 117.011 72.5196 121.095 70.0691 121.912C67.6186 122.728 67.3452 114.29 67.3452 114.29Z" fill="#FDC2CC"/>
<path opacity="0.1" d="M106.129 146.987C104.827 145.993 102.369 144.444 100.107 144.786L100.503 143.142C100.503 143.142 103.989 142.052 105.22 143.142C105.671 143.539 105.982 145.101 106.129 146.987Z" fill="black"/>
<path opacity="0.1" d="M85.9748 80.9475C85.9748 80.9475 92.9161 85.4383 93.7329 87.3454C94.5498 89.2524 97.5436 90.6127 97.5436 90.6127C97.5436 90.6127 103.258 93.6066 103.258 104.222L106.252 119.191L92.6359 138.241C92.6359 138.241 91.0022 119.188 90.1854 114.56C89.3686 109.933 88.2818 101.231 88.2818 101.231C88.2818 101.231 84.1977 96.0604 84.7445 94.7002C85.2913 93.34 85.9748 80.9475 85.9748 80.9475Z" fill="black"/>
<path d="M85.9509 80.8655C85.9509 80.8655 93.1896 84.8949 94.003 86.7986C94.8164 88.7022 97.8171 90.0522 97.8171 90.0522C97.8171 90.0522 103.531 93.0461 103.531 103.661L106.525 118.631L107.069 147.209C107.069 147.209 102.168 142.582 98.6305 144.759C95.0932 146.936 92.9161 137.681 92.9161 137.681C92.9161 137.681 91.2825 118.627 90.4657 114C89.6489 109.372 88.562 100.671 88.562 100.671C88.562 100.671 84.4779 95.5204 85.0248 94.1534C85.5716 92.7863 85.9509 80.8655 85.9509 80.8655Z" fill="#D39999"/>
<path opacity="0.1" d="M88.8253 59.816C88.3645 59.2298 87.8317 58.7039 87.2395 58.2507C86.3031 57.4715 85.2675 56.6581 84.1055 56.7264C83.4481 56.814 82.8168 57.0399 82.2531 57.3895C79.3595 58.9137 76.4739 60.454 73.5962 62.0102C72.5333 62.5843 71.4362 63.1927 70.6946 64.2248C69.953 65.2569 69.6522 66.583 69.4437 67.8817C69.2693 68.7614 69.2278 69.6623 69.3207 70.5543C69.4054 71.4288 69.83 72.2351 70.5032 72.7997C71.279 73.3636 72.3419 73.3671 72.9913 74.1053C73.3672 74.5325 73.5313 75.1306 73.7978 75.6501C74.0644 76.1695 74.5258 76.6754 75.0521 76.5831C75.5784 76.4908 75.8963 75.9337 75.9715 75.3698C76.005 74.7983 75.9717 74.2248 75.8724 73.661C75.7698 72.6357 75.8997 71.5489 76.4944 70.7867C76.9045 70.2672 77.4923 69.9528 77.8888 69.4197C78.8389 68.1346 78.4049 66.002 79.4472 64.7956C79.7499 64.4802 80.1308 64.2508 80.5511 64.1307C80.9714 64.0106 81.416 64.0042 81.8396 64.112C82.6838 64.2897 83.4562 64.7477 84.232 65.1373C85.2801 65.666 86.3779 66.0896 87.5095 66.4019C88.4596 66.6616 89.5601 67.2836 89.8848 66.0191C90.3804 64.1633 89.9019 61.3232 88.8253 59.816Z" fill="black"/>
<path d="M88.5519 59.5426C88.0911 58.9563 87.5583 58.4304 86.9661 57.9773C86.0296 57.1981 84.9941 56.3847 83.8321 56.453C83.1747 56.5405 82.5433 56.7665 81.9797 57.116C79.0884 58.6403 76.6857 57.1981 73.3228 61.7367C72.605 62.7073 71.1628 62.9192 70.4212 63.9514C69.6795 64.9835 69.3788 66.3096 69.1703 67.6083C68.9958 68.488 68.9544 69.3889 69.0473 70.2809C69.132 71.1554 69.5566 71.9617 70.2298 72.5263C71.0056 73.0902 72.0685 73.0936 72.7178 73.8319C73.0938 74.2591 73.2578 74.8571 73.5244 75.3766C73.791 75.8961 74.2524 76.4019 74.7787 76.3097C75.305 76.2174 75.6228 75.6603 75.698 75.0964C75.7315 74.5249 75.6983 73.9514 75.5989 73.3875C75.4964 72.3622 75.6263 71.2754 76.2209 70.5133C76.6311 69.9938 77.2189 69.6794 77.6153 69.1462C78.5655 67.8612 78.1314 65.7286 79.1738 64.5221C79.4765 64.2068 79.8574 63.9773 80.2777 63.8573C80.698 63.7372 81.1426 63.7307 81.5662 63.8386C82.4103 64.0163 83.1827 64.4743 83.9585 64.8639C85.0066 65.3926 86.1045 65.8162 87.2361 66.1284C88.1862 66.3882 89.2867 67.0102 89.6114 65.7456C90.1103 63.8899 89.6455 61.0498 88.5519 59.5426Z" fill="#865A61"/>
<path d="M64.0642 99.8643C64.0642 99.8643 63.7908 109.936 62.4306 111.296C61.0704 112.657 63.2474 114.29 63.2474 114.29L68.6918 112.923C68.6918 112.923 67.3247 121.905 73.0459 120.818C73.0459 120.818 69.2352 124.355 65.4245 124.902C61.6138 125.449 61.8769 124.089 61.8769 124.089L56.1626 117.284L64.0642 99.8643Z" fill="#D39999"/>
<path opacity="0.1" d="M64.0197 101.088C64.0197 101.088 60.3901 110.343 63.114 114.154L69.1018 112.787C69.1018 112.787 63.6574 114.42 64.4743 111.153C65.2911 107.886 64.0197 101.088 64.0197 101.088Z" fill="black"/>
<path opacity="0.1" d="M62.0239 123.952C62.0239 123.952 69.9187 124.495 72.0958 122.862C69.2307 125.056 65.845 126.469 62.27 126.963L62.0239 123.952Z" fill="black"/>
<path opacity="0.1" d="M96.0535 106.532C96.0535 106.532 100.138 119.055 99.8642 120.958C99.5908 122.862 99.0473 143.822 99.0473 143.822L98.2305 143.549L98.5039 120.685L96.0535 106.532Z" fill="black"/>
<path d="M268.003 141.943C268.003 141.943 273.984 153.682 269.111 160.104C264.237 166.526 269.555 184.028 269.555 184.028" stroke="#607D8A" stroke-miterlimit="10"/>
<path d="M269.774 138.289C269.774 140.552 268.113 142.39 268.113 142.39C268.113 142.39 266.452 140.555 266.452 138.289C266.452 136.023 268.113 134.188 268.113 134.188C268.113 134.188 269.774 136.027 269.774 138.289Z" fill="#01B763"/>
<path d="M271.103 141.943C271.103 141.943 265.122 153.682 269.996 160.104C274.869 166.526 269.551 184.028 269.551 184.028" stroke="#607D8A" stroke-miterlimit="10"/>
<path d="M269.329 138.289C269.329 140.552 270.99 142.39 270.99 142.39C270.99 142.39 272.651 140.555 272.651 138.289C272.651 136.023 270.99 134.188 270.99 134.188C270.99 134.188 269.329 136.027 269.329 138.289Z" fill="#01B763"/>
<path opacity="0.1" d="M269.329 138.289C269.329 140.552 270.99 142.39 270.99 142.39C270.99 142.39 272.651 140.555 272.651 138.289C272.651 136.023 270.99 134.188 270.99 134.188C270.99 134.188 269.329 136.027 269.329 138.289Z" fill="black"/>
<path d="M273.54 141.943C273.54 141.943 279.521 153.682 274.647 160.104C269.774 166.526 275.091 184.028 275.091 184.028" stroke="#607D8A" stroke-miterlimit="10"/>
<path d="M275.31 138.289C275.31 140.552 273.649 142.39 273.649 142.39C273.649 142.39 271.988 140.555 271.988 138.289C271.988 136.023 273.649 134.188 273.649 134.188C273.649 134.188 275.31 136.027 275.31 138.289Z" fill="#01B763"/>
<path d="M274.381 147.694C272.812 149.325 270.341 149.496 270.341 149.496C270.341 149.496 270.416 147.021 271.985 145.394C273.554 143.768 276.025 143.593 276.025 143.593C276.025 143.593 275.949 146.064 274.381 147.694Z" fill="#01B763"/>
<path d="M274.535 155.794C272.966 157.425 270.495 157.595 270.495 157.595C270.495 157.595 270.57 155.121 272.139 153.494C273.707 151.867 276.165 151.69 276.165 151.69C276.165 151.69 276.103 154.161 274.535 155.794Z" fill="#01B763"/>
<path d="M266.028 160.248C267.511 161.956 267.46 164.431 267.46 164.431C267.46 164.431 265.003 164.134 263.519 162.425C262.036 160.716 262.087 158.241 262.087 158.241C262.087 158.241 264.545 158.539 266.028 160.248Z" fill="#01B763"/>
<path d="M267.405 142.978C269.292 144.229 269.903 146.628 269.903 146.628C269.903 146.628 267.453 146.997 265.57 145.76C263.687 144.523 263.072 142.11 263.072 142.11C263.072 142.11 265.519 141.727 267.405 142.978Z" fill="#01B763"/>
<path opacity="0.1" d="M267.405 142.978C269.292 144.229 269.903 146.628 269.903 146.628C269.903 146.628 267.453 146.997 265.57 145.76C263.687 144.523 263.072 142.11 263.072 142.11C263.072 142.11 265.519 141.727 267.405 142.978Z" fill="black"/>
<path d="M276.64 141.943C276.64 141.943 270.659 153.682 275.532 160.104C280.406 166.526 275.088 184.028 275.088 184.028" stroke="#607D8A" stroke-miterlimit="10"/>
<path d="M274.869 138.289C274.869 140.552 276.53 142.39 276.53 142.39C276.53 142.39 278.191 140.555 278.191 138.289C278.191 136.023 276.53 134.188 276.53 134.188C276.53 134.188 274.869 136.027 274.869 138.289Z" fill="#01B763"/>
<path opacity="0.1" d="M274.869 138.289C274.869 140.552 276.53 142.39 276.53 142.39C276.53 142.39 278.191 140.555 278.191 138.289C278.191 136.023 276.53 134.188 276.53 134.188C276.53 134.188 274.869 136.027 274.869 138.289Z" fill="black"/>
<path d="M275.348 147.869C273.759 149.482 273.639 151.97 273.639 151.97C273.639 151.97 276.11 151.83 277.699 150.217C279.289 148.604 279.408 146.115 279.408 146.115C279.408 146.115 276.934 146.256 275.348 147.869Z" fill="#01B763"/>
<path opacity="0.1" d="M275.348 147.869C273.759 149.482 273.639 151.97 273.639 151.97C273.639 151.97 276.11 151.83 277.699 150.217C279.289 148.604 279.408 146.115 279.408 146.115C279.408 146.115 276.934 146.256 275.348 147.869Z" fill="black"/>
<path d="M278.461 159.089C276.872 160.702 276.752 163.19 276.752 163.19C276.752 163.19 279.223 163.05 280.813 161.437C282.402 159.824 282.521 157.336 282.521 157.336C282.521 157.336 280.05 157.469 278.461 159.089Z" fill="#01B763"/>
<path d="M273.878 156.618C273.878 156.618 277.477 150.945 282.532 150.808" stroke="#607D8A" stroke-miterlimit="10"/>
<path d="M271.076 153.19C271.076 153.19 267.477 147.517 262.422 147.38" stroke="#607D8A" stroke-miterlimit="10"/>
<path d="M270.608 161.29C270.608 161.29 274.206 155.617 279.261 155.48" stroke="#607D8A" stroke-miterlimit="10"/>
<path d="M282.364 151.71C282.88 151.71 283.297 151.293 283.297 150.777C283.297 150.262 282.88 149.844 282.364 149.844C281.849 149.844 281.431 150.262 281.431 150.777C281.431 151.293 281.849 151.71 282.364 151.71Z" fill="#01B763"/>
<path d="M262.508 148.361C263.023 148.361 263.441 147.943 263.441 147.428C263.441 146.913 263.023 146.495 262.508 146.495C261.992 146.495 261.575 146.913 261.575 147.428C261.575 147.943 261.992 148.361 262.508 148.361Z" fill="#01B763"/>
<path d="M273.256 163.159C273.256 163.159 269.658 157.486 264.603 157.349" stroke="#607D8A" stroke-miterlimit="10"/>
<path d="M264.688 158.33C265.203 158.33 265.621 157.913 265.621 157.397C265.621 156.882 265.203 156.464 264.688 156.464C264.173 156.464 263.755 156.882 263.755 157.397C263.755 157.913 264.173 158.33 264.688 158.33Z" fill="#01B763"/>
<path d="M279.33 156.461C279.845 156.461 280.263 156.043 280.263 155.528C280.263 155.012 279.845 154.595 279.33 154.595C278.814 154.595 278.396 155.012 278.396 155.528C278.396 156.043 278.814 156.461 279.33 156.461Z" fill="#01B763"/>
<path d="M293.154 177.203C293.154 177.203 284.48 175.467 282.166 173.153C279.852 170.839 269.442 166.803 268.287 169.684C267.132 172.565 252.672 182.418 262.494 184.151C272.316 185.884 285.628 186.465 288.519 185.306C291.411 184.147 293.154 177.203 293.154 177.203Z" fill="#A8A8A8"/>
<path opacity="0.2" d="M262.494 183.078C272.327 184.814 285.628 185.391 288.52 184.233C290.72 183.351 292.252 179.106 292.857 177.151L293.147 177.213C293.147 177.213 291.411 184.154 288.52 185.309C285.628 186.465 272.327 185.887 262.494 184.154C259.657 183.652 258.844 182.476 259.151 180.989C259.401 181.957 260.389 182.705 262.494 183.078Z" fill="black"/>
<path d="M38.7289 206.137C38.7289 206.137 41.5929 209.896 37.4063 215.535C33.2197 221.174 29.7678 225.963 31.1656 229.493C31.1656 229.493 37.4815 218.991 42.6217 218.844C47.7618 218.697 44.3818 212.453 38.7289 206.137Z" fill="#01B763"/>
<path opacity="0.1" d="M38.7291 206.137C38.9786 206.499 39.1754 206.895 39.3135 207.312C44.3306 213.204 46.9998 218.704 42.1809 218.844C37.6901 218.974 32.3038 227.002 31.012 229.032C31.0546 229.188 31.1059 229.342 31.1658 229.493C31.1658 229.493 37.4816 218.991 42.6218 218.844C47.762 218.697 44.3819 212.453 38.7291 206.137Z" fill="black"/>
<path d="M44.0537 210.908C44.0537 212.227 43.9067 213.3 43.7119 213.3C43.5171 213.3 43.3701 212.23 43.3701 210.908C43.3701 209.585 43.5547 210.224 43.7358 210.224C43.9169 210.224 44.0537 209.592 44.0537 210.908Z" fill="#FFD037"/>
<path d="M45.8787 212.483C44.7201 213.116 43.7119 213.509 43.6264 213.334C43.541 213.16 44.4057 212.531 45.5642 211.902C46.7228 211.273 46.2649 211.731 46.3537 211.902C46.4426 212.073 47.0373 211.851 45.8787 212.483Z" fill="#FFD037"/>
<path d="M23.5991 206.137C23.5991 206.137 20.7351 209.896 24.9217 215.535C29.1084 221.174 32.5602 225.963 31.1624 229.49C31.1624 229.49 24.8466 218.987 19.7064 218.84C14.5662 218.693 17.9463 212.453 23.5991 206.137Z" fill="#01B763"/>
<path opacity="0.1" d="M23.5991 206.137C23.3495 206.499 23.1527 206.895 23.0147 207.312C17.9975 213.204 15.3283 218.704 20.1473 218.844C24.6381 218.974 30.0243 227.002 31.3162 229.032C31.2736 229.188 31.2222 229.342 31.1624 229.493C31.1624 229.493 24.8466 218.991 19.7064 218.844C14.5662 218.697 17.9463 212.453 23.5991 206.137Z" fill="black"/>
<path d="M18.2742 210.908C18.2742 212.227 18.4211 213.3 18.6159 213.3C18.8107 213.3 18.9577 212.23 18.9577 210.908C18.9577 209.585 18.7732 210.224 18.592 210.224C18.4109 210.224 18.2742 209.592 18.2742 210.908Z" fill="#FFD037"/>
<path d="M16.4493 212.483C17.6079 213.116 18.6161 213.509 18.7015 213.334C18.787 213.16 17.9223 212.531 16.7637 211.902C15.6051 211.273 16.0631 211.731 15.9742 211.902C15.8854 212.073 15.2907 211.851 16.4493 212.483Z" fill="#FFD037"/>
<path d="M19.1868 228.998C19.1868 228.998 27.1944 228.752 29.6072 227.032C32.0201 225.313 41.9108 223.273 42.5226 226.007C43.1344 228.741 54.5562 239.715 45.5165 239.787C36.4768 239.859 24.5115 238.379 22.102 236.913C19.6926 235.447 19.1868 228.998 19.1868 228.998Z" fill="#A8A8A8"/>
<path opacity="0.2" d="M45.6805 238.84C36.6408 238.912 24.6755 237.432 22.2661 235.966C20.4308 234.849 19.6994 230.84 19.4568 228.991H19.1902C19.1902 228.991 19.696 235.45 22.1055 236.916C24.5149 238.382 36.4802 239.866 45.5199 239.791C48.131 239.77 49.0298 238.84 48.982 237.467C48.6163 238.307 47.6218 238.823 45.6805 238.84Z" fill="black"/>
</g>
<defs>
<linearGradient id="paint0_linear_2530_17993" x1="173.17" y1="204.018" x2="173.17" y2="82.8341" gradientUnits="userSpaceOnUse">
<stop stop-color="#808080" stop-opacity="0.25"/>
<stop offset="0.54" stop-color="#808080" stop-opacity="0.12"/>
<stop offset="1" stop-color="#808080" stop-opacity="0.1"/>
</linearGradient>
<linearGradient id="paint1_linear_2530_17993" x1="199.25" y1="173.289" x2="222.652" y2="86.3733" gradientUnits="userSpaceOnUse">
<stop stop-color="#808080" stop-opacity="0.25"/>
<stop offset="0.54" stop-color="#808080" stop-opacity="0.12"/>
<stop offset="1" stop-color="#808080" stop-opacity="0.1"/>
</linearGradient>
<linearGradient id="paint2_linear_2530_17993" x1="79.5291" y1="243.963" x2="79.5291" y2="52.9123" gradientUnits="userSpaceOnUse">
<stop stop-color="#808080" stop-opacity="0.25"/>
<stop offset="0.54" stop-color="#808080" stop-opacity="0.12"/>
<stop offset="1" stop-color="#808080" stop-opacity="0.1"/>
</linearGradient>
<clipPath id="clip0_2530_17993">
<rect width="350" height="268.28" fill="white"/>
</clipPath>
</defs>
</svg>
