<svg width="28" height="28" viewBox="0 0 28 28" fill="none" xmlns="http://www.w3.org/2000/svg">
<mask id="mask0_0_1645" style="mask-type:luminance" maskUnits="userSpaceOnUse" x="2" y="2" width="24" height="24">
<path fill-rule="evenodd" clip-rule="evenodd" d="M2.33398 2.33398H25.0569V25.0571H2.33398V2.33398Z" fill="white"/>
</mask>
<g mask="url(#mask0_0_1645)">
<path fill-rule="evenodd" clip-rule="evenodd" d="M13.6962 4.08398C8.39598 4.08398 4.08398 8.39482 4.08398 13.695C4.08398 18.9952 8.39598 23.3071 13.6962 23.3071C18.9951 23.3071 23.3071 18.9952 23.3071 13.695C23.3071 8.39482 18.9951 4.08398 13.6962 4.08398ZM13.6962 25.0571C7.43115 25.0571 2.33398 19.96 2.33398 13.695C2.33398 7.42998 7.43115 2.33398 13.6962 2.33398C19.9612 2.33398 25.0571 7.42998 25.0571 13.695C25.0571 19.96 19.9612 25.0571 13.6962 25.0571Z" fill="white"/>
</g>
<mask id="mask1_0_1645" style="mask-type:luminance" maskUnits="userSpaceOnUse" x="20" y="20" width="6" height="7">
<path fill-rule="evenodd" clip-rule="evenodd" d="M20.1133 20.6582H25.9747V26.5087H20.1133V20.6582Z" fill="white"/>
</mask>
<g mask="url(#mask1_0_1645)">
<path fill-rule="evenodd" clip-rule="evenodd" d="M25.0999 26.5087C24.8771 26.5087 24.6531 26.4236 24.4816 26.2532L20.3702 22.1536C20.0284 21.8117 20.0272 21.2576 20.3691 20.9157C20.7097 20.5716 21.2639 20.5739 21.6069 20.9134L25.7182 25.0142C26.0601 25.3561 26.0612 25.9091 25.7194 26.2509C25.5491 26.4236 25.3239 26.5087 25.0999 26.5087Z" fill="white"/>
</g>
</svg>
