<svg width="28" height="28" viewBox="0 0 28 28" fill="none" xmlns="http://www.w3.org/2000/svg">
<path fill-rule="evenodd" clip-rule="evenodd" d="M14.0007 4.08398C8.53248 4.08398 4.08398 8.53248 4.08398 14.0007C4.08398 19.4688 8.53248 23.9173 14.0007 23.9173C19.4688 23.9173 23.9173 19.4688 23.9173 14.0007C23.9173 8.53248 19.4688 4.08398 14.0007 4.08398ZM14.0007 25.6673C7.56765 25.6673 2.33398 20.4337 2.33398 14.0007C2.33398 7.56765 7.56765 2.33398 14.0007 2.33398C20.4337 2.33398 25.6673 7.56765 25.6673 14.0007C25.6673 20.4337 20.4337 25.6673 14.0007 25.6673Z" fill="white"/>
<path fill-rule="evenodd" clip-rule="evenodd" d="M18.6061 15.1829C17.9609 15.1829 17.4336 14.6614 17.4336 14.0163C17.4336 13.3711 17.9504 12.8496 18.5944 12.8496H18.6061C19.2513 12.8496 19.7728 13.3711 19.7728 14.0163C19.7728 14.6614 19.2513 15.1829 18.6061 15.1829Z" fill="white"/>
<path fill-rule="evenodd" clip-rule="evenodd" d="M13.9291 15.1829C13.284 15.1829 12.7578 14.6614 12.7578 14.0163C12.7578 13.3711 13.2735 12.8496 13.9186 12.8496H13.9291C14.5743 12.8496 15.0958 13.3711 15.0958 14.0163C15.0958 14.6614 14.5743 15.1829 13.9291 15.1829Z" fill="white"/>
<path fill-rule="evenodd" clip-rule="evenodd" d="M9.25258 15.1829C8.60741 15.1829 8.08008 14.6614 8.08008 14.0163C8.08008 13.3711 8.59691 12.8496 9.24208 12.8496H9.25258C9.89774 12.8496 10.4192 13.3711 10.4192 14.0163C10.4192 14.6614 9.89774 15.1829 9.25258 15.1829Z" fill="white"/>
</svg>
