<svg width="28" height="28" viewBox="0 0 28 28" fill="none" xmlns="http://www.w3.org/2000/svg">
<path d="M15.6459 14.0009L20.6626 8.99587C20.8823 8.77618 21.0057 8.47822 21.0057 8.16753C21.0057 7.85685 20.8823 7.55889 20.6626 7.3392C20.4429 7.11951 20.1449 6.99609 19.8342 6.99609C19.5236 6.99609 19.2256 7.11951 19.0059 7.3392L14.0009 12.3559L8.99591 7.3392C8.77622 7.11951 8.47826 6.99609 8.16757 6.99609C7.85689 6.99609 7.55893 7.11951 7.33924 7.3392C7.11955 7.55889 6.99613 7.85685 6.99613 8.16753C6.99613 8.47822 7.11955 8.77618 7.33924 8.99587L12.3559 14.0009L7.33924 19.0059C7.22989 19.1143 7.1431 19.2434 7.08387 19.3855C7.02464 19.5277 6.99414 19.6802 6.99414 19.8342C6.99414 19.9882 7.02464 20.1407 7.08387 20.2829C7.1431 20.425 7.22989 20.5541 7.33924 20.6625C7.4477 20.7719 7.57673 20.8587 7.7189 20.9179C7.86107 20.9771 8.01356 21.0076 8.16757 21.0076C8.32159 21.0076 8.47408 20.9771 8.61625 20.9179C8.75841 20.8587 8.88745 20.7719 8.99591 20.6625L14.0009 15.6459L19.0059 20.6625C19.1144 20.7719 19.2434 20.8587 19.3856 20.9179C19.5277 20.9771 19.6802 21.0076 19.8342 21.0076C19.9883 21.0076 20.1407 20.9771 20.2829 20.9179C20.4251 20.8587 20.5541 20.7719 20.6626 20.6625C20.7719 20.5541 20.8587 20.425 20.9179 20.2829C20.9772 20.1407 21.0077 19.9882 21.0077 19.8342C21.0077 19.6802 20.9772 19.5277 20.9179 19.3855C20.8587 19.2434 20.7719 19.1143 20.6626 19.0059L15.6459 14.0009Z" fill="white"/>
</svg>
