<svg width="42" height="50" viewBox="0 0 42 50" fill="none" xmlns="http://www.w3.org/2000/svg">
<path fill-rule="evenodd" clip-rule="evenodd" d="M0 20.5498C0 9.18539 9.49666 0 20.9838 0C32.5034 0 42 9.18539 42 20.5498C42 26.2764 39.9174 31.593 36.4894 36.0992C32.7077 41.0699 28.0465 45.4007 22.7999 48.8002C21.5992 49.5858 20.5155 49.6451 19.1976 48.8002C13.9211 45.4007 9.25999 41.0699 5.51065 36.0992C2.0802 31.593 0 26.2764 0 20.5498ZM14.0681 21.1896C14.0681 24.9967 17.1747 27.991 20.9838 27.991C24.7954 27.991 27.9319 24.9967 27.9319 21.1896C27.9319 17.4122 24.7954 14.2722 20.9838 14.2722C17.1747 14.2722 14.0681 17.4122 14.0681 21.1896Z" fill="white"/>
</svg>
