<svg width="44" height="44" viewBox="0 0 44 44" fill="none" xmlns="http://www.w3.org/2000/svg">
<path d="M11.0001 16.4999C11.0001 15.4916 11.8251 14.6666 12.8334 14.6666C13.8417 14.6666 14.6667 15.4916 14.6667 16.4999C14.6667 17.5083 13.8417 18.3333 12.8334 18.3333C11.8251 18.3333 11.0001 17.5083 11.0001 16.4999ZM31.1667 18.3333C32.1751 18.3333 33.0001 17.5083 33.0001 16.4999C33.0001 15.4916 32.1751 14.6666 31.1667 14.6666C30.1584 14.6666 29.3334 15.4916 29.3334 16.4999C29.3334 17.5083 30.1584 18.3333 31.1667 18.3333ZM40.3334 18.2049V20.1666C40.3334 24.5427 38.595 28.7395 35.5007 31.8338C32.4063 34.9282 28.2095 36.6666 23.8334 36.6666H20.1667C11.0551 36.6666 3.66675 29.3333 3.66675 20.1666V18.2049C3.66675 12.1916 8.52508 7.33325 14.5384 7.33325H29.4617C35.4751 7.33325 40.3334 12.1916 40.3334 18.2049ZM26.5834 16.4999C26.5834 17.7155 27.0663 18.8813 27.9258 19.7408C28.7854 20.6004 29.9512 21.0833 31.1667 21.0833C32.3823 21.0833 33.5481 20.6004 34.4077 19.7408C35.2672 18.8813 35.7501 17.7155 35.7501 16.4999C35.7501 15.2843 35.2672 14.1186 34.4077 13.259C33.5481 12.3995 32.3823 11.9166 31.1667 11.9166C29.9512 11.9166 28.7854 12.3995 27.9258 13.259C27.0663 14.1186 26.5834 15.2843 26.5834 16.4999ZM8.25008 16.4999C8.25008 17.7155 8.73297 18.8813 9.59251 19.7408C10.4521 20.6004 11.6178 21.0833 12.8334 21.0833C14.049 21.0833 15.2148 20.6004 16.0743 19.7408C16.9339 18.8813 17.4167 17.7155 17.4167 16.4999C17.4167 15.2843 16.9339 14.1186 16.0743 13.259C15.2148 12.3995 14.049 11.9166 12.8334 11.9166C11.6178 11.9166 10.4521 12.3995 9.59251 13.259C8.73297 14.1186 8.25008 15.2843 8.25008 16.4999ZM16.5001 31.1666C16.5001 30.1583 15.6751 29.3333 14.6667 29.3333C13.6584 29.3333 12.8334 30.1583 12.8334 31.1666C12.8334 32.1749 13.6584 32.9999 14.6667 32.9999C15.6751 32.9999 16.5001 32.1749 16.5001 31.1666ZM24.7501 31.1666C24.7501 29.6449 23.5217 28.4166 22.0001 28.4166C20.4784 28.4166 19.2501 29.6449 19.2501 31.1666C19.2501 32.6883 20.4784 33.9166 22.0001 33.9166C23.5217 33.9166 24.7501 32.6883 24.7501 31.1666ZM31.1667 31.1666C31.1667 30.1583 30.3417 29.3333 29.3334 29.3333C28.3251 29.3333 27.5001 30.1583 27.5001 31.1666C27.5001 32.1749 28.3251 32.9999 29.3334 32.9999C30.3417 32.9999 31.1667 32.1749 31.1667 31.1666ZM36.6117 21.3766C35.2551 22.9166 33.3301 23.8333 31.1667 23.8333C27.1151 23.8333 23.8334 20.5516 23.8334 16.4999C23.8334 14.2999 24.8234 12.3383 26.3634 10.9999H17.6367C19.1767 12.3383 20.1667 14.2999 20.1667 16.4999C20.1667 20.5516 16.8851 23.8333 12.8334 23.8333C11.8024 23.8406 10.7819 23.6248 9.84207 23.2008C8.90222 22.7768 8.0652 22.1545 7.38841 21.3766C7.68175 24.4199 9.03841 27.1699 11.0734 29.2233C14.1351 27.0049 17.8934 25.6666 22.0001 25.6666C26.1067 25.6666 29.8651 27.0049 32.9267 29.2233C35.0225 27.1104 36.3242 24.3386 36.6117 21.3766Z" fill="#212121"/>
</svg>
