<svg width="50" height="50" viewBox="0 0 50 50" fill="none" xmlns="http://www.w3.org/2000/svg">
<path d="M27.0827 18.7498C27.0827 21.0415 28.9577 22.9165 31.2493 22.9165C33.541 22.9165 35.416 21.0415 35.416 18.7498C35.416 16.4582 33.541 14.5832 31.2493 14.5832C28.9577 14.5832 27.0827 16.4582 27.0827 18.7498ZM14.5827 18.7498C14.5827 21.0415 16.4577 22.9165 18.7493 22.9165C21.041 22.9165 22.916 21.0415 22.916 18.7498C22.916 16.4582 21.041 14.5832 18.7493 14.5832C16.4577 14.5832 14.5827 16.4582 14.5827 18.7498ZM18.7493 27.4998C18.7493 26.2498 17.4993 24.9998 16.2493 24.9998C14.9993 24.9998 13.7493 26.2498 13.7493 27.4998C13.7493 28.7498 14.9993 29.9998 16.2493 29.9998C17.4993 29.9998 18.7493 28.9582 18.7493 27.4998ZM29.166 33.3332C29.166 31.0415 27.291 29.1665 24.9993 29.1665C22.7077 29.1665 20.8327 31.0415 20.8327 33.3332C20.8327 35.6248 22.7077 37.4998 24.9993 37.4998C27.291 37.4998 29.166 35.6248 29.166 33.3332ZM24.9993 8.33317C34.166 8.33317 41.666 15.8332 41.666 24.9998C41.666 34.1665 34.166 41.6665 24.9993 41.6665C15.8327 41.6665 8.33268 34.1665 8.33268 24.9998C8.33268 15.8332 15.8327 8.33317 24.9993 8.33317ZM24.9993 4.1665C13.541 4.1665 4.16602 13.5415 4.16602 24.9998C4.16602 36.4582 13.541 45.8332 24.9993 45.8332C36.4577 45.8332 45.8327 36.4582 45.8327 24.9998C45.8327 13.5415 36.4577 4.1665 24.9993 4.1665ZM36.4577 27.4998C36.4577 26.0415 35.2077 24.9998 33.9577 24.9998C32.4993 24.9998 31.4577 26.2498 31.4577 27.4998C31.4577 28.7498 32.7077 29.9998 33.9577 29.9998C35.2077 30.2082 36.4577 28.9582 36.4577 27.4998Z" fill="white"/>
</svg>
