<svg width="44" height="44" viewBox="0 0 44 44" fill="none" xmlns="http://www.w3.org/2000/svg">
<path d="M10.9993 16.4999C10.9993 15.4916 11.8243 14.6666 12.8327 14.6666C13.841 14.6666 14.666 15.4916 14.666 16.4999C14.666 17.5083 13.841 18.3333 12.8327 18.3333C11.8243 18.3333 10.9993 17.5083 10.9993 16.4999ZM31.166 18.3333C32.1743 18.3333 32.9993 17.5083 32.9993 16.4999C32.9993 15.4916 32.1743 14.6666 31.166 14.6666C30.1577 14.6666 29.3327 15.4916 29.3327 16.4999C29.3327 17.5083 30.1577 18.3333 31.166 18.3333ZM40.3327 18.2049V20.1666C40.3327 24.5427 38.5943 28.7395 35.4999 31.8338C32.4056 34.9282 28.2088 36.6666 23.8327 36.6666H20.166C11.0543 36.6666 3.66602 29.3333 3.66602 20.1666V18.2049C3.66602 12.1916 8.52435 7.33325 14.5377 7.33325H29.461C35.4743 7.33325 40.3327 12.1916 40.3327 18.2049ZM26.5827 16.4999C26.5827 17.7155 27.0656 18.8813 27.9251 19.7408C28.7847 20.6004 29.9504 21.0833 31.166 21.0833C32.3816 21.0833 33.5474 20.6004 34.4069 19.7408C35.2665 18.8813 35.7493 17.7155 35.7493 16.4999C35.7493 15.2843 35.2665 14.1186 34.4069 13.259C33.5474 12.3995 32.3816 11.9166 31.166 11.9166C29.9504 11.9166 28.7847 12.3995 27.9251 13.259C27.0656 14.1186 26.5827 15.2843 26.5827 16.4999ZM8.24935 16.4999C8.24935 17.7155 8.73223 18.8813 9.59178 19.7408C10.4513 20.6004 11.6171 21.0833 12.8327 21.0833C14.0483 21.0833 15.214 20.6004 16.0736 19.7408C16.9331 18.8813 17.416 17.7155 17.416 16.4999C17.416 15.2843 16.9331 14.1186 16.0736 13.259C15.214 12.3995 14.0483 11.9166 12.8327 11.9166C11.6171 11.9166 10.4513 12.3995 9.59178 13.259C8.73223 14.1186 8.24935 15.2843 8.24935 16.4999ZM16.4993 31.1666C16.4993 30.1583 15.6743 29.3333 14.666 29.3333C13.6577 29.3333 12.8327 30.1583 12.8327 31.1666C12.8327 32.1749 13.6577 32.9999 14.666 32.9999C15.6743 32.9999 16.4993 32.1749 16.4993 31.1666ZM24.7493 31.1666C24.7493 29.6449 23.521 28.4166 21.9993 28.4166C20.4777 28.4166 19.2493 29.6449 19.2493 31.1666C19.2493 32.6883 20.4777 33.9166 21.9993 33.9166C23.521 33.9166 24.7493 32.6883 24.7493 31.1666ZM31.166 31.1666C31.166 30.1583 30.341 29.3333 29.3327 29.3333C28.3243 29.3333 27.4993 30.1583 27.4993 31.1666C27.4993 32.1749 28.3243 32.9999 29.3327 32.9999C30.341 32.9999 31.166 32.1749 31.166 31.1666ZM36.611 21.3766C35.2543 22.9166 33.3293 23.8333 31.166 23.8333C27.1143 23.8333 23.8327 20.5516 23.8327 16.4999C23.8327 14.2999 24.8227 12.3383 26.3627 10.9999H17.636C19.176 12.3383 20.166 14.2999 20.166 16.4999C20.166 20.5516 16.8843 23.8333 12.8327 23.8333C11.8016 23.8406 10.7812 23.6248 9.84134 23.2008C8.90149 22.7768 8.06447 22.1545 7.38768 21.3766C7.68102 24.4199 9.03768 27.1699 11.0727 29.2233C14.1343 27.0049 17.8927 25.6666 21.9993 25.6666C26.106 25.6666 29.8643 27.0049 32.926 29.2233C35.0218 27.1104 36.3235 24.3386 36.611 21.3766Z" fill="white"/>
</svg>
