<svg width="28" height="28" viewBox="0 0 28 28" fill="none" xmlns="http://www.w3.org/2000/svg">
<mask id="mask0_0_1904" style="mask-type:luminance" maskUnits="userSpaceOnUse" x="2" y="3" width="24" height="24">
<path fill-rule="evenodd" clip-rule="evenodd" d="M2.33337 3.5H25.0822V26.2488H2.33337V3.5Z" fill="white"/>
</mask>
<g mask="url(#mask0_0_1904)">
<path fill-rule="evenodd" clip-rule="evenodd" d="M12.6058 17.2871L16.8723 24.2089C17.059 24.5123 17.3506 24.5088 17.4685 24.4924C17.5863 24.4761 17.8698 24.4038 17.9725 24.0596L23.3076 6.04045C23.401 5.72195 23.2295 5.50495 23.1525 5.42795C23.0778 5.35095 22.8643 5.18645 22.5551 5.27395L4.52314 10.5543C4.18131 10.6546 4.10664 10.9416 4.09031 11.0594C4.07398 11.1796 4.06931 11.4771 4.37148 11.6673L11.3726 16.0458L17.5583 9.79478C17.8978 9.45178 18.452 9.44828 18.7961 9.78778C19.1403 10.1273 19.1426 10.6826 18.8031 11.0256L12.6058 17.2871ZM17.3775 26.2494C16.5655 26.2494 15.8211 25.8364 15.3825 25.1271L10.8593 17.7876L3.44398 13.1501C2.64481 12.6496 2.22714 11.7583 2.35664 10.8214C2.48498 9.88462 3.12781 9.14028 4.03081 8.87545L22.0628 3.59512C22.8923 3.35245 23.7813 3.58228 24.3926 4.19128C25.004 4.80612 25.2315 5.70445 24.9841 6.53745L19.649 24.5554C19.3818 25.4619 18.6351 26.1024 17.7006 26.2273C17.591 26.2413 17.4848 26.2494 17.3775 26.2494Z" fill="white"/>
</g>
</svg>
