<svg width="20" height="20" viewBox="0 0 20 20" fill="none" xmlns="http://www.w3.org/2000/svg">
<path fill-rule="evenodd" clip-rule="evenodd" d="M9.79095 3.75C9.71511 3.75 9.52845 3.77083 9.42928 3.96917L7.90761 7.01167C7.66678 7.4925 7.20261 7.82667 6.66595 7.90333L3.25928 8.39417C3.03428 8.42667 2.95761 8.59333 2.93428 8.66333C2.91345 8.73083 2.88011 8.9025 3.03511 9.05083L5.49845 11.4175C5.89095 11.795 6.06928 12.3392 5.97595 12.8717L5.39595 16.2133C5.36011 16.4225 5.49095 16.5442 5.54928 16.5858C5.61095 16.6325 5.77595 16.725 5.98011 16.6183L9.02595 15.0392C9.50595 14.7917 10.0776 14.7917 10.5559 15.0392L13.6009 16.6175C13.8059 16.7233 13.9709 16.6308 14.0334 16.5858C14.0918 16.5442 14.2226 16.4225 14.1868 16.2133L13.6051 12.8717C13.5118 12.3392 13.6901 11.795 14.0826 11.4175L16.5459 9.05083C16.7018 8.9025 16.6684 8.73 16.6468 8.66333C16.6243 8.59333 16.5476 8.42667 16.3226 8.39417L12.9159 7.90333C12.3801 7.82667 11.9159 7.4925 11.6751 7.01083L10.1518 3.96917C10.0534 3.77083 9.86678 3.75 9.79095 3.75ZM5.78845 17.9167C5.44428 17.9167 5.10261 17.8083 4.81011 17.595C4.30511 17.225 4.05761 16.6142 4.16511 15.9992L4.74511 12.6575C4.76678 12.5333 4.72428 12.4075 4.63261 12.3192L2.16928 9.9525C1.71595 9.51833 1.55345 8.87667 1.74511 8.28083C1.93845 7.67833 2.45011 7.2475 3.08095 7.1575L6.48761 6.66667C6.61928 6.64833 6.73261 6.5675 6.78928 6.4525L8.31178 3.40917C8.59261 2.84833 9.15928 2.5 9.79095 2.5C10.4226 2.5 10.9893 2.84833 11.2701 3.40917L12.7934 6.45167C12.8509 6.5675 12.9634 6.64833 13.0943 6.66667L16.5009 7.1575C17.1318 7.2475 17.6434 7.67833 17.8368 8.28083C18.0284 8.87667 17.8651 9.51833 17.4118 9.9525L14.9484 12.3192C14.8568 12.4075 14.8151 12.5333 14.8368 12.6567L15.4176 15.9992C15.5243 16.615 15.2768 17.2258 14.7709 17.595C14.2584 17.9708 13.5909 18.0217 13.0251 17.7267L9.98095 16.1492C9.86178 16.0875 9.71928 16.0875 9.60011 16.1492L6.55595 17.7275C6.31261 17.8542 6.05011 17.9167 5.78845 17.9167Z" fill="white"/>
</svg>
