<svg width="28" height="28" viewBox="0 0 28 28" fill="none" xmlns="http://www.w3.org/2000/svg">
<path d="M3.93748 4.375C3.93748 3.52409 4.2755 2.70804 4.87718 2.10636C5.47886 1.50468 6.29491 1.16666 7.14581 1.16666L16.7708 1.16666C17.6217 1.16666 18.4378 1.50468 19.0394 2.10636C19.6411 2.70804 19.9791 3.52409 19.9791 4.375V17.2083C20.83 17.2083 21.6461 17.5464 22.2478 18.148C22.8495 18.7497 23.1875 19.5658 23.1875 20.4167V21.2187C23.1875 21.4315 23.272 21.6355 23.4224 21.7859C23.5728 21.9363 23.7768 22.0208 23.9896 22.0208C24.2023 22.0208 24.4063 21.9363 24.5567 21.7859C24.7071 21.6355 24.7916 21.4315 24.7916 21.2187V15.6042C24.7916 15.1903 24.6248 14.9994 24.219 14.5855L24.2077 14.5727C23.7955 14.154 23.1875 13.5348 23.1875 12.3958V7.58333C23.1873 7.47793 23.2079 7.37352 23.2481 7.27608C23.2883 7.17864 23.3473 7.09008 23.4217 7.01546L24.2238 6.21337C24.2983 6.13868 24.3868 6.07941 24.4842 6.03898C24.5817 5.99854 24.6861 5.97773 24.7916 5.97773C24.8972 5.97773 25.0016 5.99854 25.0991 6.03898C25.1965 6.07941 25.285 6.13868 25.3595 6.21337L26.1616 7.01546C26.236 7.09008 26.295 7.17864 26.3352 7.27608C26.3754 7.37352 26.396 7.47793 26.3958 7.58333V21.2187C26.3958 21.8569 26.1423 22.469 25.691 22.9202C25.2398 23.3715 24.6277 23.625 23.9896 23.625C23.3514 23.625 22.7393 23.3715 22.2881 22.9202C21.8368 22.469 21.5833 21.8569 21.5833 21.2187V20.4167C21.5833 19.9912 21.4143 19.5832 21.1135 19.2823C20.8126 18.9815 20.4046 18.8125 19.9791 18.8125V25.2292H20.7812C20.994 25.2292 21.198 25.3137 21.3484 25.4641C21.4988 25.6145 21.5833 25.8185 21.5833 26.0312C21.5833 26.244 21.4988 26.448 21.3484 26.5984C21.198 26.7488 20.994 26.8333 20.7812 26.8333H3.1354C2.92267 26.8333 2.71866 26.7488 2.56824 26.5984C2.41782 26.448 2.33331 26.244 2.33331 26.0312C2.33331 25.8185 2.41782 25.6145 2.56824 25.4641C2.71866 25.3137 2.92267 25.2292 3.1354 25.2292H3.93748V4.375ZM7.14581 5.17708V13.1979C7.14581 13.4106 7.23032 13.6147 7.38074 13.7651C7.53116 13.9155 7.73517 14 7.9479 14H15.9687C16.1815 14 16.3855 13.9155 16.5359 13.7651C16.6863 13.6147 16.7708 13.4106 16.7708 13.1979V5.17708C16.7708 4.96436 16.6863 4.76034 16.5359 4.60992C16.3855 4.4595 16.1815 4.375 15.9687 4.375H7.9479C7.73517 4.375 7.53116 4.4595 7.38074 4.60992C7.23032 4.76034 7.14581 4.96436 7.14581 5.17708ZM11.3664 21.1546H8.97456V19.7221H11.2252V18.912H8.97456V17.5404H11.3648V16.6741H7.92383V22.0208H11.3664V21.1546ZM13.4775 22.0208H14.7512L16.5254 16.6741H15.3495L14.1624 20.869H14.1127L12.9144 16.6741H11.6888L13.4775 22.0208Z" fill="white"/>
</svg>
