<svg width="28" height="28" viewBox="0 0 28 28" fill="none" xmlns="http://www.w3.org/2000/svg">
<path d="M17.8889 25.6666L10.1111 22.9444L4.08331 25.2778C3.65121 25.4506 3.25152 25.4018 2.88424 25.1313C2.51695 24.8608 2.33331 24.4991 2.33331 24.0463V5.89813C2.33331 5.61726 2.41455 5.36881 2.57702 5.15276C2.73949 4.93671 2.96072 4.77467 3.24072 4.66665L10.1111 2.33331L17.8889 5.05554L23.9166 2.7222C24.3487 2.54936 24.7484 2.59819 25.1157 2.86868C25.483 3.13918 25.6666 3.50084 25.6666 3.95368V22.1018C25.6666 22.3827 25.5854 22.6312 25.4229 22.8472C25.2605 23.0633 25.0392 23.2253 24.7592 23.3333L17.8889 25.6666ZM16.5926 22.4907V7.32405L11.4074 5.50924V20.6759L16.5926 22.4907Z" fill="white"/>
</svg>
