<svg width="28" height="28" viewBox="0 0 28 28" fill="none" xmlns="http://www.w3.org/2000/svg">
<path d="M21 18.0017C21.9283 18.0017 22.8185 18.3704 23.4749 19.0268C24.1313 19.6832 24.5 20.5734 24.5 21.5017C24.5 22.4299 24.1313 23.3202 23.4749 23.9765C22.8185 24.6329 21.9283 25.0017 21 25.0017C20.2755 25.0038 19.5683 24.7802 18.9767 24.3621C18.385 23.944 17.9382 23.352 17.6983 22.6683H16.3333V20.335H17.6983C18.1767 18.97 19.4717 18.0017 21 18.0017ZM21 20.335C20.6906 20.335 20.3938 20.4579 20.1751 20.6767C19.9563 20.8955 19.8333 21.1922 19.8333 21.5017C19.8333 21.8111 19.9563 22.1078 20.1751 22.3266C20.3938 22.5454 20.6906 22.6683 21 22.6683C21.3094 22.6683 21.6062 22.5454 21.825 22.3266C22.0438 22.1078 22.1667 21.8111 22.1667 21.5017C22.1667 21.1922 22.0438 20.8955 21.825 20.6767C21.6062 20.4579 21.3094 20.335 21 20.335ZM21 9.835C21.4425 9.835 21.8668 9.65923 22.1797 9.34636C22.4926 9.03348 22.6684 8.60914 22.6684 8.16667C22.6684 7.7242 22.4926 7.29985 22.1797 6.98698C21.8668 6.6741 21.4425 6.49833 21 6.49833C20.5575 6.49833 20.1332 6.6741 19.8203 6.98698C19.5075 7.29985 19.3317 7.7242 19.3317 8.16667C19.3317 8.60914 19.5075 9.03348 19.8203 9.34636C20.1332 9.65923 20.5575 9.835 21 9.835ZM21 3.5C22.2377 3.5 23.4247 3.99167 24.2998 4.86683C25.175 5.742 25.6667 6.92899 25.6667 8.16667C25.6667 11.655 21 16.835 21 16.835C21 16.835 16.3333 11.655 16.3333 8.16667C16.3333 6.92899 16.825 5.742 17.7002 4.86683C18.5754 3.99167 19.7623 3.5 21 3.5ZM10.3017 20.335H11.6667V22.6683H10.3017C10.0618 23.352 9.61501 23.944 9.02335 24.3621C8.43169 24.7802 7.72451 25.0038 7.00001 25.0017C6.07176 25.0017 5.18152 24.6329 4.52514 23.9765C3.86876 23.3202 3.50001 22.4299 3.50001 21.5017C3.50001 19.9733 4.46835 18.6783 5.83335 18.2V16.835H8.16668V18.2C9.15835 18.55 9.95168 19.3433 10.3017 20.335ZM7.00001 20.335C6.6906 20.335 6.39385 20.4579 6.17506 20.6767C5.95626 20.8955 5.83335 21.1922 5.83335 21.5017C5.83335 21.8111 5.95626 22.1078 6.17506 22.3266C6.39385 22.5454 6.6906 22.6683 7.00001 22.6683C7.30943 22.6683 7.60618 22.5454 7.82497 22.3266C8.04377 22.1078 8.16668 21.8111 8.16668 21.5017C8.16668 21.1922 8.04377 20.8955 7.82497 20.6767C7.60618 20.4579 7.30943 20.335 7.00001 20.335ZM7.00001 4.00167C7.92827 4.00167 8.81851 4.37042 9.47489 5.02679C10.1313 5.68317 10.5 6.57341 10.5 7.50167C10.5 9.03 9.53168 10.325 8.16668 10.8033V12.1683H5.83335V10.8033C5.14971 10.5635 4.55773 10.1167 4.13959 9.525C3.72146 8.93334 3.49792 8.22616 3.50001 7.50167C3.50001 6.57341 3.86876 5.68317 4.52514 5.02679C5.18152 4.37042 6.07176 4.00167 7.00001 4.00167ZM7.00001 6.335C6.6906 6.335 6.39385 6.45792 6.17506 6.67671C5.95626 6.8955 5.83335 7.19225 5.83335 7.50167C5.83335 7.81109 5.95626 8.10783 6.17506 8.32662C6.39385 8.54542 6.6906 8.66833 7.00001 8.66833C7.30943 8.66833 7.60618 8.54542 7.82497 8.32662C8.04377 8.10783 8.16668 7.81109 8.16668 7.50167C8.16668 7.19225 8.04377 6.8955 7.82497 6.67671C7.60618 6.45792 7.30943 6.335 7.00001 6.335ZM12.8333 22.6683V20.335H15.1667V22.6683H12.8333ZM8.16668 15.6683H5.83335V13.335H8.16668V15.6683Z" fill="white"/>
</svg>
