<svg width="24" height="24" viewBox="0 0 24 24" fill="none" xmlns="http://www.w3.org/2000/svg">
<path d="M16.8396 5.7959C17.2193 5.7959 17.5331 6.07805 17.5828 6.44413L17.5896 6.5459V20.1637C17.5896 20.5779 17.2538 20.9137 16.8396 20.9137C16.4599 20.9137 16.1461 20.6315 16.0964 20.2654L16.0896 20.1637V6.5459C16.0896 6.13168 16.4254 5.7959 16.8396 5.7959Z" fill="#01B763"/>
<path d="M20.3857 15.5383C20.6779 15.2447 21.1528 15.2436 21.4464 15.5358C21.7133 15.8015 21.7384 16.2181 21.5213 16.5122L21.4488 16.5965L17.3711 20.6932C17.1045 20.9609 16.6863 20.9852 16.3922 20.7662L16.3079 20.6932L12.2302 16.5965C11.9379 16.3029 11.939 15.828 12.2326 15.5358C12.4995 15.2702 12.9162 15.2469 13.2093 15.4655L13.2933 15.5383L16.8391 19.1003L20.3857 15.5383Z" fill="#01B763"/>
<path d="M6.91113 3.08301C7.29083 3.08301 7.60462 3.36516 7.65429 3.73124L7.66113 3.83301V17.4508C7.66113 17.865 7.32535 18.2008 6.91113 18.2008C6.53144 18.2008 6.21764 17.9186 6.16798 17.5526L6.16113 17.4508V3.83301C6.16113 3.41879 6.49692 3.08301 6.91113 3.08301Z" fill="#01B763"/>
<path d="M6.37972 3.30293C6.64624 3.03517 7.06449 3.01083 7.3586 3.2299L7.44283 3.30293L11.5206 7.39959C11.8128 7.69316 11.8117 8.16804 11.5182 8.46025C11.2513 8.7259 10.8346 8.74915 10.5414 8.53061L10.4575 8.4578L6.91105 4.8947L3.36505 8.4578C3.0994 8.72468 2.68279 8.74985 2.38868 8.53268L2.30439 8.46025C2.03751 8.1946 2.01234 7.77799 2.22952 7.48388L2.30194 7.39959L6.37972 3.30293Z" fill="#01B763"/>
</svg>
