<svg width="28" height="28" viewBox="0 0 28 28" fill="none" xmlns="http://www.w3.org/2000/svg">
<path d="M2.33519 11.1275C2.30835 11.607 2.57668 12.0538 3.01302 12.2545L11.7677 16.2701L15.7834 25.0236C15.9747 25.439 16.39 25.7038 16.8439 25.7038L16.9104 25.7015C17.1445 25.6883 17.3693 25.605 17.5553 25.4622C17.7414 25.3194 17.8801 25.1239 17.9534 24.9011L24.4809 5.03046C24.6173 4.61279 24.5077 4.15196 24.1973 3.84046C23.887 3.52896 23.4274 3.42279 23.0074 3.55696L3.13552 10.0856C2.91266 10.1584 2.717 10.2968 2.57418 10.4827C2.43136 10.6686 2.34806 10.8934 2.33519 11.1275Z" fill="white"/>
</svg>
