<svg width="16" height="16" viewBox="0 0 16 16" fill="none" xmlns="http://www.w3.org/2000/svg">
<path d="M13.848 6.77001L12.936 4.03401C12.8037 3.63566 12.5492 3.28914 12.2087 3.04368C11.8683 2.79822 11.4591 2.6663 11.0393 2.66668H9.33333V1.33334H6.66666V2.66668H4.96066C4.54092 2.6663 4.13174 2.79822 3.79125 3.04368C3.45076 3.28914 3.19629 3.63566 3.064 4.03401L2.15199 6.77001C1.90948 6.87149 1.70237 7.04239 1.55671 7.26124C1.41104 7.48009 1.33333 7.73712 1.33333 8.00001V11.3333C1.33333 11.8253 1.60266 12.2507 1.99999 12.482V14C1.99999 14.1768 2.07023 14.3464 2.19526 14.4714C2.32028 14.5964 2.48985 14.6667 2.66666 14.6667H3.33333C3.51014 14.6667 3.67971 14.5964 3.80473 14.4714C3.92976 14.3464 3.99999 14.1768 3.99999 14V12.6667H12V14C12 14.1768 12.0702 14.3464 12.1953 14.4714C12.3203 14.5964 12.4899 14.6667 12.6667 14.6667H13.3333C13.5101 14.6667 13.6797 14.5964 13.8047 14.4714C13.9298 14.3464 14 14.1768 14 14V12.482C14.2023 12.366 14.3704 12.1988 14.4874 11.9971C14.6045 11.7954 14.6663 11.5665 14.6667 11.3333V8.00001C14.6667 7.73712 14.5889 7.48009 14.4433 7.26124C14.2976 7.04239 14.0905 6.87149 13.848 6.77001ZM4.96066 4.00001H11.0387C11.326 4.00001 11.5807 4.18268 11.6713 4.45601L12.4087 6.66668H3.59133L4.328 4.45601C4.37223 4.32321 4.45714 4.20769 4.57069 4.12585C4.68425 4.044 4.82069 3.99998 4.96066 4.00001ZM3.66666 10.6667C3.5353 10.6666 3.40523 10.6407 3.28388 10.5904C3.16253 10.5401 3.05228 10.4664 2.95942 10.3735C2.86656 10.2805 2.79291 10.1702 2.74268 10.0488C2.69245 9.92746 2.66662 9.79738 2.66666 9.66601C2.66671 9.53464 2.69262 9.40457 2.74293 9.28323C2.79325 9.16188 2.86697 9.05162 2.95989 8.95877C3.05281 8.86591 3.16311 8.79226 3.28449 8.74203C3.40587 8.6918 3.53596 8.66597 3.66733 8.66601C3.93263 8.6661 4.18704 8.77158 4.37457 8.95924C4.56211 9.1469 4.66742 9.40137 4.66733 9.66668C4.66724 9.93198 4.56176 10.1864 4.3741 10.3739C4.18644 10.5615 3.93197 10.6668 3.66666 10.6667ZM12.3333 10.6667C12.202 10.6666 12.0719 10.6407 11.9505 10.5904C11.8292 10.5401 11.7189 10.4664 11.6261 10.3735C11.5332 10.2805 11.4596 10.1702 11.4093 10.0488C11.3591 9.92746 11.3333 9.79738 11.3333 9.66601C11.3334 9.53464 11.3593 9.40457 11.4096 9.28323C11.4599 9.16188 11.5336 9.05162 11.6266 8.95877C11.7195 8.86591 11.8298 8.79226 11.9512 8.74203C12.0725 8.6918 12.2026 8.66597 12.334 8.66601C12.5993 8.6661 12.8537 8.77158 13.0412 8.95924C13.2288 9.1469 13.3341 9.40137 13.334 9.66668C13.3339 9.93198 13.2284 10.1864 13.0408 10.3739C12.8531 10.5615 12.5986 10.6668 12.3333 10.6667Z" fill="#616161"/>
</svg>
