<svg width="44" height="44" viewBox="0 0 44 44" fill="none" xmlns="http://www.w3.org/2000/svg">
<path d="M13.7501 34.8333C13.7501 36.2999 12.4667 37.5833 11.0001 37.5833C9.53341 37.5833 8.25008 36.2999 8.25008 34.8333C8.25008 33.3666 9.53341 32.0833 11.0001 32.0833C12.4667 32.0833 13.7501 33.3666 13.7501 34.8333ZM33.0001 32.0833C31.5334 32.0833 30.2501 33.3666 30.2501 34.8333C30.2501 36.2999 31.5334 37.5833 33.0001 37.5833C34.4667 37.5833 35.7501 36.2999 35.7501 34.8333C35.7501 33.3666 34.4667 32.0833 33.0001 32.0833ZM33.0001 27.4999H32.4501C36.1167 24.5666 38.5001 19.7999 38.5001 14.6666C38.5001 9.53325 36.1167 4.76659 32.4501 1.83325H11.5501C7.88341 4.76659 5.50008 9.53325 5.50008 14.6666C5.50008 19.7999 7.88341 24.5666 11.5501 27.4999H11.0001C6.96675 27.4999 3.66675 30.7999 3.66675 34.8333C3.66675 38.8666 6.96675 42.1666 11.0001 42.1666H33.0001C37.0334 42.1666 40.3334 38.8666 40.3334 34.8333C40.3334 30.7999 37.0334 27.4999 33.0001 27.4999ZM9.16675 14.6666C9.16675 11.1833 10.6334 7.88325 13.0167 5.49992H30.9834C33.3667 7.88325 34.8334 11.1833 34.8334 14.6666C34.8334 21.8166 29.1501 27.4999 22.0001 27.4999C14.8501 27.4999 9.16675 21.8166 9.16675 14.6666ZM33.0001 38.4999H11.0001C8.98341 38.4999 7.33341 36.8499 7.33341 34.8333C7.33341 32.8166 8.98341 31.1666 11.0001 31.1666H33.0001C35.0167 31.1666 36.6667 32.8166 36.6667 34.8333C36.6667 36.8499 35.0167 38.4999 33.0001 38.4999ZM23.6501 9.71659C23.6501 10.9999 24.7501 12.0999 26.0334 12.0999C27.3167 12.0999 28.4167 10.9999 28.4167 9.71659C28.4167 8.43325 27.3167 7.33325 25.8501 7.33325C24.5667 7.33325 23.6501 8.43325 23.6501 9.71659ZM15.7667 9.71659C15.7667 10.9999 16.8667 12.0999 18.1501 12.0999C19.4334 12.0999 20.5334 10.9999 20.5334 9.71659C20.5334 8.43325 19.4334 7.33325 18.1501 7.33325C16.6834 7.33325 15.7667 8.43325 15.7667 9.71659ZM14.1167 18.3333C15.9501 18.3333 17.2334 16.8666 17.2334 15.2166C17.2334 13.5666 15.7667 12.0999 14.1167 12.0999C12.4667 12.0999 11.0001 13.3833 11.0001 15.2166C11.0001 16.8666 12.4667 18.3333 14.1167 18.3333ZM21.2667 21.4499C21.2667 19.7999 19.8001 18.3333 18.1501 18.3333C16.3167 18.3333 15.0334 19.7999 15.0334 21.4499C15.0334 23.2833 16.5001 24.5666 18.1501 24.5666C19.8001 24.5666 21.2667 23.2833 21.2667 21.4499ZM22.0001 18.3333C23.8334 18.3333 25.1167 16.8666 25.1167 15.2166C25.1167 13.5666 23.6501 12.0999 22.0001 12.0999C20.3501 12.0999 18.8834 13.5666 18.8834 15.2166C18.8834 16.8666 20.3501 18.3333 22.0001 18.3333ZM29.1501 21.4499C29.1501 19.7999 27.6834 18.3333 26.0334 18.3333C24.2001 18.3333 22.9167 19.7999 22.9167 21.4499C22.9167 23.2833 24.3834 24.5666 26.0334 24.5666C27.6834 24.5666 29.1501 23.2833 29.1501 21.4499ZM33.0001 15.2166C33.0001 13.5666 31.5334 12.0999 29.8834 12.0999C28.0501 12.0999 26.7667 13.5666 26.7667 15.2166C26.7667 17.0499 28.2334 18.3333 29.8834 18.3333C31.5334 18.3333 33.0001 16.8666 33.0001 15.2166Z" fill="#212121"/>
</svg>
