<svg width="18" height="18" viewBox="0 0 18 18" fill="none" xmlns="http://www.w3.org/2000/svg">
<path fill-rule="evenodd" clip-rule="evenodd" d="M5.7525 1.49951H12.255C14.7975 1.49951 16.5 3.28451 16.5 5.93951V12.0678C16.5 14.7153 14.7975 16.4995 12.255 16.4995H5.7525C3.21 16.4995 1.5 14.7153 1.5 12.0678V5.93951C1.5 3.28451 3.21 1.49951 5.7525 1.49951ZM8.9925 6.79526C8.64 6.79526 8.3475 6.50201 8.3475 6.14276C8.3475 5.77526 8.64 5.48276 9.0075 5.48276C9.3675 5.48276 9.66 5.77526 9.66 6.14276C9.66 6.50201 9.3675 6.79526 8.9925 6.79526ZM9.6525 11.8353C9.6525 12.1953 9.36 12.4878 8.9925 12.4878C8.6325 12.4878 8.34 12.1953 8.34 11.8353V8.52026C8.34 8.15951 8.6325 7.86026 8.9925 7.86026C9.36 7.86026 9.6525 8.15951 9.6525 8.52026V11.8353Z" fill="#01B763"/>
</svg>
