<svg width="24" height="24" viewBox="0 0 24 24" fill="none" xmlns="http://www.w3.org/2000/svg">
<path d="M14.4 14.4H16.8V16.8H14.4V14.4ZM6.00002 2.40002H18C18.088 2.40006 18.1748 2.41942 18.2545 2.45675C18.3341 2.49408 18.4045 2.54845 18.4608 2.61602L21.4608 6.21602C21.6012 6.38402 21.6 6.46922 21.6 6.57842V8.40002C21.6 9.46562 21.1368 10.4244 20.4 11.0832V21C20.4 21.1592 20.3368 21.3118 20.2243 21.4243C20.1118 21.5368 19.9592 21.6 19.8 21.6H12V13.8C12 13.6409 11.9368 13.4883 11.8243 13.3758C11.7118 13.2632 11.5592 13.2 11.4 13.2H6.60002C6.44089 13.2 6.28828 13.2632 6.17576 13.3758C6.06324 13.4883 6.00002 13.6409 6.00002 13.8V21.6H4.20002C4.04089 21.6 3.88828 21.5368 3.77576 21.4243C3.66324 21.3118 3.60002 21.1592 3.60002 21V11.0832C2.86322 10.4232 2.40002 9.46562 2.40002 8.40002V6.60002C2.40009 6.45968 2.44934 6.32381 2.53922 6.21602L5.53922 2.61602C5.59551 2.54845 5.66596 2.49408 5.74559 2.45675C5.82522 2.41942 5.91208 2.40006 6.00002 2.40002ZM3.60002 7.20002V8.40002C3.60002 9.03654 3.85288 9.64699 4.30297 10.0971C4.75306 10.5472 5.3635 10.8 6.00002 10.8C6.63654 10.8 7.24699 10.5472 7.69708 10.0971C8.14717 9.64699 8.40002 9.03654 8.40002 8.40002V7.20002H3.60002ZM9.60002 7.20002V8.40002C9.60002 9.03654 9.85288 9.64699 10.303 10.0971C10.7531 10.5472 11.3635 10.8 12 10.8C12.6365 10.8 13.247 10.5472 13.6971 10.0971C14.1472 9.64699 14.4 9.03654 14.4 8.40002V7.20002H9.60002ZM15.6 7.20002V8.40002C15.6 9.03654 15.8529 9.64699 16.303 10.0971C16.7531 10.5472 17.3635 10.8 18 10.8C18.6365 10.8 19.247 10.5472 19.6971 10.0971C20.1472 9.64699 20.4 9.03654 20.4 8.40002V7.20002H15.6ZM6.28082 3.60002L4.28162 6.00002H8.56802L9.36723 3.60002H6.28082ZM14.1672 6.00002L13.368 3.60002H10.632L9.83283 6.00002H14.1672ZM15.432 6.00002H19.7196L17.7192 3.60002H14.6328L15.432 6.00002ZM13.2 13.8V17.4C13.2 17.5592 13.2632 17.7118 13.3758 17.8243C13.4883 17.9368 13.6409 18 13.8 18H17.4C17.5592 18 17.7118 17.9368 17.8243 17.8243C17.9368 17.7118 18 17.5592 18 17.4V13.8C18 13.6409 17.9368 13.4883 17.8243 13.3758C17.7118 13.2632 17.5592 13.2 17.4 13.2H13.8C13.6409 13.2 13.4883 13.2632 13.3758 13.3758C13.2632 13.4883 13.2 13.6409 13.2 13.8ZM10.8 21.6V14.4H7.20002V21.6H10.8Z" fill="#01B763"/>
</svg>
