<svg width="24" height="24" viewBox="0 0 24 24" fill="none" xmlns="http://www.w3.org/2000/svg">
<path d="M2.05996 10.06C2.56996 10.57 3.37996 10.62 3.92996 10.16C8.59996 6.32002 15.38 6.32002 20.06 10.15C20.62 10.61 21.44 10.57 21.95 10.06C22.54 9.47002 22.5 8.49002 21.85 7.96002C16.14 3.29002 7.87996 3.29002 2.15996 7.96002C1.50996 8.48002 1.45996 9.46002 2.05996 10.06ZM9.81996 17.82L11.29 19.29C11.68 19.68 12.31 19.68 12.7 19.29L14.17 17.82C14.64 17.35 14.54 16.54 13.94 16.23C13.3351 15.9194 12.6649 15.7574 11.985 15.7574C11.305 15.7574 10.6348 15.9194 10.03 16.23C9.45996 16.54 9.34996 17.35 9.81996 17.82ZM6.08996 14.09C6.57996 14.58 7.34996 14.63 7.91996 14.22C9.11301 13.3759 10.5385 12.9226 12 12.9226C13.4614 12.9226 14.8869 13.3759 16.08 14.22C16.65 14.62 17.42 14.58 17.91 14.09L17.92 14.08C18.52 13.48 18.48 12.46 17.79 11.97C14.35 9.48002 9.65996 9.48002 6.20996 11.97C5.51996 12.47 5.47996 13.48 6.08996 14.09Z" fill="#01B763"/>
</svg>
