<svg width="20" height="20" viewBox="0 0 20 20" fill="none" xmlns="http://www.w3.org/2000/svg">
<path d="M6.14093 9.0575C6.18802 9.00917 6.36581 8.8025 6.53142 8.6325C7.50235 7.56333 10.0352 5.81333 11.3609 5.27917C11.5623 5.19333 12.0713 5.01167 12.3432 5C12.6038 5 12.8522 5.06 13.0893 5.18167C13.3848 5.35167 13.6219 5.61917 13.7517 5.935C13.8354 6.15417 13.9653 6.81 13.9653 6.82167C14.0951 7.53917 14.1666 8.705 14.1666 9.99333C14.1666 11.2208 14.0951 12.3392 13.9888 13.0675C13.9766 13.0792 13.8467 13.8942 13.7047 14.1733C13.4441 14.6833 12.9351 15 12.3903 15H12.3432C11.9885 14.9875 11.2424 14.6708 11.2424 14.6592C9.98815 14.1242 7.51372 12.46 6.51924 11.3542C6.51924 11.3542 6.23916 11.07 6.11739 10.8925C5.92742 10.6375 5.83325 10.3217 5.83325 10.0058C5.83325 9.65333 5.9396 9.325 6.14093 9.0575Z" fill="#212121"/>
</svg>
