<svg width="44" height="44" viewBox="0 0 44 44" fill="none" xmlns="http://www.w3.org/2000/svg">
<path d="M13.7493 36.6667C13.7493 38.1333 12.466 39.4167 10.9993 39.4167C9.53268 39.4167 8.24935 38.1333 8.24935 36.6667C8.24935 35.2 9.53268 33.9167 10.9993 33.9167C12.466 33.9167 13.7493 35.2 13.7493 36.6667ZM32.9993 33.9167C31.5327 33.9167 30.2493 35.2 30.2493 36.6667C30.2493 38.1333 31.5327 39.4167 32.9993 39.4167C34.466 39.4167 35.7493 38.1333 35.7493 36.6667C35.7493 35.2 34.466 33.9167 32.9993 33.9167ZM40.3327 36.6667C40.3327 40.7 37.0327 44 32.9993 44H10.9993C6.96602 44 3.66602 40.7 3.66602 36.6667C3.66602 32.6333 6.96602 29.3333 10.9993 29.3333H11.5493C7.88268 26.4 5.49935 21.6333 5.49935 16.5C5.49935 7.33333 12.8327 0 21.9993 0C31.166 0 38.4993 7.33333 38.4993 16.5C38.4993 21.6333 36.116 26.4 32.4493 29.3333H32.9993C37.0327 29.3333 40.3327 32.6333 40.3327 36.6667ZM21.9993 29.3333C29.1493 29.3333 34.8327 23.65 34.8327 16.5C34.8327 9.35 29.1493 3.66667 21.9993 3.66667C14.8493 3.66667 9.16602 9.35 9.16602 16.5C9.16602 23.65 14.8493 29.3333 21.9993 29.3333ZM36.666 36.6667C36.666 34.65 35.016 33 32.9993 33H10.9993C8.98268 33 7.33268 34.65 7.33268 36.6667C7.33268 38.6833 8.98268 40.3333 10.9993 40.3333H32.9993C35.016 40.3333 36.666 38.6833 36.666 36.6667ZM23.6493 11.55C23.6493 9.71667 25.116 8.25 26.9493 8.25C28.7827 8.25 30.2493 9.71667 30.2493 11.55C30.2493 13.3833 28.7827 14.85 26.9493 14.85C25.116 14.85 23.6493 13.3833 23.6493 11.55ZM13.7493 11.55C13.7493 9.71667 15.216 8.25 17.0493 8.25C18.8827 8.25 20.3493 9.71667 20.3493 11.55C20.3493 13.3833 18.8827 14.85 17.0493 14.85C15.216 14.85 13.7493 13.3833 13.7493 11.55ZM17.0493 18.7C17.0493 19.8 16.1327 20.7167 15.0327 20.7167C13.9327 20.7167 13.016 19.8 13.016 18.7C13.016 17.6 13.7493 16.5 14.8493 16.5C16.1327 16.5 17.0493 17.6 17.0493 18.7ZM25.2993 23.2833C25.2993 25.1167 23.8327 26.5833 21.9993 26.5833C20.166 26.5833 18.6993 25.1167 18.6993 23.2833C18.6993 21.45 20.166 19.9833 21.9993 19.9833C23.8327 19.9833 25.2993 21.45 25.2993 23.2833ZM31.166 18.7C31.166 19.8 30.2493 20.7167 29.1493 20.7167C28.0493 20.7167 27.1327 19.8 27.1327 18.7C27.1327 17.6 27.866 16.5 29.1493 16.5C30.2493 16.5 31.166 17.6 31.166 18.7Z" fill="white"/>
</svg>
