<svg width="61" height="180" viewBox="0 0 61 180" fill="none" xmlns="http://www.w3.org/2000/svg">
<path opacity="0.4" d="M42.3185 36.273C52.3349 36.273 60.455 28.1529 60.455 18.1365C60.455 8.11959 52.3349 0 42.3185 0C32.3021 0 24.182 8.11959 24.182 18.1365C24.182 28.1529 32.3021 36.273 42.3185 36.273Z" fill="white"/>
<path opacity="0.859468" d="M19.7486 36.273C29.7655 36.273 37.8851 28.1529 37.8851 18.1365C37.8851 8.11959 29.7655 0 19.7486 0C9.73223 0 1.61212 8.11959 1.61212 18.1365C1.61212 28.1529 9.73223 36.273 19.7486 36.273Z" fill="white"/>
<path fill-rule="evenodd" clip-rule="evenodd" d="M25.048 167.786C24.6911 168.33 24.5108 168.971 24.532 169.621L24.53 169.619C24.53 171.551 25.754 172.517 27.3293 172.523C27.9134 172.557 28.497 172.452 29.0326 172.217C29.5687 171.982 30.0418 171.623 30.4132 171.17C30.6921 171.646 31.0562 172.067 31.4864 172.412C31.5567 172.449 31.6357 172.466 31.7147 172.458C31.7937 172.45 31.8686 172.419 31.9296 172.368L31.9327 172.371C32.3071 172.044 32.9847 171.452 33.3649 171.137C33.3974 171.105 33.4237 171.067 33.4423 171.025C33.4604 170.984 33.4702 170.938 33.4707 170.893C33.4718 170.847 33.4635 170.801 33.4465 170.759C33.4299 170.716 33.4046 170.678 33.3726 170.645C32.9305 170.179 32.6805 169.564 32.6728 168.921V166.023C32.6728 165.927 32.6733 165.832 32.6738 165.737V165.737C32.6798 164.622 32.6853 163.603 31.8469 162.824C31.0485 162.189 30.0485 161.861 29.0295 161.9C27.2497 161.9 25.2592 162.557 24.846 164.743C24.8367 164.788 24.8367 164.833 24.846 164.877C24.8559 164.921 24.8739 164.963 24.8998 164.999C24.9261 165.036 24.9597 165.067 24.9979 165.09C25.0366 165.113 25.0795 165.128 25.1244 165.134L26.9362 165.327C27.0204 165.313 27.0979 165.273 27.1568 165.212C27.2157 165.15 27.2528 165.071 27.2637 164.987C27.3365 164.65 27.5292 164.351 27.8055 164.146C28.0823 163.941 28.4242 163.843 28.7672 163.871C28.9676 163.862 29.1674 163.901 29.3497 163.985C29.5321 164.069 29.6911 164.196 29.8141 164.355C30.0217 164.771 30.1012 165.239 30.0434 165.7V165.937C29.8658 165.957 29.6793 165.976 29.4871 165.996L29.4869 165.996L29.4869 165.996L29.4869 165.996L29.4868 165.996C28.5052 166.096 27.3751 166.212 26.5256 166.583C25.9214 166.822 25.4049 167.242 25.048 167.786ZM0.519475 167.789C0.162586 168.332 -0.0181818 168.973 0.00144448 169.623V169.622C0.00144448 171.552 1.2286 172.517 2.80335 172.523C3.38801 172.557 3.97215 172.452 4.50825 172.217C5.04436 171.982 5.51746 171.623 5.88881 171.17C6.16719 171.647 6.53131 172.068 6.96257 172.412C7.03178 172.45 7.1108 172.467 7.18931 172.46C7.26833 172.452 7.34322 172.421 7.40416 172.37L7.40984 172.373C7.78274 172.045 8.45933 171.455 8.84359 171.139C8.87613 171.107 8.90247 171.068 8.92055 171.026C8.93811 170.984 8.94792 170.939 8.94792 170.893C8.94844 170.847 8.93966 170.801 8.92262 170.758C8.90557 170.716 8.87975 170.677 8.84721 170.645C8.40304 170.18 8.15151 169.564 8.14325 168.921V166.023C8.14325 165.925 8.14379 165.828 8.14434 165.731L8.14434 165.731C8.1506 164.618 8.15633 163.602 7.32101 162.824C6.52201 162.188 5.52159 161.86 4.50102 161.9C2.72123 161.9 0.736913 162.557 0.317531 164.743C0.309267 164.787 0.309783 164.833 0.31908 164.877C0.328377 164.921 0.346454 164.962 0.372278 164.999C0.398102 165.035 0.431156 165.066 0.469376 165.089C0.507596 165.112 0.550463 165.128 0.594364 165.134L2.41393 165.327C2.49708 165.313 2.57352 165.272 2.63136 165.211C2.68973 165.149 2.7264 165.071 2.73673 164.987C2.81058 164.65 3.00323 164.351 3.28006 164.146C3.5569 163.941 3.89881 163.843 4.24175 163.871C4.44266 163.862 4.64254 163.901 4.82486 163.985C5.00769 164.069 5.16677 164.196 5.29021 164.355C5.49577 164.771 5.57427 165.239 5.51643 165.7V165.939C5.33381 165.96 5.14166 165.98 4.94352 166.001L4.9435 166.001H4.94349C3.96647 166.102 2.84355 166.219 1.99764 166.587C1.39284 166.826 0.876879 167.245 0.519475 167.789ZM47.0854 161.987C44.3793 161.987 42.8784 164.297 42.8781 167.264C42.8784 170.216 44.3587 172.585 47.0854 172.587C49.7044 172.587 51.3644 170.277 51.3644 167.367C51.3722 164.355 49.8651 161.987 47.0854 161.987ZM38.0371 178.372C38.4632 177.321 39.4104 174.964 38.9632 174.391C38.5236 173.828 36.0813 174.112 34.9241 174.246L34.8644 174.253C34.5194 174.294 34.4693 173.995 34.7771 173.781C36.7867 172.379 40.0798 172.784 40.4615 173.255C40.8431 173.727 40.3644 177.014 38.4746 178.576C38.3955 178.649 38.2943 178.692 38.1874 178.7C38.0387 178.701 37.9539 178.576 38.0376 178.37L38.0371 178.372ZM8.65294 173.977C8.32446 173.682 8.61833 173.278 9.01499 173.511C13.8544 176.26 19.3245 177.702 24.8885 177.696C29.0472 177.677 33.1615 176.84 36.9979 175.234C37.5929 174.986 38.0867 175.627 37.5072 176.054C33.9951 178.628 28.9047 179.999 24.5197 179.999C18.668 180.031 13.0131 177.885 8.65294 173.977ZM45.6345 166.964V166.999C45.6343 168.179 45.634 170.619 47.0858 170.619C48.5407 170.619 48.6099 168.612 48.6042 167.389C48.6352 166.536 48.5407 165.683 48.3243 164.857C48.2654 164.582 48.1094 164.337 47.8848 164.167C47.6601 163.997 47.3817 163.915 47.1007 163.934C45.7238 163.935 45.6345 165.796 45.6345 166.962V166.964ZM2.73871 169.299C2.73871 170.104 3.15654 170.646 3.87497 170.646C4.14664 170.635 4.41004 170.551 4.63781 170.402C4.86506 170.254 5.04893 170.047 5.16875 169.803C5.46986 169.192 5.59175 168.508 5.51996 167.83V167.429C4.16523 167.427 2.73665 167.714 2.73665 169.297L2.73871 169.299ZM27.2607 169.299C27.2607 170.104 27.6811 170.646 28.4011 170.646C28.6722 170.634 28.9351 170.55 29.1618 170.401C29.3891 170.253 29.5725 170.046 29.6923 169.803C29.9934 169.192 30.1153 168.508 30.0435 167.83V167.429C28.6872 167.427 27.2586 167.714 27.2586 169.297L27.2607 169.299ZM57.996 172.298C58.056 172.353 58.1329 172.386 58.2135 172.391L60.094 172.395C60.1797 172.395 60.2634 172.365 60.3295 172.31C60.3956 172.255 60.44 172.178 60.455 172.093V166.086V166.083C60.455 165.16 60.455 163.879 59.9649 163.115C59.7304 162.752 59.405 162.457 59.0213 162.259C58.6375 162.062 58.2088 161.968 57.7781 161.988C56.4884 161.988 55.7504 162.611 55.2293 163.915H55.1998V162.457C55.1797 162.382 55.1368 162.316 55.0764 162.267C55.0159 162.219 54.9416 162.192 54.8646 162.189H53.1303C53.042 162.186 52.9562 162.216 52.8891 162.273C52.8225 162.331 52.7796 162.411 52.7687 162.499L52.7708 172.044C52.7729 172.134 52.8085 172.22 52.8715 172.285C52.934 172.349 53.0197 172.387 53.1096 172.391H54.9689C55.0154 172.392 55.0619 172.384 55.1058 172.368C55.1497 172.351 55.1895 172.326 55.2236 172.294C55.2577 172.261 55.285 172.223 55.3041 172.18C55.3232 172.137 55.3336 172.091 55.3351 172.044V166.908C55.299 166.29 55.4007 165.672 55.6337 165.099C55.722 164.88 55.8718 164.693 56.0639 164.557C56.2565 164.422 56.4838 164.345 56.7183 164.336C57.9066 164.336 57.8948 165.631 57.8855 166.651C57.8847 166.738 57.884 166.824 57.884 166.906V172.089C57.8964 172.169 57.9361 172.243 57.996 172.298ZM20.6694 172.387C20.58 172.382 20.4959 172.344 20.4339 172.28C20.3714 172.216 20.3352 172.131 20.3326 172.042V166.983C20.36 166.386 20.343 165.787 20.281 165.193C20.2428 164.938 20.1059 164.709 19.8998 164.555C19.6938 164.401 19.4355 164.336 19.1814 164.372C18.9392 164.379 18.7037 164.457 18.5053 164.596C18.3065 164.735 18.1531 164.929 18.0632 165.154C17.9078 165.75 17.8494 166.368 17.8902 166.983V172.042C17.8892 172.088 17.8788 172.134 17.8603 172.176C17.8411 172.219 17.8143 172.257 17.7807 172.289C17.7471 172.322 17.7079 172.346 17.6645 172.363C17.6211 172.38 17.5746 172.388 17.5287 172.387H15.66C15.5707 172.383 15.486 172.345 15.4235 172.281C15.3605 172.217 15.3243 172.131 15.3223 172.042V166.983C15.3223 166.876 15.324 166.764 15.3258 166.649V166.649C15.3418 165.619 15.3614 164.352 14.1659 164.352C12.873 164.352 12.8756 165.767 12.8776 166.857L12.8778 166.983V172.043C12.8762 172.089 12.8659 172.134 12.8473 172.177C12.8287 172.219 12.8018 172.257 12.7683 172.289C12.7347 172.321 12.6949 172.347 12.6515 172.363C12.6082 172.38 12.5622 172.388 12.5157 172.387H10.6435C10.5593 172.384 10.4787 172.351 10.4172 172.294C10.3558 172.236 10.317 172.157 10.3088 172.073V162.531C10.3098 162.485 10.3196 162.439 10.3387 162.397C10.3573 162.354 10.3842 162.316 10.4178 162.284C10.4513 162.252 10.4911 162.227 10.5345 162.21C10.5774 162.194 10.6238 162.185 10.6703 162.187H12.414C12.4997 162.189 12.5818 162.223 12.6443 162.282C12.7073 162.341 12.7461 162.421 12.7533 162.507V163.752H12.7853C12.9418 163.226 13.2687 162.766 13.715 162.446C14.1607 162.126 14.7009 161.964 15.2489 161.985C16.4203 161.985 17.1542 162.549 17.6769 163.752C17.8541 163.298 18.1474 162.898 18.5275 162.594C18.9082 162.289 19.3617 162.09 19.8435 162.016C20.3254 161.943 20.8176 161.998 21.2716 162.175C21.7251 162.353 22.1243 162.648 22.428 163.029C22.9347 163.716 22.9189 164.671 22.904 165.573C22.9015 165.724 22.899 165.873 22.899 166.02L22.897 172.042C22.8959 172.088 22.8856 172.134 22.8665 172.176C22.8479 172.219 22.821 172.257 22.7875 172.289C22.7539 172.321 22.7141 172.346 22.6713 172.363C22.6279 172.38 22.5814 172.388 22.5349 172.387H20.6694ZM34.5987 170.415V171.801L34.5967 171.799C34.5992 171.885 34.6328 171.967 34.6917 172.031C34.7506 172.094 34.8301 172.134 34.9164 172.143C34.9577 172.143 34.9985 172.132 35.0352 172.112C36.0392 171.595 37.1512 171.325 38.2802 171.324C39.4087 171.322 40.5217 171.589 41.5273 172.103C41.5779 172.123 41.6332 172.131 41.6869 172.125C41.7411 172.119 41.7933 172.1 41.8377 172.069C41.8827 172.038 41.9193 171.996 41.9441 171.947C41.9689 171.899 41.9813 171.845 41.9798 171.79V170.333C41.9761 170.223 41.9436 170.116 41.8857 170.024C41.8279 169.931 41.7463 169.855 41.6502 169.803C40.5682 169.246 39.3576 168.987 38.1428 169.055L41.3326 164.535C41.6296 164.128 41.7974 163.874 41.7974 163.678V162.508C41.7985 162.461 41.7897 162.416 41.7716 162.373C41.754 162.33 41.7277 162.29 41.6941 162.258C41.6606 162.226 41.6213 162.2 41.5779 162.184C41.534 162.167 41.4875 162.16 41.4411 162.162H35.2949C35.2495 162.161 35.2035 162.169 35.1612 162.185C35.1183 162.202 35.0796 162.228 35.047 162.26C35.0145 162.293 34.9892 162.331 34.9721 162.374C34.9551 162.416 34.9473 162.462 34.9489 162.508V163.874C34.9479 163.92 34.9566 163.966 34.9742 164.009C34.9918 164.052 35.0181 164.09 35.0517 164.122C35.0847 164.154 35.124 164.18 35.1674 164.196C35.2108 164.212 35.2572 164.219 35.3037 164.217H38.5157L34.8239 169.478C34.6571 169.761 34.5791 170.087 34.5987 170.415Z" fill="white"/>
</svg>
