<svg width="24" height="24" viewBox="0 0 24 24" fill="none" xmlns="http://www.w3.org/2000/svg">
<g clip-path="url(#clip0_0_1205)">
<path d="M19 8C18.7167 8 18.479 7.904 18.287 7.712C18.095 7.52 17.9993 7.28267 18 7C18 6.86667 18.0293 6.73733 18.088 6.612C18.1467 6.48667 18.2173 6.38267 18.3 6.3C18.5 6.1 18.9583 5.875 19.675 5.625L20.75 5.25L20.375 6.325C20.275 6.60833 20.1623 6.88333 20.037 7.15C19.9117 7.41667 19.7993 7.6 19.7 7.7C19.6167 7.78333 19.5127 7.85433 19.388 7.913C19.2633 7.97167 19.134 8.00067 19 8ZM4 21C3.45 21 2.979 20.804 2.587 20.412C2.195 20.02 1.99934 19.5493 2 19V5C2 4.45 2.196 3.979 2.588 3.587C2.98 3.195 3.45067 2.99933 4 3H10C10.55 3 11.021 3.196 11.413 3.588C11.805 3.98 12.0007 4.45067 12 5V13.175C12.15 13.125 12.3083 13.0833 12.475 13.05C12.6417 13.0167 12.8167 13 13 13C13.8333 13 14.5417 13.2917 15.125 13.875C15.7083 14.4583 16 15.1667 16 16V18C16 18.2833 16.096 18.521 16.288 18.713C16.48 18.905 16.7173 19.0007 17 19C17.2833 19 17.521 18.904 17.713 18.712C17.905 18.52 18.0007 18.2827 18 18V13H17V11.575C16.1 11.1917 15.375 10.5917 14.825 9.775C14.275 8.95833 14 8.03333 14 7C14 5.61667 14.4877 4.43733 15.463 3.462C16.4383 2.48667 17.6173 1.99933 19 2C20.3833 2 21.5627 2.48767 22.538 3.463C23.5133 4.43833 24.0007 5.61733 24 7C24 8.03333 23.725 8.95833 23.175 9.775C22.625 10.5917 21.9 11.1917 21 11.575V13H20V18C20 18.8333 19.7083 19.5417 19.125 20.125C18.5417 20.7083 17.8333 21 17 21C16.1667 21 15.4583 20.7083 14.875 20.125C14.2917 19.5417 14 18.8333 14 18V16C14 15.7167 13.904 15.479 13.712 15.287C13.52 15.095 13.2827 14.9993 13 15C12.7167 15 12.479 15.096 12.287 15.288C12.095 15.48 11.9993 15.7173 12 16V19C12 19.55 11.804 20.021 11.412 20.413C11.02 20.805 10.5493 21.0007 10 21H4ZM19 10C19.8333 10 20.5417 9.70833 21.125 9.125C21.7083 8.54167 22 7.83333 22 7C22 6.16667 21.7083 5.45833 21.125 4.875C20.5417 4.29167 19.8333 4 19 4C18.1667 4 17.4583 4.29167 16.875 4.875C16.2917 5.45833 16 6.16667 16 7C16 7.83333 16.2917 8.54167 16.875 9.125C17.4583 9.70833 18.1667 10 19 10ZM4 19H10V17L8 19V16.175L10 14.175V12L8 14V11.175L10 9.175V7L8 9V6.175L9.175 5H4.825L6 6.175V9L4 7V9.175L6 11.175V14L4 12V14.175L6 16.175V19L4 17V19Z" fill="#01B763"/>
</g>
<defs>
<clipPath id="clip0_0_1205">
<rect width="24" height="24" fill="white"/>
</clipPath>
</defs>
</svg>
