<svg width="16" height="16" viewBox="0 0 16 16" fill="none" xmlns="http://www.w3.org/2000/svg">
<path fill-rule="evenodd" clip-rule="evenodd" d="M2.33398 6.87852C2.33398 3.81194 4.89657 1.33334 7.99628 1.33334C11.1047 1.33334 13.6673 3.81194 13.6673 6.87852C13.6673 8.4238 13.1053 9.85843 12.1803 11.0744C11.1599 12.4157 9.90209 13.5843 8.48635 14.5016C8.16233 14.7136 7.8699 14.7296 7.51428 14.5016C6.09047 13.5843 4.83271 12.4157 3.82098 11.0744C2.89531 9.85843 2.33398 8.4238 2.33398 6.87852ZM6.13014 7.05118C6.13014 8.07848 6.96842 8.88646 7.99628 8.88646C9.02481 8.88646 9.87116 8.07848 9.87116 7.05118C9.87116 6.03187 9.02481 5.18456 7.99628 5.18456C6.96842 5.18456 6.13014 6.03187 6.13014 7.05118Z" fill="#E0E0E0"/>
</svg>
