<svg width="28" height="28" viewBox="0 0 28 28" fill="none" xmlns="http://www.w3.org/2000/svg">
<mask id="mask0_0_2774" style="mask-type:luminance" maskUnits="userSpaceOnUse" x="2" y="2" width="24" height="24">
<path fill-rule="evenodd" clip-rule="evenodd" d="M2.33337 2.33398H25.0563V25.0571H2.33337V2.33398Z" fill="white"/>
</mask>
<g mask="url(#mask0_0_2774)">
<path fill-rule="evenodd" clip-rule="evenodd" d="M13.6953 4.08398C8.39513 4.08398 4.08313 8.39482 4.08313 13.695C4.08313 18.9952 8.39513 23.3071 13.6953 23.3071C18.9943 23.3071 23.3063 18.9952 23.3063 13.695C23.3063 8.39482 18.9943 4.08398 13.6953 4.08398ZM13.6953 25.0571C7.4303 25.0571 2.33313 19.96 2.33313 13.695C2.33313 7.42998 7.4303 2.33398 13.6953 2.33398C19.9603 2.33398 25.0563 7.42998 25.0563 13.695C25.0563 19.96 19.9603 25.0571 13.6953 25.0571Z" fill="#212121"/>
</g>
<mask id="mask1_0_2774" style="mask-type:luminance" maskUnits="userSpaceOnUse" x="20" y="20" width="6" height="7">
<path fill-rule="evenodd" clip-rule="evenodd" d="M20.1133 20.6582H25.9747V26.5087H20.1133V20.6582Z" fill="white"/>
</mask>
<g mask="url(#mask1_0_2774)">
<path fill-rule="evenodd" clip-rule="evenodd" d="M25.0999 26.5087C24.8771 26.5087 24.6531 26.4236 24.4816 26.2532L20.3702 22.1536C20.0284 21.8117 20.0272 21.2576 20.3691 20.9157C20.7097 20.5716 21.2639 20.5739 21.6069 20.9134L25.7182 25.0142C26.0601 25.3561 26.0612 25.9091 25.7194 26.2509C25.5491 26.4236 25.3239 26.5087 25.0999 26.5087Z" fill="#212121"/>
</g>
</svg>
