<svg width="40" height="40" viewBox="0 0 40 40" fill="none" xmlns="http://www.w3.org/2000/svg">
<path d="M19.1668 23.3335V27.9168C19.1668 28.1391 19.2779 28.2779 19.5001 28.3335C19.7223 28.3891 19.8751 28.3057 19.9584 28.0835L22.8334 21.1668C22.9445 20.8891 22.9234 20.6252 22.7701 20.3752C22.6168 20.1252 22.3879 20.0002 22.0834 20.0002H20.8334V15.4168C20.8334 15.1946 20.7223 15.0557 20.5001 15.0002C20.2779 14.9446 20.1251 15.0279 20.0418 15.2502L17.1668 22.1668C17.0556 22.4446 17.0768 22.7085 17.2301 22.9585C17.3834 23.2085 17.6123 23.3335 17.9168 23.3335H19.1668ZM13.3334 36.6668C12.8612 36.6668 12.4651 36.5068 12.1451 36.1868C11.8251 35.8668 11.6656 35.4713 11.6668 35.0002V8.3335C11.6668 7.86128 11.8268 7.46517 12.1468 7.14517C12.4668 6.82517 12.8623 6.66572 13.3334 6.66684H16.6668V5.00017C16.6668 4.52795 16.8268 4.13184 17.1468 3.81184C17.4668 3.49184 17.8623 3.33239 18.3334 3.3335H21.6668C22.139 3.3335 22.5351 3.4935 22.8551 3.8135C23.1751 4.1335 23.3345 4.52906 23.3334 5.00017V6.66684H26.6668C27.139 6.66684 27.5351 6.82684 27.8551 7.14684C28.1751 7.46684 28.3345 7.86239 28.3334 8.3335V35.0002C28.3334 35.4724 28.1734 35.8685 27.8534 36.1885C27.5334 36.5085 27.1379 36.6679 26.6668 36.6668H13.3334Z" fill="#01B763"/>
</svg>
