<svg width="47" height="47" viewBox="0 0 47 47" fill="none" xmlns="http://www.w3.org/2000/svg">
<path fill-rule="evenodd" clip-rule="evenodd" d="M23.5 47C10.528 47 0 36.4955 0 23.5C0 10.528 10.528 0 23.5 0C36.4955 0 47 10.528 47 23.5C47 36.4955 36.4955 47 23.5 47ZM30.9965 32.2185C31.2785 32.383 31.584 32.477 31.913 32.477C32.5005 32.477 33.088 32.1715 33.417 31.6075C33.9105 30.785 33.652 29.704 32.806 29.187L24.44 24.205V13.348C24.44 12.361 23.641 11.5855 22.6775 11.5855C21.714 11.5855 20.915 12.361 20.915 13.348V25.2155C20.915 25.8265 21.244 26.3905 21.7845 26.7195L30.9965 32.2185Z" fill="#335081"/>
</svg>
