<svg width="16" height="16" viewBox="0 0 16 16" fill="none" xmlns="http://www.w3.org/2000/svg">
<path d="M7.48738 4.8597V2.18702C7.48738 1.90284 7.71405 1.66602 8.00072 1.66602C8.25738 1.66602 8.47484 1.86501 8.5093 2.11707L8.51405 2.18702V4.8597L11.7007 4.8599C13.2873 4.8599 14.5909 6.1592 14.6641 7.77962L14.6673 7.92341V11.2829C14.6673 12.9147 13.4091 14.2541 11.846 14.3294L11.7073 14.3327H4.29398C2.70732 14.3327 1.41004 13.0399 1.33721 11.4135L1.33398 11.2692L1.33398 7.91652C1.33398 6.28475 2.58592 4.93882 4.14865 4.86325L4.28732 4.8599H7.48732V9.12816L6.42065 8.02667C6.22065 7.82014 5.89398 7.82014 5.69398 8.02667C5.59398 8.12994 5.54732 8.26762 5.54732 8.40531C5.54732 8.50995 5.57718 8.619 5.64033 8.7113L5.69398 8.77706L7.63398 10.7873C7.72732 10.8905 7.86065 10.9456 8.00065 10.9456C8.11176 10.9456 8.22287 10.9074 8.31084 10.8349L8.36065 10.7873L10.3007 8.77706C10.5007 8.57053 10.5007 8.2332 10.3007 8.02667C10.1188 7.83892 9.83233 7.82185 9.63148 7.97547L9.57398 8.02667L8.51398 9.12816V4.8599L7.48738 4.8597Z" fill="#212121"/>
</svg>
