<svg width="47" height="46" viewBox="0 0 47 46" fill="none" xmlns="http://www.w3.org/2000/svg">
<path d="M24.5654 0C8.63516 0 -2.21284 16.1425 3.79545 30.8959L6.36689 37.2018C6.47918 37.4768 6.4996 37.7808 6.4251 38.0683C6.3506 38.3559 6.18518 38.6117 5.95348 38.7976L0.515694 43.1605C0.29307 43.3391 0.131396 43.5824 0.0530013 43.8569C-0.0253935 44.1313 -0.0166406 44.4233 0.0780508 44.6926C0.172742 44.9618 0.3487 45.195 0.581622 45.36C0.814544 45.5249 1.09294 45.6135 1.37835 45.6134H22.931C26.0917 45.6138 29.2215 44.9916 32.1416 43.7823C35.0618 42.573 37.7152 40.8003 39.9502 38.5656C42.1853 36.3308 43.9582 33.6776 45.1678 30.7576C46.3775 27.8375 47 24.7078 47 21.5472C47 9.64634 37.3537 0 25.4529 0H24.5682H24.5654Z" fill="#1A96F0"/>
</svg>
