<svg width="24" height="24" viewBox="0 0 24 24" fill="none" xmlns="http://www.w3.org/2000/svg">
<path d="M6 9C6 8.45 6.45 8 7 8C7.55 8 8 8.45 8 9C8 9.55 7.55 10 7 10C6.45 10 6 9.55 6 9ZM17 10C17.55 10 18 9.55 18 9C18 8.45 17.55 8 17 8C16.45 8 16 8.45 16 9C16 9.55 16.45 10 17 10ZM22 9.93V11C22 13.3869 21.0518 15.6761 19.364 17.364C17.6761 19.0518 15.3869 20 13 20H11C6.03 20 2 16 2 11V9.93C2 6.65 4.65 4 7.93 4H16.07C19.35 4 22 6.65 22 9.93ZM14.5 9C14.5 9.66304 14.7634 10.2989 15.2322 10.7678C15.7011 11.2366 16.337 11.5 17 11.5C17.663 11.5 18.2989 11.2366 18.7678 10.7678C19.2366 10.2989 19.5 9.66304 19.5 9C19.5 8.33696 19.2366 7.70107 18.7678 7.23223C18.2989 6.76339 17.663 6.5 17 6.5C16.337 6.5 15.7011 6.76339 15.2322 7.23223C14.7634 7.70107 14.5 8.33696 14.5 9ZM4.5 9C4.5 9.66304 4.76339 10.2989 5.23223 10.7678C5.70107 11.2366 6.33696 11.5 7 11.5C7.66304 11.5 8.29893 11.2366 8.76777 10.7678C9.23661 10.2989 9.5 9.66304 9.5 9C9.5 8.33696 9.23661 7.70107 8.76777 7.23223C8.29893 6.76339 7.66304 6.5 7 6.5C6.33696 6.5 5.70107 6.76339 5.23223 7.23223C4.76339 7.70107 4.5 8.33696 4.5 9ZM9 17C9 16.45 8.55 16 8 16C7.45 16 7 16.45 7 17C7 17.55 7.45 18 8 18C8.55 18 9 17.55 9 17ZM13.5 17C13.5 16.17 12.83 15.5 12 15.5C11.17 15.5 10.5 16.17 10.5 17C10.5 17.83 11.17 18.5 12 18.5C12.83 18.5 13.5 17.83 13.5 17ZM17 17C17 16.45 16.55 16 16 16C15.45 16 15 16.45 15 17C15 17.55 15.45 18 16 18C16.55 18 17 17.55 17 17ZM19.97 11.66C19.23 12.5 18.18 13 17 13C14.79 13 13 11.21 13 9C13 7.8 13.54 6.73 14.38 6H9.62C10.46 6.73 11 7.8 11 9C11 11.21 9.21 13 7 13C6.43761 13.004 5.881 12.8863 5.36836 12.655C4.85571 12.4237 4.39916 12.0843 4.03 11.66C4.19 13.32 4.93 14.82 6.04 15.94C7.71 14.73 9.76 14 12 14C14.24 14 16.29 14.73 17.96 15.94C19.1031 14.7875 19.8132 13.2756 19.97 11.66Z" fill="#616161"/>
</svg>
