<svg width="50" height="50" viewBox="0 0 50 50" fill="none" xmlns="http://www.w3.org/2000/svg">
<path fill-rule="evenodd" clip-rule="evenodd" d="M14.175 0H35.85C44.325 0 50 5.95 50 14.8V35.2275C50 44.05 44.325 50 35.85 50H14.175C5.7 50 0 44.05 0 35.2275V14.8C0 5.95 5.7 0 14.175 0ZM23.575 32.475L35.45 20.6C36.3 19.75 36.3 18.375 35.45 17.5C34.6 16.65 33.2 16.65 32.35 17.5L22.025 27.825L17.65 23.45C16.8 22.6 15.4 22.6 14.55 23.45C13.7 24.3 13.7 25.675 14.55 26.55L20.5 32.475C20.925 32.9 21.475 33.1 22.025 33.1C22.6 33.1 23.15 32.9 23.575 32.475Z" fill="white"/>
</svg>
