<svg width="16" height="16" viewBox="0 0 16 16" fill="none" xmlns="http://www.w3.org/2000/svg">
<path fill-rule="evenodd" clip-rule="evenodd" d="M7.83332 3C7.77265 3 7.62332 3.01667 7.54398 3.17533L6.32665 5.60933C6.13398 5.994 5.76265 6.26133 5.33332 6.32267L2.60798 6.71533C2.42798 6.74133 2.36665 6.87467 2.34798 6.93067C2.33132 6.98467 2.30465 7.122 2.42865 7.24067L4.39932 9.134C4.71332 9.436 4.85598 9.87133 4.78132 10.2973L4.31732 12.9707C4.28865 13.138 4.39332 13.2353 4.43998 13.2687C4.48932 13.306 4.62132 13.38 4.78465 13.2947L7.22132 12.0313C7.60532 11.8333 8.06265 11.8333 8.44532 12.0313L10.8813 13.294C11.0453 13.3787 11.1773 13.3047 11.2273 13.2687C11.274 13.2353 11.3787 13.138 11.35 12.9707L10.8847 10.2973C10.81 9.87133 10.9527 9.436 11.2667 9.134L13.2373 7.24067C13.362 7.122 13.3353 6.984 13.318 6.93067C13.3 6.87467 13.2387 6.74133 13.0587 6.71533L10.3333 6.32267C9.90465 6.26133 9.53332 5.994 9.34065 5.60867L8.12198 3.17533C8.04332 3.01667 7.89398 3 7.83332 3ZM4.63132 14.3333C4.35598 14.3333 4.08265 14.2467 3.84865 14.076C3.44465 13.78 3.24665 13.2913 3.33265 12.7993L3.79665 10.126C3.81398 10.0267 3.77998 9.926 3.70665 9.85533L1.73598 7.962C1.37332 7.61467 1.24332 7.10133 1.39665 6.62467C1.55132 6.14267 1.96065 5.798 2.46532 5.726L5.19065 5.33333C5.29598 5.31867 5.38665 5.254 5.43198 5.162L6.64998 2.72733C6.87465 2.27867 7.32798 2 7.83332 2C8.33865 2 8.79198 2.27867 9.01665 2.72733L10.2353 5.16133C10.2813 5.254 10.3713 5.31867 10.476 5.33333L13.2013 5.726C13.706 5.798 14.1153 6.14267 14.27 6.62467C14.4233 7.10133 14.2927 7.61467 13.93 7.962L11.9593 9.85533C11.886 9.926 11.8527 10.0267 11.87 10.1253L12.3347 12.7993C12.42 13.292 12.222 13.7807 11.8173 14.076C11.4073 14.3767 10.8733 14.4173 10.4207 14.1813L7.98532 12.9193C7.88998 12.87 7.77598 12.87 7.68065 12.9193L5.24532 14.182C5.05065 14.2833 4.84065 14.3333 4.63132 14.3333Z" fill="#212121"/>
</svg>
