<svg width="28" height="28" viewBox="0 0 28 28" fill="none" xmlns="http://www.w3.org/2000/svg">
<mask id="mask0_0_1895" style="mask-type:luminance" maskUnits="userSpaceOnUse" x="3" y="2" width="21" height="25">
<path fill-rule="evenodd" clip-rule="evenodd" d="M3.5 2.33301H23.3786V26.6542H3.5V2.33301Z" fill="white"/>
</mask>
<g mask="url(#mask0_0_1895)">
<path fill-rule="evenodd" clip-rule="evenodd" d="M9.73209 4.08301C6.75826 4.08301 5.24976 5.22867 5.24976 7.49084V24.6688C5.24976 24.7785 5.31276 24.838 5.36526 24.8683C5.41776 24.901 5.50059 24.9243 5.59626 24.8707L13.0419 20.694C13.3079 20.5458 13.6334 20.5447 13.9006 20.6952L21.2821 24.8648C21.3789 24.9208 21.4618 24.8952 21.5143 24.8637C21.5668 24.8322 21.6286 24.7727 21.6286 24.663V7.70434C21.6286 6.80951 21.6286 4.08301 17.1509 4.08301H9.73209ZM5.48192 26.6545C5.13776 26.6545 4.79359 26.5623 4.48092 26.378C3.86609 26.0198 3.49976 25.3793 3.49976 24.6688V7.49084C3.49976 4.21251 5.77126 2.33301 9.73209 2.33301H17.1509C21.1083 2.33301 23.3786 4.29184 23.3786 7.70434V24.663C23.3786 25.3747 23.0123 26.0152 22.3963 26.3733C21.7826 26.7327 21.0429 26.7397 20.4223 26.3897L13.4689 22.4615L6.45142 26.3978C6.14809 26.5682 5.81559 26.6545 5.48192 26.6545Z" fill="white"/>
</g>
<path fill-rule="evenodd" clip-rule="evenodd" d="M17.6629 11.9326H9.12524C8.64224 11.9326 8.25024 11.5406 8.25024 11.0576C8.25024 10.5746 8.64224 10.1826 9.12524 10.1826H17.6629C18.1459 10.1826 18.5379 10.5746 18.5379 11.0576C18.5379 11.5406 18.1459 11.9326 17.6629 11.9326Z" fill="white"/>
</svg>
