<svg width="89" height="59" viewBox="0 0 89 59" fill="none" xmlns="http://www.w3.org/2000/svg">
<g filter="url(#filter0_d_2549_21955)">
<path d="M16.2805 18.6322L13.4922 19.5142C10.9804 20.3117 8.69956 21.7211 6.94461 23.6687C3.74504 27.2376 3.14631 31.4346 4.32468 37.1034L5.43196 41.5444C7.0492 47.0882 9.55187 50.5275 14.0488 52.1619C16.5126 53.0576 19.1882 53.2312 21.7803 52.7562L24.6564 52.2259C26.5148 51.8871 28.3514 51.3981 30.133 50.7515L30.5351 50.6045L76.603 39.1185C79.2584 38.3319 80.5392 37.4988 82.5399 36.097C85.8072 33.6166 86.6296 29.9399 84.4776 21.12L83.6992 17.9981C81.4587 9.20026 78.9916 6.34368 74.9571 5.68382C72.5324 5.3854 71.0141 5.26577 68.2965 5.80323L22.2434 17.2856L21.8194 17.3446C19.9501 17.6394 18.0989 18.0698 16.2805 18.6322ZM25.1127 19.9329L35.6295 19.3813C36.3409 19.344 37.0487 19.2921 37.7528 19.2255C38.0466 28.3219 39.1522 33.5729 43.3806 41.7973C42.7276 42.069 42.0783 42.3555 41.4327 42.6566L31.8879 47.1069C29.8255 48.0726 27.3683 47.4554 26.0491 45.6203C24.2998 43.1919 23.0494 40.1877 21.8899 36.0399L21.4879 34.4276C20.5644 30.2209 20.2692 26.963 20.6772 24.0123C20.9585 21.747 22.8383 20.0485 25.1127 19.9329Z" fill="#F54336"/>
<path d="M66.6274 10.6098C68.3976 10.1685 69.8759 10.0023 71.1362 10.1551C71.0255 10.2138 70.9221 10.3019 70.8223 10.4046C71.2756 10.4628 71.7029 10.5431 72.1156 10.627C73.4271 10.9228 74.5421 11.7501 75.2621 12.8783C76.3788 14.6549 77.068 16.4135 77.8699 18.8757C78.0713 19.4949 78.2395 20.1068 78.3966 20.7371L78.499 21.1475C78.6525 21.763 78.7912 22.3823 78.8968 22.9943C79.3483 25.5594 79.5654 27.4357 79.4172 29.5433C79.3259 30.8737 78.7113 32.1167 77.6958 33.0082C77.3746 33.2907 77.0312 33.5475 76.6473 33.8301C76.7504 33.8666 76.8499 33.8886 76.9641 33.9068C75.9416 34.6443 74.5914 35.1989 72.8655 35.6292C72.1132 35.8168 71.3351 35.9641 70.5498 36.0821L64.3739 11.3118C65.1301 11.0143 65.8751 10.7974 66.6274 10.6098Z" fill="#4B545A"/>
<path d="M66.6274 10.6098C68.3976 10.1685 69.8759 10.0023 71.1362 10.1551C71.0255 10.2138 70.9221 10.3019 70.8223 10.4046C71.2756 10.4628 71.7029 10.5431 72.1156 10.627C73.4271 10.9228 74.5421 11.7501 75.2621 12.8783C76.3788 14.6549 77.068 16.4135 77.8699 18.8757C78.0713 19.4949 78.2395 20.1068 78.3966 20.7371L78.499 21.1475C78.6525 21.763 78.7912 22.3823 78.8968 22.9943C79.3483 25.5594 79.5654 27.4357 79.4172 29.5433C79.3259 30.8737 78.7113 32.1167 77.6958 33.0082C77.3746 33.2907 77.0312 33.5475 76.6473 33.8301C76.7504 33.8666 76.8499 33.8886 76.9641 33.9068C75.9416 34.6443 74.5914 35.1989 72.8655 35.6292C72.1132 35.8168 71.3351 35.9641 70.5498 36.0821L64.3739 11.3118C65.1301 11.0143 65.8751 10.7974 66.6274 10.6098Z" fill="#4388FC" fill-opacity="0.1"/>
<path d="M66.6274 10.6098C68.3976 10.1685 69.8759 10.0023 71.1362 10.1551C71.0255 10.2138 70.9221 10.3019 70.8223 10.4046C71.2756 10.4628 71.7029 10.5431 72.1156 10.627C73.4271 10.9228 74.5421 11.7501 75.2621 12.8783C76.3788 14.6549 77.068 16.4135 77.8699 18.8757C78.0713 19.4949 78.2395 20.1068 78.3966 20.7371L78.499 21.1475C78.6525 21.763 78.7912 22.3823 78.8968 22.9943C79.3483 25.5594 79.5654 27.4357 79.4172 29.5433C79.3259 30.8737 78.7113 32.1167 77.6958 33.0082C77.3746 33.2907 77.0312 33.5475 76.6473 33.8301C76.7504 33.8666 76.8499 33.8886 76.9641 33.9068C75.9416 34.6443 74.5914 35.1989 72.8655 35.6292C72.1132 35.8168 71.3351 35.9641 70.5498 36.0821L64.3739 11.3118C65.1301 11.0143 65.8751 10.7974 66.6274 10.6098Z" fill="url(#paint0_radial_2549_21955)" fill-opacity="0.77"/>
<path d="M85.6914 29.2551C85.651 32.6123 84.5595 34.5814 82.5585 36.1078C81.9716 36.5188 81.4364 36.8858 80.9233 37.2161L80.9387 36.9009C81.0037 35.8416 81.5291 34.8699 82.3709 34.2241C83.7406 33.1821 84.2326 32.3277 84.7682 30.0769C84.876 29.6297 85.249 29.3032 85.6914 29.2551Z" fill="#D8394C"/>
<path d="M80.9586 10.2747C79.3469 7.3294 77.4587 6.10326 74.9753 5.69494C74.2641 5.60759 73.6193 5.53485 73.0112 5.48407L73.1728 5.75515C73.7274 6.65993 74.6476 7.27118 75.694 7.44619C77.3925 7.72326 78.2281 8.24663 79.7577 9.98253C80.0629 10.3268 80.5455 10.44 80.9586 10.2747Z" fill="#D8394C"/>
<path d="M60.6413 12.7403C61.9911 12.3726 63.3851 11.9939 64.9267 11.5784C65.0447 11.549 65.1554 11.4902 65.244 11.4058C65.654 11.039 65.7285 10.6468 65.4864 10.1155C65.0346 9.37194 64.18 9.14912 62.8451 9.45081L25.5781 17.9018C25.5486 17.9092 25.5191 17.9166 25.4896 17.9239C25.508 17.9349 25.5411 17.9422 25.5743 17.9495L26.5063 18.1686C26.7053 18.2124 26.9153 18.2379 27.1328 18.2303L33.8381 17.8507C38.5639 17.5753 42.6748 17.033 46.4362 16.1575C52.2216 15.0419 56.1235 13.9757 60.6413 12.7403Z" fill="#4B545A"/>
<path d="M60.6413 12.7403C61.9911 12.3726 63.3851 11.9939 64.9267 11.5784C65.0447 11.549 65.1554 11.4902 65.2441 11.4058C65.654 11.039 65.7285 10.6468 65.4864 10.1155C65.0346 9.37194 64.18 9.14911 62.8451 9.45081L25.5781 17.9018C25.5486 17.9092 25.5191 17.9166 25.4896 17.9239C25.508 17.9349 25.5411 17.9422 25.5743 17.9495L26.5063 18.1686C26.7053 18.2124 26.9153 18.2379 27.1328 18.2303L33.8381 17.8507C38.5639 17.5753 42.6748 17.033 46.4362 16.1574C52.2216 15.0419 56.1235 13.9756 60.6413 12.7403Z" fill="#4388FC" fill-opacity="0.1"/>
<path d="M60.6413 12.7403C61.9911 12.3726 63.3851 11.9939 64.9267 11.5784C65.0447 11.549 65.1554 11.4902 65.2441 11.4058C65.654 11.039 65.7285 10.6468 65.4864 10.1155C65.0346 9.37194 64.18 9.14911 62.8451 9.45081L25.5781 17.9018C25.5486 17.9092 25.5191 17.9166 25.4896 17.9239C25.508 17.9349 25.5411 17.9422 25.5743 17.9495L26.5063 18.1686C26.7053 18.2124 26.9153 18.2379 27.1328 18.2303L33.8381 17.8507C38.5639 17.5753 42.6748 17.033 46.4362 16.1574C52.2216 15.0419 56.1235 13.9756 60.6413 12.7403Z" fill="url(#paint1_radial_2549_21955)" fill-opacity="0.77"/>
<path d="M48.1353 12.7914C48.9038 13.6117 49.271 14.2674 49.7292 15.4765L47.4503 15.9512C46.5678 14.9881 45.7731 14.3144 44.5436 13.5935L48.1353 12.7914Z" fill="#4B545A"/>
<path d="M30.4543 18.0405L29.8522 16.9452L25.5967 17.9128C25.5672 17.9202 25.5376 17.9275 25.5081 17.9349C25.5266 17.9458 25.5597 17.9531 25.5929 17.9605L26.5249 18.1795C26.7238 18.2233 26.9339 18.2488 27.1514 18.2413L30.4543 18.0405Z" fill="#4B545A"/>
<path d="M27.7424 17.9072C28.1183 17.9069 28.3212 17.8407 28.6422 17.6828L28.3389 16.4663L27.439 16.6907L27.7424 17.9072Z" fill="#594F4F"/>
<path d="M27.7546 16.83L28.9901 16.5064C29.1228 16.4733 29.2189 16.3559 29.2303 16.213L29.503 12.7823C29.5069 12.6723 29.4187 12.5698 29.3081 12.5662C29.1349 12.5627 28.9469 12.5629 28.722 12.6034C28.5708 12.6255 28.427 12.6769 28.309 12.7064C28.0065 12.8129 27.7407 13.0037 27.5522 13.2531C27.3895 13.4805 27.2379 13.7518 27.1596 14.1294C27.0591 14.6059 27.0836 15.207 27.2114 15.7823C27.2624 16.0498 27.3612 16.3832 27.4417 16.6434C27.4783 16.7899 27.6071 16.8668 27.7546 16.83Z" fill="#594F4F"/>
<path d="M66.5897 36.6018C67.9541 36.2927 69.3628 35.9726 70.919 35.6158C71.037 35.5864 71.1623 35.5863 71.2802 35.6191C71.8144 35.7506 72.0643 36.0619 72.0999 36.6446C72.0502 37.5133 71.4002 38.1113 70.0799 38.4716L33.2075 48.5056C33.178 48.5129 33.1485 48.5203 33.119 48.5276C33.1301 48.5093 33.156 48.4873 33.1818 48.4653L33.9019 47.8343C34.057 47.7022 34.2305 47.5811 34.426 47.4856L40.4989 44.6949C44.8008 42.7194 48.6851 41.2683 52.4172 40.2755C58.0787 38.537 62.0208 37.632 66.5897 36.6018Z" fill="#4B545A"/>
<path d="M66.5897 36.6018C67.9542 36.2927 69.3628 35.9726 70.919 35.6158C71.037 35.5864 71.1623 35.5862 71.2802 35.6191C71.8144 35.7506 72.0643 36.0619 72.0999 36.6446C72.0502 37.5133 71.4002 38.1113 70.0799 38.4716L33.2075 48.5056C33.178 48.5129 33.1485 48.5203 33.119 48.5276C33.1301 48.5093 33.156 48.4873 33.1818 48.4653L33.9019 47.8343C34.057 47.7022 34.2305 47.5811 34.426 47.4856L40.4989 44.6949C44.8008 42.7194 48.6851 41.2683 52.4172 40.2755C58.0787 38.537 62.0208 37.632 66.5897 36.6018Z" fill="#4388FC" fill-opacity="0.1"/>
<path d="M66.5897 36.6018C67.9542 36.2927 69.3628 35.9726 70.919 35.6158C71.037 35.5864 71.1623 35.5862 71.2802 35.6191C71.8144 35.7506 72.0643 36.0619 72.0999 36.6446C72.0502 37.5133 71.4002 38.1113 70.0799 38.4716L33.2075 48.5056C33.178 48.5129 33.1485 48.5203 33.119 48.5276C33.1301 48.5093 33.156 48.4873 33.1818 48.4653L33.9019 47.8343C34.057 47.7022 34.2305 47.5811 34.426 47.4856L40.4989 44.6949C44.8008 42.7194 48.6851 41.2683 52.4172 40.2755C58.0787 38.537 62.0208 37.632 66.5897 36.6018Z" fill="url(#paint2_radial_2549_21955)" fill-opacity="0.77"/>
<path d="M55.5088 42.4315C55.8023 41.3464 55.8186 40.5951 55.6555 39.3125L53.4205 39.9631C53.0935 41.2278 52.7081 42.1957 51.9609 43.4095L55.5088 42.4315Z" fill="#4B545A"/>
<path d="M37.4329 46.0976L37.4155 47.3474L33.2038 48.4909C33.1743 48.4983 33.1448 48.5056 33.1153 48.513C33.1264 48.4946 33.1523 48.4726 33.1781 48.4506L33.8982 47.8196C34.0533 47.6875 34.2268 47.5664 34.4223 47.471L37.4329 46.0976Z" fill="#4B545A"/>
<path d="M68.6475 36.1823L62.6543 12.1449C62.6543 12.1449 64.3411 11.5183 66.4693 12.0499C71.1478 13.2187 75.5676 31.8882 72.0788 34.5483C70.3337 35.8789 68.6475 36.1823 68.6475 36.1823Z" fill="#F54336"/>
<path d="M35.1195 47.4998C35.4516 47.3236 35.6618 47.2867 36.0193 47.2754L36.3226 48.492L35.4228 48.7163L35.1195 47.4998Z" fill="#594F4F"/>
<path d="M35.6223 48.4486L36.865 48.1543C36.9978 48.1212 37.1377 48.1797 37.2149 48.3006L39.0663 51.2017C39.1214 51.2969 39.0916 51.4289 38.9957 51.484C38.8444 51.5684 38.6783 51.6565 38.4607 51.7263C38.3169 51.7778 38.1657 51.7999 38.0477 51.8293C37.7306 51.8772 37.4063 51.8335 37.1228 51.7018C36.8725 51.5774 36.6111 51.4091 36.3648 51.1124C36.0523 50.7389 35.7918 50.1967 35.6345 49.6287C35.554 49.3686 35.4847 49.0278 35.4337 48.7603C35.3971 48.6137 35.4895 48.4817 35.6223 48.4486Z" fill="#594F4F"/>
<path d="M25.0831 33.5152C24.1341 29.2059 23.8902 26.0285 24.2759 23.2391C24.4443 22.0295 25.1174 20.9587 26.1214 20.2725L35.6503 19.7804C36.2217 19.7469 36.8078 19.7098 37.3756 19.6616C37.5531 24.5213 37.9806 27.9954 38.7809 31.2053C39.5922 34.4591 40.8532 37.6942 42.8462 41.6031C42.3223 41.8271 41.7837 42.0548 41.2671 42.3082L32.619 46.3326C31.4103 46.198 30.3133 45.5686 29.5967 44.5797C27.943 42.2831 26.685 39.3742 25.4851 35.1274L25.0831 33.5152ZM24.6996 33.6108L25.1016 35.2231C26.2611 39.3709 27.5299 42.3861 29.2608 44.8035C30.0766 45.939 31.343 46.6196 32.6697 46.7247L41.4286 42.6415C42.0743 42.3404 42.7236 42.054 43.3766 41.7822C41.3101 37.7671 40.0013 34.4661 39.1571 31.0803C38.2691 27.5187 37.9083 23.8723 37.7451 19.1958C37.041 19.2624 36.3332 19.3144 35.6218 19.3516L25.986 19.8548C24.8676 20.5851 24.0652 21.7659 23.878 23.1515C23.4809 26.1462 23.7761 29.4041 24.6996 33.6108Z" fill="black"/>
<path d="M25.9936 19.8843L35.6294 19.3812C36.3408 19.3439 37.0486 19.292 37.7527 19.2254C38.0465 28.3217 39.1521 33.5728 43.3805 41.7971C42.7275 42.0689 42.0782 42.3553 41.4326 42.6564L32.6884 46.7359C31.3581 46.6161 30.0953 45.9502 29.2795 44.8147C27.5302 42.3863 26.2798 39.3821 25.1203 35.2343L24.7183 33.622C23.7948 29.4153 23.4996 26.1574 23.9077 23.2067C24.0729 21.7955 24.8752 20.6146 25.9936 19.8843Z" fill="#4B545A"/>
<path d="M25.9936 19.8843L35.6294 19.3812C36.3408 19.3439 37.0486 19.292 37.7527 19.2254C38.0465 28.3217 39.1521 33.5728 43.3805 41.7971C42.7275 42.0689 42.0782 42.3553 41.4326 42.6564L32.6884 46.7359C31.3581 46.6161 30.0953 45.9502 29.2795 44.8147C27.5302 42.3863 26.2798 39.3821 25.1203 35.2343L24.7183 33.622C23.7948 29.4153 23.4996 26.1574 23.9077 23.2067C24.0729 21.7955 24.8752 20.6146 25.9936 19.8843Z" fill="#4388FC" fill-opacity="0.1"/>
<path d="M25.9936 19.8843L35.6294 19.3812C36.3408 19.3439 37.0486 19.292 37.7527 19.2254C38.0465 28.3217 39.1521 33.5728 43.3805 41.7971C42.7275 42.0689 42.0782 42.3553 41.4326 42.6564L32.6884 46.7359C31.3581 46.6161 30.0953 45.9502 29.2795 44.8147C27.5302 42.3863 26.2798 39.3821 25.1203 35.2343L24.7183 33.622C23.7948 29.4153 23.4996 26.1574 23.9077 23.2067C24.0729 21.7955 24.8752 20.6146 25.9936 19.8843Z" fill="url(#paint3_radial_2549_21955)" fill-opacity="0.77"/>
<path d="M9.06959 46.8337L25.2005 44.2908L25.1566 44.1149L8.97538 46.0788C9.05943 46.4159 9.13631 46.6614 9.06959 46.8337Z" fill="#E7E7E7"/>
<path d="M5.05351 30.7256L20.4901 25.3979L20.5339 25.5738L5.32108 31.4217C5.24068 31.0993 5.19331 30.8464 5.05351 30.7256Z" fill="#E7E7E7"/>
<path d="M25.1122 19.9326C22.8378 20.0482 20.9581 21.7468 20.6547 23.9864C20.2503 26.9517 20.5566 30.1914 21.4654 34.4017L21.8674 36.014C23.0269 40.1618 24.2957 43.177 26.0265 45.5944C27.3458 47.4295 29.8029 48.0467 31.8654 47.081L32.666 46.7101C31.3357 46.5904 30.0729 45.9244 29.2571 44.789C27.5078 42.3606 26.2574 39.3563 25.0979 35.2085L24.6959 33.5963C23.7724 29.3896 23.4772 26.1316 23.8852 23.1809C24.0725 21.7954 24.8712 20.5999 25.9932 19.8842L25.1122 19.9326Z" fill="#4B545A"/>
<path d="M9.87444 47.8004C12.5484 50.4186 15.2107 51.6074 18.9739 51.6188L17.2038 52.0601C16.1564 52.3213 15.0657 52.2196 14.101 51.744C12.238 50.8073 10.9133 49.7676 9.87444 47.8004Z" fill="url(#paint4_linear_2549_21955)"/>
<path d="M9.87444 47.8004C12.5484 50.4186 15.2107 51.6074 18.9739 51.6188L17.2038 52.0601C16.1564 52.3213 15.0657 52.2196 14.101 51.744C12.238 50.8073 10.9133 49.7676 9.87444 47.8004Z" fill="url(#paint5_linear_2549_21955)"/>
<path d="M18.9555 51.6073L17.2001 52.045C16.1528 52.3061 15.062 52.2044 14.0973 51.7288C12.2379 50.8069 10.9133 49.7671 9.8744 47.7999C12.5484 50.4181 15.1959 51.6106 18.9555 51.6073Z" fill="#D5E3F0"/>
<path d="M5.34334 29.6254C6.47517 26.0584 8.26772 23.7588 11.5851 21.9821L9.81494 22.4234C8.76761 22.6845 7.85223 23.2864 7.22377 24.1592C6.01489 25.8462 5.33706 27.4008 5.34334 29.6254Z" fill="url(#paint6_linear_2549_21955)"/>
<path d="M5.34334 29.6254C6.47517 26.0584 8.26772 23.7588 11.5851 21.9821L9.81494 22.4234C8.76761 22.6845 7.85223 23.2864 7.22377 24.1592C6.01489 25.8462 5.33706 27.4008 5.34334 29.6254Z" fill="url(#paint7_linear_2549_21955)"/>
<path d="M11.5703 21.9858L9.81492 22.4234C8.76759 22.6846 7.85221 23.2864 7.22375 24.1592C6.00012 25.8499 5.32229 27.4045 5.32857 29.6291C6.47515 26.0584 8.25295 23.7625 11.5703 21.9858Z" fill="#D5E3F0"/>
<path d="M4.83575 30.9195C4.8505 30.9159 4.89462 30.9671 4.93482 31.1284L8.77193 46.5182C8.81213 46.6794 8.78249 46.7491 8.78249 46.7491C8.76774 46.7527 8.67193 46.7455 8.51007 46.599L8.38867 46.4892C7.64919 45.8484 7.10839 45.3761 6.48732 44.519C6.10228 43.6031 5.76162 42.6139 5.44694 41.5403L4.33966 37.0992C4.11349 36.0036 3.94984 34.9702 3.85982 33.9807C3.85982 33.9807 3.85982 33.9807 3.85616 33.966C4.00216 32.9177 4.25792 32.2468 4.61003 31.3339L4.66564 31.1799C4.7398 30.9746 4.821 30.9232 4.83575 30.9195Z" fill="#4B545A"/>
</g>
<defs>
<filter id="filter0_d_2549_21955" x="-100.826" y="-80.6609" width="290.652" height="260.542" filterUnits="userSpaceOnUse" color-interpolation-filters="sRGB">
<feFlood flood-opacity="0" result="BackgroundImageFix"/>
<feColorMatrix in="SourceAlpha" type="matrix" values="0 0 0 0 0 0 0 0 0 0 0 0 0 0 0 0 0 0 127 0" result="hardAlpha"/>
<feOffset dy="20"/>
<feGaussianBlur stdDeviation="50"/>
<feComposite in2="hardAlpha" operator="out"/>
<feColorMatrix type="matrix" values="0 0 0 0 0.0156863 0 0 0 0 0.0235294 0 0 0 0 0.0588235 0 0 0 0.08 0"/>
<feBlend mode="normal" in2="BackgroundImageFix" result="effect1_dropShadow_2549_21955"/>
<feBlend mode="normal" in="SourceGraphic" in2="effect1_dropShadow_2549_21955" result="shape"/>
</filter>
<radialGradient id="paint0_radial_2549_21955" cx="0" cy="0" r="1" gradientUnits="userSpaceOnUse" gradientTransform="translate(66.5193 23.2469) rotate(-14) scale(12.9984 42.6748)">
<stop stop-color="white" stop-opacity="0.8"/>
<stop offset="1" stop-color="white" stop-opacity="0.01"/>
</radialGradient>
<radialGradient id="paint1_radial_2549_21955" cx="0" cy="0" r="1" gradientUnits="userSpaceOnUse" gradientTransform="translate(68.5254 9.00829) rotate(-13.9668) scale(44.5167 5.63258)">
<stop stop-color="white" stop-opacity="0.8"/>
<stop offset="1" stop-color="white" stop-opacity="0.01"/>
</radialGradient>
<radialGradient id="paint2_radial_2549_21955" cx="0" cy="0" r="1" gradientUnits="userSpaceOnUse" gradientTransform="translate(75.2914 36.1488) rotate(-13.9668) scale(44.5167 5.62166)">
<stop stop-color="white" stop-opacity="0.8"/>
<stop offset="1" stop-color="white" stop-opacity="0.01"/>
</radialGradient>
<radialGradient id="paint3_radial_2549_21955" cx="0" cy="0" r="1" gradientUnits="userSpaceOnUse" gradientTransform="translate(41.7425 30.012) rotate(-13.3502) scale(17.6315 43.6264)">
<stop stop-color="white" stop-opacity="0.8"/>
<stop offset="1" stop-color="white" stop-opacity="0.01"/>
</radialGradient>
<linearGradient id="paint4_linear_2549_21955" x1="15.1286" y1="52.5685" x2="13.7001" y2="46.8393" gradientUnits="userSpaceOnUse">
<stop offset="0.1548" stop-color="#A1A1A1"/>
<stop offset="0.9205" stop-color="white"/>
</linearGradient>
<linearGradient id="paint5_linear_2549_21955" x1="15.1286" y1="52.5685" x2="13.7001" y2="46.8393" gradientUnits="userSpaceOnUse">
<stop stop-color="#333333"/>
<stop offset="0.1883"/>
<stop offset="0.3849" stop-color="#333333"/>
<stop offset="0.5983"/>
<stop offset="0.8033" stop-color="#333333"/>
<stop offset="1"/>
</linearGradient>
<linearGradient id="paint6_linear_2549_21955" x1="7.7415" y1="22.9388" x2="9.16995" y2="28.668" gradientUnits="userSpaceOnUse">
<stop offset="0.1548" stop-color="#A1A1A1"/>
<stop offset="0.9205" stop-color="white"/>
</linearGradient>
<linearGradient id="paint7_linear_2549_21955" x1="7.7415" y1="22.9388" x2="9.16995" y2="28.668" gradientUnits="userSpaceOnUse">
<stop stop-color="#333333"/>
<stop offset="0.1883"/>
<stop offset="0.3849" stop-color="#333333"/>
<stop offset="0.5983"/>
<stop offset="0.8033" stop-color="#333333"/>
<stop offset="1"/>
</linearGradient>
</defs>
</svg>
