<svg width="87" height="53" viewBox="0 0 87 53" fill="none" xmlns="http://www.w3.org/2000/svg">
<g filter="url(#filter0_d_2559_29483)">
<path d="M21.848 5.37972L18.9403 5.09126C16.3198 4.83414 13.6704 5.22978 11.2918 6.32686C6.94813 8.34349 4.74516 11.9614 3.59418 17.6306L2.86154 22.1446C2.16278 27.872 3.106 32.0158 6.59128 35.2878C8.50079 37.0809 10.8891 38.2942 13.4564 38.8791L16.3061 39.5251C18.1459 39.946 20.0249 40.2204 21.9155 40.3285L22.3426 40.3519L69.1669 47.9517C71.915 48.2754 73.4192 48.015 75.8084 47.516C79.7855 46.5254 81.9889 43.4734 83.4871 34.5272L84.0021 31.354C85.4103 22.3932 84.2703 18.7985 80.8257 16.6034C78.7169 15.3743 77.3699 14.6664 74.6629 14.0894L27.8536 6.49206L27.441 6.37923C25.6085 5.9136 23.7391 5.57962 21.848 5.37972ZM29.4454 10.0531L39.3193 13.6892C39.9872 13.9352 40.6576 14.1664 41.3303 14.3826C38.017 22.8507 36.9637 28.1077 37.6067 37.3249C36.9001 37.3173 36.191 37.3245 35.4796 37.3466L24.9625 37.6732C22.6883 37.7476 20.6753 36.2129 20.1868 34.0083C19.5372 31.0895 19.5724 27.8384 20.1416 23.5732L20.4076 21.9344C21.2166 17.7081 22.2289 14.6003 23.7659 12.0517C24.9164 10.0825 27.3115 9.26331 29.4454 10.0531Z" fill="#F54336"/>
<path d="M71.237 17.8455C73.0362 18.1375 74.4591 18.5672 75.5561 19.204C75.4313 19.2143 75.3017 19.2544 75.1696 19.3095C75.5629 19.5415 75.9237 19.7835 76.2695 20.0231C77.3573 20.8113 78.0552 22.0101 78.2719 23.3297C78.5974 25.4008 78.5375 27.287 78.304 29.8637C78.245 30.5116 78.1584 31.1398 78.0544 31.7804L77.9867 32.1975C77.8852 32.8232 77.7686 33.4465 77.6245 34.05C77.0287 36.5832 76.489 38.3915 75.5227 40.2683C74.9148 41.454 73.8609 42.3532 72.5773 42.7718C72.171 42.9046 71.7546 43.0052 71.2908 43.1134C71.3711 43.1876 71.4538 43.2469 71.5515 43.3086C70.322 43.5831 68.8638 43.5605 67.1096 43.2757C66.3449 43.1516 65.5725 42.9804 64.8049 42.7794L68.8913 17.6024C69.7029 17.6271 70.4724 17.7214 71.237 17.8455Z" fill="#4B545A"/>
<path d="M71.237 17.8455C73.0362 18.1375 74.4591 18.5672 75.5561 19.204C75.4313 19.2143 75.3017 19.2544 75.1696 19.3095C75.5629 19.5415 75.9237 19.7835 76.2695 20.0231C77.3573 20.8113 78.0552 22.0101 78.2719 23.3297C78.5974 25.4008 78.5375 27.287 78.304 29.8637C78.245 30.5116 78.1584 31.1398 78.0544 31.7804L77.9867 32.1975C77.8852 32.8232 77.7686 33.4465 77.6245 34.05C77.0287 36.5832 76.489 38.3915 75.5227 40.2683C74.9148 41.454 73.8609 42.3532 72.5773 42.7718C72.171 42.9046 71.7546 43.0052 71.2908 43.1134C71.3711 43.1876 71.4538 43.2469 71.5515 43.3086C70.322 43.5831 68.8638 43.5605 67.1096 43.2757C66.3449 43.1516 65.5725 42.9804 64.8049 42.7794L68.8913 17.6024C69.7029 17.6271 70.4724 17.7214 71.237 17.8455Z" fill="#4388FC" fill-opacity="0.1"/>
<path d="M71.237 17.8455C73.0362 18.1375 74.4591 18.5672 75.5561 19.204C75.4313 19.2143 75.3017 19.2544 75.1696 19.3095C75.5629 19.5415 75.9237 19.7835 76.2695 20.0231C77.3573 20.8113 78.0552 22.0101 78.2719 23.3297C78.5974 25.4008 78.5375 27.287 78.304 29.8637C78.245 30.5116 78.1584 31.1398 78.0544 31.7804L77.9867 32.1975C77.8852 32.8232 77.7686 33.4465 77.6245 34.05C77.0287 36.5832 76.489 38.3915 75.5227 40.2683C74.9148 41.454 73.8609 42.3532 72.5773 42.7718C72.171 42.9046 71.7546 43.0052 71.2908 43.1134C71.3711 43.1876 71.4538 43.2469 71.5515 43.3086C70.322 43.5831 68.8638 43.5605 67.1096 43.2757C66.3449 43.1516 65.5725 42.9804 64.8049 42.7794L68.8913 17.6024C69.7029 17.6271 70.4724 17.7214 71.237 17.8455Z" fill="url(#paint0_radial_2559_29483)" fill-opacity="0.77"/>
<path d="M81.397 42.4743C80.0375 45.541 78.2596 46.9191 75.8211 47.5325C75.1202 47.6786 74.4842 47.8048 73.8831 47.906L74.0214 47.6226C74.4982 46.6756 75.3635 45.9903 76.3908 45.729C78.0589 45.3116 78.8472 44.721 80.2256 42.8652C80.5008 42.4971 80.9719 42.3442 81.397 42.4743Z" fill="#D8394C"/>
<path d="M84.528 23.1831C84.2083 19.8439 82.9575 17.9742 80.8381 16.6211C80.2195 16.2608 79.656 15.94 79.1177 15.6538L79.1593 15.9664C79.3122 17.0156 79.9163 17.9393 80.8082 18.5122C82.2587 19.4357 82.8197 20.2454 83.5404 22.4418C83.685 22.8781 84.0836 23.1721 84.528 23.1831Z" fill="#D8394C"/>
<path d="M64.9011 17.4434C66.2854 17.6374 67.7146 17.8388 69.2937 18.0645C69.4137 18.084 69.5384 18.0737 69.6531 18.0311C70.174 17.8557 70.3969 17.525 70.3838 16.9418C70.2619 16.0811 69.565 15.5399 68.2204 15.291L30.6727 8.3712C30.6427 8.36633 30.6127 8.36147 30.5827 8.3566C30.5953 8.37393 30.6229 8.39369 30.6504 8.41346L31.4199 8.98176C31.5853 9.10035 31.7682 9.20647 31.9708 9.28524L38.2772 11.5779C42.725 13.1866 46.7132 14.3079 50.5119 14.9856C56.2635 16.2402 60.2663 16.7981 64.9011 17.4434Z" fill="#4B545A"/>
<path d="M64.9012 17.4434C66.2854 17.6374 67.7146 17.8388 69.2937 18.0646C69.4137 18.084 69.5385 18.0737 69.6531 18.0311C70.174 17.8557 70.3969 17.525 70.3839 16.9418C70.262 16.0811 69.565 15.5399 68.2204 15.291L30.6727 8.3712C30.6427 8.36633 30.6127 8.36147 30.5827 8.3566C30.5953 8.37393 30.6229 8.39369 30.6504 8.41346L31.4199 8.98176C31.5853 9.10035 31.7682 9.20647 31.9708 9.28524L38.2772 11.5779C42.725 13.1866 46.7132 14.3079 50.5119 14.9856C56.2635 16.2402 60.2663 16.7981 64.9012 17.4434Z" fill="#4388FC" fill-opacity="0.1"/>
<path d="M64.9012 17.4434C66.2854 17.6374 67.7146 17.8388 69.2937 18.0646C69.4137 18.084 69.5385 18.0737 69.6531 18.0311C70.174 17.8557 70.3969 17.525 70.3839 16.9418C70.262 16.0811 69.565 15.5399 68.2204 15.291L30.6727 8.3712C30.6427 8.36633 30.6127 8.36147 30.5827 8.3566C30.5953 8.37393 30.6229 8.39369 30.6504 8.41346L31.4199 8.98176C31.5853 9.10035 31.7682 9.20647 31.9708 9.28524L38.2772 11.5779C42.725 13.1866 46.7132 14.3079 50.5119 14.9856C56.2635 16.2402 60.2663 16.7981 64.9012 17.4434Z" fill="url(#paint1_radial_2559_29483)" fill-opacity="0.77"/>
<path d="M53.3978 12.564C53.7804 13.62 53.8592 14.3667 53.8036 15.6574L51.5242 15.1956C51.0932 13.9637 50.6289 13.032 49.7839 11.8858L53.3978 12.564Z" fill="#4B545A"/>
<path d="M35.0955 10.4189L34.9741 9.17599L30.6855 8.38818C30.6555 8.38332 30.6255 8.37845 30.5956 8.37358C30.6081 8.39091 30.6357 8.41068 30.6633 8.43044L31.4328 8.99875C31.5982 9.11734 31.781 9.22346 31.9837 9.30222L35.0955 10.4189Z" fill="#4B545A"/>
<path d="M32.6581 9.2292C33.0034 9.37699 33.2157 9.39616 33.5727 9.37765L33.7734 8.14115L32.8588 7.99271L32.6581 9.2292Z" fill="#594F4F"/>
<path d="M33.0936 8.24459L34.3555 8.4341C34.4904 8.456 34.6249 8.38609 34.6916 8.25931L36.2934 5.21664C36.3403 5.11722 36.2997 4.98831 36.1996 4.94148C36.0419 4.87002 35.8693 4.79613 35.6468 4.74473C35.4993 4.70549 35.3469 4.69606 35.227 4.67659C34.9073 4.65528 34.5881 4.72579 34.3167 4.88052C34.0778 5.02522 33.8316 5.21462 33.6111 5.53049C33.3311 5.92845 33.1168 6.48999 33.0075 7.06857C32.949 7.33429 32.9084 7.67937 32.8799 7.94996C32.8557 8.09893 32.9437 8.22025 33.0936 8.24459Z" fill="#594F4F"/>
<path d="M60.9641 41.6971C62.3387 41.9507 63.7582 42.2117 65.3277 42.497C65.4476 42.5165 65.5627 42.5658 65.658 42.6424C66.0967 42.9735 66.2036 43.3578 66.0067 43.9069C65.6189 44.6849 64.7865 44.9779 63.4323 44.7887L25.6234 39.4778C25.5934 39.4729 25.5634 39.4681 25.5334 39.4632C25.5508 39.4507 25.5832 39.4407 25.6156 39.4307L26.5254 39.1349C26.7198 39.0747 26.9268 39.0319 27.144 39.0213L33.8194 38.8509C38.5476 38.7315 42.6858 38.9292 46.5037 39.4877C52.3869 40.1215 56.3631 40.8433 60.9641 41.6971Z" fill="#4B545A"/>
<path d="M60.9641 41.6971C62.3387 41.9507 63.7582 42.2117 65.3277 42.497C65.4476 42.5165 65.5627 42.5658 65.658 42.6424C66.0967 42.9735 66.2036 43.3578 66.0068 43.9069C65.6189 44.6849 64.7865 44.9779 63.4323 44.7887L25.6234 39.4778C25.5934 39.4729 25.5634 39.4681 25.5334 39.4632C25.5508 39.4507 25.5832 39.4407 25.6156 39.4307L26.5254 39.1349C26.7198 39.0747 26.9268 39.0319 27.144 39.0213L33.8194 38.8509C38.5476 38.7315 42.6858 38.9292 46.5037 39.4877C52.3869 40.1215 56.3631 40.8433 60.9641 41.6971Z" fill="#4388FC" fill-opacity="0.1"/>
<path d="M60.9641 41.6971C62.3387 41.9507 63.7582 42.2117 65.3277 42.497C65.4476 42.5165 65.5627 42.5658 65.658 42.6424C66.0967 42.9735 66.2036 43.3578 66.0068 43.9069C65.6189 44.6849 64.7865 44.9779 63.4323 44.7887L25.6234 39.4778C25.5934 39.4729 25.5634 39.4681 25.5334 39.4632C25.5508 39.4507 25.5832 39.4407 25.6156 39.4307L26.5254 39.1349C26.7198 39.0747 26.9268 39.0319 27.144 39.0213L33.8194 38.8509C38.5476 38.7315 42.6858 38.9292 46.5037 39.4877C52.3869 40.1215 56.3631 40.8433 60.9641 41.6971Z" fill="url(#paint2_radial_2559_29483)" fill-opacity="0.77"/>
<path d="M48.4933 42.6848C49.1902 41.8041 49.5012 41.1206 49.8566 39.8787L47.5481 39.5957C46.7496 40.6282 46.0145 41.3651 44.8504 42.1853L48.4933 42.6848Z" fill="#4B545A"/>
<path d="M30.4517 38.9314L29.9434 40.0721L25.6258 39.463C25.5959 39.4582 25.5659 39.4533 25.5359 39.4484C25.5533 39.436 25.5857 39.4259 25.6181 39.4159L26.5278 39.1202C26.7223 39.06 26.9293 39.0171 27.1464 39.0065L30.4517 38.9314Z" fill="#4B545A"/>
<path d="M63.0188 42.1224L66.9842 17.6904C66.9842 17.6904 68.7799 17.7795 70.5246 19.1059C74.3601 22.022 71.0644 40.9054 66.813 41.9738C64.6866 42.5081 63.0188 42.1224 63.0188 42.1224Z" fill="#F54336"/>
<path d="M27.7752 39.3069C28.1495 39.2759 28.357 39.3249 28.6898 39.4553L28.4891 40.6918L27.5745 40.5434L27.7752 39.3069Z" fill="#594F4F"/>
<path d="M27.8629 40.3763L29.12 40.5956C29.2549 40.6175 29.3603 40.7263 29.3836 40.8677L29.9408 44.2608C29.9539 44.37 29.8745 44.4794 29.7648 44.4922C29.5926 44.5101 29.4054 44.5256 29.1781 44.504C29.0257 44.4945 28.8782 44.4553 28.7583 44.4358C28.4483 44.3549 28.1677 44.1871 27.9593 43.9545C27.7784 43.7417 27.6047 43.4841 27.4954 43.1147C27.3556 42.6486 27.33 42.0481 27.4093 41.4647C27.4378 41.1941 27.5084 40.8539 27.567 40.5882C27.5911 40.4392 27.728 40.3544 27.8629 40.3763Z" fill="#594F4F"/>
<path d="M24.0682 22.513C24.8942 18.1824 25.9219 15.1689 27.3747 12.7595C28.0059 11.7152 29.0457 10.9971 30.2379 10.7625L39.1813 14.0642C39.7191 14.2585 40.2719 14.4552 40.8122 14.6347C39.0609 19.1668 38.085 22.5251 37.5555 25.7877C37.0187 29.095 36.9022 32.5622 37.1925 36.9364C36.6232 36.9357 36.039 36.9326 35.4649 36.9618L25.9388 37.2505C24.882 36.6508 24.1226 35.6408 23.8542 34.4504C23.2404 31.6903 23.2311 28.5238 23.8022 24.1518L24.0682 22.513ZM23.6784 22.4498L23.4124 24.0885C22.8432 28.3538 22.8205 31.6222 23.4576 34.5237C23.7594 35.8876 24.6542 37.0114 25.8309 37.6305L35.4818 37.3315C36.1932 37.3094 36.9023 37.3021 37.6089 37.3098C37.293 32.8091 37.3916 29.2625 37.9501 25.8212C38.5377 22.201 39.6428 18.7108 41.335 14.3526C40.6622 14.1363 39.9919 13.9052 39.3239 13.6592L30.2781 10.3256C28.9635 10.5557 27.7616 11.3239 27.0439 12.5223C25.4996 15.1156 24.4874 18.2234 23.6784 22.4498Z" fill="black"/>
<path d="M30.2732 10.3558L39.3191 13.6894C39.987 13.9354 40.6573 14.1665 41.3301 14.3827C38.0168 22.8508 36.9635 28.1078 37.6065 37.3251C36.8998 37.3174 36.1908 37.3246 35.4793 37.3468L25.8435 37.6482C24.6692 37.0142 23.772 35.9053 23.4701 34.5414C22.8205 31.6226 22.8558 28.3715 23.4249 24.1062L23.6909 22.4675C24.5 18.2411 25.5122 15.1333 27.0492 12.5847C27.7568 11.354 28.9586 10.5858 30.2732 10.3558Z" fill="#4B545A"/>
<path d="M30.2732 10.3558L39.3191 13.6894C39.987 13.9354 40.6573 14.1665 41.3301 14.3827C38.0168 22.8508 36.9635 28.1078 37.6065 37.3251C36.8998 37.3174 36.1908 37.3246 35.4793 37.3468L25.8435 37.6482C24.6692 37.0142 23.772 35.9053 23.4701 34.5414C22.8205 31.6226 22.8558 28.3715 23.4249 24.1062L23.6909 22.4675C24.5 18.2411 25.5122 15.1333 27.0492 12.5847C27.7568 11.354 28.9586 10.5858 30.2732 10.3558Z" fill="#4388FC" fill-opacity="0.1"/>
<path d="M30.2732 10.3558L39.3191 13.6894C39.987 13.9354 40.6573 14.1665 41.3301 14.3827C38.0168 22.8508 36.9635 28.1078 37.6065 37.3251C36.8998 37.3174 36.1908 37.3246 35.4793 37.3468L25.8435 37.6482C24.6692 37.0142 23.772 35.9053 23.4701 34.5414C22.8205 31.6226 22.8558 28.3715 23.4249 24.1062L23.6909 22.4675C24.5 18.2411 25.5122 15.1333 27.0492 12.5847C27.7568 11.354 28.9586 10.5858 30.2732 10.3558Z" fill="url(#paint3_radial_2559_29483)" fill-opacity="0.77"/>
<path d="M4.11808 28.4345L19.9313 32.4536L19.9603 32.2748L4.32894 27.7042C4.27333 28.0468 4.24721 28.3025 4.11808 28.4345Z" fill="#E7E7E7"/>
<path d="M6.77545 12.0621L23.048 13.2506L23.019 13.4294L6.74693 12.8066C6.80012 12.4789 6.85622 12.2281 6.77545 12.0621Z" fill="#E7E7E7"/>
<path d="M29.4451 10.0528C27.3112 9.26308 24.9162 10.0823 23.7554 12.0192C22.216 14.5827 21.2212 17.678 20.3972 21.902L20.1312 23.5407C19.562 27.806 19.5394 31.0744 20.1764 33.9758C20.6649 36.1805 22.6779 37.7151 24.9521 37.6408L25.8333 37.6156C24.659 36.9816 23.7618 35.8727 23.4599 34.5088C22.8103 31.59 22.8456 28.3389 23.4147 24.0736L23.6807 22.4349C24.4898 18.2085 25.502 15.1008 27.039 12.5521C27.7567 11.3537 28.961 10.5706 30.2731 10.3554L29.4451 10.0528Z" fill="#4B545A"/>
<path d="M4.47644 29.6392C5.90039 33.0965 7.87666 35.2368 11.3276 36.7296L9.52836 36.4375C8.46384 36.2648 7.50232 35.7417 6.8039 34.925C5.46221 33.3312 4.65544 31.8547 4.47644 29.6392Z" fill="url(#paint4_linear_2559_29483)"/>
<path d="M4.47644 29.6392C5.90039 33.0965 7.87666 35.2368 11.3276 36.7296L9.52836 36.4375C8.46384 36.2648 7.50232 35.7417 6.8039 34.925C5.46221 33.3312 4.65544 31.8547 4.47644 29.6392Z" fill="url(#paint5_linear_2559_29483)"/>
<path d="M11.315 36.7114L9.53082 36.4218C8.46629 36.249 7.50478 35.726 6.80636 34.9093C5.46225 33.3303 4.65548 31.8539 4.47648 29.6383C5.90044 33.0957 7.8617 35.2335 11.315 36.7114Z" fill="#D5E3F0"/>
<path d="M7.47522 11.1649C9.91956 8.3354 12.4713 6.93004 16.2172 6.60532L14.418 6.3133C13.3535 6.14052 12.2759 6.33259 11.355 6.88647C9.58051 7.95928 8.34576 9.11969 7.47522 11.1649Z" fill="url(#paint6_linear_2559_29483)"/>
<path d="M7.47522 11.1649C9.91956 8.3354 12.4713 6.93004 16.2172 6.60532L14.418 6.3133C13.3535 6.14052 12.2759 6.33259 11.355 6.88647C9.58051 7.95928 8.34576 9.11969 7.47522 11.1649Z" fill="url(#paint7_linear_2559_29483)"/>
<path d="M16.2022 6.60335L14.418 6.31377C13.3534 6.14099 12.2759 6.33305 11.355 6.88694C9.5655 7.95731 8.33076 9.11772 7.46022 11.1629C9.91955 8.33586 12.4563 6.92807 16.2022 6.60335Z" fill="#D5E3F0"/>
<path d="M6.49931 12.1544C6.5143 12.1568 6.53461 12.2213 6.50802 12.3851L3.96916 28.0276C3.94257 28.1915 3.88791 28.2438 3.88791 28.2438C3.87292 28.2414 3.7878 28.197 3.69686 27.9987L3.62867 27.85C3.20206 26.9704 2.89154 26.3237 2.65888 25.2921C2.66612 24.2994 2.74299 23.2569 2.87694 22.1472L3.60958 17.6332C3.83349 16.5381 4.09029 15.5247 4.39739 14.5807C4.39739 14.5807 4.39739 14.5807 4.39981 14.5658C4.9468 13.6607 5.44593 13.1454 6.12883 12.4459L6.24055 12.3264C6.38952 12.1671 6.48431 12.1519 6.49931 12.1544Z" fill="#4B545A"/>
</g>
<defs>
<filter id="filter0_d_2559_29483" x="-100.739" y="-80.5909" width="288.477" height="254.325" filterUnits="userSpaceOnUse" color-interpolation-filters="sRGB">
<feFlood flood-opacity="0" result="BackgroundImageFix"/>
<feColorMatrix in="SourceAlpha" type="matrix" values="0 0 0 0 0 0 0 0 0 0 0 0 0 0 0 0 0 0 127 0" result="hardAlpha"/>
<feOffset dy="20"/>
<feGaussianBlur stdDeviation="50"/>
<feComposite in2="hardAlpha" operator="out"/>
<feColorMatrix type="matrix" values="0 0 0 0 0.0156863 0 0 0 0 0.0235294 0 0 0 0 0.0588235 0 0 0 0.08 0"/>
<feBlend mode="normal" in2="BackgroundImageFix" result="effect1_dropShadow_2559_29483"/>
<feBlend mode="normal" in="SourceGraphic" in2="effect1_dropShadow_2559_29483" result="shape"/>
</filter>
<radialGradient id="paint0_radial_2559_29483" cx="0" cy="0" r="1" gradientUnits="userSpaceOnUse" gradientTransform="translate(66.1599 29.4064) rotate(9.21899) scale(12.9871 42.6378)">
<stop stop-color="white" stop-opacity="0.8"/>
<stop offset="1" stop-color="white" stop-opacity="0.01"/>
</radialGradient>
<radialGradient id="paint1_radial_2559_29483" cx="0" cy="0" r="1" gradientUnits="userSpaceOnUse" gradientTransform="translate(73.6105 17.1222) rotate(9.25222) scale(44.4781 5.62769)">
<stop stop-color="white" stop-opacity="0.8"/>
<stop offset="1" stop-color="white" stop-opacity="0.01"/>
</radialGradient>
<radialGradient id="paint2_radial_2559_29483" cx="0" cy="0" r="1" gradientUnits="userSpaceOnUse" gradientTransform="translate(69.1325 44.7088) rotate(9.25215) scale(44.4781 5.61678)">
<stop stop-color="white" stop-opacity="0.8"/>
<stop offset="1" stop-color="white" stop-opacity="0.01"/>
</radialGradient>
<radialGradient id="paint3_radial_2559_29483" cx="0" cy="0" r="1" gradientUnits="userSpaceOnUse" gradientTransform="translate(40.7447 25.8587) rotate(9.86879) scale(17.6162 43.5886)">
<stop stop-color="white" stop-opacity="0.8"/>
<stop offset="1" stop-color="white" stop-opacity="0.01"/>
</radialGradient>
<linearGradient id="paint4_linear_2559_29483" x1="7.42266" y1="36.0869" x2="8.36781" y2="30.2636" gradientUnits="userSpaceOnUse">
<stop offset="0.1548" stop-color="#A1A1A1"/>
<stop offset="0.9205" stop-color="white"/>
</linearGradient>
<linearGradient id="paint5_linear_2559_29483" x1="7.42266" y1="36.0869" x2="8.36781" y2="30.2636" gradientUnits="userSpaceOnUse">
<stop stop-color="#333333"/>
<stop offset="0.1883"/>
<stop offset="0.3849" stop-color="#333333"/>
<stop offset="0.5983"/>
<stop offset="0.8033" stop-color="#333333"/>
<stop offset="1"/>
</linearGradient>
<linearGradient id="paint6_linear_2559_29483" x1="12.3111" y1="5.96979" x2="11.366" y2="11.7931" gradientUnits="userSpaceOnUse">
<stop offset="0.1548" stop-color="#A1A1A1"/>
<stop offset="0.9205" stop-color="white"/>
</linearGradient>
<linearGradient id="paint7_linear_2559_29483" x1="12.3111" y1="5.96979" x2="11.366" y2="11.7931" gradientUnits="userSpaceOnUse">
<stop stop-color="#333333"/>
<stop offset="0.1883"/>
<stop offset="0.3849" stop-color="#333333"/>
<stop offset="0.5983"/>
<stop offset="0.8033" stop-color="#333333"/>
<stop offset="1"/>
</linearGradient>
</defs>
</svg>
