<svg width="24" height="24" viewBox="0 0 24 24" fill="none" xmlns="http://www.w3.org/2000/svg">
<path fill-rule="evenodd" clip-rule="evenodd" d="M20.2852 5.24492C20.6742 5.24492 20.998 5.56792 20.998 5.97891V6.35891C20.998 6.7599 20.6742 7.0929 20.2852 7.0929H3.7119C3.32191 7.0929 2.99805 6.7599 2.99805 6.35891V5.97891C2.99805 5.56792 3.32191 5.24492 3.7119 5.24492H6.62761C7.2199 5.24492 7.73535 4.82392 7.86859 4.22993L8.02128 3.54794C8.25858 2.61895 9.03954 2.00195 9.93332 2.00195H14.0628C14.9468 2.00195 15.7365 2.61895 15.9651 3.49894L16.1285 4.22893C16.2607 4.82392 16.7762 5.24492 17.3695 5.24492H20.2852ZM18.8037 19.1361C19.1081 16.2991 19.641 9.55921 19.641 9.49121C19.6605 9.28521 19.5934 9.09022 19.4601 8.93322C19.3172 8.78622 19.1363 8.69922 18.9369 8.69922H5.06635C4.86601 8.69922 4.67539 8.78622 4.54312 8.93322C4.40891 9.09022 4.34277 9.28521 4.3525 9.49121C4.35429 9.50371 4.37341 9.74112 4.40538 10.138C4.54741 11.9013 4.943 16.8123 5.19862 19.1361C5.37952 20.8481 6.50281 21.9241 8.12989 21.9631C9.38546 21.9921 10.679 22.0021 12.0016 22.0021C13.2475 22.0021 14.5128 21.9921 15.8072 21.9631C17.4907 21.9341 18.613 20.8771 18.8037 19.1361Z" fill="white"/>
</svg>
