<svg width="32" height="65" viewBox="0 0 32 65" fill="none" xmlns="http://www.w3.org/2000/svg">
<g filter="url(#filter0_d_0_140)">
<path d="M29.7412 12.7895L29.5974 10.4663C29.4655 8.37304 28.8183 6.34028 27.6557 4.61001C25.5223 1.45197 22.4061 0.181497 17.8156 0L14.184 0C9.60555 0.181497 6.47732 1.45197 4.35589 4.61001C3.19329 6.34028 2.54608 8.37304 2.41423 10.4663L2.27041 12.7895C2.17452 14.2898 2.1985 15.8023 2.35431 17.3027L2.39026 17.6415V55.4291C2.48615 57.6312 2.88167 58.7807 3.57683 60.5957C4.85928 63.5964 7.53205 64.9395 14.7353 64.9758H17.2883C24.4916 64.9395 27.1643 63.5843 28.4468 60.5957C29.1419 58.7807 29.5255 57.6312 29.6333 55.4291V17.6536L29.6693 17.3148C29.8011 15.8144 29.8251 14.3019 29.7412 12.7895ZM27.0445 19.3596L25.4504 27.5875C25.3425 28.1441 25.2466 28.7007 25.1627 29.2573C18.1033 27.7327 13.8484 27.5754 6.70505 29.2573C6.62115 28.7007 6.52527 28.1441 6.4174 27.5875L4.82332 19.3596C4.47574 17.581 5.4226 15.8023 7.08859 15.1368C9.29392 14.2535 11.8468 13.8663 15.2627 13.7695H16.5811C19.997 13.8663 22.5619 14.2656 24.7552 15.1489C26.4452 15.8023 27.3921 17.581 27.0445 19.3596Z" fill="#F54336"/>
<path d="M26.2535 53.2146C26.2535 54.6666 26.0977 55.8402 25.7381 56.784C25.7141 56.6872 25.6662 56.5904 25.6062 56.4936C25.4744 56.8324 25.3306 57.147 25.1868 57.4495C24.7073 58.4054 23.8564 59.1072 22.8496 59.446C21.2675 59.9663 19.7813 60.1599 17.7318 60.305C17.2164 60.3413 16.713 60.3534 16.1976 60.3534H15.862C15.3586 60.3534 14.8552 60.3413 14.3638 60.305C12.3023 60.1599 10.8161 59.9663 9.22205 59.446C8.21526 59.1193 7.37628 58.4054 6.88487 57.4495C6.72906 57.147 6.59722 56.8324 6.45339 56.4815C6.40545 56.5541 6.36949 56.6267 6.33354 56.7114C5.96199 55.7797 5.79419 54.6303 5.79419 53.2146C5.79419 52.5975 5.83015 51.9683 5.89007 51.3391H26.1456C26.2295 51.9804 26.2535 52.5975 26.2535 53.2146Z" fill="#4B545A"/>
<path d="M26.2535 53.2146C26.2535 54.6666 26.0977 55.8402 25.7381 56.784C25.7141 56.6872 25.6662 56.5904 25.6062 56.4936C25.4744 56.8324 25.3306 57.147 25.1868 57.4495C24.7073 58.4054 23.8564 59.1072 22.8496 59.446C21.2675 59.9663 19.7813 60.1599 17.7318 60.305C17.2164 60.3413 16.713 60.3534 16.1976 60.3534H15.862C15.3586 60.3534 14.8552 60.3413 14.3638 60.305C12.3023 60.1599 10.8161 59.9663 9.22205 59.446C8.21526 59.1193 7.37628 58.4054 6.88487 57.4495C6.72906 57.147 6.59722 56.8324 6.45339 56.4815C6.40545 56.5541 6.36949 56.6267 6.33354 56.7114C5.96199 55.7797 5.79419 54.6303 5.79419 53.2146C5.79419 52.5975 5.83015 51.9683 5.89007 51.3391H26.1456C26.2295 51.9804 26.2535 52.5975 26.2535 53.2146Z" fill="#4388FC" fill-opacity="0.1"/>
<path d="M26.2535 53.2146C26.2535 54.6666 26.0977 55.8402 25.7381 56.784C25.7141 56.6872 25.6662 56.5904 25.6062 56.4936C25.4744 56.8324 25.3306 57.147 25.1868 57.4495C24.7073 58.4054 23.8564 59.1072 22.8496 59.446C21.2675 59.9663 19.7813 60.1599 17.7318 60.305C17.2164 60.3413 16.713 60.3534 16.1976 60.3534H15.862C15.3586 60.3534 14.8552 60.3413 14.3638 60.305C12.3023 60.1599 10.8161 59.9663 9.22205 59.446C8.21526 59.1193 7.37628 58.4054 6.88487 57.4495C6.72906 57.147 6.59722 56.8324 6.45339 56.4815C6.40545 56.5541 6.36949 56.6267 6.33354 56.7114C5.96199 55.7797 5.79419 54.6303 5.79419 53.2146C5.79419 52.5975 5.83015 51.9683 5.89007 51.3391H26.1456C26.2295 51.9804 26.2535 52.5975 26.2535 53.2146Z" fill="url(#paint0_radial_0_140)" fill-opacity="0.77"/>
<path d="M8.23934 64.3468C5.66245 63.6692 4.35603 62.4472 3.56498 60.608C3.36123 60.0756 3.18145 59.5916 3.02563 59.1318L3.26535 59.2044C4.06837 59.4585 4.71559 60.0514 5.05119 60.8258C5.59054 62.0842 6.15386 62.6287 7.78389 63.4756C8.1075 63.645 8.28728 63.9959 8.23934 64.3468Z" fill="#D8394C"/>
<path d="M23.7606 64.3466C26.3375 63.669 27.6439 62.4469 28.4349 60.6078C28.6387 60.0754 28.8185 59.5914 28.9743 59.1316L28.7346 59.2042C27.9316 59.4583 27.2843 60.0512 26.9487 60.8256C26.4094 62.0839 25.8461 62.6284 24.216 63.4754C23.8924 63.6448 23.7127 63.9957 23.7606 64.3466Z" fill="#D8394C"/>
<path d="M25.7621 48.1814C25.7861 49.2946 25.8101 50.4441 25.8341 51.7146C25.8341 51.8114 25.858 51.9082 25.906 51.9929C26.1097 52.3801 26.3974 52.5131 26.8528 52.4285C27.512 52.2228 27.8476 51.6057 27.8716 50.5167L28.5188 20.11C28.5188 20.0858 28.5188 20.0616 28.5188 20.0374C28.5068 20.0495 28.4948 20.0737 28.4829 20.0979L28.1353 20.7754C28.0634 20.9206 28.0034 21.0779 27.9675 21.2473L26.9727 26.4986C26.2775 30.2012 25.906 33.4802 25.858 36.5535C25.6063 41.2362 25.6783 44.4547 25.7621 48.1814Z" fill="#4B545A"/>
<path d="M25.7621 48.1814C25.7861 49.2946 25.8101 50.4441 25.8341 51.7146C25.8341 51.8114 25.858 51.9082 25.906 51.9929C26.1097 52.3801 26.3974 52.5132 26.8528 52.4285C27.512 52.2228 27.8476 51.6057 27.8716 50.5167L28.5188 20.11C28.5188 20.0858 28.5188 20.0616 28.5188 20.0374C28.5068 20.0495 28.4948 20.0737 28.4829 20.0979L28.1353 20.7754C28.0634 20.9206 28.0034 21.0779 27.9675 21.2473L26.9727 26.4986C26.2775 30.2012 25.906 33.4802 25.858 36.5536C25.6063 41.2362 25.6783 44.4547 25.7621 48.1814Z" fill="#4388FC" fill-opacity="0.1"/>
<path d="M25.7621 48.1814C25.7861 49.2946 25.8101 50.4441 25.8341 51.7146C25.8341 51.8114 25.858 51.9082 25.906 51.9929C26.1097 52.3801 26.3974 52.5132 26.8528 52.4285C27.512 52.2228 27.8476 51.6057 27.8716 50.5167L28.5188 20.11C28.5188 20.0858 28.5188 20.0616 28.5188 20.0374C28.5068 20.0495 28.4948 20.0737 28.4829 20.0979L28.1353 20.7754C28.0634 20.9206 28.0034 21.0779 27.9675 21.2473L26.9727 26.4986C26.2775 30.2012 25.906 33.4802 25.858 36.5536C25.6063 41.2362 25.6783 44.4547 25.7621 48.1814Z" fill="url(#paint1_radial_0_140)" fill-opacity="0.77"/>
<path d="M28.1234 38.5138C27.3443 38.9494 26.769 39.1067 25.7502 39.2277L25.8222 37.3765C26.7331 36.8804 27.4042 36.3964 28.1953 35.5857L28.1234 38.5138Z" fill="#4B545A"/>
<path d="M27.4761 23.8489L28.4349 23.5948L28.5068 20.1222C28.5068 20.098 28.5068 20.0738 28.5068 20.0496C28.4948 20.0617 28.4829 20.0859 28.4709 20.1101L28.1233 20.7876C28.0514 20.9328 27.9915 21.0901 27.9555 21.2595L27.4761 23.8489Z" fill="#4B545A"/>
<path d="M28.0991 21.7805C28.0272 22.0709 28.0392 22.2403 28.0991 22.5186H29.0939V21.7805H28.0991Z" fill="#594F4F"/>
<path d="M28.926 21.9975L28.938 23.0138C28.938 23.1227 29.0099 23.2195 29.1178 23.2558L31.7067 24.127C31.7906 24.1512 31.8864 24.1028 31.9104 24.0181C31.9464 23.885 31.9823 23.7398 31.9943 23.5583C32.0063 23.4373 31.9943 23.3163 31.9943 23.2195C31.9703 22.9654 31.8745 22.7235 31.7186 22.5299C31.5748 22.3605 31.395 22.1911 31.1194 22.058C30.7718 21.8886 30.3044 21.7918 29.8369 21.7797C29.6212 21.7676 29.3455 21.7797 29.1298 21.7918C29.0099 21.7918 28.926 21.8765 28.926 21.9975Z" fill="#594F4F"/>
<path d="M6.25008 48.1809C6.22611 49.2941 6.20214 50.4436 6.17816 51.7141C6.17816 51.8109 6.15419 51.9077 6.10625 51.9924C5.9025 52.3796 5.61484 52.5127 5.1594 52.428C4.50019 52.2223 4.1646 51.6052 4.14063 50.5162L3.49341 20.1095C3.49341 20.0853 3.49341 20.0611 3.49341 20.0369C3.50539 20.049 3.51738 20.0732 3.52936 20.0974L3.87694 20.775C3.94886 20.9201 4.00879 21.0774 4.04474 21.2468L5.02755 26.4739C5.72271 30.1765 6.09427 33.4555 6.14221 36.5289C6.3939 41.2357 6.33398 44.4542 6.25008 48.1809Z" fill="#4B545A"/>
<path d="M6.25008 48.181C6.22611 49.2941 6.20213 50.4436 6.17816 51.7141C6.17816 51.8109 6.15419 51.9077 6.10625 51.9924C5.9025 52.3796 5.61484 52.5127 5.15939 52.428C4.50019 52.2223 4.1646 51.6052 4.14063 50.5162L3.49341 20.1095C3.49341 20.0853 3.49341 20.0611 3.49341 20.0369C3.50539 20.049 3.51738 20.0732 3.52936 20.0974L3.87694 20.775C3.94886 20.9201 4.00879 21.0774 4.04474 21.2468L5.02755 26.4739C5.72271 30.1765 6.09426 33.4555 6.14221 36.5289C6.3939 41.2357 6.33397 44.4542 6.25008 48.181Z" fill="#4388FC" fill-opacity="0.1"/>
<path d="M6.25008 48.181C6.22611 49.2941 6.20213 50.4436 6.17816 51.7141C6.17816 51.8109 6.15419 51.9077 6.10625 51.9924C5.9025 52.3796 5.61484 52.5127 5.15939 52.428C4.50019 52.2223 4.1646 51.6052 4.14063 50.5162L3.49341 20.1095C3.49341 20.0853 3.49341 20.0611 3.49341 20.0369C3.50539 20.049 3.51738 20.0732 3.52936 20.0974L3.87694 20.775C3.94886 20.9201 4.00879 21.0774 4.04474 21.2468L5.02755 26.4739C5.72271 30.1765 6.09426 33.4555 6.14221 36.5289C6.3939 41.2357 6.33397 44.4542 6.25008 48.181Z" fill="url(#paint2_radial_0_140)" fill-opacity="0.77"/>
<path d="M3.88881 38.5011C4.66787 38.9367 5.24317 39.094 6.26194 39.215L6.19003 37.3638C5.27913 36.8677 4.60794 36.3837 3.81689 35.573L3.88881 38.5011Z" fill="#4B545A"/>
<path d="M4.53613 23.8362L3.57728 23.5821L3.50537 20.1095C3.50537 20.0853 3.50537 20.0611 3.50537 20.0369C3.51736 20.049 3.52934 20.0732 3.54133 20.0974L3.88891 20.775C3.96082 20.9201 4.02075 21.0774 4.05671 21.2468L4.53613 23.8362Z" fill="#4B545A"/>
<path d="M6.17795 49.8508H25.8342C25.8342 49.8508 25.9928 51.2741 25.175 52.8153C23.3771 56.2032 8.15555 56.0217 6.77722 52.8153C6.0878 51.2114 6.17795 49.8508 6.17795 49.8508Z" fill="#F54336"/>
<path d="M3.90056 21.7798C3.97247 22.0702 3.96049 22.2396 3.90056 22.5179H2.90576V21.7798H3.90056Z" fill="#594F4F"/>
<path d="M3.07362 21.9853L3.06163 23.0016C3.06163 23.1105 2.98972 23.2073 2.88185 23.2436L0.292979 24.1148C0.209081 24.139 0.113197 24.0906 0.0892255 24.0059C0.053269 23.8728 0.0173124 23.7276 0.0053269 23.5461C-0.00665862 23.4251 0.0053269 23.3041 0.0053269 23.2073C0.0292979 22.9532 0.125182 22.7112 0.280994 22.5176C0.42482 22.3483 0.604603 22.1789 0.88027 22.0458C1.22785 21.8764 1.69528 21.7796 2.16272 21.7675C2.37846 21.7554 2.65413 21.7675 2.86987 21.7796C2.98972 21.7796 3.07362 21.8764 3.07362 21.9853Z" fill="#594F4F"/>
<path d="M16.5935 16.7216C20.0933 16.8184 22.5862 17.2419 24.6597 18.0767C25.5586 18.4397 26.2538 19.1657 26.5894 20.0732L25.1392 27.5267C25.0553 27.9744 24.9714 28.4342 24.8994 28.8818C21.124 28.0833 18.3673 27.7445 15.7425 27.7445C13.0817 27.7445 10.349 28.0954 6.95712 28.8818C6.88521 28.4342 6.8133 27.9744 6.71741 27.5267L5.27915 20.0732C5.61475 19.1657 6.30991 18.4397 7.20882 18.0767C9.2943 17.2419 11.7753 16.8305 15.2751 16.7216H16.5935ZM16.5935 16.407H15.2751C11.8592 16.5038 9.2943 16.9031 7.10095 17.7743C6.0702 18.1856 5.30312 19.0326 4.96753 20.0369L6.42976 27.5872C6.53763 28.1438 6.63352 28.7004 6.71741 29.2569C10.2052 28.4342 12.9978 28.0591 15.7665 28.0591C18.679 28.0591 21.5555 28.4826 25.1871 29.2569C25.271 28.7004 25.3669 28.1438 25.4747 27.5872L26.937 20.049C26.5894 19.0447 25.8343 18.1977 24.8036 17.7864C22.5743 16.9031 20.0094 16.5038 16.5935 16.407Z" fill="black"/>
<path d="M26.9128 20.0491L25.4506 27.5873C25.3427 28.1439 25.2468 28.7005 25.1629 29.257C18.1034 27.7325 13.8486 27.5752 6.70521 29.257C6.62131 28.7005 6.52543 28.1439 6.41756 27.5873L4.95532 20.0491C5.3029 19.0448 6.05799 18.1979 7.08874 17.7865C9.29408 16.9032 11.847 16.516 15.2629 16.4192H16.5813C19.9971 16.516 22.562 16.9153 24.7554 17.7986C25.8101 18.1979 26.5652 19.0448 26.9128 20.0491Z" fill="#4B545A"/>
<path d="M26.9128 20.0491L25.4506 27.5873C25.3427 28.1439 25.2468 28.7005 25.1629 29.257C18.1034 27.7325 13.8486 27.5752 6.70521 29.257C6.62131 28.7005 6.52543 28.1439 6.41756 27.5873L4.95532 20.0491C5.3029 19.0448 6.05799 18.1979 7.08874 17.7865C9.29408 16.9032 11.847 16.516 15.2629 16.4192H16.5813C19.9971 16.516 22.562 16.9153 24.7554 17.7986C25.8101 18.1979 26.5652 19.0448 26.9128 20.0491Z" fill="#4388FC" fill-opacity="0.1"/>
<path d="M26.9128 20.0491L25.4506 27.5873C25.3427 28.1439 25.2468 28.7005 25.1629 29.257C18.1034 27.7325 13.8486 27.5752 6.70521 29.257C6.62131 28.7005 6.52543 28.1439 6.41756 27.5873L4.95532 20.0491C5.3029 19.0448 6.05799 18.1979 7.08874 17.7865C9.29408 16.9032 11.847 16.516 15.2629 16.4192H16.5813C19.9971 16.516 22.562 16.9153 24.7554 17.7986C25.8101 18.1979 26.5652 19.0448 26.9128 20.0491Z" fill="url(#paint3_radial_0_140)" fill-opacity="0.77"/>
<path d="M9.41377 1.79077L8.27515 14.7375H8.41897L10.013 1.86337C9.73738 1.86337 9.53363 1.87547 9.41377 1.79077Z" fill="#E7E7E7"/>
<path d="M22.5858 1.79077L23.7244 14.7375H23.5806L21.9985 1.86337C22.2622 1.86337 22.466 1.87547 22.5858 1.79077Z" fill="#E7E7E7"/>
<path d="M27.0448 19.3593C27.3923 17.5806 26.4455 15.8019 24.7795 15.1365C22.5742 14.2532 20.0212 13.866 16.6054 13.7571H15.287C11.8711 13.8539 9.30619 14.2532 7.11284 15.1244C5.44686 15.7898 4.5 17.5685 4.84758 19.3472L4.97942 20.0369C5.327 19.0326 6.08209 18.1856 7.11284 17.7742C9.31818 16.8909 11.8711 16.5037 15.287 16.4069H16.6054C20.0212 16.5037 22.5861 16.903 24.7795 17.7863C25.8102 18.1977 26.5773 19.0447 26.9129 20.049L27.0448 19.3593Z" fill="#4B545A"/>
<path d="M8.51495 2.22607C5.98601 3.78695 4.55973 5.61401 3.82861 8.51796V7.06599C3.82861 6.2069 4.11627 5.38412 4.6676 4.73073C5.7463 3.47235 6.80102 2.64957 8.51495 2.22607Z" fill="url(#paint4_linear_0_140)"/>
<path d="M8.51495 2.22607C5.98601 3.78695 4.55973 5.61401 3.82861 8.51796V7.06599C3.82861 6.2069 4.11627 5.38412 4.6676 4.73073C5.7463 3.47235 6.80102 2.64957 8.51495 2.22607Z" fill="url(#paint5_linear_0_140)"/>
<path d="M3.84106 8.50586V7.06599C3.84106 6.2069 4.12872 5.38412 4.68005 4.73073C5.74676 3.47235 6.80149 2.64957 8.51542 2.22607C5.98647 3.78695 4.5602 5.60191 3.84106 8.50586Z" fill="#D5E3F0"/>
<path d="M23.3772 2.22632C25.9061 3.78719 27.3324 5.61426 28.0635 8.5182V7.06623C28.0635 6.20715 27.7759 5.38436 27.2246 4.73097C26.1578 3.4726 25.0911 2.64981 23.3772 2.22632Z" fill="url(#paint6_linear_0_140)"/>
<path d="M23.3772 2.22632C25.9061 3.78719 27.3324 5.61426 28.0635 8.5182V7.06623C28.0635 6.20715 27.7759 5.38436 27.2246 4.73097C26.1578 3.4726 25.0911 2.64981 23.3772 2.22632Z" fill="url(#paint7_linear_0_140)"/>
<path d="M28.0635 8.50624V7.06636C28.0635 6.20728 27.7759 5.3845 27.2246 4.73111C26.1578 3.46063 25.0911 2.63785 23.3772 2.21436C25.9061 3.78733 27.3324 5.60229 28.0635 8.50624Z" fill="#D5E3F0"/>
<path d="M22.4783 1.58518C22.4783 1.59728 22.4304 1.62148 22.2985 1.62148H9.71372C9.58188 1.62148 9.53394 1.58518 9.53394 1.58518C9.53394 1.57308 9.55791 1.50048 9.70173 1.40368L9.8096 1.33108C10.4448 0.883391 10.9123 0.556697 11.6913 0.242103C12.4704 0.121105 13.2974 0.0485064 14.1843 0.012207H17.8159C18.7029 0.0485064 19.5299 0.121105 20.3089 0.242103C20.3089 0.242103 20.3089 0.242103 20.3209 0.242103C21.1 0.556697 21.5674 0.883391 22.2026 1.33108L22.3105 1.40368C22.4543 1.50048 22.4783 1.57308 22.4783 1.58518Z" fill="#4B545A"/>
</g>
<defs>
<filter id="filter0_d_0_140" x="-100" y="-80" width="232" height="265" filterUnits="userSpaceOnUse" color-interpolation-filters="sRGB">
<feFlood flood-opacity="0" result="BackgroundImageFix"/>
<feColorMatrix in="SourceAlpha" type="matrix" values="0 0 0 0 0 0 0 0 0 0 0 0 0 0 0 0 0 0 127 0" result="hardAlpha"/>
<feOffset dy="20"/>
<feGaussianBlur stdDeviation="50"/>
<feComposite in2="hardAlpha" operator="out"/>
<feColorMatrix type="matrix" values="0 0 0 0 0.0156863 0 0 0 0 0.0235294 0 0 0 0 0.0588235 0 0 0 0.08 0"/>
<feBlend mode="normal" in2="BackgroundImageFix" result="effect1_dropShadow_0_140"/>
<feBlend mode="normal" in="SourceGraphic" in2="effect1_dropShadow_0_140" result="shape"/>
</filter>
<radialGradient id="paint0_radial_0_140" cx="0" cy="0" r="1" gradientUnits="userSpaceOnUse" gradientTransform="translate(16.5452 50.6978) rotate(90) scale(10.3453 33.8601)">
<stop stop-color="white" stop-opacity="0.8"/>
<stop offset="1" stop-color="white" stop-opacity="0.01"/>
</radialGradient>
<radialGradient id="paint1_radial_0_140" cx="0" cy="0" r="1" gradientUnits="userSpaceOnUse" gradientTransform="translate(27.1219 54.9886) rotate(90.0331) scale(35.4306 4.46914)">
<stop stop-color="white" stop-opacity="0.8"/>
<stop offset="1" stop-color="white" stop-opacity="0.01"/>
</radialGradient>
<radialGradient id="paint2_radial_0_140" cx="0" cy="0" r="1" gradientUnits="userSpaceOnUse" gradientTransform="translate(4.92847 54.9881) rotate(90.0331) scale(35.4306 4.46048)">
<stop stop-color="white" stop-opacity="0.8"/>
<stop offset="1" stop-color="white" stop-opacity="0.01"/>
</radialGradient>
<radialGradient id="paint3_radial_0_140" cx="0" cy="0" r="1" gradientUnits="userSpaceOnUse" gradientTransform="translate(16.0927 30.2613) rotate(90.6478) scale(14.0328 34.6152)">
<stop stop-color="white" stop-opacity="0.8"/>
<stop offset="1" stop-color="white" stop-opacity="0.01"/>
</radialGradient>
<linearGradient id="paint4_linear_0_140" x1="3.83559" y1="5.36553" x2="8.52056" y2="5.36553" gradientUnits="userSpaceOnUse">
<stop offset="0.1548" stop-color="#A1A1A1"/>
<stop offset="0.9205" stop-color="white"/>
</linearGradient>
<linearGradient id="paint5_linear_0_140" x1="3.83559" y1="5.36553" x2="8.52056" y2="5.36553" gradientUnits="userSpaceOnUse">
<stop stop-color="#333333"/>
<stop offset="0.1883"/>
<stop offset="0.3849" stop-color="#333333"/>
<stop offset="0.5983"/>
<stop offset="0.8033" stop-color="#333333"/>
<stop offset="1"/>
</linearGradient>
<linearGradient id="paint6_linear_0_140" x1="28.0648" y1="5.36578" x2="23.3798" y2="5.36578" gradientUnits="userSpaceOnUse">
<stop offset="0.1548" stop-color="#A1A1A1"/>
<stop offset="0.9205" stop-color="white"/>
</linearGradient>
<linearGradient id="paint7_linear_0_140" x1="28.0648" y1="5.36578" x2="23.3798" y2="5.36578" gradientUnits="userSpaceOnUse">
<stop stop-color="#333333"/>
<stop offset="0.1883"/>
<stop offset="0.3849" stop-color="#333333"/>
<stop offset="0.5983"/>
<stop offset="0.8033" stop-color="#333333"/>
<stop offset="1"/>
</linearGradient>
</defs>
</svg>
