<svg width="24" height="24" viewBox="0 0 24 24" fill="none" xmlns="http://www.w3.org/2000/svg">
<g clip-path="url(#clip0_0_292)">
<path d="M23.0279 12.2244C23.0279 11.2412 22.9495 10.5236 22.7799 9.77954H11.7495V14.2175H18.2241C18.0936 15.3204 17.3887 16.9814 15.8222 18.0975L15.8003 18.246L19.2879 20.9962L19.5295 21.0208C21.7486 18.9346 23.0279 15.8652 23.0279 12.2244Z" fill="#4285F4"/>
<path d="M11.7495 23.9176C14.9215 23.9176 17.5844 22.8545 19.5295 21.0209L15.8222 18.0976C14.8302 18.8018 13.4987 19.2934 11.7495 19.2934C8.64276 19.2934 6.00594 17.2074 5.06598 14.324L4.92821 14.3359L1.30176 17.1927L1.25433 17.3269C3.18626 21.2334 7.15458 23.9176 11.7495 23.9176Z" fill="#34A853"/>
<path d="M5.06611 14.324C4.81809 13.58 4.67456 12.7826 4.67456 11.9589C4.67456 11.135 4.8181 10.3378 5.05306 9.59366L5.04649 9.43519L1.3746 6.53247L1.25446 6.59064C0.458226 8.21174 0.00134277 10.0322 0.00134277 11.9589C0.00134277 13.8855 0.458226 15.7059 1.25446 17.327L5.06611 14.324Z" fill="#FBBC05"/>
<path d="M11.7495 4.62403C13.9555 4.62403 15.4436 5.59401 16.2921 6.40461L19.6078 3.10928C17.5714 1.1826 14.9215 0 11.7495 0C7.15457 0 3.18625 2.68406 1.25433 6.59056L5.05293 9.59359C6.00593 6.7102 8.64275 4.62403 11.7495 4.62403Z" fill="#EB4335"/>
</g>
<defs>
<clipPath id="clip0_0_292">
<rect width="23.04" height="24" fill="white"/>
</clipPath>
</defs>
</svg>
