<svg width="44" height="44" viewBox="0 0 44 44" fill="none" xmlns="http://www.w3.org/2000/svg">
<path d="M31.716 9.16667C34.8327 11.9167 36.666 15.7667 36.666 20.1667C36.666 28.2333 30.066 34.8333 21.9993 34.8333C13.9327 34.8333 7.33268 28.2333 7.33268 20.1667C7.33268 15.7667 9.34935 11.9167 12.2827 9.16667H31.716ZM32.9993 5.5H10.9993L9.89935 6.41667C5.86602 9.9 3.66602 14.85 3.66602 20.1667C3.66602 30.25 11.916 38.5 21.9993 38.5C32.0827 38.5 40.3327 30.25 40.3327 20.1667C40.3327 14.85 38.1327 9.9 34.0993 6.41667L32.9993 5.5ZM23.8327 13.75C23.8327 15.2167 25.116 16.5 26.5827 16.5C28.0493 16.5 29.3327 15.2167 29.3327 13.75C29.3327 12.2833 28.0493 11 26.5827 11C25.116 11 23.8327 12.2833 23.8327 13.75ZM14.666 13.75C14.666 15.2167 15.9493 16.5 17.416 16.5C18.8827 16.5 20.166 15.2167 20.166 13.75C20.166 12.2833 18.8827 11 17.416 11C15.9493 11 14.666 12.2833 14.666 13.75ZM12.8327 23.8333C14.8493 23.8333 16.4993 22.1833 16.4993 20.1667C16.4993 18.15 14.8493 16.5 12.8327 16.5C10.816 16.5 9.16602 18.15 9.16602 20.1667C9.16602 22.1833 10.816 23.8333 12.8327 23.8333ZM21.0827 27.5C21.0827 25.4833 19.4327 23.8333 17.416 23.8333C15.3993 23.8333 13.7493 25.4833 13.7493 27.5C13.7493 29.5167 15.3993 31.1667 17.416 31.1667C19.4327 31.1667 21.0827 29.5167 21.0827 27.5ZM21.9993 23.8333C24.016 23.8333 25.666 22.1833 25.666 20.1667C25.666 18.15 24.016 16.5 21.9993 16.5C19.9827 16.5 18.3327 18.15 18.3327 20.1667C18.3327 22.1833 19.9827 23.8333 21.9993 23.8333ZM30.2493 27.5C30.2493 25.4833 28.5993 23.8333 26.5827 23.8333C24.566 23.8333 22.916 25.4833 22.916 27.5C22.916 29.5167 24.566 31.1667 26.5827 31.1667C28.5993 31.1667 30.2493 29.5167 30.2493 27.5ZM34.8327 20.1667C34.8327 18.15 33.1827 16.5 31.166 16.5C29.1493 16.5 27.4993 18.15 27.4993 20.1667C27.4993 22.1833 29.1493 23.8333 31.166 23.8333C33.1827 23.8333 34.8327 22.1833 34.8327 20.1667Z" fill="white"/>
</svg>
