<svg width="47" height="46" viewBox="0 0 47 46" fill="none" xmlns="http://www.w3.org/2000/svg">
<path fill-rule="evenodd" clip-rule="evenodd" d="M3.7927 30.8959C-2.21559 16.1425 8.63792 0 24.5682 0H25.4529C37.3537 0 47 9.64634 47 21.5472C47 27.9299 44.4645 34.0513 39.9512 38.5646C35.4379 43.0779 29.3166 45.6134 22.9338 45.6134H1.38111C1.09546 45.614 0.816673 45.5259 0.583311 45.3612C0.349949 45.1964 0.173547 44.9632 0.0785084 44.6939C-0.0165305 44.4245 -0.0255098 44.1322 0.052813 43.8575C0.131136 43.5828 0.29289 43.3392 0.515699 43.1605L5.95072 38.7976C6.18242 38.6117 6.34785 38.3559 6.42235 38.0683C6.49685 37.7808 6.47643 37.4768 6.36414 37.2018L3.7927 30.8959ZM26.6049 15.0207C26.6049 14.4725 26.3871 13.9467 25.9995 13.5591C25.6118 13.1714 25.0861 12.9537 24.5378 12.9537C23.9896 12.9537 23.4639 13.1714 23.0762 13.5591C22.6885 13.9467 22.4708 14.4725 22.4708 15.0207V20.5329H16.9586C16.4104 20.5329 15.8846 20.7507 15.4969 21.1384C15.1093 21.526 14.8915 22.0518 14.8915 22.6C14.8915 23.1482 15.1093 23.674 15.4969 24.0616C15.8846 24.4493 16.4104 24.6671 16.9586 24.6671H22.4708V30.1793C22.4708 30.7275 22.6885 31.2533 23.0762 31.6409C23.4639 32.0286 23.9896 32.2463 24.5378 32.2463C25.0861 32.2463 25.6118 32.0286 25.9995 31.6409C26.3871 31.2533 26.6049 30.7275 26.6049 30.1793V24.6671H32.1171C32.6653 24.6671 33.1911 24.4493 33.5788 24.0616C33.9664 23.674 34.1842 23.1482 34.1842 22.6C34.1842 22.0518 33.9664 21.526 33.5788 21.1384C33.1911 20.7507 32.6653 20.5329 32.1171 20.5329H26.6049V15.0207Z" fill="#12D18E"/>
</svg>
