<svg width="20" height="20" viewBox="0 0 20 20" fill="none" xmlns="http://www.w3.org/2000/svg">
<path d="M6.14166 9.0575C6.18875 9.00917 6.36654 8.8025 6.53215 8.6325C7.50309 7.56333 10.036 5.81333 11.3617 5.27917C11.563 5.19333 12.072 5.01167 12.344 5C12.6046 5 12.853 5.06 13.09 5.18167C13.3855 5.35167 13.6226 5.61917 13.7525 5.935C13.8361 6.15417 13.966 6.81 13.966 6.82167C14.0959 7.53917 14.1673 8.705 14.1673 9.99333C14.1673 11.2208 14.0959 12.3392 13.9895 13.0675C13.9774 13.0792 13.8475 13.8942 13.7054 14.1733C13.4448 14.6833 12.9358 15 12.3911 15H12.344C11.9892 14.9875 11.2431 14.6708 11.2431 14.6592C9.98888 14.1242 7.51445 12.46 6.51997 11.3542C6.51997 11.3542 6.23989 11.07 6.11812 10.8925C5.92816 10.6375 5.83398 10.3217 5.83398 10.0058C5.83398 9.65333 5.94033 9.325 6.14166 9.0575Z" fill="white"/>
</svg>
