<svg width="44" height="44" viewBox="0 0 44 44" fill="none" xmlns="http://www.w3.org/2000/svg">
<path d="M13.7493 17.4167C11.1827 17.4167 9.16602 19.4334 9.16602 22.0001C9.16602 24.5667 11.1827 26.5834 13.7493 26.5834C16.316 26.5834 18.3327 24.5667 18.3327 22.0001C18.3327 19.4334 16.316 17.4167 13.7493 17.4167ZM30.2493 17.4167C27.6827 17.4167 25.666 19.4334 25.666 22.0001C25.666 24.5667 27.6827 26.5834 30.2493 26.5834C32.816 26.5834 34.8327 24.5667 34.8327 22.0001C34.8327 19.4334 32.816 17.4167 30.2493 17.4167ZM21.9993 7.33341C30.066 7.33341 36.666 13.9334 36.666 22.0001C36.666 30.0667 30.066 36.6667 21.9993 36.6667C13.9327 36.6667 7.33268 30.0667 7.33268 22.0001C7.33268 13.9334 13.9327 7.33341 21.9993 7.33341ZM21.9993 3.66675C11.916 3.66675 3.66602 11.9167 3.66602 22.0001C3.66602 32.0834 11.916 40.3334 21.9993 40.3334C32.0827 40.3334 40.3327 32.0834 40.3327 22.0001C40.3327 11.9167 32.0827 3.66675 21.9993 3.66675ZM21.9993 9.16675C19.4327 9.16675 17.416 11.1834 17.416 13.7501C17.416 16.3167 19.4327 18.3334 21.9993 18.3334C24.566 18.3334 26.5827 16.3167 26.5827 13.7501C26.5827 11.1834 24.566 9.16675 21.9993 9.16675ZM24.7493 13.7501C24.7493 14.1167 24.566 14.4834 24.3827 14.8501L23.2827 13.7501L24.3827 12.6501C24.566 13.0167 24.7493 13.3834 24.7493 13.7501ZM23.0993 11.3667L21.9993 12.4667L20.8993 11.3667C21.266 11.1834 21.6327 11.0001 21.9993 11.0001C22.366 11.0001 22.7327 11.1834 23.0993 11.3667ZM19.616 14.8501C19.4327 14.4834 19.2493 14.1167 19.2493 13.7501C19.2493 13.3834 19.4327 13.0167 19.616 12.6501L20.716 13.7501L19.616 14.8501ZM20.8993 16.1334L21.9993 15.0334L23.0993 16.1334C22.7327 16.3167 22.366 16.5001 21.9993 16.5001C21.6327 16.5001 21.266 16.3167 20.8993 16.1334ZM21.9993 25.6667C19.4327 25.6667 17.416 27.6834 17.416 30.2501C17.416 32.8167 19.4327 34.8334 21.9993 34.8334C24.566 34.8334 26.5827 32.8167 26.5827 30.2501C26.5827 27.6834 24.566 25.6667 21.9993 25.6667ZM24.7493 30.2501C24.7493 30.6167 24.566 30.9834 24.3827 31.3501L23.2827 30.2501L24.3827 29.1501C24.566 29.5167 24.7493 29.8834 24.7493 30.2501ZM23.0993 27.8667L21.9993 28.9667L20.8993 27.8667C21.266 27.6834 21.6327 27.5001 21.9993 27.5001C22.366 27.5001 22.7327 27.6834 23.0993 27.8667ZM19.616 31.3501C19.4327 30.9834 19.2493 30.6167 19.2493 30.2501C19.2493 29.8834 19.4327 29.5167 19.616 29.1501L20.716 30.2501L19.616 31.3501ZM20.8993 32.6334L21.9993 31.5334L23.0993 32.6334C22.7327 32.8167 22.366 33.0001 21.9993 33.0001C21.6327 33.0001 21.266 32.8167 20.8993 32.6334Z" fill="white"/>
</svg>
