<svg width="28" height="28" viewBox="0 0 28 28" fill="none" xmlns="http://www.w3.org/2000/svg">
<path fill-rule="evenodd" clip-rule="evenodd" d="M10.3834 2.33333H17.5817C20.7434 2.33333 23.2984 3.58166 23.3334 6.75499V24.465C23.3334 24.6633 23.2867 24.8617 23.1934 25.0367C23.0417 25.3167 22.7851 25.5267 22.4701 25.62C22.1667 25.7133 21.8284 25.6667 21.5484 25.5033L13.9884 21.7233L6.41675 25.5033C6.24291 25.5955 6.04341 25.655 5.84508 25.655C5.19175 25.655 4.66675 25.1183 4.66675 24.465V6.75499C4.66675 3.58166 7.23341 2.33333 10.3834 2.33333ZM9.59008 11.2233H18.3751C18.8767 11.2233 19.2851 10.8138 19.2851 10.3017C19.2851 9.78833 18.8767 9.38 18.3751 9.38H9.59008C9.08842 9.38 8.68008 9.78833 8.68008 10.3017C8.68008 10.8138 9.08842 11.2233 9.59008 11.2233Z" fill="#01B763"/>
</svg>
