<svg width="28" height="28" viewBox="0 0 28 28" fill="none" xmlns="http://www.w3.org/2000/svg">
<path fill-rule="evenodd" clip-rule="evenodd" d="M14 4.08398C8.53187 4.08398 4.08337 8.53248 4.08337 14.0007C4.08337 19.4688 8.53187 23.9173 14 23.9173C19.4682 23.9173 23.9167 19.4688 23.9167 14.0007C23.9167 8.53248 19.4682 4.08398 14 4.08398ZM14 25.6673C7.56704 25.6673 2.33337 20.4337 2.33337 14.0007C2.33337 7.56765 7.56704 2.33398 14 2.33398C20.433 2.33398 25.6667 7.56765 25.6667 14.0007C25.6667 20.4337 20.433 25.6673 14 25.6673Z" fill="#212121"/>
<path fill-rule="evenodd" clip-rule="evenodd" d="M18.6062 15.1829C17.961 15.1829 17.4337 14.6614 17.4337 14.0163C17.4337 13.3711 17.9505 12.8496 18.5945 12.8496H18.6062C19.2514 12.8496 19.7729 13.3711 19.7729 14.0163C19.7729 14.6614 19.2514 15.1829 18.6062 15.1829Z" fill="#212121"/>
<path fill-rule="evenodd" clip-rule="evenodd" d="M13.9283 15.1829C13.2831 15.1829 12.757 14.6614 12.757 14.0163C12.757 13.3711 13.2726 12.8496 13.9178 12.8496H13.9283C14.5735 12.8496 15.095 13.3711 15.095 14.0163C15.095 14.6614 14.5735 15.1829 13.9283 15.1829Z" fill="#212121"/>
<path fill-rule="evenodd" clip-rule="evenodd" d="M9.25136 15.1829C8.60619 15.1829 8.07886 14.6614 8.07886 14.0163C8.07886 13.3711 8.59569 12.8496 9.24086 12.8496H9.25136C9.89652 12.8496 10.418 13.3711 10.418 14.0163C10.418 14.6614 9.89652 15.1829 9.25136 15.1829Z" fill="#212121"/>
</svg>
