<svg width="20" height="20" viewBox="0 0 20 20" fill="none" xmlns="http://www.w3.org/2000/svg">
<path fill-rule="evenodd" clip-rule="evenodd" d="M8.39927 15.4941H3.14844C2.80344 15.4941 2.52344 15.2141 2.52344 14.8691C2.52344 14.5241 2.80344 14.2441 3.14844 14.2441H8.39927C8.74427 14.2441 9.02427 14.5241 9.02427 14.8691C9.02427 15.2141 8.74427 15.4941 8.39927 15.4941Z" fill="#01B763"/>
<path fill-rule="evenodd" clip-rule="evenodd" d="M14.4895 13.5078C13.7479 13.5078 13.1445 14.1045 13.1445 14.8378C13.1445 15.572 13.7479 16.1678 14.4895 16.1678C15.2304 16.1678 15.8329 15.572 15.8329 14.8378C15.8329 14.1045 15.2304 13.5078 14.4895 13.5078ZM14.4895 17.4178C13.0587 17.4178 11.8945 16.2603 11.8945 14.8378C11.8945 13.4153 13.0587 12.2578 14.4895 12.2578C15.9195 12.2578 17.0829 13.4153 17.0829 14.8378C17.0829 16.2603 15.9195 17.4178 14.4895 17.4178Z" fill="#01B763"/>
<path fill-rule="evenodd" clip-rule="evenodd" d="M15.9922 7.41797H10.7422C10.3972 7.41797 10.1172 7.13797 10.1172 6.79297C10.1172 6.44797 10.3972 6.16797 10.7422 6.16797H15.9922C16.3372 6.16797 16.6172 6.44797 16.6172 6.79297C16.6172 7.13797 16.3372 7.41797 15.9922 7.41797Z" fill="#01B763"/>
<mask id="mask0_0_1394" style="mask-type:luminance" maskUnits="userSpaceOnUse" x="2" y="4" width="6" height="6">
<path fill-rule="evenodd" clip-rule="evenodd" d="M2.5 4.16797H7.68817V9.32764H2.5V4.16797Z" fill="white"/>
</mask>
<g mask="url(#mask0_0_1394)">
<path fill-rule="evenodd" clip-rule="evenodd" d="M5.09417 5.41797C4.35333 5.41797 3.75 6.01464 3.75 6.7488C3.75 7.48214 4.35333 8.07797 5.09417 8.07797C5.83583 8.07797 6.43833 7.48214 6.43833 6.7488C6.43833 6.01464 5.83583 5.41797 5.09417 5.41797ZM5.09417 9.32797C3.66417 9.32797 2.5 8.1713 2.5 6.7488C2.5 5.3263 3.66417 4.16797 5.09417 4.16797C6.525 4.16797 7.68833 5.3263 7.68833 6.7488C7.68833 8.1713 6.525 9.32797 5.09417 9.32797Z" fill="#01B763"/>
</g>
</svg>
