<svg width="40" height="40" viewBox="0 0 40 40" fill="none" xmlns="http://www.w3.org/2000/svg">
<path fill-rule="evenodd" clip-rule="evenodd" d="M6.02311 25.2454C1.76191 14.782 9.45943 3.3335 20.7575 3.3335H21.3849C29.8252 3.3335 36.6666 10.1749 36.6666 18.6152C36.6666 23.1419 34.8683 27.4833 31.6674 30.6842C28.4665 33.8852 24.1251 35.6834 19.5983 35.6834H4.31276C4.11017 35.6839 3.91245 35.6213 3.74695 35.5045C3.58144 35.3877 3.45634 35.2223 3.38893 35.0312C3.32153 34.8402 3.31516 34.6329 3.37071 34.4381C3.42626 34.2433 3.54098 34.0705 3.699 33.9437L7.55362 30.8495C7.71795 30.7176 7.83527 30.5362 7.88811 30.3323C7.94094 30.1283 7.92646 29.9128 7.84682 29.7177L6.02311 25.2454ZM22.202 13.9865C22.202 13.5977 22.0475 13.2248 21.7726 12.9499C21.4977 12.6749 21.1248 12.5205 20.736 12.5205C20.3472 12.5205 19.9743 12.6749 19.6993 12.9499C19.4244 13.2248 19.27 13.5977 19.27 13.9865V17.8958H15.3606C14.9718 17.8958 14.5989 18.0503 14.324 18.3252C14.049 18.6002 13.8946 18.973 13.8946 19.3619C13.8946 19.7507 14.049 20.1235 14.324 20.3985C14.5989 20.6734 14.9718 20.8279 15.3606 20.8279H19.27V24.7372C19.27 25.126 19.4244 25.4989 19.6993 25.7738C19.9743 26.0488 20.3472 26.2032 20.736 26.2032C21.1248 26.2032 21.4977 26.0488 21.7726 25.7738C22.0475 25.4989 22.202 25.126 22.202 24.7372V20.8279H26.1113C26.5001 20.8279 26.873 20.6734 27.148 20.3985C27.4229 20.1235 27.5773 19.7507 27.5773 19.3619C27.5773 18.973 27.4229 18.6002 27.148 18.3252C26.873 18.0503 26.5001 17.8958 26.1113 17.8958H22.202V13.9865Z" fill="#12D18E"/>
</svg>
