<svg width="25" height="50" viewBox="0 0 25 50" fill="none" xmlns="http://www.w3.org/2000/svg">
<path d="M11.25 30V36.875C11.25 37.2083 11.4167 37.4166 11.75 37.5C12.0833 37.5833 12.3125 37.4583 12.4375 37.125L16.75 26.75C16.9167 26.3333 16.885 25.9375 16.655 25.5625C16.425 25.1875 16.0817 25 15.625 25H13.75V18.125C13.75 17.7917 13.5833 17.5833 13.25 17.5C12.9167 17.4167 12.6875 17.5417 12.5625 17.875L8.25 28.25C8.08333 28.6666 8.115 29.0625 8.345 29.4375C8.575 29.8125 8.91833 30 9.375 30H11.25ZM2.50001 50C1.79167 50 1.19751 49.76 0.717508 49.28C0.237509 48.8 -0.00165801 48.2066 8.65049e-06 47.5V7.5C8.65049e-06 6.79167 0.240009 6.1975 0.720008 5.7175C1.20001 5.2375 1.79334 4.99834 2.50001 5H7.5V2.50001C7.5 1.79167 7.74 1.19751 8.22 0.717508C8.7 0.237508 9.29333 -0.00165801 10 8.65051e-06H15C15.7083 8.65051e-06 16.3025 0.240009 16.7825 0.720008C17.2625 1.20001 17.5017 1.79334 17.5 2.50001V5H22.5C23.2083 5 23.8025 5.24 24.2825 5.72C24.7625 6.2 25.0016 6.79333 25 7.5V47.5C25 48.2083 24.76 48.8025 24.28 49.2825C23.8 49.7625 23.2067 50.0016 22.5 50H2.50001Z" fill="white"/>
</svg>
