<svg width="44" height="44" viewBox="0 0 44 44" fill="none" xmlns="http://www.w3.org/2000/svg">
<path d="M31.7167 9.16667C34.8334 11.9167 36.6667 15.7667 36.6667 20.1667C36.6667 28.2333 30.0667 34.8333 22.0001 34.8333C13.9334 34.8333 7.33341 28.2333 7.33341 20.1667C7.33341 15.7667 9.35008 11.9167 12.2834 9.16667H31.7167ZM33.0001 5.5H11.0001L9.90008 6.41667C5.86675 9.9 3.66675 14.85 3.66675 20.1667C3.66675 30.25 11.9167 38.5 22.0001 38.5C32.0834 38.5 40.3334 30.25 40.3334 20.1667C40.3334 14.85 38.1334 9.9 34.1001 6.41667L33.0001 5.5ZM23.8334 13.75C23.8334 15.2167 25.1167 16.5 26.5834 16.5C28.0501 16.5 29.3334 15.2167 29.3334 13.75C29.3334 12.2833 28.0501 11 26.5834 11C25.1167 11 23.8334 12.2833 23.8334 13.75ZM14.6667 13.75C14.6667 15.2167 15.9501 16.5 17.4167 16.5C18.8834 16.5 20.1667 15.2167 20.1667 13.75C20.1667 12.2833 18.8834 11 17.4167 11C15.9501 11 14.6667 12.2833 14.6667 13.75ZM12.8334 23.8333C14.8501 23.8333 16.5001 22.1833 16.5001 20.1667C16.5001 18.15 14.8501 16.5 12.8334 16.5C10.8167 16.5 9.16675 18.15 9.16675 20.1667C9.16675 22.1833 10.8167 23.8333 12.8334 23.8333ZM21.0834 27.5C21.0834 25.4833 19.4334 23.8333 17.4167 23.8333C15.4001 23.8333 13.7501 25.4833 13.7501 27.5C13.7501 29.5167 15.4001 31.1667 17.4167 31.1667C19.4334 31.1667 21.0834 29.5167 21.0834 27.5ZM22.0001 23.8333C24.0167 23.8333 25.6667 22.1833 25.6667 20.1667C25.6667 18.15 24.0167 16.5 22.0001 16.5C19.9834 16.5 18.3334 18.15 18.3334 20.1667C18.3334 22.1833 19.9834 23.8333 22.0001 23.8333ZM30.2501 27.5C30.2501 25.4833 28.6001 23.8333 26.5834 23.8333C24.5667 23.8333 22.9167 25.4833 22.9167 27.5C22.9167 29.5167 24.5667 31.1667 26.5834 31.1667C28.6001 31.1667 30.2501 29.5167 30.2501 27.5ZM34.8334 20.1667C34.8334 18.15 33.1834 16.5 31.1667 16.5C29.1501 16.5 27.5001 18.15 27.5001 20.1667C27.5001 22.1833 29.1501 23.8333 31.1667 23.8333C33.1834 23.8333 34.8334 22.1833 34.8334 20.1667Z" fill="#212121"/>
</svg>
