<svg width="24" height="24" viewBox="0 0 24 24" fill="none" xmlns="http://www.w3.org/2000/svg">
<path fill-rule="evenodd" clip-rule="evenodd" d="M4.5 3C4.10218 3 3.72064 3.15804 3.43934 3.43934C3.15804 3.72064 3 4.10218 3 4.5V19.5C3 19.8978 3.15804 20.2794 3.43934 20.5607C3.72064 20.842 4.10218 21 4.5 21H19.5C19.8978 21 20.2794 20.842 20.5607 20.5607C20.842 20.2794 21 19.8978 21 19.5V4.5C21 4.10218 20.842 3.72064 20.5607 3.43934C20.2794 3.15804 19.8978 3 19.5 3H4.5ZM11.5 5.5V7H10V8H11.5V9.5H12.5V8H14V7H12.5V5.5H11.5ZM5.02 10.6375C4.98788 10.5114 5.00615 10.3778 5.07093 10.265C5.13571 10.1522 5.2419 10.0691 5.36696 10.0333C5.49202 9.99756 5.6261 10.0119 5.74075 10.0734C5.85539 10.1348 5.94157 10.2385 5.981 10.3625L6.581 12.4615H10.5V13.4615H9.846V14.3075H10.1155C10.2309 14.3074 10.3427 14.3473 10.4321 14.4203C10.5214 14.4933 10.5828 14.595 10.6057 14.708C10.6287 14.8211 10.6118 14.9386 10.558 15.0407C10.5042 15.1427 10.4168 15.2231 10.3105 15.268L10.976 17.348C10.9918 17.3971 10.9999 17.4484 11 17.5H13C13 17.45 13.0075 17.3985 13.0235 17.3475L13.689 15.268C13.583 15.2228 13.4959 15.1425 13.4423 15.0405C13.3887 14.9385 13.372 14.8211 13.395 14.7082C13.418 14.5953 13.4793 14.4938 13.5685 14.4209C13.6577 14.348 13.7693 14.3081 13.8845 14.308H14.154V13.4615H13.5V12.4615H17.42L18.019 10.3625C18.0371 10.2993 18.0674 10.2403 18.1082 10.1889C18.1491 10.1374 18.1997 10.0946 18.2571 10.0627C18.3145 10.0308 18.3777 10.0105 18.443 10.003C18.5082 9.9955 18.5743 10.0009 18.6375 10.019C18.7007 10.0371 18.7597 10.0674 18.8111 10.1082C18.8626 10.1491 18.9054 10.1997 18.9373 10.2571C18.9692 10.3145 18.9895 10.3777 18.997 10.443C19.0045 10.5082 18.9991 10.5743 18.981 10.6375L18.0135 14.023L18.658 17.4065C18.6638 17.4373 18.6666 17.4686 18.6665 17.5H19.5C19.6326 17.5 19.7598 17.5527 19.8536 17.6464C19.9473 17.7402 20 17.8674 20 18C20 18.1326 19.9473 18.2598 19.8536 18.3536C19.7598 18.4473 19.6326 18.5 19.5 18.5H4.5C4.36739 18.5 4.24021 18.4473 4.14645 18.3536C4.05268 18.2598 4 18.1326 4 18C4 17.8674 4.05268 17.7402 4.14645 17.6464C4.24021 17.5527 4.36739 17.5 4.5 17.5H5.333C5.333 17.469 5.336 17.438 5.342 17.4065L5.987 14.023L5.0195 10.6375H5.02ZM17.05 14.3075H15.1545V13.4615H17.1345L17.0195 13.8625C16.9982 13.9377 16.9947 14.0168 17.0095 14.0935L17.05 14.3075ZM17.2765 15.5H14.665L14.025 17.5H17.6575L17.2765 15.5ZM8.8465 14.3075V13.4615H6.8665L6.9805 13.8625C7.002 13.9376 7.0056 14.0167 6.991 14.0935L6.9505 14.3075H8.846H8.8465ZM6.342 17.5L6.723 15.5H9.3345L9.9745 17.5H6.342Z" fill="#01B763"/>
</svg>
