<svg width="270" height="228" viewBox="0 0 270 228" fill="none" xmlns="http://www.w3.org/2000/svg">
<g clip-path="url(#clip0_2332_20494)">
<path d="M219.894 110.041C219.894 113.245 219.759 116.416 219.49 119.555C219.278 122.005 218.989 124.434 218.622 126.84C218.233 129.387 217.756 131.904 217.191 134.391V134.394C216.822 136.03 216.416 137.653 215.974 139.262C214.692 143.942 213.097 148.529 211.201 152.995C210.789 153.966 210.363 154.931 209.924 155.889C208.263 159.517 206.403 163.051 204.352 166.475C198.602 176.088 191.424 184.77 183.064 192.223C182.16 193.028 181.242 193.82 180.313 194.598C160.576 211.1 135.665 220.122 109.947 220.083C49.2241 220.083 0 170.816 0 110.041C0 49.2665 49.2241 0.000136294 109.947 0.000136294C134.779 -0.0390519 158.887 8.37355 178.311 23.8567C179.222 24.5789 180.121 25.3172 181.009 26.0719C185.34 29.7484 189.382 33.7531 193.1 38.0503H193.103C210.418 58.0269 219.933 83.5954 219.894 110.041Z" fill="#F2F2F2"/>
<path d="M32.4561 129.049C21.9824 122.81 14.0773 111.15 15.1035 98.9949C24.6791 108.167 37.1877 113.654 50.4162 114.485C55.5191 114.787 61.2261 114.591 64.9824 118.061C67.3197 120.22 68.4077 123.471 68.5861 126.649C68.7645 129.827 68.1284 132.989 67.4955 136.109L67.7133 136.873C55.525 136.919 42.9299 135.288 32.4561 129.049Z" fill="#E6E6E6"/>
<path d="M15.359 98.9819C19.5556 108.164 26.5362 115.789 35.3093 120.775C37.1953 121.831 39.2004 122.739 41.3312 123.16C43.4113 123.554 45.5589 123.384 47.551 122.667C49.4219 122.035 51.2625 121.172 53.2541 121.007C55.3534 120.833 57.2969 121.644 58.8239 123.063C60.6921 124.8 61.8254 127.106 62.8552 129.399C63.9988 131.945 65.1462 134.608 67.3386 136.438C67.6043 136.66 67.2448 137.06 66.9796 136.838C63.1651 133.653 62.5425 128.318 59.4934 124.567C58.0706 122.816 56.1121 121.484 53.7855 121.519C51.751 121.55 49.8522 122.438 47.9634 123.094C45.9802 123.782 43.9934 124.106 41.8997 123.803C39.7579 123.493 37.7131 122.662 35.8084 121.658C31.5061 119.35 27.5932 116.379 24.213 112.854C20.3329 108.853 17.1653 104.216 14.8473 99.1458C14.704 98.8319 15.2166 98.6701 15.359 98.9819Z" fill="white"/>
<path d="M32.3899 119.336C31.3544 120.696 29.8696 121.643 28.2009 122.008C26.5322 122.373 24.788 122.133 23.2801 121.329C22.9755 121.166 23.2151 120.685 23.5201 120.848C24.9229 121.599 26.5476 121.823 28.1008 121.479C29.6541 121.136 31.0336 120.248 31.9903 118.977C32.1986 118.701 32.597 119.061 32.3899 119.336Z" fill="white"/>
<path d="M46.6445 123.112C46.2087 119.644 44.4831 116.469 41.8117 114.218C41.5469 113.995 41.9062 113.596 42.1708 113.818C44.9463 116.166 46.7353 119.474 47.1809 123.083C47.2232 123.427 46.6865 123.454 46.6445 123.112Z" fill="white"/>
<path d="M20.999 108.6C21.5092 108.158 21.9016 107.595 22.141 106.963C22.3804 106.332 22.4592 105.65 22.3704 104.98C22.3238 104.637 22.8605 104.611 22.9068 104.952C23.0015 105.692 22.9135 106.445 22.6506 107.143C22.3877 107.842 21.9578 108.466 21.3986 108.96C21.3498 109.011 21.2834 109.041 21.213 109.045C21.1425 109.049 21.0733 109.025 21.0193 108.98C20.9666 108.932 20.935 108.865 20.9312 108.794C20.9274 108.723 20.9518 108.653 20.999 108.6Z" fill="white"/>
<path d="M49.0062 75.4456C49.0414 75.6591 49.0766 75.8727 49.1158 76.0883C49.6035 78.957 50.3233 81.7814 51.268 84.5335C51.3377 84.7475 51.4115 84.9632 51.4872 85.1747C53.8339 91.7809 57.3856 97.8936 61.9618 103.202C63.7847 105.313 65.7654 107.282 67.8868 109.091C70.8167 111.591 74.1921 114.068 76.0705 117.295C76.2703 117.629 76.4492 117.976 76.6061 118.332L68.6279 136.548C68.589 136.58 68.5542 136.614 68.5152 136.647L68.2299 137.389C68.114 137.303 67.9956 137.212 67.8797 137.126C67.8122 137.076 67.7465 137.023 67.6791 136.974C67.6347 136.939 67.5903 136.905 67.5483 136.876C67.5335 136.865 67.5187 136.854 67.5081 136.844C67.466 136.816 67.43 136.785 67.3921 136.758C66.729 136.249 66.0682 135.735 65.4099 135.215C65.4057 135.213 65.4057 135.213 65.4033 135.207C60.3972 131.232 55.6788 126.804 51.7818 121.799C51.6646 121.648 51.5432 121.496 51.4297 121.337C49.6856 119.072 48.1295 116.667 46.7769 114.148C46.0406 112.766 45.3748 111.348 44.7818 109.899C43.2569 106.151 42.3305 102.187 42.0365 98.1511C41.4515 90.1058 43.4439 81.9629 48.6072 75.9046C48.7394 75.7497 48.8699 75.5986 49.0062 75.4456Z" fill="#E6E6E6"/>
<path d="M49.2193 75.5879C47.0465 85.4482 48.033 95.743 52.0389 105.01C52.9092 106.99 53.9642 108.923 55.4123 110.543C56.8359 112.112 58.6531 113.27 60.6752 113.897C62.5488 114.521 64.5374 114.941 66.2271 116.009C68.0081 117.135 69.0722 118.953 69.4373 121.007C69.884 123.52 69.402 126.043 68.8449 128.495C68.2264 131.217 67.5409 134.034 68.19 136.817C68.2687 137.154 67.7413 137.257 67.6628 136.92C66.5334 132.078 69.2454 127.443 69.0676 122.611C68.9847 120.356 68.2222 118.112 66.3434 116.738C64.7005 115.536 62.6502 115.101 60.7476 114.487C58.7499 113.841 56.969 112.903 55.4795 111.399C53.9559 109.861 52.8231 107.965 51.9061 106.016C49.8595 101.581 48.5224 96.8505 47.9439 91.9993C47.253 86.4663 47.5128 80.8558 48.7121 75.4104C48.7865 75.0734 49.2932 75.2531 49.2193 75.5879Z" fill="white"/>
<path d="M50.5735 102.102C48.9288 102.564 47.1737 102.425 45.6216 101.711C44.0696 100.997 42.8216 99.7541 42.1007 98.2042C41.9559 97.8901 42.4367 97.6501 42.5817 97.9646C43.2504 99.4091 44.413 100.567 45.8596 101.229C47.3063 101.891 48.9417 102.013 50.4707 101.574C50.8031 101.479 50.904 102.008 50.5735 102.102Z" fill="white"/>
<path d="M59.6836 113.707C61.4215 110.675 61.954 107.1 61.175 103.693C61.0975 103.356 61.6249 103.253 61.7022 103.59C62.5063 107.137 61.9446 110.857 60.1291 114.007C59.9559 114.307 59.5113 114.005 59.6836 113.707Z" fill="white"/>
<path d="M47.9367 86.6661C48.6102 86.6202 49.2619 86.4076 49.833 86.0474C50.4042 85.6872 50.8771 85.1906 51.2091 84.6023C51.3785 84.3 51.8229 84.6024 51.6547 84.9026C51.2848 85.5509 50.7619 86.0987 50.1317 86.4981C49.5015 86.8975 48.7832 87.1364 48.0395 87.1938C47.9699 87.2051 47.8985 87.1895 47.84 87.15C47.7815 87.1106 47.7402 87.0503 47.7245 86.9814C47.7112 86.9115 47.726 86.8391 47.7658 86.7801C47.8055 86.7211 47.8669 86.6801 47.9367 86.6661Z" fill="white"/>
<path d="M76.1611 25.5043L89.6181 183.17L62.704 185.196V27.5103C65.9111 25.3863 70.5148 25.054 76.1611 25.5043Z" fill="#CCCCCC"/>
<path d="M142.587 25.5043L129.13 183.17L156.044 185.196V27.5103C152.837 25.3863 148.234 25.054 142.587 25.5043Z" fill="#CCCCCC"/>
<path d="M152.014 191.712H66.4476C65.0755 191.711 63.7601 191.164 62.7899 190.193C61.8197 189.222 61.274 187.906 61.2725 186.533V29.8241C61.274 28.4509 61.8198 27.1343 62.79 26.1633C63.7601 25.1923 65.0756 24.6461 66.4476 24.6445H152.014C153.387 24.6461 154.702 25.1923 155.672 26.1633C156.642 27.1343 157.188 28.4509 157.19 29.8241V186.533C157.188 187.906 156.642 189.222 155.672 190.193C154.702 191.164 153.387 191.711 152.014 191.712ZM66.4476 26.3639C65.531 26.3649 64.6522 26.7298 64.0041 27.3785C63.356 28.0272 62.9914 28.9067 62.9904 29.8241V186.533C62.9914 187.45 63.356 188.329 64.0041 188.978C64.6522 189.627 65.531 189.992 66.4476 189.993H152.014C152.931 189.992 153.81 189.627 154.458 188.978C155.106 188.329 155.471 187.45 155.472 186.533V29.8241C155.471 28.9067 155.106 28.0272 154.458 27.3785C153.81 26.7298 152.931 26.3649 152.014 26.3639L66.4476 26.3639Z" fill="#CCCCCC"/>
<path d="M156.331 50.7222H62.1314V52.4416H156.331V50.7222Z" fill="#CCCCCC"/>
<path d="M156.331 79.3787H62.1314V81.0981H156.331V79.3787Z" fill="#CCCCCC"/>
<path d="M92.7 25.5044H90.9821V103.737H92.7V25.5044Z" fill="#CCCCCC"/>
<path d="M127.48 25.5044H125.762V103.737H127.48V25.5044Z" fill="#CCCCCC"/>
<path d="M167.068 196.441H54.2576C52.2073 196.441 50.241 195.625 48.7912 194.174C47.3415 192.723 46.527 190.755 46.527 188.703C46.527 186.651 47.3415 184.683 48.7912 183.232C50.241 181.781 52.2073 180.966 54.2576 180.966H167.068C169.118 180.966 171.084 181.781 172.534 183.232C173.984 184.683 174.798 186.651 174.798 188.703C174.798 190.755 173.984 192.723 172.534 194.174C171.084 195.625 169.118 196.441 167.068 196.441Z" fill="#CCCCCC"/>
<path d="M156.331 99.7249H62.704V105.456H156.331V99.7249Z" fill="#CCCCCC"/>
<path d="M92.9666 117.965L92.8478 117.907C86.4653 114.822 78.1072 114.824 65.7467 117.917L65.6147 117.951L65.5751 117.82C64.2675 113.529 62.7863 108.669 65.569 106.278C65.608 99.2611 71.7576 93.5635 79.3111 93.5635C86.8631 93.5635 93.0118 99.2581 93.053 106.273C97.1925 109.441 95.2197 114.121 93.0335 117.851L92.9666 117.965Z" fill="#2F2E41"/>
<path d="M132.196 102.94C132.081 103.509 131.844 104.045 131.5 104.512C131.156 104.979 130.714 105.364 130.205 105.642C129.696 105.919 129.132 106.081 128.554 106.117C127.975 106.152 127.396 106.061 126.857 105.848L104.301 128.534L102.289 121.49L124.691 100.423C125.108 99.54 125.834 98.8408 126.731 98.4579C127.629 98.075 128.635 98.0349 129.56 98.3452C130.485 98.6555 131.265 99.2946 131.75 100.141C132.236 100.988 132.395 101.984 132.196 102.94Z" fill="#FFB6B6"/>
<path d="M76.4497 124.78C76.4497 124.78 74.4033 129.421 79.4527 132.284C84.5022 135.146 102.15 131.191 105.014 130.639C107.877 130.087 118.572 114.068 118.572 114.068L117.06 106.212L102.876 118.535L76.4497 124.78Z" fill="url(#paint0_linear_2332_20494)"/>
<path d="M72.7252 150.447L73.0116 155.892C73.0116 155.892 72.1665 160.715 72.8615 161.755C73.5513 162.791 92.3743 162.922 92.3743 162.922C92.3743 162.922 93.618 156.211 94.6893 150.338L72.7252 150.447Z" fill="#FFB6B6"/>
<path d="M126.844 222.438L130.779 221.643L129.653 205.734L123.845 206.908L126.844 222.438Z" fill="#FFB6B6"/>
<path d="M132.481 201.736L136.139 200.09L131.393 184.868L125.994 187.298L132.481 201.736Z" fill="#FFB6B6"/>
<path d="M135.667 193.159L128.779 197.063L111.791 169.741C99.8653 177.783 88.2035 181.634 76.4474 183.689C72.4727 184.397 68.4203 184.038 67.6572 179.989C67.6216 179.8 67.5931 179.609 67.5719 179.418C67.1025 174.995 72.5992 169.327 73.2979 163.916L88.3413 163.012L90.1964 165.392L107.594 154.687C111.092 152.534 115.694 153.699 117.871 157.288C117.986 157.478 118.093 157.672 118.192 157.871L135.667 193.159Z" fill="#2F2E41"/>
<path d="M131.451 211.539L123.569 212.272L109.278 183.019C95.1065 185.459 81.737 186.24 70.1729 183.289C66.2576 182.304 63.8642 178.258 64.8273 174.252C64.8723 174.064 64.9243 173.879 64.9834 173.696C66.3674 169.469 69.9902 166.479 72.8445 161.831L93.6934 162.148L91.3648 170.189L111.618 167.566C115.691 167.039 119.411 169.99 119.926 174.157C119.954 174.377 119.971 174.598 119.98 174.82L131.451 211.539Z" fill="#2F2E41"/>
<path d="M80.866 113.806C85.5415 113.806 89.3318 110.012 89.3318 105.333C89.3318 100.653 85.5415 96.8596 80.866 96.8596C76.1904 96.8596 72.4001 100.653 72.4001 105.333C72.4001 110.012 76.1904 113.806 80.866 113.806Z" fill="#FFB6B6"/>
<path d="M75.9029 116.865L83.6653 117.779C83.9926 117.817 84.2998 117.957 84.544 118.179C84.7882 118.4 84.9573 118.692 85.0277 119.015L86.2621 124.668L93.9574 133.738C93.9574 133.738 96.7208 138.924 95.6845 144.801C94.6483 150.678 94.1929 155.045 94.1929 155.045C94.1929 155.045 73.5504 162.792 72.8595 161.754C72.1687 160.717 71.9445 156.006 71.9445 156.006L69.1812 125.238C69.1812 125.238 72.2899 120.052 74.017 120.052C75.1317 120.015 74.9887 117.504 75.9029 116.865Z" fill="url(#paint1_linear_2332_20494)"/>
<path d="M94.4027 156.937C95.4913 156.937 96.3737 155.877 96.3737 154.57C96.3737 153.262 95.4913 152.203 94.4027 152.203C93.3142 152.203 92.4318 153.262 92.4318 154.57C92.4318 155.877 93.3142 156.937 94.4027 156.937Z" fill="url(#paint2_linear_2332_20494)"/>
<path d="M124.891 218.342L130.89 215.333L132.021 217.973L139.608 219.508C139.982 219.584 140.323 219.777 140.58 220.061C140.837 220.344 140.997 220.702 141.036 221.083C141.075 221.463 140.992 221.846 140.798 222.176C140.604 222.506 140.31 222.765 139.959 222.916L132.629 226.061L130.247 223.991L130.872 226.814L128.108 228L124.891 218.342Z" fill="#2F2E41"/>
<path d="M130.764 200.469L136.709 197.355L137.886 199.975L145.498 201.376C145.874 201.445 146.218 201.633 146.48 201.911C146.742 202.19 146.908 202.545 146.954 202.925C147 203.305 146.923 203.69 146.735 204.023C146.548 204.356 146.258 204.62 145.909 204.777L138.636 208.05L136.218 206.023L136.893 208.835L134.15 210.069L130.764 200.469Z" fill="#2F2E41"/>
<path d="M76.0291 102.675C73.7925 102.679 71.6096 101.989 69.78 100.702L69.7189 100.659V100.584C69.7213 98.4191 70.5818 96.3431 72.1116 94.812C73.6414 93.2809 75.7155 92.4197 77.879 92.4172H81.3148C83.4783 92.4197 85.5524 93.2809 87.0822 94.812C88.612 96.3431 89.4725 98.4191 89.4749 100.584C89.4727 101.08 89.2772 101.555 88.9301 101.909C88.583 102.262 88.1117 102.466 87.6167 102.477L76.2222 102.673C76.1579 102.674 76.0933 102.675 76.0291 102.675Z" fill="#2F2E41"/>
<path d="M90.0476 99.0159C91.1432 98.3829 91.3263 96.6475 90.4566 95.1398C89.5868 93.6321 87.9937 92.9231 86.8981 93.5561C85.8026 94.1892 85.6195 95.9246 86.4892 97.4323C87.3589 98.94 88.9521 99.649 90.0476 99.0159Z" fill="#2F2E41"/>
<path d="M72.9133 97.334C74.1433 96.1029 74.4152 94.3792 73.5207 93.4839C72.6262 92.5887 70.904 92.8608 69.674 94.0918C68.444 95.3229 68.1721 97.0466 69.0666 97.9419C69.9611 98.8371 71.6834 98.565 72.9133 97.334Z" fill="#2F2E41"/>
<path d="M147.838 174.805H139.388C139.197 174.805 139.009 174.846 138.836 174.926C138.663 175.006 138.509 175.123 138.386 175.268C138.075 175.211 137.754 175.229 137.45 175.319C137.146 175.41 136.869 175.572 136.64 175.791C136.41 176.01 136.237 176.28 136.132 176.58C136.028 176.879 135.996 177.199 136.039 177.513C136.082 177.828 136.198 178.127 136.38 178.387C136.561 178.648 136.801 178.861 137.081 179.011C137.36 179.16 137.671 179.241 137.988 179.246C138.305 179.252 138.618 179.183 138.903 179.043L139.604 181.323C139.687 181.593 139.854 181.829 140.082 181.997C140.309 182.165 140.584 182.256 140.866 182.256H146.36C146.642 182.256 146.917 182.165 147.144 181.997C147.371 181.829 147.539 181.593 147.622 181.323L149.1 176.515C149.161 176.317 149.174 176.108 149.14 175.904C149.105 175.701 149.023 175.508 148.9 175.341C148.777 175.175 148.617 175.04 148.433 174.947C148.248 174.853 148.045 174.805 147.838 174.805ZM138.03 178.674C137.65 178.674 137.286 178.523 137.017 178.254C136.749 177.985 136.598 177.621 136.598 177.241C136.598 176.861 136.749 176.496 137.017 176.228C137.286 175.959 137.65 175.808 138.03 175.808C138.056 175.808 138.08 175.814 138.106 175.816C138.049 176.046 138.056 176.288 138.126 176.515L138.731 178.482C138.518 178.606 138.276 178.672 138.03 178.674Z" fill="#3F3D56"/>
<path d="M110.105 168.584C109.528 168.638 108.946 168.564 108.401 168.368C107.855 168.172 107.36 167.859 106.948 167.45C106.537 167.042 106.22 166.548 106.02 166.004C105.82 165.459 105.741 164.878 105.79 164.3L77.6051 149.183L83.7698 145.232L110.361 160.666C111.326 160.813 112.203 161.308 112.827 162.059C113.451 162.81 113.779 163.763 113.747 164.739C113.715 165.715 113.327 166.646 112.656 167.354C111.985 168.063 111.077 168.501 110.105 168.584Z" fill="#FFB6B6"/>
<path d="M73.207 121.402C73.207 121.402 68.1774 120.772 66.8865 126.435C65.5956 132.097 74.4441 147.883 75.7942 150.47C77.1443 153.057 95.5454 158.715 95.5454 158.715L102.631 155.011L86.7658 144.948L73.207 121.402Z" fill="url(#paint3_linear_2332_20494)"/>
<path d="M108.658 98.0054H110.376C111.212 98.0054 112.013 98.3375 112.603 98.9286C113.194 99.5198 113.526 100.322 113.526 101.158H105.509C105.509 100.322 105.841 99.5198 106.431 98.9286C107.022 98.3375 107.823 98.0054 108.658 98.0054Z" fill="#CCCCCC"/>
<path d="M54.1836 39.1923C63.5832 39.1923 71.203 31.5659 71.203 22.1583C71.203 12.7506 63.5832 5.12427 54.1836 5.12427C44.7841 5.12427 37.1642 12.7506 37.1642 22.1583C37.1642 31.5659 44.7841 39.1923 54.1836 39.1923Z" fill="url(#paint4_linear_2332_20494)"/>
<path d="M106.293 21.2707C101.789 16.5417 96.5577 12.2276 90.365 9.94782C88.64 9.31009 86.8514 8.86023 85.0301 8.60603C85.0155 8.60402 85.0016 8.60699 84.9871 8.6058C84.9574 8.59816 84.9274 8.59226 84.8971 8.58813C82.3498 8.26334 79.7643 8.41957 77.2746 9.0487C76.0571 9.35449 74.8693 9.76862 73.7255 10.2861C72.5776 10.8466 71.4654 11.4775 70.3952 12.1751C68.13 13.5322 65.6359 14.4634 63.0361 14.9229C61.7311 15.158 60.4093 15.2878 59.0836 15.3111C57.9332 15.3342 56.8483 15.3742 55.7584 15.7902C54.5942 16.2283 53.5484 16.9328 52.7045 17.8473C51.8606 18.7619 51.2419 19.8612 50.8979 21.0575C50.8714 21.1641 50.8794 21.2763 50.9207 21.378C50.9621 21.4797 51.0346 21.5656 51.128 21.6233C51.4228 21.8346 51.7102 22.0744 52.02 22.2627C52.2955 22.3889 52.5898 22.4693 52.8913 22.5006C53.3838 22.6046 53.8769 22.7055 54.3706 22.8035C56.1895 23.1642 58.016 23.4835 59.8501 23.7613C63.5612 24.3236 67.2923 24.7197 71.0435 24.9496C78.5583 25.4051 86.0988 25.1783 93.5726 24.2719C97.773 23.7627 101.945 23.0405 106.072 22.1081C106.156 22.0837 106.231 22.038 106.292 21.9756C106.353 21.9132 106.397 21.8361 106.419 21.7519C106.441 21.6676 106.441 21.579 106.419 21.4947C106.397 21.4104 106.354 21.3333 106.293 21.2707Z" fill="#E6E6E6"/>
<path d="M54.9914 32.6597C53.2664 32.022 51.4778 31.5721 49.6565 31.3179C49.6419 31.3159 49.628 31.3189 49.6135 31.3177C49.5838 31.3101 49.5538 31.3042 49.5235 31.3C46.9762 30.9753 44.3907 31.1315 41.901 31.7606C40.6835 32.0664 39.4957 32.4805 38.3519 32.9981C37.204 33.5585 36.0918 34.1894 35.0216 34.887C32.7564 36.2441 30.2623 37.1754 27.6625 37.6348C26.3575 37.8699 25.0357 37.9998 23.71 38.023C22.5596 38.0461 21.4747 38.0861 20.3848 38.5021C19.2206 38.9403 18.1748 39.6447 17.3309 40.5593C16.487 41.4738 15.8684 42.5731 15.5243 43.7694C15.4978 43.8759 15.5058 43.9882 15.5471 44.0899C15.5885 44.1916 15.6611 44.2775 15.7544 44.3352C16.0492 44.5465 16.3366 44.7863 16.6464 44.9746C16.9219 45.1008 17.2162 45.1812 17.5177 45.2124C18.0102 45.3165 18.5033 45.4174 18.997 45.5153C20.8159 45.876 22.6424 46.1953 24.4765 46.4732C28.1876 47.0355 31.9187 47.4316 35.6699 47.6615C43.1847 48.117 50.7252 47.8902 58.199 46.9838C62.3994 46.4746 66.5712 45.7524 70.6984 44.82C70.782 44.7955 70.8578 44.7499 70.9186 44.6875C70.9793 44.6251 71.0229 44.548 71.0451 44.4637C71.0674 44.3795 71.0674 44.2909 71.0454 44.2066C71.0234 44.1223 70.9799 44.0452 70.9193 43.9826C66.4152 39.2536 61.1841 34.9395 54.9914 32.6597Z" fill="#E6E6E6"/>
<path d="M177.725 159.645L164.637 142.437L154.31 148.281L176.194 174.29L177.725 159.645Z" fill="#3F3D56"/>
<path d="M207.874 131.671C208.165 138.883 209.281 146.037 211.201 152.995C210.789 153.966 210.363 154.931 209.924 155.889C208.263 159.517 206.403 163.051 204.352 166.475C198.602 176.088 191.424 184.77 183.064 192.223C182.16 193.028 181.242 193.82 180.313 194.598C175.013 187.285 172.153 179.215 171.022 170.911C170.879 169.856 170.761 168.79 170.672 167.73V167.724C170.455 165.147 170.386 162.56 170.463 159.975C170.466 159.769 170.472 159.56 170.481 159.351C170.581 156.588 170.83 153.82 171.205 151.077V151.075C171.248 150.759 171.291 150.444 171.34 150.129C171.477 149.183 171.632 148.238 171.801 147.298C172.784 141.877 174.156 136.534 175.906 131.31V131.307C175.955 131.155 176.004 131.006 176.058 130.857C176.247 130.29 176.439 129.728 176.637 129.167C176.649 129.123 176.664 129.08 176.682 129.038C176.937 128.304 177.198 127.576 177.464 126.854C177.536 126.653 177.61 126.453 177.687 126.252C177.988 125.447 178.294 124.648 178.606 123.859C178.704 123.607 178.804 123.355 178.904 123.106C178.981 122.914 179.056 122.722 179.136 122.533V122.53C179.591 121.404 180.052 120.299 180.519 119.217C181.828 116.174 183.173 113.311 184.485 110.672L184.487 110.669C189.93 99.7421 194.878 92.6467 194.878 92.6467L213.457 98.6646C211.241 102.599 209.526 108.402 208.587 115.248C207.863 120.69 207.625 126.185 207.874 131.668L207.874 131.671Z" fill="#3F3D56"/>
<path d="M176.994 129.92C176.886 129.665 176.762 129.416 176.636 129.167C175.983 127.901 175.143 126.742 174.143 125.728C173.994 125.576 173.839 125.424 173.679 125.281C171.954 123.691 169.857 122.562 167.581 121.998C165.305 121.434 162.924 121.453 160.657 122.054L160.646 122.06L160.56 122.083L160.58 122.18C160.666 122.634 160.79 123.08 160.952 123.513C160.995 123.63 161.043 123.742 161.092 123.854C161.112 123.905 161.138 123.951 161.161 124.003C161.161 124.003 161.158 124.006 161.164 124.006C161.164 124.008 161.167 124.011 161.167 124.014C161.221 124.12 161.273 124.229 161.33 124.332C161.212 124.22 161.101 124.106 160.992 123.988C160.886 123.879 160.789 123.765 160.691 123.65C160.358 123.261 160.056 122.845 159.789 122.407L159.744 122.329L159.663 122.361C158.583 122.735 157.552 123.241 156.594 123.865L156.491 123.934C155.759 124.415 154.935 124.736 154.071 124.877C153.208 125.018 152.324 124.976 151.478 124.754C150.143 124.409 148.752 124.346 147.392 124.569C146.032 124.791 144.733 125.294 143.578 126.046C142.813 126.545 142.121 127.149 141.522 127.84C141.471 127.9 141.419 127.963 141.368 128.023C141.259 128.155 141.156 128.29 141.055 128.427C139.979 129.867 139.319 131.575 139.146 133.365L139.14 133.431L139.194 133.468C140.163 134.133 141.259 134.589 142.413 134.809C141.688 134.91 140.954 134.929 140.225 134.864H140.222C139.892 134.836 139.563 134.79 139.237 134.726L139.177 134.715H139.174L139.1 134.7L139.111 134.838C139.197 136.589 139.747 138.285 140.706 139.752L140.735 139.792C140.745 139.807 140.755 139.822 140.763 139.838C141.17 140.46 141.508 141.124 141.771 141.819C142.441 143.544 142.588 145.429 142.195 147.237C141.75 149.172 141.898 151.196 142.619 153.045C143.34 154.895 144.601 156.484 146.238 157.605C147.675 158.595 149.351 159.184 151.091 159.31C151.329 159.331 151.569 159.342 151.81 159.342C153.186 159.346 154.549 159.062 155.81 158.508L155.855 158.491L155.867 158.439C156.109 157.656 156.45 156.907 156.88 156.21C156.739 156.759 156.668 157.325 156.669 157.892V158.081L156.832 157.987C156.972 157.903 157.115 157.815 157.244 157.731C158.017 157.226 158.718 156.617 159.326 155.92C159.563 155.645 159.804 155.379 160.056 155.112L160.059 155.109C160.548 154.588 161.066 154.078 161.605 153.591C162.75 152.561 163.975 151.625 165.27 150.791C166.563 149.96 167.915 149.224 169.315 148.59H169.318C169.476 148.516 169.636 148.444 169.793 148.375C170.491 148.071 171.162 147.711 171.801 147.298C171.823 147.283 171.843 147.272 171.863 147.258C174.631 145.444 176.666 142.706 177.606 139.531C178.545 136.356 178.329 132.95 176.994 129.92Z" fill="url(#paint5_linear_2332_20494)"/>
<path opacity="0.15" d="M142.667 151.306C142.589 151.654 142.529 152.007 142.489 152.362C141.956 150.676 141.879 148.878 142.266 147.153C142.325 146.889 142.37 146.622 142.405 146.353C142.934 147.951 143.024 149.661 142.667 151.306Z" fill="black"/>
<path opacity="0.15" d="M142.883 138.876C142.035 138.993 141.175 138.998 140.326 138.888C140.104 138.468 139.912 138.033 139.751 137.585C140.697 138.224 141.763 138.663 142.883 138.876Z" fill="black"/>
<path opacity="0.15" d="M140.258 134.772C139.945 135.573 139.737 136.411 139.639 137.266C139.378 136.452 139.224 135.607 139.18 134.753L139.173 134.616L139.309 134.642C139.623 134.701 139.94 134.744 140.258 134.772Z" fill="black"/>
<path opacity="0.15" d="M143.652 125.961C144.806 125.208 146.104 124.704 147.463 124.481C148.823 124.259 150.213 124.322 151.547 124.667C152.394 124.891 153.278 124.934 154.142 124.793C155.006 124.652 155.831 124.33 156.563 123.848L156.667 123.78C157.624 123.154 158.654 122.648 159.734 122.272L159.817 122.244L159.862 122.318C160.289 123.025 160.806 123.673 161.401 124.245C161.04 123.572 160.787 122.846 160.651 122.093L160.632 121.994L160.73 121.968C162.855 121.405 165.084 121.353 167.234 121.816C169.384 122.279 171.394 123.244 173.1 124.633C174.806 126.022 176.16 127.794 177.051 129.806C177.942 131.818 178.346 134.013 178.228 136.21C177.778 134.419 176.976 132.734 175.87 131.255C174.764 129.775 173.375 128.53 171.785 127.592C170.195 126.654 168.434 126.04 166.605 125.788C164.776 125.535 162.916 125.649 161.131 126.121L161.033 126.147L161.053 126.246C161.188 126.999 161.441 127.725 161.802 128.399C161.208 127.826 160.69 127.178 160.263 126.471L160.218 126.397L160.135 126.425C159.055 126.801 158.025 127.307 157.068 127.933L156.964 128.002C156.233 128.483 155.408 128.805 154.543 128.946C153.679 129.087 152.795 129.044 151.948 128.82C149.732 128.244 147.384 128.456 145.306 129.419C143.228 130.382 141.548 132.036 140.553 134.1C140.11 133.887 139.68 133.647 139.266 133.381L139.21 133.345L139.217 133.279C139.359 131.804 139.832 130.38 140.6 129.113C141.368 127.846 142.411 126.769 143.652 125.961Z" fill="black"/>
<path d="M250.095 52.7396L249.823 52.559L249.625 52.817C248.096 54.7437 246.88 56.8992 246.02 59.2045C246.139 56.5488 246.603 53.9198 247.4 51.3841L247.486 51.1176L247.24 50.9772C244.037 49.1616 240.623 47.745 237.076 46.759L236.689 46.6558C233.971 45.9092 231.44 44.5974 229.262 42.806C227.083 41.0146 225.307 38.7839 224.048 36.2592C221.123 30.465 216.502 25.7015 210.801 22.6043C205.101 19.5071 198.592 18.2235 192.144 18.9248H192.141C192.072 18.9306 192 18.9392 191.932 18.9478C191.814 18.9592 191.7 18.9736 191.585 18.9879C191.35 19.0194 191.121 19.0509 190.892 19.0853C190.698 19.114 190.5 19.1455 190.305 19.1799C190.202 19.1942 190.102 19.2114 190.002 19.2315C189.902 19.2487 189.799 19.2659 189.698 19.2859H189.696C187.773 19.6499 185.889 20.1919 184.066 20.905H184.064V20.9079L183.603 21.0884C183.127 21.2833 182.656 21.4896 182.188 21.7074C182.082 21.7561 181.979 21.8077 181.873 21.8564C181.845 21.8707 181.813 21.8851 181.785 21.9022C181.484 22.0455 181.186 22.1945 180.891 22.3522C180.848 22.3722 180.805 22.3951 180.762 22.4181L180.487 22.5642C179.883 22.8909 179.29 23.2376 178.707 23.6044C178.658 23.6331 178.612 23.6618 178.563 23.6933C178.512 23.7277 178.457 23.7621 178.406 23.7964C178.374 23.8136 178.343 23.8366 178.311 23.8566C178.223 23.9111 178.137 23.9684 178.051 24.0286C177.879 24.1403 177.707 24.2549 177.538 24.3724C177.364 24.4899 177.192 24.6132 177.02 24.7364L176.848 24.8596L176.88 25.0717C176.909 25.2465 176.934 25.4213 176.966 25.5932C176.994 25.7652 177.023 25.9342 177.055 26.1033C177.103 26.387 177.158 26.6678 177.212 26.9401C177.249 27.1206 177.284 27.2983 177.324 27.4731C177.361 27.6536 177.401 27.8342 177.444 28.0147C177.527 28.3872 177.616 28.7483 177.71 29.1036C177.756 29.2813 177.805 29.459 177.856 29.6338C177.885 29.7398 177.913 29.8458 177.945 29.949C177.968 30.0206 177.991 30.0923 178.014 30.1639C178.019 30.1869 178.025 30.2126 178.034 30.2384C178.04 30.2627 178.048 30.2866 178.057 30.3101C178.088 30.4161 178.12 30.5193 178.151 30.6196C178.168 30.674 178.185 30.7285 178.206 30.78C178.246 30.9033 178.289 31.0294 178.332 31.1497C178.377 31.2873 178.426 31.4248 178.475 31.5595C178.486 31.5939 178.498 31.6254 178.509 31.6598C178.518 31.6856 178.526 31.7114 178.538 31.7372C178.549 31.7658 178.561 31.7974 178.572 31.826C178.621 31.955 178.669 32.0868 178.721 32.2157C178.738 32.2616 178.755 32.3103 178.775 32.3562C179.239 33.5236 179.81 34.6459 180.479 35.709C179.737 35.0728 179.023 34.3984 178.337 33.6858C177.278 32.584 176.302 31.4049 175.417 30.1582C175.345 30.0608 175.274 29.9605 175.208 29.8602C175.073 29.6682 174.941 29.4762 174.813 29.2813C174.675 29.0807 174.543 28.8715 174.415 28.6652C174.329 28.5276 174.243 28.3872 174.16 28.2497C174.077 28.1179 174 27.9889 173.925 27.8571L173.702 27.4731H173.699V27.4759L173.384 27.7854C173.258 27.9087 173.132 28.0319 173.009 28.1551C169.161 32.0304 166.373 36.8314 164.915 42.0965L164.872 42.2541L164.829 42.4175C164.746 42.7098 164.663 42.9935 164.574 43.2829V43.2858C164.488 43.5723 164.396 43.8589 164.299 44.1397C164.21 44.4062 164.119 44.6699 164.021 44.9335C163.99 45.0223 163.955 45.1112 163.918 45.2C163.858 45.372 163.792 45.541 163.726 45.713C163.695 45.7903 163.663 45.8706 163.632 45.948C163.555 46.1371 163.477 46.3262 163.4 46.5125C163.388 46.5411 163.374 46.5727 163.36 46.6013C163.337 46.6586 163.311 46.7159 163.288 46.7704C163.228 46.9079 163.165 47.0484 163.105 47.1859C163.062 47.2747 163.022 47.3664 162.982 47.4553C162.965 47.4954 162.945 47.5355 162.928 47.5756C162.822 47.8049 162.713 48.0313 162.598 48.2548C162.469 48.5185 162.338 48.7821 162.197 49.04C162.074 49.2807 161.945 49.5157 161.811 49.7507C161.579 50.1662 161.336 50.5789 161.084 50.9801C160.986 51.1348 160.889 51.2895 160.789 51.4443C160.766 51.4815 160.743 51.5188 160.72 51.5532C160.637 51.6879 160.551 51.8168 160.462 51.9486C160.402 52.0375 160.342 52.1263 160.282 52.2123C160.182 52.367 160.076 52.516 159.967 52.6622C159.938 52.708 159.907 52.751 159.875 52.794C159.715 53.0175 159.555 53.2353 159.391 53.4531C159.386 53.456 159.386 53.4588 159.383 53.4617C159.377 53.4617 159.377 53.4646 159.374 53.4674C159.303 53.562 159.231 53.6566 159.157 53.7483C159.059 53.883 158.953 54.0148 158.847 54.1437C158.676 54.3615 158.495 54.5822 158.312 54.7971C158.306 54.8028 158.303 54.8086 158.298 54.8114C157.349 55.927 156.321 56.9728 155.223 57.9407C155.203 57.9579 155.188 57.9751 155.168 57.9895C155.014 58.1241 154.859 58.2588 154.699 58.3906C154.633 58.4451 154.567 58.4995 154.501 58.554C154.392 58.6457 154.281 58.7374 154.172 58.8205C154.159 58.8337 154.145 58.8452 154.129 58.8549C154.032 58.9351 153.937 59.0096 153.84 59.0841C153.722 59.1787 153.605 59.2675 153.485 59.3564C152.918 59.7862 152.336 60.1922 151.738 60.5743C151.649 60.6344 151.555 60.6946 151.463 60.7519C151.409 60.7863 151.354 60.8207 151.303 60.8494C151.085 60.9841 150.868 61.1159 150.65 61.242C150.433 61.3709 150.209 61.4941 149.989 61.6145C149.516 61.8724 149.05 62.1418 148.594 62.4226C148.365 62.5659 148.136 62.7092 147.91 62.8553C147.011 63.4399 146.145 64.0656 145.313 64.7323C144.481 65.3995 143.683 66.1082 142.922 66.8558C142.828 66.9475 142.733 67.0421 142.639 67.1395C142.45 67.3258 142.267 67.5149 142.092 67.704C141.811 67.9935 141.542 68.2915 141.276 68.5924C139.872 70.1869 138.629 71.9167 137.565 73.7563C137.031 74.6749 136.546 75.6209 136.111 76.5904C135.782 77.3154 135.481 78.0576 135.209 78.8084C135.029 79.3099 134.86 79.8162 134.702 80.3272C134.625 80.5823 134.55 80.8402 134.479 81.0981C134.235 81.9721 134.032 82.8547 133.866 83.7402C133.731 84.4509 133.623 85.1626 133.54 85.8751C133.497 86.2333 133.462 86.5916 133.431 86.9469C133.357 87.8203 133.319 88.6945 133.318 89.5696C133.313 92.1949 133.632 94.8107 134.267 97.3578C134.407 97.9195 134.563 98.4783 134.734 99.0342C134.819 99.3122 134.911 99.5873 135.003 99.8624C135.235 100.55 135.491 101.231 135.773 101.906C135.942 102.31 136.119 102.711 136.305 103.109C137.488 105.641 138.998 108.008 140.795 110.147C141.09 110.5 141.394 110.846 141.708 111.187C141.711 111.187 141.708 111.19 141.708 111.19C142.487 112.041 143.312 112.848 144.179 113.609H144.182C144.529 113.916 144.881 114.213 145.239 114.5C145.242 114.497 145.242 114.5 145.242 114.5C145.602 114.792 145.966 115.073 146.338 115.346C146.524 115.48 146.713 115.615 146.905 115.75C147.28 116.016 147.663 116.273 148.053 116.52H148.056C148.445 116.773 148.841 117.013 149.241 117.243C150.046 117.704 150.871 118.137 151.718 118.529L151.861 118.595L152.007 118.529C153.366 117.917 154.767 117.403 156.199 116.99C156.514 116.899 156.832 116.816 157.147 116.735C157.943 116.538 158.744 116.371 159.552 116.237C158.765 116.632 158.006 117.079 157.278 117.575C156.714 117.956 156.159 118.372 155.601 118.83C155.414 118.982 155.228 119.14 155.042 119.3L154.578 119.701L155.16 119.893C155.372 119.962 155.583 120.031 155.795 120.094C156.084 120.186 156.371 120.269 156.651 120.346C157.264 120.518 157.881 120.67 158.501 120.802C158.653 120.833 158.802 120.865 158.953 120.896C159.248 120.954 159.546 121.011 159.844 121.063C159.856 121.066 159.869 121.068 159.881 121.068C160.19 121.12 160.502 121.169 160.812 121.212C161.387 121.295 161.963 121.361 162.538 121.409C162.601 121.418 162.664 121.421 162.73 121.424C162.87 121.435 163.008 121.447 163.148 121.455C163.457 121.475 163.769 121.49 164.081 121.501C164.104 121.501 164.124 121.504 164.147 121.504C164.305 121.51 164.462 121.515 164.62 121.518C164.62 121.518 164.62 121.521 164.623 121.518C164.78 121.521 164.937 121.524 165.095 121.524H165.965C166.129 121.524 166.292 121.527 166.458 121.527C166.687 121.527 166.919 121.53 167.148 121.532C167.208 121.532 167.271 121.535 167.334 121.535C167.7 121.541 168.067 121.55 168.433 121.558C168.456 121.558 168.479 121.561 168.502 121.561C168.869 121.573 169.235 121.584 169.602 121.601C169.682 121.604 169.762 121.607 169.845 121.613C170.197 121.627 170.549 121.644 170.902 121.664C171.002 121.67 171.105 121.679 171.208 121.684C171.474 121.699 171.743 121.716 172.01 121.736C172.167 121.745 172.322 121.756 172.479 121.77C173.115 121.819 173.748 121.874 174.383 121.937C174.595 121.954 174.807 121.977 175.019 122C175.586 122.06 176.155 122.126 176.725 122.197C176.98 122.226 177.235 122.26 177.49 122.295C177.518 122.298 177.547 122.3 177.576 122.306C177.891 122.349 178.203 122.392 178.518 122.438C178.724 122.467 178.93 122.498 179.136 122.53C179.348 122.561 179.56 122.593 179.772 122.63C179.886 122.647 180.001 122.667 180.118 122.687C180.393 122.73 180.671 122.776 180.948 122.828C180.974 122.83 180.998 122.834 181.023 122.839C181.613 122.942 182.205 123.051 182.795 123.169C183.142 123.235 183.485 123.303 183.829 123.375C184.098 123.43 184.367 123.487 184.636 123.544C184.682 123.553 184.728 123.564 184.774 123.576C184.784 123.579 184.795 123.581 184.805 123.581C185.212 123.67 185.621 123.762 186.028 123.859C187.439 124.186 188.849 124.549 190.257 124.948C190.58 125.037 190.904 125.132 191.227 125.226C191.365 125.266 191.499 125.307 191.634 125.347C191.915 125.43 192.192 125.513 192.473 125.602C192.719 125.676 192.968 125.754 193.214 125.834C193.369 125.883 193.524 125.931 193.678 125.983C193.919 126.057 194.159 126.135 194.397 126.218C194.6 126.281 194.801 126.347 195.001 126.418C195.287 126.513 195.577 126.61 195.863 126.714C195.946 126.742 196.032 126.771 196.115 126.802C196.464 126.923 196.813 127.046 197.163 127.175C197.504 127.298 197.844 127.424 198.182 127.55C198.417 127.639 198.652 127.725 198.884 127.817C199.144 127.917 199.405 128.017 199.662 128.121C200.035 128.267 200.41 128.416 200.782 128.568C201.125 128.705 201.466 128.846 201.81 128.992C201.873 129.018 201.939 129.043 202.002 129.072C202.299 129.195 202.597 129.324 202.892 129.453C203.084 129.533 203.273 129.617 203.462 129.7C204.286 130.061 205.11 130.434 205.933 130.82H205.936C206.451 131.064 206.975 131.296 207.502 131.516C207.625 131.568 207.748 131.62 207.874 131.668C208.083 131.757 208.295 131.84 208.507 131.926C208.644 131.981 208.782 132.035 208.922 132.087C209.125 132.167 209.331 132.244 209.538 132.319C209.755 132.399 209.97 132.479 210.19 132.554C210.268 132.582 210.345 132.608 210.425 132.637C210.68 132.723 210.935 132.809 211.192 132.892C211.218 132.901 211.244 132.909 211.273 132.918C211.542 133.004 211.811 133.09 212.083 133.17C212.104 133.178 212.126 133.185 212.149 133.19C212.441 133.279 212.739 133.365 213.034 133.448C213.469 133.568 213.907 133.683 214.345 133.789C214.425 133.809 214.505 133.829 214.585 133.846C214.82 133.904 215.052 133.958 215.287 134.01C215.536 134.067 215.788 134.118 216.037 134.17C216.289 134.222 216.541 134.273 216.79 134.319C216.925 134.345 217.059 134.371 217.191 134.394L217.543 134.454C217.786 134.497 218.03 134.534 218.276 134.574C218.283 134.574 218.29 134.575 218.296 134.577C218.574 134.62 218.849 134.66 219.126 134.694C219.393 134.732 219.659 134.763 219.925 134.795C219.98 134.8 220.037 134.806 220.094 134.812C220.315 134.838 220.535 134.864 220.756 134.884C220.819 134.889 220.882 134.895 220.945 134.901C221.162 134.921 221.38 134.941 221.597 134.955C221.641 134.961 221.685 134.964 221.729 134.964C221.924 134.981 222.118 134.995 222.313 135.004C222.451 135.015 222.585 135.021 222.723 135.03C222.794 135.033 222.863 135.035 222.934 135.038C223.123 135.05 223.312 135.056 223.504 135.061C223.736 135.07 223.968 135.076 224.197 135.081C224.475 135.087 224.755 135.09 225.033 135.09H225.039C225.311 135.09 225.586 135.087 225.858 135.081H225.961L226.262 135.073C226.416 135.07 226.571 135.064 226.723 135.058C227.015 135.047 227.304 135.033 227.593 135.015C227.707 135.01 227.825 135.001 227.939 134.995C227.991 134.992 228.045 134.987 228.097 134.984C228.277 134.972 228.455 134.961 228.635 134.947C228.821 134.932 229.01 134.915 229.196 134.895C229.437 134.872 229.677 134.846 229.918 134.821C230.107 134.8 230.296 134.778 230.482 134.755C230.507 134.752 230.532 134.749 230.556 134.743C230.737 134.723 230.917 134.7 231.095 134.674C231.307 134.646 231.516 134.614 231.725 134.583C231.747 134.58 231.767 134.577 231.79 134.574C232.151 134.517 232.515 134.459 232.878 134.394C233.259 134.325 233.64 134.25 234.018 134.173C234.158 134.144 234.296 134.113 234.436 134.084C234.513 134.067 234.593 134.053 234.668 134.035C234.785 134.01 234.9 133.984 235.014 133.955C235.034 133.952 235.057 133.947 235.077 133.944C235.238 133.909 235.395 133.869 235.556 133.829C235.876 133.752 236.191 133.671 236.506 133.585C236.646 133.551 236.787 133.514 236.921 133.477C236.961 133.465 237.001 133.454 237.039 133.442C237.62 133.279 238.196 133.106 238.768 132.924C239.02 132.843 239.269 132.76 239.518 132.671C240.054 132.488 240.584 132.295 241.11 132.092C241.25 132.041 241.391 131.984 241.531 131.929C241.737 131.846 241.943 131.763 242.147 131.68C242.33 131.602 242.513 131.525 242.699 131.445C242.791 131.408 242.882 131.367 242.974 131.327C243.249 131.207 243.524 131.084 243.796 130.961C243.979 130.875 244.159 130.791 244.34 130.705C244.626 130.568 244.91 130.428 245.193 130.287C245.265 130.25 245.333 130.213 245.402 130.178C245.582 130.087 245.763 129.992 245.946 129.9C246.235 129.745 246.524 129.591 246.811 129.43C246.908 129.379 247.003 129.324 247.1 129.27C247.415 129.092 247.727 128.912 248.036 128.728C248.72 128.318 249.395 127.89 250.06 127.444C250.227 127.335 250.393 127.221 250.556 127.109C250.865 126.897 251.169 126.679 251.472 126.461C251.504 126.439 251.532 126.416 251.564 126.396C251.715 126.284 251.867 126.172 252.019 126.057C252.334 125.82 252.646 125.579 252.958 125.332C252.964 125.33 252.972 125.321 252.981 125.315C253.121 125.203 253.262 125.092 253.399 124.98C253.826 124.633 254.246 124.281 254.659 123.917C254.862 123.742 255.063 123.561 255.26 123.381C255.409 123.246 255.558 123.111 255.704 122.974C255.999 122.696 256.288 122.421 256.574 122.14C256.717 122.002 256.858 121.859 257.001 121.716C257.141 121.573 257.284 121.429 257.425 121.283C257.473 121.234 257.522 121.183 257.571 121.131C257.714 120.979 257.857 120.825 258 120.673C258.123 120.541 258.243 120.403 258.367 120.266C258.573 120.037 258.782 119.807 258.985 119.575C258.996 119.562 259.007 119.55 259.019 119.538C259.031 119.524 259.042 119.512 259.051 119.501H259.048C263.21 114.684 266.302 109.038 268.12 102.935C269.938 96.8327 270.441 90.4134 269.594 84.1021C268.748 77.7907 266.572 71.7312 263.21 66.3246C259.849 60.9179 255.378 56.2874 250.095 52.7396Z" fill="url(#paint6_linear_2332_20494)"/>
<g opacity="0.15">
<path d="M192.141 18.9226C192.712 20.9745 193.571 22.9351 194.692 24.7456C192.815 23.1321 191.138 21.2994 189.697 19.2867C190.507 19.1335 191.321 19.0121 192.141 18.9226Z" fill="black"/>
<path d="M164.203 50.6561C162.084 51.8136 160.102 53.2076 158.297 54.8113C161.346 51.2028 163.574 46.9739 164.827 42.4175C164.842 42.3628 164.858 42.3077 164.872 42.2529L164.915 42.0978C166.421 36.6598 169.343 31.7197 173.383 27.7828L173.7 27.4731L173.924 27.8559C175.163 29.9632 176.644 31.9173 178.339 33.6779C175.742 41.0122 170.689 47.1164 164.203 50.6561Z" fill="black"/>
<path d="M179.128 31.1367L179.086 31.2918C179.071 31.3466 179.056 31.4017 179.041 31.4564C178.957 31.758 178.868 32.0573 178.776 32.3553C177.871 30.0072 177.234 27.5637 176.88 25.0719L176.847 24.8604L177.021 24.7362C179.2 23.1692 181.566 21.8818 184.065 20.9038C181.821 23.992 180.149 27.4578 179.128 31.1367Z" fill="black"/>
<path d="M149.99 61.6172C151.865 60.5899 153.62 59.3566 155.223 57.9404C152.022 61.6711 149.727 66.0931 148.518 70.86C147.31 75.6268 147.221 80.609 148.258 85.416C149.295 90.2231 151.43 94.7246 154.496 98.5676C157.562 102.411 161.476 105.491 165.93 107.567L166.075 107.634L166.219 107.569C168.625 106.481 171.162 105.71 173.766 105.275C172.141 106.104 170.626 107.133 169.256 108.339L168.793 108.74L169.374 108.932C169.876 109.098 170.377 109.251 170.865 109.386C173.731 110.185 176.693 110.582 179.668 110.565C193.182 110.479 206.802 113.606 220.148 119.86C222.437 120.931 224.811 121.809 227.245 122.485C237.855 125.442 249.181 124.378 259.056 119.498C253.489 125.943 246.209 130.674 238.062 133.143C229.915 135.612 221.236 135.717 213.032 133.446C210.597 132.77 208.223 131.892 205.935 130.821C192.589 124.567 178.969 121.44 165.454 121.526C162.48 121.543 159.517 121.146 156.652 120.348C156.164 120.212 155.662 120.059 155.161 119.893L154.58 119.701L155.043 119.3C156.412 118.094 157.927 117.065 159.553 116.236C156.949 116.671 154.412 117.442 152.006 118.53L151.862 118.595L151.717 118.528C146.368 116.036 141.816 112.106 138.568 107.175C135.321 102.245 133.507 96.5079 133.328 90.6054C133.149 84.7029 134.612 78.8667 137.554 73.748C140.496 68.6293 144.801 64.4295 149.99 61.6172Z" fill="black"/>
</g>
</g>
<defs>
<linearGradient id="paint0_linear_2332_20494" x1="118.572" y1="133.313" x2="73.1187" y2="112.631" gradientUnits="userSpaceOnUse">
<stop stop-color="#01B763"/>
<stop offset="1" stop-color="#34E895"/>
</linearGradient>
<linearGradient id="paint1_linear_2332_20494" x1="95.917" y1="161.85" x2="62.4239" y2="156.079" gradientUnits="userSpaceOnUse">
<stop stop-color="#01B763"/>
<stop offset="1" stop-color="#34E895"/>
</linearGradient>
<linearGradient id="paint2_linear_2332_20494" x1="96.3737" y1="156.937" x2="91.5689" y2="155.777" gradientUnits="userSpaceOnUse">
<stop stop-color="#01B763"/>
<stop offset="1" stop-color="#34E895"/>
</linearGradient>
<linearGradient id="paint3_linear_2332_20494" x1="102.631" y1="158.715" x2="59.6901" y2="146.752" gradientUnits="userSpaceOnUse">
<stop stop-color="#01B763"/>
<stop offset="1" stop-color="#34E895"/>
</linearGradient>
<linearGradient id="paint4_linear_2332_20494" x1="71.203" y1="39.1923" x2="30.6945" y2="27.4573" gradientUnits="userSpaceOnUse">
<stop stop-color="#01B763"/>
<stop offset="1" stop-color="#34E895"/>
</linearGradient>
<linearGradient id="paint5_linear_2332_20494" x1="178.181" y1="159.342" x2="131.935" y2="145.462" gradientUnits="userSpaceOnUse">
<stop stop-color="#01B763"/>
<stop offset="1" stop-color="#34E895"/>
</linearGradient>
<linearGradient id="paint6_linear_2332_20494" x1="269.994" y1="135.09" x2="112.015" y2="81.2845" gradientUnits="userSpaceOnUse">
<stop stop-color="#01B763"/>
<stop offset="1" stop-color="#34E895"/>
</linearGradient>
<clipPath id="clip0_2332_20494">
<rect width="270" height="228" fill="white"/>
</clipPath>
</defs>
</svg>
