<svg width="24" height="24" viewBox="0 0 24 24" fill="none" xmlns="http://www.w3.org/2000/svg">
<path d="M3.0607 1L2 2.0607L3.86854 5.29206L5.0803 5.11433L12.4769 12.5117L11.846 13.1176C11.5228 13.4408 11.5228 13.9303 11.846 14.2534L12.174 14.5822C12.4971 14.9054 12.9915 14.9054 13.2338 14.5822L14.1936 15.5411C14.1128 16.0258 14.1936 16.6018 14.5975 17.0058L18.9647 21.3479C19.8533 22.2365 21.3074 22.2365 22.196 21.3479C23.2462 20.3785 23.2365 18.9292 22.3479 18.0406L18.0058 13.6726C17.6018 13.2687 17.0258 13.1071 16.5411 13.2687L15.4804 12.3098C15.7228 11.9866 15.7228 11.4922 15.4804 11.2491L15.1775 10.9469C15.1041 10.8704 15.0159 10.8094 14.9183 10.7678C14.8207 10.7262 14.7157 10.7047 14.6096 10.7047C14.5035 10.7047 14.3985 10.7262 14.3009 10.7678C14.2033 10.8094 14.1151 10.8704 14.0417 10.9469L13.5117 11.4769L6.11514 4.0803L6.29125 2.86854L3.0607 1ZM18.8136 1.02504C17.2197 0.892557 15.1064 1.94921 14.1176 2.86773C12.901 4.08434 13.0997 5.67498 14.0667 7.21068L12.3509 8.92734L13.5626 10.2902C14.2089 9.72468 15.1622 9.72468 15.8084 10.2902L16.1372 10.6182L16.2132 10.6941L16.92 9.98723C18.3806 10.846 19.901 10.9696 21.0602 9.81032C22.1912 8.76012 23.4175 6.17018 22.852 4.63529L20.5803 6.98287C20.2572 7.30601 19.7677 7.30601 19.4445 6.98287L17.0961 4.63529C17.0195 4.56185 16.9586 4.47368 16.917 4.37608C16.8753 4.27848 16.8539 4.17348 16.8539 4.06737C16.8539 3.96127 16.8753 3.85626 16.917 3.75866C16.9586 3.66107 17.0195 3.5729 17.0961 3.49946L19.4453 1.15187C19.2434 1.08078 19.0414 1.04443 18.8136 1.02504ZM9.92734 11.098L6.99811 14.0264C6.68334 13.9565 6.36164 13.9226 6.03921 13.9255C3.77725 13.9255 2 15.7027 2 17.9647C2 20.2266 3.77725 22.0039 6.03921 22.0039C8.30116 22.0039 10.0784 20.2266 10.0784 17.9647C10.0784 17.5502 10.013 17.152 9.90149 16.7779L11.6182 15.0613L11.3661 14.7333C10.7198 14.087 10.7247 13.1079 11.2902 12.4608L9.92734 11.098ZM16.1881 14.7842C16.2891 14.7842 16.3844 14.8036 16.4652 14.8852L21.2371 19.6563C21.3987 19.8179 21.3987 20.0747 21.2371 20.2363C21.0756 20.3979 20.817 20.3979 20.6555 20.2363L15.8852 15.4652C15.7236 15.3036 15.7236 15.0467 15.8852 14.8852C15.966 14.8044 16.0871 14.7842 16.1881 14.7842ZM6.595 15.8683L8.13475 17.4089L7.57895 19.5036L5.48422 20.0594L3.94367 18.5188L4.49946 16.4241L6.595 15.8683Z" fill="#01B763"/>
</svg>
