<svg width="44" height="44" viewBox="0 0 44 44" fill="none" xmlns="http://www.w3.org/2000/svg">
<path d="M13.7493 34.8333C13.7493 36.2999 12.466 37.5833 10.9993 37.5833C9.53268 37.5833 8.24935 36.2999 8.24935 34.8333C8.24935 33.3666 9.53268 32.0833 10.9993 32.0833C12.466 32.0833 13.7493 33.3666 13.7493 34.8333ZM32.9993 32.0833C31.5327 32.0833 30.2493 33.3666 30.2493 34.8333C30.2493 36.2999 31.5327 37.5833 32.9993 37.5833C34.466 37.5833 35.7493 36.2999 35.7493 34.8333C35.7493 33.3666 34.466 32.0833 32.9993 32.0833ZM32.9993 27.4999H32.4493C36.116 24.5666 38.4993 19.7999 38.4993 14.6666C38.4993 9.53325 36.116 4.76659 32.4493 1.83325H11.5493C7.88268 4.76659 5.49935 9.53325 5.49935 14.6666C5.49935 19.7999 7.88268 24.5666 11.5493 27.4999H10.9993C6.96602 27.4999 3.66602 30.7999 3.66602 34.8333C3.66602 38.8666 6.96602 42.1666 10.9993 42.1666H32.9993C37.0327 42.1666 40.3327 38.8666 40.3327 34.8333C40.3327 30.7999 37.0327 27.4999 32.9993 27.4999ZM9.16602 14.6666C9.16602 11.1833 10.6327 7.88325 13.016 5.49992H30.9827C33.366 7.88325 34.8327 11.1833 34.8327 14.6666C34.8327 21.8166 29.1493 27.4999 21.9993 27.4999C14.8493 27.4999 9.16602 21.8166 9.16602 14.6666ZM32.9993 38.4999H10.9993C8.98268 38.4999 7.33268 36.8499 7.33268 34.8333C7.33268 32.8166 8.98268 31.1666 10.9993 31.1666H32.9993C35.016 31.1666 36.666 32.8166 36.666 34.8333C36.666 36.8499 35.016 38.4999 32.9993 38.4999ZM23.6493 9.71659C23.6493 10.9999 24.7493 12.0999 26.0327 12.0999C27.316 12.0999 28.416 10.9999 28.416 9.71659C28.416 8.43325 27.316 7.33325 25.8493 7.33325C24.566 7.33325 23.6493 8.43325 23.6493 9.71659ZM15.766 9.71659C15.766 10.9999 16.866 12.0999 18.1493 12.0999C19.4327 12.0999 20.5327 10.9999 20.5327 9.71659C20.5327 8.43325 19.4327 7.33325 18.1493 7.33325C16.6827 7.33325 15.766 8.43325 15.766 9.71659ZM14.116 18.3333C15.9493 18.3333 17.2327 16.8666 17.2327 15.2166C17.2327 13.5666 15.766 12.0999 14.116 12.0999C12.466 12.0999 10.9993 13.3833 10.9993 15.2166C10.9993 16.8666 12.466 18.3333 14.116 18.3333ZM21.266 21.4499C21.266 19.7999 19.7993 18.3333 18.1493 18.3333C16.316 18.3333 15.0327 19.7999 15.0327 21.4499C15.0327 23.2833 16.4993 24.5666 18.1493 24.5666C19.7993 24.5666 21.266 23.2833 21.266 21.4499ZM21.9993 18.3333C23.8327 18.3333 25.116 16.8666 25.116 15.2166C25.116 13.5666 23.6493 12.0999 21.9993 12.0999C20.3493 12.0999 18.8827 13.5666 18.8827 15.2166C18.8827 16.8666 20.3493 18.3333 21.9993 18.3333ZM29.1493 21.4499C29.1493 19.7999 27.6827 18.3333 26.0327 18.3333C24.1993 18.3333 22.916 19.7999 22.916 21.4499C22.916 23.2833 24.3827 24.5666 26.0327 24.5666C27.6827 24.5666 29.1493 23.2833 29.1493 21.4499ZM32.9993 15.2166C32.9993 13.5666 31.5327 12.0999 29.8827 12.0999C28.0493 12.0999 26.766 13.5666 26.766 15.2166C26.766 17.0499 28.2327 18.3333 29.8827 18.3333C31.5327 18.3333 32.9993 16.8666 32.9993 15.2166Z" fill="white"/>
</svg>
