<svg width="44" height="44" viewBox="0 0 44 44" fill="none" xmlns="http://www.w3.org/2000/svg">
<path d="M13.7501 36.6667C13.7501 38.1333 12.4667 39.4167 11.0001 39.4167C9.53341 39.4167 8.25008 38.1333 8.25008 36.6667C8.25008 35.2 9.53341 33.9167 11.0001 33.9167C12.4667 33.9167 13.7501 35.2 13.7501 36.6667ZM33.0001 33.9167C31.5334 33.9167 30.2501 35.2 30.2501 36.6667C30.2501 38.1333 31.5334 39.4167 33.0001 39.4167C34.4667 39.4167 35.7501 38.1333 35.7501 36.6667C35.7501 35.2 34.4667 33.9167 33.0001 33.9167ZM40.3334 36.6667C40.3334 40.7 37.0334 44 33.0001 44H11.0001C6.96675 44 3.66675 40.7 3.66675 36.6667C3.66675 32.6333 6.96675 29.3333 11.0001 29.3333H11.5501C7.88341 26.4 5.50008 21.6333 5.50008 16.5C5.50008 7.33333 12.8334 0 22.0001 0C31.1667 0 38.5001 7.33333 38.5001 16.5C38.5001 21.6333 36.1167 26.4 32.4501 29.3333H33.0001C37.0334 29.3333 40.3334 32.6333 40.3334 36.6667ZM22.0001 29.3333C29.1501 29.3333 34.8334 23.65 34.8334 16.5C34.8334 9.35 29.1501 3.66667 22.0001 3.66667C14.8501 3.66667 9.16675 9.35 9.16675 16.5C9.16675 23.65 14.8501 29.3333 22.0001 29.3333ZM36.6667 36.6667C36.6667 34.65 35.0167 33 33.0001 33H11.0001C8.98341 33 7.33341 34.65 7.33341 36.6667C7.33341 38.6833 8.98341 40.3333 11.0001 40.3333H33.0001C35.0167 40.3333 36.6667 38.6833 36.6667 36.6667ZM23.6501 11.55C23.6501 9.71667 25.1167 8.25 26.9501 8.25C28.7834 8.25 30.2501 9.71667 30.2501 11.55C30.2501 13.3833 28.7834 14.85 26.9501 14.85C25.1167 14.85 23.6501 13.3833 23.6501 11.55ZM13.7501 11.55C13.7501 9.71667 15.2167 8.25 17.0501 8.25C18.8834 8.25 20.3501 9.71667 20.3501 11.55C20.3501 13.3833 18.8834 14.85 17.0501 14.85C15.2167 14.85 13.7501 13.3833 13.7501 11.55ZM17.0501 18.7C17.0501 19.8 16.1334 20.7167 15.0334 20.7167C13.9334 20.7167 13.0167 19.8 13.0167 18.7C13.0167 17.6 13.7501 16.5 14.8501 16.5C16.1334 16.5 17.0501 17.6 17.0501 18.7ZM25.3001 23.2833C25.3001 25.1167 23.8334 26.5833 22.0001 26.5833C20.1667 26.5833 18.7001 25.1167 18.7001 23.2833C18.7001 21.45 20.1667 19.9833 22.0001 19.9833C23.8334 19.9833 25.3001 21.45 25.3001 23.2833ZM31.1667 18.7C31.1667 19.8 30.2501 20.7167 29.1501 20.7167C28.0501 20.7167 27.1334 19.8 27.1334 18.7C27.1334 17.6 27.8667 16.5 29.1501 16.5C30.2501 16.5 31.1667 17.6 31.1667 18.7Z" fill="#212121"/>
</svg>
