<svg width="20" height="20" viewBox="0 0 20 20" fill="none" xmlns="http://www.w3.org/2000/svg">
<path fill-rule="evenodd" clip-rule="evenodd" d="M9.99935 2.91669C6.09352 2.91669 2.91602 6.09419 2.91602 10C2.91602 13.9059 6.09352 17.0834 9.99935 17.0834C13.9052 17.0834 17.0827 13.9059 17.0827 10C17.0827 6.09419 13.9052 2.91669 9.99935 2.91669ZM9.99935 18.3334C5.40435 18.3334 1.66602 14.595 1.66602 10C1.66602 5.40502 5.40435 1.66669 9.99935 1.66669C14.5943 1.66669 18.3327 5.40502 18.3327 10C18.3327 14.595 14.5943 18.3334 9.99935 18.3334Z" fill="white"/>
<path fill-rule="evenodd" clip-rule="evenodd" d="M12.8585 13.077C12.7493 13.077 12.6393 13.0487 12.5385 12.9895L9.3968 11.1153C9.20846 11.002 9.0918 10.7978 9.0918 10.5778V6.53784C9.0918 6.19284 9.3718 5.91284 9.7168 5.91284C10.0626 5.91284 10.3418 6.19284 10.3418 6.53784V10.2228L13.1793 11.9145C13.4751 12.092 13.5726 12.4753 13.396 12.772C13.2785 12.9678 13.071 13.077 12.8585 13.077Z" fill="white"/>
</svg>
