<svg width="25" height="18" viewBox="0 0 25 18" fill="none" xmlns="http://www.w3.org/2000/svg">
<mask id="mask0_0_2255" style="mask-type:luminance" maskUnits="userSpaceOnUse" x="0" y="0" width="25" height="18">
<rect width="25" height="18" fill="white"/>
</mask>
<g mask="url(#mask0_0_2255)">
<path d="M0 15.7778C0 16.3671 0.292658 16.9324 0.813592 17.3491C1.33453 17.7659 2.04107 18 2.77778 18H22.2222C22.9589 18 23.6655 17.7659 24.1864 17.3491C24.7073 16.9324 25 16.3671 25 15.7778V13H0V15.7778Z" fill="#138808"/>
<path d="M25 6V2.66667C25 1.95942 24.7073 1.28115 24.1864 0.781048C23.6655 0.280951 22.9589 0 22.2222 0H2.77778C2.04107 0 1.33453 0.280951 0.813592 0.781048C0.292658 1.28115 0 1.95942 0 2.66667L0 6H25Z" fill="#FF9933"/>
<path d="M0 6H25V12H0V6Z" fill="#F7F7F7"/>
<path d="M12.5001 12C13.7553 12 14.7729 10.6569 14.7729 9C14.7729 7.34315 13.7553 6 12.5001 6C11.245 6 10.2274 7.34315 10.2274 9C10.2274 10.6569 11.245 12 12.5001 12Z" fill="#000080"/>
<path d="M12.5001 12C13.7553 12 14.7729 10.6569 14.7729 9C14.7729 7.34315 13.7553 6 12.5001 6C11.245 6 10.2274 7.34315 10.2274 9C10.2274 10.6569 11.245 12 12.5001 12Z" fill="#F7F7F7"/>
<path d="M12.5712 8.87109L12.5001 9.32812L12.4291 8.87109L12.5001 7.5L12.5712 8.87109ZM11.9121 7.57664L12.2018 8.91891L12.3901 9.34219L12.3389 8.88305L11.9121 7.57664ZM11.3638 7.80164L11.9945 9.02367L12.2871 9.38437L12.118 8.95336L11.3638 7.80164ZM10.8929 8.15883L11.8219 9.17836L12.199 9.45187L11.9227 9.07852L10.8929 8.15883ZM10.5321 8.625L11.6955 9.37172L12.1308 9.53906L11.7665 9.24937L10.5321 8.625ZM10.3048 9.16781L11.6244 9.59039L12.0882 9.64101L11.6607 9.45469L10.3048 9.16781ZM10.2274 9.75L11.6124 9.82031L12.074 9.75L11.6124 9.67969L10.2274 9.75ZM10.3048 10.3322L11.6607 10.0453L12.0882 9.85898L11.6244 9.90961L10.3048 10.3322ZM10.5321 10.875L11.7665 10.2506L12.1308 9.96094L11.6955 10.1283L10.5321 10.875ZM10.8929 11.3412L11.9227 10.4215L12.199 10.0481L11.8219 10.3216L10.8929 11.3412ZM11.3638 11.6984L12.118 10.5466L12.2871 10.1156L11.9945 10.4763L11.3638 11.6984ZM11.9121 11.9234L12.3389 10.617L12.3901 10.1578L12.2018 10.5811L11.9121 11.9234ZM12.5001 12L12.5712 10.6289L12.5001 10.1719L12.4291 10.6289L12.5001 12ZM13.0882 11.9234L12.7984 10.5811L12.6102 10.1578L12.6614 10.617L13.0882 11.9234ZM13.6365 11.6984L13.0058 10.4763L12.7132 10.1156L12.8822 10.5466L13.6365 11.6984ZM14.1074 11.3412L13.1784 10.3216L12.8013 10.0481L13.0776 10.4215L14.1074 11.3412ZM14.4682 10.875L13.3048 10.1283L12.8695 9.96094L13.2338 10.2506L14.4682 10.875ZM14.6955 10.3322L13.3759 9.90961L12.9121 9.85898L13.3396 10.0453L14.6955 10.3322ZM14.7729 9.75L13.3879 9.67969L12.9263 9.75L13.3879 9.82031L14.7729 9.75ZM14.6955 9.16781L13.3396 9.45469L12.9121 9.64101L13.3759 9.59039L14.6955 9.16781ZM14.4682 8.625L13.2338 9.24937L12.8695 9.53906L13.3048 9.37172L14.4682 8.625ZM14.1074 8.15883L13.0776 9.07852L12.8013 9.45187L13.1784 9.17836L14.1074 8.15883ZM13.6365 7.80164L12.8822 8.95336L12.7132 9.38437L13.0058 9.02367L13.6365 7.80164ZM13.0882 7.57664L12.6614 8.88305L12.6102 9.34219L12.7984 8.91891L13.0882 7.57664Z" fill="#6666B3"/>
<path d="M12.2177 6.53347C12.2886 6.53347 12.3461 6.45329 12.3461 6.35438C12.3461 6.25547 12.2886 6.17529 12.2177 6.17529C12.1468 6.17529 12.0894 6.25547 12.0894 6.35438C12.0894 6.45329 12.1468 6.53347 12.2177 6.53347Z" fill="#000080"/>
<path d="M11.6716 6.73708C11.7425 6.73708 11.7999 6.6569 11.7999 6.55799C11.7999 6.45909 11.7425 6.37891 11.6716 6.37891C11.6007 6.37891 11.5432 6.45909 11.5432 6.55799C11.5432 6.6569 11.6007 6.73708 11.6716 6.73708Z" fill="#000080"/>
<path d="M11.1833 7.13063C11.2542 7.13063 11.3117 7.05045 11.3117 6.95155C11.3117 6.85264 11.2542 6.77246 11.1833 6.77246C11.1124 6.77246 11.0549 6.85264 11.0549 6.95155C11.0549 7.05045 11.1124 7.13063 11.1833 7.13063Z" fill="#000080"/>
<path d="M10.7834 7.68776C10.8543 7.68776 10.9118 7.60758 10.9118 7.50868C10.9118 7.40977 10.8543 7.32959 10.7834 7.32959C10.7125 7.32959 10.655 7.40977 10.655 7.50868C10.655 7.60758 10.7125 7.68776 10.7834 7.68776Z" fill="#000080"/>
<path d="M10.5018 8.36989C10.5727 8.36989 10.6301 8.28971 10.6301 8.1908C10.6301 8.0919 10.5727 8.01172 10.5018 8.01172C10.4309 8.01172 10.3734 8.0919 10.3734 8.1908C10.3734 8.28971 10.4309 8.36989 10.5018 8.36989Z" fill="#000080"/>
<path d="M10.3558 9.13161C10.4267 9.13161 10.4841 9.05143 10.4841 8.95252C10.4841 8.85362 10.4267 8.77344 10.3558 8.77344C10.2849 8.77344 10.2274 8.85362 10.2274 8.95252C10.2274 9.05143 10.2849 9.13161 10.3558 9.13161Z" fill="#000080"/>
<path d="M10.3558 9.91872C10.4267 9.91872 10.4841 9.83854 10.4841 9.73963C10.4841 9.64073 10.4267 9.56055 10.3558 9.56055C10.2849 9.56055 10.2274 9.64073 10.2274 9.73963C10.2274 9.83854 10.2849 9.91872 10.3558 9.91872Z" fill="#000080"/>
<path d="M10.5018 10.6804C10.5727 10.6804 10.6301 10.6003 10.6301 10.5014C10.6301 10.4024 10.5727 10.3223 10.5018 10.3223C10.4309 10.3223 10.3734 10.4024 10.3734 10.5014C10.3734 10.6003 10.4309 10.6804 10.5018 10.6804Z" fill="#000080"/>
<path d="M10.7834 11.3616C10.8543 11.3616 10.9118 11.2814 10.9118 11.1825C10.9118 11.0836 10.8543 11.0034 10.7834 11.0034C10.7125 11.0034 10.655 11.0836 10.655 11.1825C10.655 11.2814 10.7125 11.3616 10.7834 11.3616Z" fill="#000080"/>
<path d="M11.1833 11.9207C11.2542 11.9207 11.3117 11.8405 11.3117 11.7416C11.3117 11.6427 11.2542 11.5625 11.1833 11.5625C11.1124 11.5625 11.0549 11.6427 11.0549 11.7416C11.0549 11.8405 11.1124 11.9207 11.1833 11.9207Z" fill="#000080"/>
<path d="M11.6716 12.3133C11.7425 12.3133 11.7999 12.2331 11.7999 12.1342C11.7999 12.0353 11.7425 11.9551 11.6716 11.9551C11.6007 11.9551 11.5432 12.0353 11.5432 12.1342C11.5432 12.2331 11.6007 12.3133 11.6716 12.3133Z" fill="#000080"/>
<path d="M12.2177 12.5164C12.2886 12.5164 12.3461 12.4362 12.3461 12.3373C12.3461 12.2384 12.2886 12.1582 12.2177 12.1582C12.1468 12.1582 12.0894 12.2384 12.0894 12.3373C12.0894 12.4362 12.1468 12.5164 12.2177 12.5164Z" fill="#000080"/>
<path d="M12.7821 12.5164C12.8529 12.5164 12.9104 12.4362 12.9104 12.3373C12.9104 12.2384 12.8529 12.1582 12.7821 12.1582C12.7112 12.1582 12.6537 12.2384 12.6537 12.3373C12.6537 12.4362 12.7112 12.5164 12.7821 12.5164Z" fill="#000080"/>
<path d="M13.3281 12.3133C13.399 12.3133 13.4564 12.2331 13.4564 12.1342C13.4564 12.0353 13.399 11.9551 13.3281 11.9551C13.2572 11.9551 13.1997 12.0353 13.1997 12.1342C13.1997 12.2331 13.2572 12.3133 13.3281 12.3133Z" fill="#000080"/>
<path d="M13.8164 11.9207C13.8872 11.9207 13.9447 11.8405 13.9447 11.7416C13.9447 11.6427 13.8872 11.5625 13.8164 11.5625C13.7455 11.5625 13.688 11.6427 13.688 11.7416C13.688 11.8405 13.7455 11.9207 13.8164 11.9207Z" fill="#000080"/>
<path d="M14.2167 11.3616C14.2876 11.3616 14.3451 11.2814 14.3451 11.1825C14.3451 11.0836 14.2876 11.0034 14.2167 11.0034C14.1458 11.0034 14.0884 11.0836 14.0884 11.1825C14.0884 11.2814 14.1458 11.3616 14.2167 11.3616Z" fill="#000080"/>
<path d="M14.498 10.6804C14.5689 10.6804 14.6264 10.6003 14.6264 10.5014C14.6264 10.4024 14.5689 10.3223 14.498 10.3223C14.4271 10.3223 14.3696 10.4024 14.3696 10.5014C14.3696 10.6003 14.4271 10.6804 14.498 10.6804Z" fill="#000080"/>
<path d="M14.644 9.91872C14.7149 9.91872 14.7724 9.83854 14.7724 9.73963C14.7724 9.64073 14.7149 9.56055 14.644 9.56055C14.5731 9.56055 14.5156 9.64073 14.5156 9.73963C14.5156 9.83854 14.5731 9.91872 14.644 9.91872Z" fill="#000080"/>
<path d="M14.644 9.13161C14.7149 9.13161 14.7724 9.05143 14.7724 8.95252C14.7724 8.85362 14.7149 8.77344 14.644 8.77344C14.5731 8.77344 14.5156 8.85362 14.5156 8.95252C14.5156 9.05143 14.5731 9.13161 14.644 9.13161Z" fill="#000080"/>
<path d="M14.498 8.36989C14.5689 8.36989 14.6264 8.28971 14.6264 8.1908C14.6264 8.0919 14.5689 8.01172 14.498 8.01172C14.4271 8.01172 14.3696 8.0919 14.3696 8.1908C14.3696 8.28971 14.4271 8.36989 14.498 8.36989Z" fill="#000080"/>
<path d="M14.2167 7.68776C14.2876 7.68776 14.3451 7.60758 14.3451 7.50868C14.3451 7.40977 14.2876 7.32959 14.2167 7.32959C14.1458 7.32959 14.0884 7.40977 14.0884 7.50868C14.0884 7.60758 14.1458 7.68776 14.2167 7.68776Z" fill="#000080"/>
<path d="M13.8164 7.13063C13.8872 7.13063 13.9447 7.05045 13.9447 6.95155C13.9447 6.85264 13.8872 6.77246 13.8164 6.77246C13.7455 6.77246 13.688 6.85264 13.688 6.95155C13.688 7.05045 13.7455 7.13063 13.8164 7.13063Z" fill="#000080"/>
<path d="M13.3281 6.73708C13.399 6.73708 13.4564 6.6569 13.4564 6.55799C13.4564 6.45909 13.399 6.37891 13.3281 6.37891C13.2572 6.37891 13.1997 6.45909 13.1997 6.55799C13.1997 6.6569 13.2572 6.73708 13.3281 6.73708Z" fill="#000080"/>
<path d="M12.7821 6.53347C12.8529 6.53347 12.9104 6.45329 12.9104 6.35438C12.9104 6.25547 12.8529 6.17529 12.7821 6.17529C12.7112 6.17529 12.6537 6.25547 12.6537 6.35438C12.6537 6.45329 12.7112 6.53347 12.7821 6.53347Z" fill="#000080"/>
<path d="M12.4993 10.1518C12.8183 10.1518 13.0769 9.79101 13.0769 9.34593C13.0769 8.90085 12.8183 8.54004 12.4993 8.54004C12.1802 8.54004 11.9216 8.90085 11.9216 9.34593C11.9216 9.79101 12.1802 10.1518 12.4993 10.1518Z" fill="#000080"/>
</g>
</svg>
