<svg width="20" height="20" viewBox="0 0 20 20" fill="none" xmlns="http://www.w3.org/2000/svg">
<path fill-rule="evenodd" clip-rule="evenodd" d="M9.99996 2.91669C6.09413 2.91669 2.91663 6.09419 2.91663 10C2.91663 13.9059 6.09413 17.0834 9.99996 17.0834C13.9058 17.0834 17.0833 13.9059 17.0833 10C17.0833 6.09419 13.9058 2.91669 9.99996 2.91669ZM9.99996 18.3334C5.40496 18.3334 1.66663 14.595 1.66663 10C1.66663 5.40502 5.40496 1.66669 9.99996 1.66669C14.595 1.66669 18.3333 5.40502 18.3333 10C18.3333 14.595 14.595 18.3334 9.99996 18.3334Z" fill="#212121"/>
<path fill-rule="evenodd" clip-rule="evenodd" d="M12.8593 13.077C12.7502 13.077 12.6402 13.0487 12.5393 12.9895L9.39765 11.1153C9.20932 11.002 9.09265 10.7978 9.09265 10.5778V6.53784C9.09265 6.19284 9.37265 5.91284 9.71765 5.91284C10.0635 5.91284 10.3427 6.19284 10.3427 6.53784V10.2228L13.1802 11.9145C13.476 12.092 13.5735 12.4753 13.3968 12.772C13.2793 12.9678 13.0718 13.077 12.8593 13.077Z" fill="#212121"/>
</svg>
