<svg width="24" height="47" viewBox="0 0 24 47" fill="none" xmlns="http://www.w3.org/2000/svg">
<path d="M10.575 28.2001V34.6626C10.575 34.976 10.7317 35.1718 11.045 35.2501C11.3584 35.3285 11.5738 35.211 11.6913 34.8976L15.7451 25.1451C15.9017 24.7534 15.872 24.3813 15.6558 24.0288C15.4396 23.6763 15.1168 23.5001 14.6876 23.5001H12.9251V17.0376C12.9251 16.7242 12.7684 16.5284 12.4551 16.4501C12.1417 16.3717 11.9263 16.4892 11.8088 16.8026L7.75504 26.5551C7.59837 26.9468 7.62814 27.3189 7.84434 27.6714C8.06054 28.0239 8.38327 28.2001 8.81254 28.2001H10.575ZM2.35002 47.0002C1.68418 47.0002 1.12566 46.7746 0.674461 46.3234C0.223259 45.8722 -0.00155854 45.3144 8.1315e-06 44.6502V7.05003C8.1315e-06 6.3842 0.225609 5.82568 0.676811 5.37448C1.12801 4.92328 1.68575 4.69846 2.35002 4.70002H7.05003V2.35002C7.05003 1.68418 7.27563 1.12566 7.72684 0.67446C8.17804 0.223259 8.73577 -0.00155854 9.40004 8.13152e-06H14.1001C14.7659 8.13152e-06 15.3244 0.225609 15.7756 0.676811C16.2268 1.12801 16.4516 1.68575 16.4501 2.35002V4.70002H21.1501C21.8159 4.70002 22.3744 4.92563 22.8256 5.37683C23.2768 5.82803 23.5017 6.38576 23.5001 7.05003V44.6502C23.5001 45.316 23.2745 45.8745 22.8233 46.3257C22.3721 46.7769 21.8144 47.0017 21.1501 47.0002H2.35002Z" fill="#01B763"/>
</svg>
