<svg width="28" height="28" viewBox="0 0 28 28" fill="none" xmlns="http://www.w3.org/2000/svg">
<path d="M22.1667 12.8334H15.1667V5.83341C15.1667 5.524 15.0438 5.22725 14.825 5.00846C14.6062 4.78966 14.3095 4.66675 14.0001 4.66675C13.6907 4.66675 13.3939 4.78966 13.1751 5.00846C12.9563 5.22725 12.8334 5.524 12.8334 5.83341V12.8334H5.83341C5.524 12.8334 5.22725 12.9563 5.00846 13.1751C4.78966 13.3939 4.66675 13.6907 4.66675 14.0001C4.66675 14.3095 4.78966 14.6062 5.00846 14.825C5.22725 15.0438 5.524 15.1667 5.83341 15.1667H12.8334V22.1667C12.8334 22.4762 12.9563 22.7729 13.1751 22.9917C13.3939 23.2105 13.6907 23.3334 14.0001 23.3334C14.3095 23.3334 14.6062 23.2105 14.825 22.9917C15.0438 22.7729 15.1667 22.4762 15.1667 22.1667V15.1667H22.1667C22.4762 15.1667 22.7729 15.0438 22.9917 14.825C23.2105 14.6062 23.3334 14.3095 23.3334 14.0001C23.3334 13.6907 23.2105 13.3939 22.9917 13.1751C22.7729 12.9563 22.4762 12.8334 22.1667 12.8334Z" fill="#212121"/>
</svg>
