<svg width="32" height="32" viewBox="0 0 32 32" fill="none" xmlns="http://www.w3.org/2000/svg">
<path d="M24.9467 9.61315C24.8227 9.48818 24.6753 9.38898 24.5128 9.32129C24.3503 9.2536 24.176 9.21875 24 9.21875C23.824 9.21875 23.6497 9.2536 23.4872 9.32129C23.3248 9.38898 23.1773 9.48818 23.0533 9.61315L13.12 19.5598L8.94668 15.3731C8.81799 15.2488 8.66606 15.1511 8.49959 15.0855C8.33312 15.0199 8.15535 14.9877 7.97644 14.9908C7.79754 14.9939 7.62099 15.0322 7.45689 15.1035C7.29278 15.1748 7.14433 15.2778 7.02001 15.4065C6.8957 15.5352 6.79794 15.6871 6.73234 15.8536C6.66673 16.02 6.63456 16.1978 6.63766 16.3767C6.64075 16.5556 6.67905 16.7322 6.75038 16.8963C6.8217 17.0604 6.92465 17.2088 7.05335 17.3331L12.1733 22.4531C12.2973 22.5781 12.4448 22.6773 12.6072 22.745C12.7697 22.8127 12.944 22.8475 13.12 22.8475C13.296 22.8475 13.4703 22.8127 13.6328 22.745C13.7953 22.6773 13.9427 22.5781 14.0667 22.4531L24.9467 11.5731C25.082 11.4483 25.19 11.2968 25.2639 11.1281C25.3378 10.9594 25.3759 10.7773 25.3759 10.5931C25.3759 10.409 25.3378 10.2269 25.2639 10.0582C25.19 9.88954 25.082 9.738 24.9467 9.61315Z" fill="#01B763"/>
</svg>
