<svg width="24" height="24" viewBox="0 0 24 24" fill="none" xmlns="http://www.w3.org/2000/svg">
<path d="M6.9934 2.89489C6.9934 3.367 6.80586 3.81976 6.47203 4.15359C6.13821 4.48741 5.68544 4.67496 5.21334 4.67496C4.74124 4.67496 4.28847 4.48741 3.95464 4.15359C3.62082 3.81976 3.43328 3.367 3.43328 2.89489C3.43328 2.42279 3.62082 1.97003 3.95464 1.6362C4.28847 1.30237 4.74124 1.11483 5.21334 1.11483C5.68544 1.11483 6.13821 1.30237 6.47203 1.6362C6.80586 1.97003 6.9934 2.42279 6.9934 2.89489ZM9.41845 7.93351V7.03418C9.4185 6.80924 9.37422 6.58649 9.28816 6.37866C9.2021 6.17083 9.07594 5.982 8.91688 5.82294C8.75782 5.66388 8.56899 5.53772 8.36116 5.45166C8.15333 5.3656 7.93058 5.32133 7.70564 5.32137H2.71567C2.26141 5.32137 1.82575 5.50183 1.50453 5.82304C1.18332 6.14426 1.00286 6.57992 1.00286 7.03418V7.93351C1.00101 7.95421 1.00005 7.97498 1 7.99576V13.1739C1 13.3671 1.07674 13.5523 1.21333 13.6889C1.34991 13.8255 1.53517 13.9022 1.72834 13.9022C1.9215 13.9022 2.10676 13.8255 2.24335 13.6889C2.37994 13.5523 2.45667 13.3671 2.45667 13.1739V8.07267H2.94498V13.9026H2.94855V22.1407C2.95343 22.3951 3.05789 22.6373 3.23946 22.8154C3.42104 22.9935 3.66525 23.0933 3.91961 23.0933C4.17397 23.0933 4.41818 22.9935 4.59975 22.8154C4.78133 22.6373 4.88578 22.3951 4.89067 22.1407V13.9026H5.53136V22.1407C5.53136 22.3982 5.63365 22.6452 5.81572 22.8273C5.9978 23.0093 6.24474 23.1116 6.50224 23.1116C6.75973 23.1116 7.00668 23.0093 7.18875 22.8273C7.37083 22.6452 7.47311 22.3982 7.47311 22.1407V13.9026H7.47598V8.07267H7.96428V13.1739C7.97021 13.3631 8.04954 13.5426 8.18549 13.6743C8.32143 13.8061 8.50331 13.8798 8.69261 13.8798C8.88192 13.8798 9.0638 13.8061 9.19974 13.6743C9.33569 13.5426 9.41502 13.3631 9.42095 13.1739V7.99576C9.42122 7.97498 9.42038 7.9542 9.41845 7.93351ZM17.9843 4.56012C18.3363 4.55998 18.6805 4.45545 18.9731 4.25973C19.2658 4.06402 19.4938 3.78592 19.6284 3.4606C19.763 3.13528 19.7981 2.77736 19.7293 2.43209C19.6605 2.08682 19.4908 1.76971 19.2418 1.52086C18.9927 1.27202 18.6755 1.10261 18.3301 1.03406C17.9848 0.965519 17.6269 1.00091 17.3017 1.13577C16.9765 1.27063 16.6986 1.4989 16.5031 1.79171C16.3076 2.08452 16.2034 2.42872 16.2035 2.78078C16.2036 3.01454 16.2497 3.24599 16.3393 3.46192C16.4288 3.67785 16.56 3.87403 16.7254 4.03926C16.8907 4.20449 17.087 4.33553 17.303 4.4249C17.519 4.51427 17.7505 4.56022 17.9843 4.56012ZM22.975 12.2349L21.3781 6.31157C21.3635 6.25863 21.3429 6.20751 21.3169 6.15917C21.2261 5.88123 21.0498 5.63907 20.8132 5.46728C20.5766 5.29549 20.2918 5.20286 19.9994 5.20261H15.9577C15.6526 5.20293 15.356 5.30387 15.114 5.4898C14.872 5.67573 14.6981 5.93628 14.6191 6.23108C14.6084 6.25719 14.5994 6.28438 14.5916 6.31228L13.0229 12.2349C12.9982 12.3272 12.9918 12.4235 13.0043 12.5183C13.0168 12.6131 13.0478 12.7046 13.0956 12.7874C13.1434 12.8702 13.2071 12.9428 13.2829 13.001C13.3588 13.0592 13.4453 13.1019 13.5377 13.1267C13.6301 13.1514 13.7264 13.1578 13.8212 13.1453C13.916 13.1328 14.0074 13.1018 14.0902 13.054C14.173 13.0062 14.2456 12.9425 14.3038 12.8667C14.3621 12.7908 14.4048 12.7043 14.4295 12.6119L15.6619 7.95927H16.1752L13.9391 16.377H16.0457V22.1887C16.0457 22.4033 16.131 22.6091 16.2827 22.7609C16.4345 22.9126 16.6403 22.9979 16.8549 22.9979C17.0695 22.9979 17.2754 22.9126 17.4271 22.7609C17.5789 22.6091 17.6641 22.4033 17.6641 22.1887V16.377H18.308V22.1887C18.3143 22.3991 18.4023 22.5988 18.5533 22.7455C18.7044 22.8921 18.9067 22.9742 19.1172 22.9742C19.3277 22.9742 19.53 22.8921 19.6811 22.7455C19.8321 22.5988 19.9201 22.3991 19.9264 22.1887V16.377H22.032L19.7876 7.95927H20.3142L21.5684 12.6119C21.6185 12.7983 21.7406 12.9573 21.9078 13.0538C22.075 13.1503 22.2737 13.1765 22.4602 13.1267C22.6467 13.0766 22.8057 12.9546 22.9023 12.7874C22.9989 12.6201 23.0248 12.4214 22.975 12.2349ZM10.8408 1.03756H12.0964V22.9957H10.8408V1.03756Z" fill="#01B763"/>
</svg>
