<svg width="115" height="32" viewBox="0 0 115 32" fill="none" xmlns="http://www.w3.org/2000/svg">
<path fill-rule="evenodd" clip-rule="evenodd" d="M44.5282 6.82425C43.5495 6.43252 41.9973 6 40.078 6C35.1782 6 31.7277 8.63619 31.7066 12.4051C31.6659 15.1859 34.177 16.7304 36.0551 17.6575C37.9747 18.605 38.6272 19.2234 38.6272 20.0679C38.6077 21.3649 37.0761 21.9628 35.6475 21.9628C33.6666 21.9628 32.6052 21.6545 30.9922 20.9329L30.3388 20.6236L29.6445 24.9696C30.8082 25.5045 32.9522 25.9792 35.1782 26C40.3843 26 43.7737 23.4046 43.8138 19.3882C43.8336 17.1842 42.5077 15.4955 39.649 14.1155C37.9136 13.2297 36.8509 12.6324 36.8509 11.726C36.8712 10.902 37.7498 10.058 39.7087 10.058C41.3217 10.0167 42.5069 10.4079 43.4047 10.7993L43.8534 11.0049L44.5282 6.82425ZM26.5418 25.7111H21.5801L24.6835 6.35059H29.6449L26.5418 25.7111ZM57.2464 6.35156H53.4086C52.225 6.35156 51.3259 6.70141 50.8153 7.95791L43.4453 25.7118H48.6515C48.6515 25.7118 49.5086 23.3223 49.6928 22.8076H56.0632C56.2056 23.4873 56.6552 25.7118 56.6552 25.7118H61.2492L57.2464 6.35156ZM51.1221 18.8535C51.5307 17.7412 53.103 13.4366 53.103 13.4366C53.0947 13.4532 53.1592 13.2727 53.2552 13.0041L53.256 13.002L53.2562 13.0015C53.3986 12.6032 53.6098 12.0126 53.7558 11.583L54.1026 13.2512C54.1026 13.2512 55.0421 17.8855 55.2462 18.8535H51.1221ZM17.4355 6.35059L12.5764 19.5526L12.0455 16.8754C12.0455 16.8756 12.0456 16.8757 12.0456 16.8759L10.3103 7.97802C10.0246 6.7415 9.14656 6.39137 8.06452 6.35059H0.0816681L0 6.74177C1.94687 7.24407 3.68817 7.96787 5.21393 8.86782L9.63632 25.6906H14.8832L22.6821 6.35059H17.4355Z" fill="white"/>
<g clip-path="url(#clip0_2564_31401)">
<path d="M80.7029 31.8415V29.7236C80.7029 28.9115 80.2106 28.3822 79.3668 28.3822C78.9449 28.3822 78.4878 28.5233 78.1713 28.9823C77.9253 28.5939 77.5738 28.3822 77.0464 28.3822C76.6947 28.3822 76.3433 28.488 76.0619 28.8763V28.4528H75.3236V31.8415H76.0619V29.9706C76.0619 29.3706 76.3784 29.0881 76.8707 29.0881C77.3627 29.0881 77.609 29.4058 77.609 29.9706V31.8415H78.3474V29.9706C78.3474 29.3706 78.6987 29.0881 79.1558 29.0881C79.6481 29.0881 79.8941 29.4058 79.8941 29.9706V31.8415H80.7029ZM91.637 28.4528H90.4417V27.4291H89.7034V28.4528H89.0354V29.1233H89.7032V30.6767C89.7032 31.4534 90.0197 31.9121 90.8636 31.9121C91.18 31.9121 91.5314 31.8063 91.7777 31.6651L91.5667 31.0296C91.3557 31.1708 91.1097 31.2062 90.9339 31.2062C90.5823 31.2062 90.4417 30.9944 90.4417 30.6413V29.1233H91.637V28.4528ZM97.8952 28.382C97.4734 28.382 97.1921 28.5939 97.0163 28.8763V28.4528H96.278V31.8415H97.0163V29.9354C97.0163 29.3706 97.2623 29.0529 97.7194 29.0529C97.86 29.0529 98.0358 29.0883 98.1765 29.1235L98.3874 28.4175C98.2468 28.3822 98.0358 28.3822 97.8952 28.3822V28.382ZM88.4377 28.7351C88.086 28.488 87.5938 28.3822 87.0664 28.3822C86.2227 28.3822 85.6603 28.8057 85.6603 29.4764C85.6603 30.0413 86.0821 30.3589 86.8204 30.4649L87.172 30.5003C87.5587 30.5707 87.7697 30.6767 87.7697 30.8532C87.7697 31.1002 87.4884 31.2768 86.9961 31.2768C86.504 31.2768 86.1172 31.1002 85.871 30.9238L85.5195 31.4886C85.9063 31.7709 86.4336 31.9121 86.9609 31.9121C87.9454 31.9121 88.508 31.4534 88.508 30.8179C88.508 30.2177 88.0509 29.9 87.3477 29.7942L86.9961 29.7588C86.6796 29.7234 86.4336 29.653 86.4336 29.4412C86.4336 29.1941 86.6796 29.0529 87.0664 29.0529C87.4884 29.0529 87.9103 29.2293 88.1212 29.3352L88.4377 28.7351ZM108.056 28.3822C107.634 28.3822 107.353 28.5939 107.177 28.8763V28.4528H106.439V31.8415H107.177V29.9354C107.177 29.3706 107.423 29.0529 107.88 29.0529C108.021 29.0529 108.197 29.0883 108.337 29.1235L108.548 28.4175C108.408 28.3822 108.197 28.3822 108.056 28.3822ZM98.6335 30.1471C98.6335 31.1708 99.3366 31.9121 100.427 31.9121C100.919 31.9121 101.27 31.8063 101.622 31.5239L101.27 30.9238C100.989 31.1356 100.708 31.2414 100.391 31.2414C99.7937 31.2414 99.3719 30.8179 99.3719 30.1471C99.3719 29.5118 99.7937 29.0881 100.391 29.0529C100.708 29.0529 100.989 29.1587 101.27 29.3706L101.622 28.7705C101.27 28.488 100.919 28.3822 100.427 28.3822C99.3366 28.3822 98.6335 29.1235 98.6335 30.1471ZM105.454 30.1471V28.4528H104.716V28.8763C104.47 28.5587 104.118 28.3822 103.661 28.3822C102.712 28.3822 101.974 29.1235 101.974 30.1471C101.974 31.1708 102.712 31.9121 103.661 31.9121C104.153 31.9121 104.505 31.7357 104.716 31.418V31.8415H105.454V30.1471ZM102.747 30.1471C102.747 29.547 103.134 29.0529 103.767 29.0529C104.364 29.0529 104.786 29.5118 104.786 30.1471C104.786 30.7473 104.364 31.2414 103.767 31.2414C103.134 31.206 102.747 30.7473 102.747 30.1471ZM93.9224 28.3822C92.9379 28.3822 92.2347 29.0881 92.2347 30.1471C92.2347 31.2062 92.9378 31.9121 93.9575 31.9121C94.4496 31.9121 94.9419 31.7709 95.3287 31.4534L94.977 30.9238C94.6958 31.1356 94.3442 31.2768 93.9927 31.2768C93.5356 31.2768 93.0785 31.065 92.973 30.4647H95.4693V30.1825C95.5046 29.0881 94.8716 28.3822 93.9222 28.3822H93.9224ZM93.9224 29.0175C94.3793 29.0175 94.6959 29.3 94.7661 29.8296H93.0082C93.0785 29.3706 93.395 29.0175 93.9224 29.0175ZM112.24 30.1471V27.1113H111.501V28.8763C111.255 28.5587 110.904 28.3822 110.447 28.3822C109.497 28.3822 108.759 29.1235 108.759 30.1471C108.759 31.1708 109.497 31.9121 110.447 31.9121C110.939 31.9121 111.291 31.7357 111.501 31.418V31.8415H112.24V30.1471ZM109.533 30.1471C109.533 29.547 109.919 29.0529 110.552 29.0529C111.15 29.0529 111.572 29.5118 111.572 30.1471C111.572 30.7473 111.15 31.2414 110.552 31.2414C109.919 31.206 109.533 30.7473 109.533 30.1471ZM84.8515 30.1471V28.4528H84.1131V28.8763C83.867 28.5587 83.5154 28.3822 83.0584 28.3822C82.1091 28.3822 81.3708 29.1235 81.3708 30.1471C81.3708 31.1708 82.1091 31.9121 83.0584 31.9121C83.5507 31.9121 83.9022 31.7357 84.1131 31.418V31.8415H84.8515V30.1471ZM82.1091 30.1471C82.1091 29.547 82.4959 29.0529 83.1287 29.0529C83.7264 29.0529 84.1484 29.5118 84.1484 30.1471C84.1484 30.7473 83.7264 31.2414 83.1287 31.2414C82.4959 31.206 82.1091 30.7473 82.1091 30.1471Z" fill="white"/>
<path d="M88.1915 2.71875H99.2663V22.6988H88.1915V2.71875Z" fill="#FF5F00"/>
<path d="M88.8948 12.7082C88.8948 8.64868 90.7933 5.04796 93.7113 2.71807C91.5668 1.02368 88.8597 0 85.9064 0C78.9097 0 73.2493 5.6833 73.2493 12.7082C73.2493 19.7329 78.9097 25.4164 85.9063 25.4164C88.8595 25.4164 91.5667 24.3927 93.7113 22.6981C90.7933 20.4036 88.8948 16.7677 88.8948 12.7082Z" fill="#EB001B"/>
<path d="M114.209 12.7082C114.209 19.7329 108.548 25.4164 101.552 25.4164C98.5984 25.4164 95.8912 24.3927 93.7466 22.6981C96.6999 20.3684 98.5633 16.7677 98.5633 12.7082C98.5633 8.64868 96.6646 5.04796 93.7466 2.71807C95.8911 1.02368 98.5984 0 101.552 0C108.548 0 114.209 5.71867 114.209 12.7082H114.209Z" fill="#F79E1B"/>
</g>
<defs>
<clipPath id="clip0_2564_31401">
<rect width="41" height="32" fill="white" transform="translate(73.2493)"/>
</clipPath>
</defs>
</svg>
