<svg width="16" height="16" viewBox="0 0 16 16" fill="none" xmlns="http://www.w3.org/2000/svg">
<path d="M13.8487 6.77001L12.9367 4.03401C12.8044 3.63566 12.5499 3.28914 12.2094 3.04368C11.8689 2.79822 11.4597 2.6663 11.04 2.66668H9.33398V1.33334H6.66732V2.66668H4.96132C4.54158 2.6663 4.13239 2.79822 3.79191 3.04368C3.45142 3.28914 3.19695 3.63566 3.06465 4.03401L2.15265 6.77001C1.91013 6.87149 1.70302 7.04239 1.55736 7.26124C1.4117 7.48009 1.33398 7.73712 1.33398 8.00001V11.3333C1.33398 11.8253 1.60332 12.2507 2.00065 12.482V14C2.00065 14.1768 2.07089 14.3464 2.19591 14.4714C2.32094 14.5964 2.49051 14.6667 2.66732 14.6667H3.33398C3.5108 14.6667 3.68036 14.5964 3.80539 14.4714C3.93041 14.3464 4.00065 14.1768 4.00065 14V12.6667H12.0007V14C12.0007 14.1768 12.0709 14.3464 12.1959 14.4714C12.3209 14.5964 12.4905 14.6667 12.6673 14.6667H13.334C13.5108 14.6667 13.6804 14.5964 13.8054 14.4714C13.9304 14.3464 14.0007 14.1768 14.0007 14V12.482C14.2029 12.366 14.371 12.1988 14.4881 11.9971C14.6051 11.7954 14.6669 11.5665 14.6673 11.3333V8.00001C14.6673 7.73712 14.5896 7.48009 14.4439 7.26124C14.2983 7.04239 14.0912 6.87149 13.8487 6.77001ZM4.96132 4.00001H11.0393C11.3267 4.00001 11.5813 4.18268 11.672 4.45601L12.4093 6.66668H3.59198L4.32865 4.45601C4.37288 4.32321 4.4578 4.20769 4.57135 4.12585C4.68491 4.044 4.82134 3.99998 4.96132 4.00001ZM3.66732 10.6667C3.53595 10.6666 3.40588 10.6407 3.28453 10.5904C3.16318 10.5401 3.05293 10.4664 2.96007 10.3735C2.86721 10.2805 2.79357 10.1702 2.74334 10.0488C2.69311 9.92746 2.66727 9.79738 2.66732 9.66601C2.66736 9.53464 2.69328 9.40457 2.74359 9.28323C2.7939 9.16188 2.86762 9.05162 2.96054 8.95877C3.05346 8.86591 3.16377 8.79226 3.28515 8.74203C3.40653 8.6918 3.53662 8.66597 3.66798 8.66601C3.93329 8.6661 4.18769 8.77158 4.37523 8.95924C4.56277 9.1469 4.66807 9.40137 4.66798 9.66668C4.6679 9.93198 4.56242 10.1864 4.37476 10.3739C4.1871 10.5615 3.93262 10.6668 3.66732 10.6667ZM12.334 10.6667C12.2026 10.6666 12.0725 10.6407 11.9512 10.5904C11.8298 10.5401 11.7196 10.4664 11.6267 10.3735C11.5339 10.2805 11.4602 10.1702 11.41 10.0488C11.3598 9.92746 11.3339 9.79738 11.334 9.66601C11.334 9.53464 11.3599 9.40457 11.4103 9.28323C11.4606 9.16188 11.5343 9.05162 11.6272 8.95877C11.7201 8.86591 11.8304 8.79226 11.9518 8.74203C12.0732 8.6918 12.2033 8.66597 12.3347 8.66601C12.6 8.6661 12.8544 8.77158 13.0419 8.95924C13.2294 9.1469 13.3347 9.40137 13.3347 9.66668C13.3346 9.93198 13.2291 10.1864 13.0414 10.3739C12.8538 10.5615 12.5993 10.6668 12.334 10.6667Z" fill="#E0E0E0"/>
</svg>
