<svg width="44" height="44" viewBox="0 0 44 44" fill="none" xmlns="http://www.w3.org/2000/svg">
<path d="M13.7501 17.4167C11.1834 17.4167 9.16675 19.4334 9.16675 22.0001C9.16675 24.5667 11.1834 26.5834 13.7501 26.5834C16.3167 26.5834 18.3334 24.5667 18.3334 22.0001C18.3334 19.4334 16.3167 17.4167 13.7501 17.4167ZM30.2501 17.4167C27.6834 17.4167 25.6667 19.4334 25.6667 22.0001C25.6667 24.5667 27.6834 26.5834 30.2501 26.5834C32.8167 26.5834 34.8334 24.5667 34.8334 22.0001C34.8334 19.4334 32.8167 17.4167 30.2501 17.4167ZM22.0001 7.33341C30.0667 7.33341 36.6667 13.9334 36.6667 22.0001C36.6667 30.0667 30.0667 36.6667 22.0001 36.6667C13.9334 36.6667 7.33341 30.0667 7.33341 22.0001C7.33341 13.9334 13.9334 7.33341 22.0001 7.33341ZM22.0001 3.66675C11.9167 3.66675 3.66675 11.9167 3.66675 22.0001C3.66675 32.0834 11.9167 40.3334 22.0001 40.3334C32.0834 40.3334 40.3334 32.0834 40.3334 22.0001C40.3334 11.9167 32.0834 3.66675 22.0001 3.66675ZM22.0001 9.16675C19.4334 9.16675 17.4167 11.1834 17.4167 13.7501C17.4167 16.3167 19.4334 18.3334 22.0001 18.3334C24.5667 18.3334 26.5834 16.3167 26.5834 13.7501C26.5834 11.1834 24.5667 9.16675 22.0001 9.16675ZM24.7501 13.7501C24.7501 14.1167 24.5667 14.4834 24.3834 14.8501L23.2834 13.7501L24.3834 12.6501C24.5667 13.0167 24.7501 13.3834 24.7501 13.7501ZM23.1001 11.3667L22.0001 12.4667L20.9001 11.3667C21.2667 11.1834 21.6334 11.0001 22.0001 11.0001C22.3667 11.0001 22.7334 11.1834 23.1001 11.3667ZM19.6167 14.8501C19.4334 14.4834 19.2501 14.1167 19.2501 13.7501C19.2501 13.3834 19.4334 13.0167 19.6167 12.6501L20.7167 13.7501L19.6167 14.8501ZM20.9001 16.1334L22.0001 15.0334L23.1001 16.1334C22.7334 16.3167 22.3667 16.5001 22.0001 16.5001C21.6334 16.5001 21.2667 16.3167 20.9001 16.1334ZM22.0001 25.6667C19.4334 25.6667 17.4167 27.6834 17.4167 30.2501C17.4167 32.8167 19.4334 34.8334 22.0001 34.8334C24.5667 34.8334 26.5834 32.8167 26.5834 30.2501C26.5834 27.6834 24.5667 25.6667 22.0001 25.6667ZM24.7501 30.2501C24.7501 30.6167 24.5667 30.9834 24.3834 31.3501L23.2834 30.2501L24.3834 29.1501C24.5667 29.5167 24.7501 29.8834 24.7501 30.2501ZM23.1001 27.8667L22.0001 28.9667L20.9001 27.8667C21.2667 27.6834 21.6334 27.5001 22.0001 27.5001C22.3667 27.5001 22.7334 27.6834 23.1001 27.8667ZM19.6167 31.3501C19.4334 30.9834 19.2501 30.6167 19.2501 30.2501C19.2501 29.8834 19.4334 29.5167 19.6167 29.1501L20.7167 30.2501L19.6167 31.3501ZM20.9001 32.6334L22.0001 31.5334L23.1001 32.6334C22.7334 32.8167 22.3667 33.0001 22.0001 33.0001C21.6334 33.0001 21.2667 32.8167 20.9001 32.6334Z" fill="#212121"/>
</svg>
