<svg width="28" height="28" viewBox="0 0 28 28" fill="none" xmlns="http://www.w3.org/2000/svg">
<path d="M14 18.6666C16.5773 18.6666 18.6667 16.5773 18.6667 14C18.6667 11.4227 16.5773 9.33331 14 9.33331C11.4227 9.33331 9.33333 11.4227 9.33333 14C9.33333 16.5773 11.4227 18.6666 14 18.6666Z" fill="white"/>
<path d="M15.1667 4.74715V2.33331H12.8333V4.74715C10.7803 5.00927 8.87246 5.94551 7.40899 7.40898C5.94553 8.87244 5.00929 10.7803 4.74716 12.8333H2.33333V15.1666H4.74716C5.00891 17.2198 5.94502 19.1279 7.40856 20.5914C8.87209 22.055 10.7802 22.9911 12.8333 23.2528V25.6666H15.1667V23.2528C17.2199 22.9913 19.1281 22.0552 20.5917 20.5916C22.0552 19.1281 22.9913 17.2199 23.2528 15.1666H25.6667V12.8333H23.2528C22.9911 10.7802 22.055 8.87208 20.5914 7.40854C19.1279 5.94501 17.2198 5.00889 15.1667 4.74715ZM14 21C10.1395 21 6.99999 17.8605 6.99999 14C6.99999 10.1395 10.1395 6.99998 14 6.99998C17.8605 6.99998 21 10.1395 21 14C21 17.8605 17.8605 21 14 21Z" fill="white"/>
</svg>
