<svg width="28" height="28" viewBox="0 0 28 28" fill="none" xmlns="http://www.w3.org/2000/svg">
<path fill-rule="evenodd" clip-rule="evenodd" d="M10.3573 7.44165C10.3573 9.61943 8.56192 11.3846 6.34527 11.3846C4.12991 11.3846 2.33325 9.61943 2.33325 7.44165C2.33325 5.26515 4.12991 3.5 6.34527 3.5C8.56192 3.5 10.3573 5.26515 10.3573 7.44165ZM23.9088 5.71471C24.8784 5.71471 25.6666 6.48903 25.6666 7.44165C25.6666 8.39555 24.8784 9.16987 23.9088 9.16987H16.2374C15.2665 9.16987 14.4783 8.39555 14.4783 7.44165C14.4783 6.48903 15.2665 5.71471 16.2374 5.71471H23.9088ZM4.09232 18.6176H11.7638C12.7347 18.6176 13.5228 19.3919 13.5228 20.3458C13.5228 21.2984 12.7347 22.074 11.7638 22.074H4.09232C3.1214 22.074 2.33325 21.2984 2.33325 20.3458C2.33325 19.3919 3.1214 18.6176 4.09232 18.6176ZM21.6546 24.2407C23.8712 24.2407 25.6666 22.4756 25.6666 20.2991C25.6666 18.1213 23.8712 16.3562 21.6546 16.3562C19.4392 16.3562 17.6426 18.1213 17.6426 20.2991C17.6426 22.4756 19.4392 24.2407 21.6546 24.2407Z" fill="#01B763"/>
</svg>
