<svg width="50" height="50" viewBox="0 0 50 50" fill="none" xmlns="http://www.w3.org/2000/svg">
<path d="M27.0833 18.7498C27.0833 21.0415 28.9583 22.9165 31.25 22.9165C33.5416 22.9165 35.4166 21.0415 35.4166 18.7498C35.4166 16.4582 33.5416 14.5832 31.25 14.5832C28.9583 14.5832 27.0833 16.4582 27.0833 18.7498ZM14.5833 18.7498C14.5833 21.0415 16.4583 22.9165 18.75 22.9165C21.0416 22.9165 22.9166 21.0415 22.9166 18.7498C22.9166 16.4582 21.0416 14.5832 18.75 14.5832C16.4583 14.5832 14.5833 16.4582 14.5833 18.7498ZM18.75 27.4998C18.75 26.2498 17.5 24.9998 16.25 24.9998C15 24.9998 13.75 26.2498 13.75 27.4998C13.75 28.7498 15 29.9998 16.25 29.9998C17.5 29.9998 18.75 28.9582 18.75 27.4998ZM29.1666 33.3332C29.1666 31.0415 27.2916 29.1665 25 29.1665C22.7083 29.1665 20.8333 31.0415 20.8333 33.3332C20.8333 35.6248 22.7083 37.4998 25 37.4998C27.2916 37.4998 29.1666 35.6248 29.1666 33.3332ZM25 8.33317C34.1666 8.33317 41.6666 15.8332 41.6666 24.9998C41.6666 34.1665 34.1666 41.6665 25 41.6665C15.8333 41.6665 8.33329 34.1665 8.33329 24.9998C8.33329 15.8332 15.8333 8.33317 25 8.33317ZM25 4.1665C13.5416 4.1665 4.16663 13.5415 4.16663 24.9998C4.16663 36.4582 13.5416 45.8332 25 45.8332C36.4583 45.8332 45.8333 36.4582 45.8333 24.9998C45.8333 13.5415 36.4583 4.1665 25 4.1665ZM36.4583 27.4998C36.4583 26.0415 35.2083 24.9998 33.9583 24.9998C32.5 24.9998 31.4583 26.2498 31.4583 27.4998C31.4583 28.7498 32.7083 29.9998 33.9583 29.9998C35.2083 30.2082 36.4583 28.9582 36.4583 27.4998Z" fill="#212121"/>
</svg>
