<svg width="28" height="28" viewBox="0 0 28 28" fill="none" xmlns="http://www.w3.org/2000/svg">
<path d="M2.33334 7.29165C2.33334 6.48623 2.98626 5.83331 3.79168 5.83331C4.59709 5.83331 5.25001 6.48623 5.25001 7.29165C5.25001 8.09706 4.59709 8.74998 3.79168 8.74998C2.98626 8.74998 2.33334 8.09706 2.33334 7.29165ZM2.33334 14.5833C2.33334 13.7779 2.98626 13.125 3.79168 13.125C4.59709 13.125 5.25001 13.7779 5.25001 14.5833C5.25001 15.3887 4.59709 16.0416 3.79168 16.0416C2.98626 16.0416 2.33334 15.3887 2.33334 14.5833ZM2.33334 21.875C2.33334 21.0696 2.98626 20.4166 3.79168 20.4166C4.59709 20.4166 5.25001 21.0696 5.25001 21.875C5.25001 22.6804 4.59709 23.3333 3.79168 23.3333C2.98626 23.3333 2.33334 22.6804 2.33334 21.875ZM24.2083 8.74998C25.0138 8.74998 25.6667 8.09706 25.6667 7.29165C25.6667 6.48623 25.0138 5.83331 24.2083 5.83331H9.65855C8.85314 5.83331 8.20022 6.48623 8.20022 7.29165C8.20022 8.09706 8.85314 8.74998 9.65855 8.74998H24.2083ZM8.16668 14.5833C8.16668 13.7779 8.81959 13.125 9.62501 13.125H24.2083C25.0138 13.125 25.6667 13.7779 25.6667 14.5833C25.6667 15.3887 25.0138 16.0416 24.2083 16.0416H9.62501C8.81959 16.0416 8.16668 15.3887 8.16668 14.5833ZM8.16668 21.875C8.16668 21.0696 8.81959 20.4166 9.62501 20.4166H24.2083C25.0138 20.4166 25.6667 21.0696 25.6667 21.875C25.6667 22.6804 25.0138 23.3333 24.2083 23.3333H9.62501C8.81959 23.3333 8.16668 22.6804 8.16668 21.875Z" fill="white"/>
</svg>
