<svg width="188" height="124" viewBox="0 0 188 124" fill="none" xmlns="http://www.w3.org/2000/svg">
<path d="M109.402 27.769H122C118.927 11.9446 105.021 0 88.3189 0C69.3626 0 54 15.3831 54 34.3658C54 43.0426 57.2166 50.9611 62.5119 57.0082C64.1309 58.8601 65.9429 60.5336 67.9171 62V25.896C69.5913 21.8578 72.4227 18.4068 76.054 15.9788C79.6853 13.5508 83.9536 12.2545 88.32 12.2537C98.2238 12.2537 106.601 18.7795 109.402 27.769Z" fill="#532DB7"/>
<path d="M109.685 40C107.144 49.5207 98.7481 56.5069 88.7682 56.5069C86.1127 56.5086 83.4795 56.0033 81 55.0162V68.0568C83.5456 68.682 86.1524 68.9985 88.7682 69C105.422 69 119.244 56.4737 122 40H109.685Z" fill="#532DB7"/>
<path d="M89 44C94.5228 44 99 39.5228 99 34C99 28.4772 94.5228 24 89 24C83.4772 24 79 28.4772 79 34C79 39.5228 83.4772 44 89 44Z" fill="#532DB7"/>
<path d="M16.9652 114.571C14.5569 114.571 12.3162 114.161 10.2432 113.341C8.20062 112.491 6.40197 111.306 4.84721 109.788C3.32293 108.27 2.13399 106.508 1.28039 104.504C0.426798 102.47 0 100.283 0 97.9449C0 95.6066 0.426798 93.4354 1.28039 91.4311C2.13399 89.3965 3.32293 87.6352 4.84721 86.1472C6.37149 84.6592 8.15489 83.5053 10.1974 82.6854C12.2704 81.8351 14.5111 81.41 16.9195 81.41C19.4803 81.41 21.7515 81.8199 23.733 82.6398C25.7451 83.4597 27.498 84.5833 28.9918 86.0106L24.1903 90.839C23.3367 89.928 22.3002 89.2143 21.0808 88.6981C19.8918 88.1818 18.5047 87.9237 16.9195 87.9237C15.5172 87.9237 14.2215 88.1667 13.0326 88.6525C11.8741 89.108 10.8681 89.7761 10.0145 90.6568C9.1914 91.5374 8.53596 92.6003 8.04819 93.8453C7.59091 95.0904 7.36227 96.4569 7.36227 97.9449C7.36227 99.4633 7.59091 100.845 8.04819 102.09C8.53596 103.335 9.1914 104.398 10.0145 105.279C10.8681 106.159 11.8741 106.843 13.0326 107.328C14.2215 107.814 15.5172 108.057 16.9195 108.057C18.5657 108.057 19.9985 107.799 21.218 107.283C22.4374 106.767 23.4891 106.053 24.3732 105.142L29.2204 109.97C27.6657 111.398 25.8823 112.521 23.8702 113.341C21.8886 114.161 19.587 114.571 16.9652 114.571Z" fill="#532DB7"/>
<path d="M47.2124 114.07V101.452C47.2124 100.298 46.8466 99.3722 46.1149 98.6737C45.4137 97.9449 44.5144 97.5805 43.4169 97.5805C42.6548 97.5805 41.9841 97.7475 41.4049 98.0816C40.8257 98.3852 40.3684 98.8407 40.033 99.4481C39.6977 100.025 39.53 100.693 39.53 101.452L36.8321 100.131C36.8321 98.4004 37.1979 96.8821 37.9295 95.5763C38.6612 94.2705 39.6825 93.2684 40.9933 92.5699C42.3042 91.8411 43.8132 91.4767 45.5204 91.4767C47.2581 91.4767 48.7824 91.8411 50.0933 92.5699C51.4042 93.2684 52.4102 94.2553 53.1114 95.5307C53.843 96.7758 54.2088 98.2334 54.2088 99.9036V114.07H47.2124ZM32.5336 114.07V81H39.53V114.07H32.5336Z" fill="#532DB7"/>
<path d="M67.9852 114.525C65.9427 114.525 64.1135 114.024 62.4978 113.022C60.9126 112.02 59.6474 110.654 58.7024 108.923C57.7878 107.192 57.3305 105.218 57.3305 103.001C57.3305 100.784 57.7878 98.8104 58.7024 97.0794C59.6474 95.3485 60.9126 93.982 62.4978 92.9799C64.1135 91.9778 65.9427 91.4767 67.9852 91.4767C69.479 91.4767 70.8204 91.7652 72.0093 92.3422C73.2287 92.9191 74.2195 93.7239 74.9817 94.7564C75.7438 95.7585 76.1706 96.9124 76.262 98.2182V107.784C76.1706 109.09 75.7438 110.259 74.9817 111.291C74.25 112.293 73.2745 113.083 72.055 113.66C70.8356 114.237 69.479 114.525 67.9852 114.525ZM69.4028 108.239C70.8966 108.239 72.1008 107.754 73.0153 106.782C73.9299 105.78 74.3872 104.519 74.3872 103.001C74.3872 101.969 74.1738 101.058 73.747 100.268C73.3507 99.4785 72.7714 98.8711 72.0093 98.446C71.2777 97.9905 70.4241 97.7627 69.4485 97.7627C68.473 97.7627 67.6041 97.9905 66.842 98.446C66.1104 98.8711 65.5159 99.4785 65.0586 100.268C64.6318 101.058 64.4184 101.969 64.4184 103.001C64.4184 104.003 64.6318 104.899 65.0586 105.689C65.4854 106.478 66.0799 107.101 66.842 107.556C67.6041 108.012 68.4577 108.239 69.4028 108.239ZM74.1128 114.07V108.103L75.1646 102.728L74.1128 97.3528V91.9322H80.9721V114.07H74.1128Z" fill="#532DB7"/>
<path d="M85.8982 114.07V91.9322H92.8947V114.07H85.8982ZM92.8947 101.908L89.968 99.6303C90.5473 97.0491 91.5228 95.0448 92.8947 93.6176C94.2665 92.1903 96.1719 91.4767 98.6107 91.4767C99.6777 91.4767 100.608 91.6437 101.4 91.9778C102.223 92.2814 102.94 92.7673 103.549 93.4354L99.3881 98.6737C99.0832 98.3397 98.7022 98.0816 98.2449 97.8994C97.7876 97.7172 97.2693 97.6261 96.6901 97.6261C95.5317 97.6261 94.6019 97.9905 93.9007 98.7193C93.23 99.4177 92.8947 100.481 92.8947 101.908Z" fill="#532DB7"/>
<path d="M114.208 124C111.769 124 109.62 123.575 107.76 122.725C105.931 121.905 104.483 120.736 103.416 119.217L107.715 114.935C108.507 115.877 109.391 116.59 110.367 117.076C111.373 117.562 112.577 117.805 113.979 117.805C115.717 117.805 117.074 117.38 118.049 116.53C119.055 115.679 119.558 114.48 119.558 112.931V107.283L120.747 102.454L119.695 97.6261V91.9322H126.555V112.749C126.555 115.026 126.021 117 124.954 118.671C123.887 120.341 122.424 121.647 120.564 122.588C118.705 123.529 116.586 124 114.208 124ZM113.888 113.387C111.845 113.387 110.031 112.901 108.446 111.929C106.861 110.957 105.611 109.636 104.697 107.966C103.782 106.296 103.325 104.444 103.325 102.409C103.325 100.344 103.782 98.4915 104.697 96.8517C105.611 95.1815 106.861 93.8757 108.446 92.9343C110.031 91.9626 111.845 91.4767 113.888 91.4767C115.412 91.4767 116.769 91.7652 117.958 92.3422C119.177 92.8888 120.153 93.6783 120.884 94.7108C121.646 95.7129 122.073 96.8821 122.165 98.2182V106.645C122.073 107.951 121.646 109.12 120.884 110.153C120.153 111.155 119.177 111.944 117.958 112.521C116.738 113.098 115.382 113.387 113.888 113.387ZM115.214 107.192C116.19 107.192 117.028 106.979 117.729 106.554C118.461 106.129 119.009 105.567 119.375 104.869C119.772 104.14 119.97 103.32 119.97 102.409C119.97 101.498 119.772 100.678 119.375 99.9492C119.009 99.2203 118.461 98.6434 117.729 98.2182C117.028 97.7931 116.19 97.5805 115.214 97.5805C114.269 97.5805 113.431 97.7931 112.699 98.2182C111.967 98.6434 111.403 99.2203 111.007 99.9492C110.611 100.678 110.413 101.498 110.413 102.409C110.413 103.259 110.611 104.064 111.007 104.823C111.403 105.552 111.952 106.129 112.653 106.554C113.385 106.979 114.238 107.192 115.214 107.192Z" fill="#532DB7"/>
<path d="M177.3 114.571C174.891 114.571 172.742 114.085 170.852 113.113C168.992 112.111 167.529 110.73 166.462 108.968C165.395 107.207 164.861 105.218 164.861 103.001C164.861 100.784 165.38 98.8104 166.416 97.0794C167.483 95.3181 168.916 93.9364 170.715 92.9343C172.513 91.9322 174.541 91.4311 176.797 91.4311C178.992 91.4311 180.927 91.9018 182.604 92.8432C184.281 93.7846 185.592 95.0904 186.537 96.7606C187.512 98.4308 188 100.344 188 102.5C188 102.895 187.97 103.32 187.909 103.775C187.878 104.201 187.802 104.702 187.68 105.279L168.52 105.324V100.541L184.708 100.496L181.689 102.5C181.659 101.225 181.461 100.177 181.095 99.357C180.729 98.5067 180.18 97.869 179.449 97.4439C178.748 96.9883 177.879 96.7606 176.842 96.7606C175.745 96.7606 174.785 97.0187 173.961 97.535C173.169 98.0208 172.544 98.7193 172.087 99.6303C171.66 100.541 171.446 101.65 171.446 102.956C171.446 104.261 171.675 105.385 172.132 106.326C172.62 107.237 173.291 107.951 174.144 108.467C175.028 108.953 176.065 109.196 177.254 109.196C178.351 109.196 179.342 109.014 180.226 108.649C181.11 108.255 181.888 107.678 182.558 106.918L186.4 110.745C185.302 112.02 183.976 112.977 182.421 113.614C180.866 114.252 179.159 114.571 177.3 114.571Z" fill="#532DB7"/>
<path d="M147.913 89C140.81 89.0013 135.042 94.8799 135.003 102.158H135V102.232V122H139.218V111.995C141.593 114.221 144.694 115.458 147.913 115.463C151.728 115.458 155.345 113.725 157.794 110.729L154.653 107.84C153.006 109.925 150.531 111.14 147.913 111.147C143.108 111.147 139.212 107.156 139.212 102.232C139.212 97.3077 143.108 93.3161 147.913 93.3161C150.604 93.3212 153.142 94.602 154.786 96.7853L158 93.9915C155.554 90.8421 151.841 89.0051 147.913 89Z" fill="#532DB7"/>
<path fill-rule="evenodd" clip-rule="evenodd" d="M147.929 88L147.931 88C152.171 88.0055 156.176 89.9806 158.814 93.3625C159.102 93.7312 159.05 94.2636 158.697 94.5689L155.446 97.3839C155.265 97.5403 155.029 97.6147 154.792 97.5895C154.555 97.5642 154.34 97.4417 154.195 97.2507C152.694 95.2657 150.38 94.1037 147.929 94.0988C143.553 94.0992 139.992 97.7214 139.992 102.207C139.992 106.692 143.553 110.314 147.929 110.315C150.313 110.308 152.57 109.206 154.073 107.31C154.222 107.122 154.442 107.005 154.679 106.985C154.917 106.966 155.152 107.047 155.329 107.209L158.508 110.121C158.851 110.435 158.888 110.967 158.592 111.328C155.951 114.545 152.048 116.408 147.931 116.414H147.928C145.078 116.409 142.314 115.513 139.998 113.871V122.125C139.998 122.608 139.611 123 139.133 123H134.865C134.387 123 134 122.608 134 122.125V102.132C134 102.107 134.001 102.082 134.003 102.057C134.083 94.2828 140.283 88.0014 147.929 88ZM135.731 102.201V121.25H138.267V112.044C138.267 111.697 138.471 111.382 138.786 111.243C139.101 111.103 139.467 111.166 139.72 111.401C141.964 113.496 144.892 114.659 147.93 114.664C151.254 114.659 154.422 113.269 156.711 110.836L154.816 109.101C153.014 110.979 150.537 112.058 147.932 112.065L147.93 112.065C142.582 112.065 138.261 107.644 138.261 102.207C138.261 96.7701 142.582 92.3488 147.93 92.3488H147.931C150.62 92.3538 153.168 93.4989 154.982 95.4813L156.919 93.8046C154.62 91.2341 151.361 89.7546 147.929 89.75C141.227 89.7516 135.771 95.2782 135.734 102.137C135.733 102.158 135.733 102.18 135.731 102.201Z" fill="#532DB7"/>
<path d="M147.058 101C145.918 101 145 101.669 145 102.5C145 103.331 145.918 104 147.058 104H159.793C159.929 103.45 159.999 102.892 160 102.333C159.995 101.887 159.946 101.441 159.855 101H147.058Z" fill="#FFAB11"/>
<path fill-rule="evenodd" clip-rule="evenodd" d="M145 102.5C145 101.033 146.202 100 147.511 100H159.243C159.546 100 159.806 100.24 159.857 100.569C159.947 101.139 159.995 101.714 160 102.291L160 102.299H160C159.999 103.022 159.931 103.743 159.797 104.453C159.737 104.772 159.482 105 159.186 105H147.511C146.202 105 145 103.967 145 102.5ZM147.511 101.371C146.729 101.371 146.247 101.957 146.247 102.5C146.247 103.043 146.729 103.629 147.511 103.629H158.663C158.722 103.188 158.751 102.744 158.752 102.3C158.75 101.99 158.733 101.68 158.702 101.371H147.511Z" fill="#FFAB11"/>
</svg>
