<svg width="40" height="40" viewBox="0 0 40 40" fill="none" xmlns="http://www.w3.org/2000/svg">
<path d="M20.7555 3.3335C9.45747 3.3335 1.76386 14.782 6.02506 25.2454L7.84877 29.7177C7.92841 29.9128 7.94289 30.1283 7.89006 30.3323C7.83722 30.5362 7.7199 30.7176 7.55557 30.8495L3.69899 33.9437C3.5411 34.0704 3.42644 34.243 3.37084 34.4376C3.31524 34.6323 3.32145 34.8394 3.38861 35.0303C3.45576 35.2213 3.58056 35.3867 3.74575 35.5037C3.91094 35.6206 4.10838 35.6835 4.31081 35.6834H19.5964C21.838 35.6837 24.0577 35.2424 26.1287 34.3847C28.1998 33.5271 30.0816 32.2699 31.6667 30.6849C33.2519 29.1 34.5093 27.2183 35.3672 25.1474C36.225 23.0764 36.6666 20.8568 36.6666 18.6152C36.6666 10.1749 29.8252 3.3335 21.3849 3.3335H20.7575H20.7555Z" fill="#1A96F0"/>
</svg>
